<?xml version="1.0" encoding="utf-8"?>
<!-- Generator: Adobe Illustrator 17.1.0, SVG Export Plug-In . SVG Version: 6.00 Build 0)  -->
<!DOCTYPE svg PUBLIC "-//W3C//DTD SVG 1.1//EN" "http://www.w3.org/Graphics/SVG/1.1/DTD/svg11.dtd">
<svg version="1.1" id="Layer_1" xmlns="http://www.w3.org/2000/svg" xmlns:xlink="http://www.w3.org/1999/xlink" x="0px" y="0px"
	 viewBox="0 0 1799.5 419.2" enable-background="new 0 0 1799.5 419.2" xml:space="preserve">
<g opacity="5.000000e-02">
	<path fill="#2D3C49" d="M209.6,74.8c14.3,0,25.9,11.6,25.9,25.9v219.4c0,14.3-11.6,25.9-25.9,25.9H89.9C75.6,346,64,334.4,64,320.1
		V100.7c0-14.3,11.6-25.9,25.9-25.9H209.6 M209.6,60.8H89.9c-22,0-39.9,17.9-39.9,39.9v219.4c0,22,17.9,39.9,39.9,39.9h119.7
		c22,0,39.9-17.9,39.9-39.9V100.7C249.5,78.6,231.6,60.8,209.6,60.8L209.6,60.8z"/>
</g>
<g opacity="5.000000e-02">
	<path fill="#2D3C49" d="M509.6,74.8c14.3,0,25.9,11.6,25.9,25.9v219.4c0,14.3-11.6,25.9-25.9,25.9H389.9
		c-14.3,0-25.9-11.6-25.9-25.9V100.7c0-14.3,11.6-25.9,25.9-25.9H509.6 M509.6,60.8H389.9c-22,0-39.9,17.9-39.9,39.9v219.4
		c0,22,17.9,39.9,39.9,39.9h119.7c22,0,39.9-17.9,39.9-39.9V100.7C549.5,78.6,531.6,60.8,509.6,60.8L509.6,60.8z"/>
</g>
<g opacity="5.000000e-02">
	<path fill="#2D3C49" d="M1109.6,74.8c14.3,0,25.9,11.6,25.9,25.9v219.4c0,14.3-11.6,25.9-25.9,25.9H989.9
		c-14.3,0-25.9-11.6-25.9-25.9V100.7c0-14.3,11.6-25.9,25.9-25.9H1109.6 M1109.6,60.8H989.9c-22,0-39.9,17.9-39.9,39.9v219.4
		c0,22,17.9,39.9,39.9,39.9h119.7c22,0,39.9-17.9,39.9-39.9V100.7C1149.5,78.6,1131.6,60.8,1109.6,60.8L1109.6,60.8z"/>
</g>
<g opacity="5.000000e-02">
	<path fill="#2D3C49" d="M1409.1,74.8c14.3,0,25.9,11.6,25.9,25.9v219.4c0,14.3-11.6,25.9-25.9,25.9h-119.7
		c-14.3,0-25.9-11.6-25.9-25.9V100.7c0-14.3,11.6-25.9,25.9-25.9H1409.1 M1409.1,60.8h-119.7c-22,0-39.9,17.9-39.9,39.9v219.4
		c0,22,17.9,39.9,39.9,39.9h119.7c22,0,39.9-17.9,39.9-39.9V100.7C1449,78.6,1431.1,60.8,1409.1,60.8L1409.1,60.8z"/>
</g>
<g opacity="5.000000e-02">
	<path fill="#2D3C49" d="M1709.6,74.8c14.3,0,25.9,11.6,25.9,25.9v219.4c0,14.3-11.6,25.9-25.9,25.9h-119.7
		c-14.3,0-25.9-11.6-25.9-25.9V100.7c0-14.3,11.6-25.9,25.9-25.9H1709.6 M1709.6,60.8h-119.7c-22,0-39.9,17.9-39.9,39.9v219.4
		c0,22,17.9,39.9,39.9,39.9h119.7c22,0,39.9-17.9,39.9-39.9V100.7C1749.5,78.6,1731.6,60.8,1709.6,60.8L1709.6,60.8z"/>
</g>
<g opacity="5.000000e-02">
	<path fill="#2D3C49" d="M821.6,44c18.7,0,33.9,15.2,33.9,33.9v263.4c0,18.7-15.2,33.9-33.9,33.9H677.9c-18.7,0-33.9-15.2-33.9-33.9
		V77.9c0-18.7,15.2-33.9,33.9-33.9H821.6 M821.6,30H677.9C651.4,30,630,51.4,630,77.9v263.4c0,26.5,21.4,47.9,47.9,47.9h143.7
		c26.5,0,47.9-21.4,47.9-47.9V77.9C869.5,51.4,848.1,30,821.6,30L821.6,30z"/>
</g>
</svg>
