<svg xmlns="http://www.w3.org/2000/svg" xmlns:xlink="http://www.w3.org/1999/xlink" viewBox="0 0 210 300" enable-background="new 0 0 210 300"><path stroke="#2D3C49" stroke-width="12" stroke-miterlimit="10" fill="none" d="M90 120l40-40M90 180l40 40"/><circle fill="#2D3C49" cx="160" cy="50" r="50"/><circle fill="#3F7A9E" cx="160" cy="50" r="43.1"/><path fill="#fff" d="M171.3 58.1l5.2 1.3-8.4-16 4.5 1.5-12.6-21.3-12.6 21.3 4.5-1.5-8.4 16 5.2-1.3-7.6 13.3h15.1v5h7.6v-5h15.1z"/><circle fill="#2D3C49" cx="160" cy="250" r="50"/><circle fill="#3F7A9E" cx="160.3" cy="250" r="43.1"/><defs><path id="a" d="M176.8 257.2c-5.9 10.2-19 13.8-29.2 7.9s-13.8-19-7.9-29.2 19-13.8 29.2-7.9c10.3 5.9 13.8 19 7.9 29.2z"/></defs><clipPath id="b"><use xlink:href="#a" overflow="visible"/></clipPath><g clip-path="url(#b)" stroke="#fff" stroke-width="3.126" stroke-miterlimit="10" fill="none"><path d="M171 224.3l-24.6 42.8M173.6 225.8s-18.9 1.4-26.4 14.4c-7.5 13.1 1.8 28.4 1.8 28.4M169.1 223.2s7.5 17.3.2 30-24.8 12.8-24.8 12.8"/></g><g clip-path="url(#b)" stroke="#fff" stroke-width="3.126" stroke-miterlimit="10" fill="none"><path d="M145.5 222.9s8.1 8.7 18 14.4c9.9 5.7 21.9 8.6 21.9 8.6M138.4 235.1l40 23M131.4 247.4s9.6 1.4 21.6 8.3c12.1 6.9 18.3 14.6 18.3 14.6"/></g><use xlink:href="#a" overflow="visible" stroke="#fff" stroke-width="3.126" stroke-miterlimit="10" fill="none"/><path stroke="#fff" stroke-width="1.563" stroke-miterlimit="10" d="M171 223.6l-25.4 45.6c12.6 7 28.5 2.5 35.5-10.1 7.1-12.6 2.5-28.5-10.1-35.5z" fill="none"/><circle fill="#fff" cx="172.1" cy="221.7" r="1.9"/><circle fill="#fff" cx="144.4" cy="270.9" r="2"/><path fill="#fff" d="M155.7 272.4h3.3v4.7h-3.3zM168.2 279.7c0 .3-.2.5-.5.5h-20.6c-.3 0-.5-.2-.5-.5v-2.6c0-.3.2-.5.5-.5h20.6c.3 0 .5.2.5.5v2.6z"/><path fill="#2D3C49" d="M120 150c0 33.1-26.9 60-60 60s-60-26.9-60-60 26.9-60 60-60 60 26.9 60 60z"/><circle fill="#3F7A9E" cx="60" cy="150" r="51.8"/><path fill="#fff" d="M60 119.7c16.7 0 30.3 13.6 30.3 30.3 0 16.7-13.6 30.3-30.3 30.3s-30.3-13.6-30.3-30.3c0-16.7 13.6-30.3 30.3-30.3m0-5.7c-19.9 0-36 16.1-36 36s16.1 36 36 36 36-16.1 36-36-16.1-36-36-36z"/><circle fill-rule="evenodd" clip-rule="evenodd" fill="#fff" cx="47.7" cy="137.7" r="4.7"/><circle fill-rule="evenodd" clip-rule="evenodd" fill="#fff" cx="72.3" cy="137.7" r="4.7"/><path fill-rule="evenodd" clip-rule="evenodd" fill="#fff" d="M79.8 153.4c0 10.9-8.8 19.8-19.8 19.8s-19.9-8.8-19.8-19.8h39.6z"/></svg>