<svg xmlns="http://www.w3.org/2000/svg" viewBox="0 0 140 242.5" enable-background="new 0 0 140 242.5"><path fill="#11747C" d="M118 0h-76c-12.2 0-22 9.8-22 22v76c0 12.2 9.8 22 22 22h48l30 30v-30.1c11.2-1 20-10.4 20-21.9v-76c0-12.2-9.8-22-22-22zM16.5 130h57c9.1 0 16.5 7.4 16.5 16.5v57c0 9.1-7.4 16.5-16.5 16.5h-36l-22.5 22.5v-22.6c-8.4-.8-15-7.8-15-16.4v-57c0-9.1 7.4-16.5 16.5-16.5z"/><circle fill="#2D3C49" cx="80" cy="60" r="42.7"/><circle fill="#7AC1E5" cx="80" cy="60" r="34.4"/><g fill="#fff"><path d="M92.1 83.5c.1-.5.2-1.1.3-1.7.1-1.3 0-2.5-.4-3.7-.3-1-1-1.9-1.2-3-.1-1 .5-2.5.7-3.4.3-1.4.6-4.1.2-4.7-.5-.5-1.1-.7-1.5 0-.4.7-.6 2.8-.8 4.2-.2 1.5-1.2 2.3-1.2 2.3-.9 0-.7-1.7-.8-3-.1-1.2-.5-3.9-.7-5.3-.2-1.4-.9-2.4-1.5-2.4-.7 0-.8.5-1 1.1-.3 1 .3 3.1.5 4.3.2 1.1.2 4.4-.2 4.5-.4.1-1-1.1-1.2-1.7-.2-.6-1.4-4.6-1.6-5.3-.5-1.9-1.2-2.6-1.2-2.6-.7-.7-1.4.1-1.7.7-.3 1 .1 1.9.4 2.8.3.8.6 1.7.8 2.5.3 1.2 1.9 5.1 1.2 5.2-.6.2-1.5-1.2-1.9-2.3-.5-1-2.1-3.5-2.5-4.4-.3-.8-1.1-1.9-2-1.4-.6.3-.5 1-.5 1.5.1 1.1 1.3 2.8 1.7 3.7.4.8 1.6 3.5 2.2 5 .7 1.5 1.5 4.1 1.2 4.5-.3.4-.6.4-1.2.5-.6.1-2.1-.7-3.7-1.3-1.6-.6-2.7-.1-3.2.5-.5.7 2.4 1.6 2.4 1.6l1.4 1c1.4 1 1.7 1.3 3 2.5 1.4 1.2 5.1 2.7 5.9 3.2.3.2.9 2 1.8 4.8 3.1-.5 6-1.4 8.7-2.7l-3-6.5c.1.2.6-.9.6-1zM54.8 53.2c.3.5.6 1 .9 1.4.8 1 1.7 1.9 2.8 2.5.9.5 2.1.7 2.9 1.4.8.7 1.4 2.1 1.8 2.9.8 1.3 2.4 3.4 3.1 3.5.7.1 1.3-.2 1.1-1-.2-.8-1.5-2.4-2.3-3.6-.8-1.2-.7-2.4-.7-2.4.7-.6 1.7.8 2.6 1.6.9.8 3 2.5 4.1 3.4 1.1.8 2.3 1.1 2.7.7.5-.5.3-.9 0-1.5-.5-1-2.4-2.1-3.3-2.8-.9-.7-3.2-3.1-2.9-3.4.2-.4 1.5.1 2.1.4l4.8 2.7c1.7 1 2.7 1.1 2.7 1.1 1 .1 1-1 .7-1.7-.4-.9-1.4-1.3-2.2-1.8-.8-.4-1.6-.8-2.3-1.3-1-.6-4.8-2.4-4.5-3 .4-.6 1.9-.1 3 .3s4 1.1 4.8 1.5c.7.3 2.1.7 2.5-.4.2-.6-.3-1.1-.7-1.4-.8-.8-2.9-1.2-3.7-1.5-.9-.3-3.5-1.5-5.1-2.2-1.5-.7-3.9-1.9-3.9-2.4s.2-.7.5-1.1c.4-.5 2-.9 3.6-1.6 1.6-.7 2.1-1.8 2-2.6-.1-.8-2.9.5-2.9.5l-1.7.2c-1.7.2-2.1.2-3.9.3-1.8.1-5.6 1.5-6.5 1.7-.3.1-2.6-1.1-5.4-2.7-1.7 2.5-3.1 5.3-4.1 8.2l7 2.8c0 .1.4 1.3.4 1.3zM102.5 43.6c-.5-.2-1.1-.3-1.6-.4-1.3-.3-2.5-.2-3.8 0-1 .2-2 .9-3.1.9-1 0-2.4-.7-3.3-1-1.4-.4-4.1-1-4.6-.5-.6.4-.8 1-.1 1.5.7.5 2.7.8 4.1 1.1 1.4.4 2.2 1.3 2.2 1.3-.1.9-1.8.6-3 .6s-3.9.1-5.3.3c-1.4.1-2.5.7-2.5 1.3 0 .7.4.9 1 1.1 1 .4 3.1-.1 4.3-.2 1.2-.1 4.4.2 4.5.6.1.4-1.2 1-1.8 1.1l-5.4 1.2c-1.9.4-2.7 1-2.7 1-.8.6-.1 1.4.6 1.7.9.4 1.9.1 2.8-.1l2.6-.6c1.2-.2 5.2-1.4 5.3-.8.1.7-1.4 1.3-2.4 1.7-1.1.4-3.7 1.8-4.6 2.1-.8.2-2 .9-1.6 1.9.2.6.9.6 1.5.6 1.1 0 2.9-1 3.8-1.4.8-.4 3.6-1.3 5.2-1.8s4.2-1.2 4.5-.8c.4.3.3.6.4 1.2 0 .6-.9 2-1.6 3.6-.7 1.6-.4 2.7.3 3.2.6.5 1.8-2.3 1.8-2.3l1.1-1.3c1.1-1.3 1.5-1.5 2.7-2.8 1.3-1.3 3.1-4.8 3.7-5.6.2-.3 2.5-.8 5.7-1.6-.9-3-2.1-5.8-3.7-8.4l-5.8 2.1c0 .1-1.1-.4-1.2-.5z"/></g><path fill="#fff" d="M48.4 198.5c-1.3 1.4-3.5 1.4-4.8 0l-21.4-22.2c-5.4-5.5-5.4-14.3 0-19.8s14.3-5.5 19.7 0l4.1 5 4.1-5c5.4-5.5 14.3-5.5 19.7 0 5.4 5.5 5.4 14.3 0 19.8l-21.4 22.2z"/></svg>