<svg xmlns="http://www.w3.org/2000/svg" viewBox="0 0 183.8 131.1" enable-background="new 0 0 183.8 131.1"><g stroke="#7AC1E5" stroke-width="5" stroke-miterlimit="10" fill="none"><path d="M6 7h174v121.1h-174zM6 87.7h173.9M6 47.3h173.9M136.4 7v121.1M93 7v121.1M49.5 7v121.1"/></g><path stroke="#3F7A9E" stroke-width="8.323" stroke-linecap="round" stroke-linejoin="round" stroke-miterlimit="10" fill="none" d="M6.5 125.3l41.9-76.4 42.1 44.4 85.2-85.2"/><path fill="#2D3C49" d="M56.2 48.9c0 4-3.3 7.3-7.3 7.3s-7.3-3.3-7.3-7.3 3.3-7.3 7.3-7.3 7.3 3.3 7.3 7.3zM98.8 92.3c0 4-3.3 7.3-7.3 7.3s-7.3-3.3-7.3-7.3 3.3-7.3 7.3-7.3 7.3 3.3 7.3 7.3zM183.8 7.3c0 4-3.3 7.3-7.3 7.3s-7.3-3.3-7.3-7.3 3.3-7.3 7.3-7.3 7.3 3.3 7.3 7.3zM14.5 123.8c0 4-3.3 7.3-7.3 7.3s-7.3-3.3-7.3-7.3 3.3-7.3 7.3-7.3c4.1 0 7.3 3.3 7.3 7.3z"/></svg>