<svg xmlns="http://www.w3.org/2000/svg" viewBox="0 0 1799.5 419.2" enable-background="new 0 0 1799.5 419.2"><path fill="#2D3C49" d="M209.6 74.8c14.3 0 25.9 11.6 25.9 25.9v219.4c0 14.3-11.6 25.9-25.9 25.9h-119.7c-14.3 0-25.9-11.6-25.9-25.9v-219.4c0-14.3 11.6-25.9 25.9-25.9h119.7m0-14h-119.7c-22 0-39.9 17.9-39.9 39.9v219.4c0 22 17.9 39.9 39.9 39.9h119.7c22 0 39.9-17.9 39.9-39.9v-219.4c0-22.1-17.9-39.9-39.9-39.9zm300 14c14.3 0 25.9 11.6 25.9 25.9v219.4c0 14.3-11.6 25.9-25.9 25.9h-119.7c-14.3 0-25.9-11.6-25.9-25.9v-219.4c0-14.3 11.6-25.9 25.9-25.9h119.7m0-14h-119.7c-22 0-39.9 17.9-39.9 39.9v219.4c0 22 17.9 39.9 39.9 39.9h119.7c22 0 39.9-17.9 39.9-39.9v-219.4c0-22.1-17.9-39.9-39.9-39.9zm600 14c14.3 0 25.9 11.6 25.9 25.9v219.4c0 14.3-11.6 25.9-25.9 25.9h-119.7c-14.3 0-25.9-11.6-25.9-25.9v-219.4c0-14.3 11.6-25.9 25.9-25.9h119.7m0-14h-119.7c-22 0-39.9 17.9-39.9 39.9v219.4c0 22 17.9 39.9 39.9 39.9h119.7c22 0 39.9-17.9 39.9-39.9v-219.4c0-22.1-17.9-39.9-39.9-39.9zm299.5 14c14.3 0 25.9 11.6 25.9 25.9v219.4c0 14.3-11.6 25.9-25.9 25.9h-119.7c-14.3 0-25.9-11.6-25.9-25.9v-219.4c0-14.3 11.6-25.9 25.9-25.9h119.7m0-14h-119.7c-22 0-39.9 17.9-39.9 39.9v219.4c0 22 17.9 39.9 39.9 39.9h119.7c22 0 39.9-17.9 39.9-39.9v-219.4c0-22.1-17.9-39.9-39.9-39.9zm300.5 14c14.3 0 25.9 11.6 25.9 25.9v219.4c0 14.3-11.6 25.9-25.9 25.9h-119.7c-14.3 0-25.9-11.6-25.9-25.9v-219.4c0-14.3 11.6-25.9 25.9-25.9h119.7m0-14h-119.7c-22 0-39.9 17.9-39.9 39.9v219.4c0 22 17.9 39.9 39.9 39.9h119.7c22 0 39.9-17.9 39.9-39.9v-219.4c0-22.1-17.9-39.9-39.9-39.9zm-888-16.8c18.7 0 33.9 15.2 33.9 33.9v263.4c0 18.7-15.2 33.9-33.9 33.9h-143.7c-18.7 0-33.9-15.2-33.9-33.9v-263.4c0-18.7 15.2-33.9 33.9-33.9h143.7m0-14h-143.7c-26.5 0-47.9 21.4-47.9 47.9v263.4c0 26.5 21.4 47.9 47.9 47.9h143.7c26.5 0 47.9-21.4 47.9-47.9v-263.4c0-26.5-21.4-47.9-47.9-47.9z" opacity=".05"/></svg>