<svg xmlns="http://www.w3.org/2000/svg" viewBox="0 0 100.7 152.7" enable-background="new 0 0 100.7 152.7"><circle fill="#7AC1E5" cx="49.1" cy="50.3" r="27.8"/><circle fill="#7AC1E5" cx="64.7" cy="123.8" r="17.3"/><path fill="#2D3C49" d="M97.9 50.4l-10.1-2.2c-.2-3.1-.7-6.2-1.7-9.1l8.6-5.6c1.6-1 2.1-3.2 1-4.8l-7.1-10.9c-1-1.6-3.2-2.1-4.8-1l-8.6 5.6c-2.3-2-4.8-3.8-7.6-5.3l2.3-10.1c.4-1.9-.8-3.7-2.7-4.1l-12.7-2.8c-1.9-.4-3.7.8-4.1 2.7l-2.2 10.1c-3.1.2-6.2.7-9.1 1.7l-5.6-8.6c-1-1.6-3.2-2.1-4.8-1l-10.9 7.1c-1.6 1-2.1 3.2-1 4.8l5.6 8.6c-2 2.3-3.8 4.8-5.3 7.6l-10.1-2.4c-1.9-.4-3.7.8-4.1 2.7l-2.8 12.7c-.4 1.9.8 3.7 2.7 4.1l10.1 2.2c.2 3.1.7 6.2 1.7 9.1l-8.6 5.6c-1.6 1-2.1 3.2-1 4.8l7.1 10.9c1 1.6 3.2 2.1 4.8 1l8.6-5.6c2.3 2 4.8 3.8 7.6 5.3l-2.2 10.1c-.4 1.9.8 3.7 2.7 4.1l12.7 2.8c1.9.4 3.7-.8 4.1-2.7l2.2-10.1c3.1-.2 6.2-.7 9.1-1.7l5.6 8.6c1 1.6 3.2 2.1 4.8 1l10.9-7.1c1.6-1 2.1-3.2 1-4.8l-5.6-8.6c2-2.3 3.8-4.8 5.3-7.6l10.1 2.2c1.9.4 3.7-.8 4.1-2.7l2.8-12.7c.3-1.7-.9-3.5-2.8-3.9zm-52.5 22.6c-12.5-2.7-20.5-15-17.8-27.6s15.1-20.5 27.6-17.8 20.5 15.1 17.8 27.6-15 20.5-27.6 17.8zm44.5 61.1l-4.9-3.5c.6-1.7 1-3.5 1.2-5.3l6-1c1.1-.2 1.9-1.2 1.7-2.4l-1.3-7.6c-.2-1.1-1.2-1.9-2.4-1.7l-6 1c-.8-1.6-1.7-3.2-2.9-4.6l3.5-4.9c.7-.9.4-2.2-.5-2.9l-6.2-4.4c-.9-.7-2.2-.4-2.9.5l-3.5 4.9c-1.7-.6-3.5-1-5.3-1.2l-1-6c-.2-1.1-1.2-1.9-2.4-1.7l-7.6 1.3c-1.1.2-1.9 1.2-1.7 2.4l1 6c-1.6.8-3.2 1.7-4.6 2.9l-4.9-3.5c-.9-.7-2.2-.4-2.9.5l-4.4 6.2c-.7.9-.4 2.2.5 2.9l4.9 3.5c-.6 1.7-1 3.5-1.2 5.3l-6 1c-1.1.2-1.9 1.2-1.7 2.4l1.3 7.6c.2 1.1 1.2 1.9 2.4 1.7l6-1c.8 1.6 1.7 3.2 2.9 4.6l-3.5 4.9c-.7.9-.4 2.2.5 2.9l6.2 4.4c.9.7 2.2.4 2.9-.5l3.5-4.9c1.7.6 3.5 1 5.3 1.2l1 6c.2 1.1 1.2 1.9 2.4 1.7l7.6-1.3c1.1-.2 1.9-1.2 1.7-2.4l-1-6c1.6-.8 3.2-1.7 4.6-2.9l4.9 3.5c.9.7 2.2.4 2.9-.5l4.4-6.2c.6-.9.4-2.2-.5-2.9zm-33.6.1c-6.2-4.4-7.6-12.9-3.2-19 4.4-6.2 12.9-7.6 19-3.2 6.2 4.4 7.6 12.9 3.2 19-4.4 6.1-12.9 7.6-19 3.2z"/></svg>