<svg xmlns="http://www.w3.org/2000/svg" viewBox="0 0 112.5 100" enable-background="new 0 0 112.5 100"><path fill="#7AC1E5" d="M33.3 11.3h48.8v50h-48.8z"/><path fill="#68879A" d="M25.1 56.4s0-.1-.1-.1c-.4.1-.1.1.1.1zm62.4-.1s0 .1-.1.1c.3 0 .5 0 .1-.1z"/><path fill="#3F7A9E" d="M106.3 12.5h-18.8v-6.2c0-3.5-2.8-6.3-6.3-6.3h-50c-3.4 0-6.2 2.8-6.2 6.3v6.3h-18.7c-3.5 0-6.3 2.8-6.3 6.3v12.5c0 10 6.7 25 25 25 .4 0 .2.1.1.1 4 9.4 14.8 15.9 25 18v13.1h-6.3c-6.9 0-12.5 5.6-12.5 12.5h50c0-6.9-5.6-12.5-12.5-12.5h-6.3v-13.2c10.2-2.1 21-8.6 25-18-.2 0-.4-.1.1-.1 18.3 0 25-15 25-25v-12.5c-.1-3.5-2.9-6.3-6.3-6.3zm-81.3 31.3c-11.4 0-12.5-9.6-12.5-12.5v-6.3h12.5v18.8zm44.6 8.1l-12.8-10-12.8 10 5.6-15.3-13.5-9.1 16.2.6 4.5-15.6 4.5 15.6 16.2-.6-13.5 9.1 5.6 15.3zm30.4-20.6c0 2.1-.6 12.5-12.5 12.5v-18.8h12.5v6.3z"/></svg>