<svg xmlns="http://www.w3.org/2000/svg" xmlns:xlink="http://www.w3.org/1999/xlink" viewBox="0 0 360 250" enable-background="new 0 0 360 250"><path fill="#B1B1B1" d="M350.8 217.1c0 1.6-1.3 2.9-2.9 2.9h-294.8c-1.6 0-2.9-1.3-2.9-2.9v-214.2c0-1.6 1.3-2.9 2.9-2.9h294.8c1.6 0 2.9 1.3 2.9 2.9v214.2z"/><path fill="#fff" d="M345.3 214.2c0 .6-.5 1.1-1.1 1.1h-287.4c-.6 0-1.1-.5-1.1-1.1v-187.8c0-.6.5-1.1 1.1-1.1h287.4c.6 0 1.1.5 1.1 1.1v187.8z"/><defs><path id="a" d="M55.7 45.2h289.6v92.2h-289.6z"/></defs><clipPath id="b"><use xlink:href="#a" overflow="visible"/></clipPath><linearGradient id="c" gradientUnits="userSpaceOnUse" x1="3333.699" y1="-8298.929" x2="3333.699" y2="-8606.122" gradientTransform="matrix(-.3 0 0 .3 1200.6 2627)"><stop offset="0" stop-color="#F3FAFD"/><stop offset=".377" stop-color="#EDF7F8"/><stop offset=".911" stop-color="#DAEFED"/><stop offset="1" stop-color="#D6EDEB"/></linearGradient><path clip-path="url(#b)" fill="url(#c)" d="M55.7 45.2h289.6v92.1h-289.6z"/><path opacity=".2" clip-path="url(#b)" fill="#A4DCE9" enable-background="new" d="M75 92.9h-7.4c2.7-9.6 16-6.8 16-6.8 2.1-2.1 5.6-7.5 17.4-8.2l15.7 8.3c8.2-.9 12.7 6.7 12.7 6.7h-54.4z"/><path clip-path="url(#b)" fill="#fff" d="M84.5 91.4h-6.9c2.5-9 14.9-6.4 14.9-6.4 1.9-1.9 5.2-7 16.2-7.6 11-.6 14.6 7.7 14.6 7.7 7.7-.8 11.8 6.2 11.8 6.2l-50.6.1z"/><g clip-path="url(#b)"><linearGradient id="d" gradientUnits="userSpaceOnUse" x1="3332.09" y1="-8271.183" x2="3332.09" y2="-8408.198" gradientTransform="matrix(-.3 0 0 .3 1200.6 2627)"><stop offset="0" stop-color="#A6C454"/><stop offset=".275" stop-color="#B2CC63"/><stop offset=".675" stop-color="#C0D774"/><stop offset="1" stop-color="#C4DA79"/></linearGradient><path fill="url(#d)" d="M53.5 145.6h294.9v-29.9c-85.3-17.4-181.6-13.4-294.9 3.5v26.4z"/></g><g clip-path="url(#b)"><path opacity=".2" fill="#A4DCE9" enable-background="new" d="M264.6 73.4c.9-3.3 5.5-2.3 5.5-2.3.7-.7 1.9-2.6 5.9-2.8 4-.2 5.4 2.9 5.4 2.9 2.8-.3 4.3 2.3 4.3 2.3h-21.1z"/><path fill="#fff" d="M266.5 72.7c.9-3.3 5.5-2.3 5.5-2.3.7-.7 1.9-2.6 5.9-2.8 4-.2 5.4 2.9 5.4 2.9 2.8-.3 4.3 2.3 4.3 2.3h-21.1z"/></g><g clip-path="url(#b)"><path opacity=".2" fill="#A4DCE9" enable-background="new" d="M280.1 98.2c1.8-6.7 11.1-4.7 11.1-4.7 1.4-1.4 3.8-5.2 12-5.6 8.2-.4 10.8 5.7 10.8 5.7 5.7-.6 8.8 4.6 8.8 4.6h-42.7z"/><path fill="#fff" d="M283.9 96.9c1.8-6.7 11.1-4.7 11.1-4.7 1.4-1.4 3.8-5.2 12-5.6 8.2-.5 10.8 5.7 10.8 5.7 5.7-.6 8.8 4.6 8.8 4.6h-42.7z"/></g><path fill="#11C1EB" d="M345.3 45.5h-289.6v-20.5c0-.6.5-1.1 1.1-1.1h287.4c.6 0 1.1.5 1.1 1.1v20.5z"/><path opacity=".4" fill="#A4DCE9" enable-background="new" d="M74.7 29.7v-.1l-.1-.1c-1.7-.9-3.5-1.4-5.5-1.4-3.2 0-5.6 1.3-5.7 1.3l-.1.1v.1c-.9 9.3 5.6 11.2 5.7 11.2h.2c7.1-2.7 5.5-11 5.5-11.1z"/><path fill="#A4DCE9" d="M69 28.9c-2.9 0-5 1.2-5 1.2-.2 1.7-.1 3.1.2 4.3h4.8v-5.5z"/><path fill="#0A7B9F" d="M73.9 34.4c.5-2.3.1-4.2.1-4.2-1.7-1-3.5-1.3-5.1-1.3v5.5h5zm-9.7 0c1 4.4 4.3 5.6 4.8 5.7v-5.7h-4.8z"/><path fill="#A4DCE9" d="M69 34.4v5.7h.1c3.2-1.2 4.4-3.6 4.9-5.7h-5z"/><path fill="#fff" d="M69 40.3c-.1 0-6.1-1.8-5.3-10.3v-.1l.1-.1c.1-.1 2.3-1.2 5.3-1.2 1.8 0 3.5.4 5 1.3l.1.1v.1c0 .1 1.5 7.7-5.2 10.2zm-4.8-10.1c-.7 7.6 4.2 9.5 4.8 9.7 5.8-2.3 4.9-8.7 4.8-9.6-1.4-.8-3-1.2-4.7-1.2-2.5 0-4.5.9-4.9 1.1zm4.8 7.3c-.9 0-1.6-.3-2.1-.9-.3-.4-.4-.9-.4-1.5v-2.7h-.7v-1.1h2.7v1.1h-.7v2.6c0 .3.1.6.2.8.2.3.6.5 1 .5.5 0 .9-.2 1-.5.1-.2.2-.5.2-.8v-2.7h-.7v-1.1h2.7v1.1h-.7v2.7c0 .6-.2 1.1-.4 1.5-.5.7-1.2 1-2.1 1z"/><path fill="#01506F" d="M72 31.5v.6h-.7v3c0 .5-.1 1-.4 1.4-.4.6-1.1.8-1.9.8-.8 0-1.5-.3-1.9-.8-.3-.4-.4-.8-.4-1.4v-3h-.7v-.6h2.3v.6h-.7v3c0 .4.1.7.2.9.2.4.7.6 1.2.6s1-.2 1.2-.6c.1-.2.2-.6.2-.9v-2.9h-.7v-.6h2.3m.4-.6h-3v1.5h.6v2.5c0 .3-.1.5-.2.7-.1.2-.5.4-.8.4-.4 0-.7-.1-.9-.4-.1-.1-.1-.4-.1-.7v-2.5h.7v-1.5h-3.2v1.5h.8v2.5c0 .7.2 1.2.5 1.7.5.6 1.3 1 2.2 1 1 0 1.8-.4 2.2-1 .3-.4.5-1 .5-1.7v-2.5h.7v-1.5z"/><path stroke="#02ACD7" stroke-width="1.079" stroke-miterlimit="10" d="M345.3 45.5h-289.6" fill="none"/><path d="M82.1 32.9c.7 0 1.6.3 1.6.8v.5h-.5v-.3c0-.3-.5-.5-1-.5-1 0-1.6.7-1.6 1.6 0 1 .6 1.7 1.6 1.7.4 0 1.1-.1 1.1-.5v-.5h-.8v-.5h1.4v1.2c0 .6-1.1.9-1.7.9-1.3 0-2.2-.9-2.2-2.2s.8-2.2 2.1-2.2zm2.3 3.8h.5v-2.1h-.5v-.4h1.1v2.5h.5v.4h-1.5v-.4zm.4-3.8h.6v.6h-.6v-.6zm1.3 1.2h1.3v.4h-.4l.6 1.7c0 .1.1.3.1.3s0-.1.1-.3l.6-1.7h-.4v-.4h1.3v.4h-.3l-1 2.5h-.6l-1-2.5h-.4v-.4zm5.1-.1c.8 0 1.3.6 1.3 1.4v.2h-2.2c0 .7.5 1 1 1l.9-.3.2.4s-.4.4-1.2.4c-.9 0-1.6-.7-1.6-1.6.1-.8.7-1.5 1.6-1.5zm.7 1.3c0-.5-.3-.8-.7-.8-.4 0-.8.3-.9.8h1.6zm3.3-2.4c.7 0 1.6.3 1.6.8v.5h-.5v-.3c0-.3-.5-.5-1-.5-1 0-1.6.7-1.6 1.6 0 1 .6 1.7 1.6 1.7.4 0 1.1-.1 1.1-.5v-.5h-.8v-.5h1.4v1.2c0 .6-1.1.9-1.7.9-1.3 0-2.2-.9-2.2-2.2s.8-2.2 2.1-2.2zm3.9 2.4h.2v-.1c0-.5-.3-.6-.6-.6-.5 0-.9.3-.9.3l-.2-.4s.4-.4 1.1-.4c.8 0 1.2.4 1.2 1.1v1.3c0 .1 0 .1.1.1h.3v.4h-.6c-.3 0-.4-.1-.4-.3v-.2s-.3.6-1 .6c-.5 0-1-.3-1-.9.1-.9 1.3-.9 1.8-.9zm-.6 1.4c.5 0 .8-.5.8-1v-.1h-.1c-.3 0-1.2 0-1.2.6 0 .3.2.5.5.5zm2.5-3.3h-.5v-.4h1.1v1.6s.3-.5 1-.5c.8 0 1.3.6 1.3 1.6 0 .9-.6 1.6-1.4 1.6-.7 0-.9-.5-.9-.5v.4h-.6v-3.8zm1.4 3.3c.5 0 .9-.4.9-1.1 0-.6-.3-1.1-.8-1.1-.4 0-.9.3-.9 1.1-.1.5.2 1.1.8 1.1zm3.8-3.3h-.5v-.5h1.6v.5h-.5v2.1c0 .3.1.5.2.7.2.3.5.4.9.4s.7-.2.9-.4c.1-.2.2-.4.2-.7v-2.1h-.5v-.5h1.6v.5h-.5v2.2c0 .4-.1.8-.3 1-.3.4-.8.6-1.4.6-.6 0-1.1-.2-1.4-.6-.2-.3-.3-.6-.3-1v-2.2zm4.2 3.3h.5v-2c0-.1 0-.1-.1-.1h-.4v-.4h.7c.3 0 .4.1.4.3v.4c.1-.2.4-.7 1.2-.7.7 0 1 .4 1 1.1v1.5h.5v.4h-1v-1.8c0-.4-.1-.7-.6-.7-.6 0-1 .5-1 1.1v.9h.5v.4h-1.5v-.4zm4 0h.5v-2.1h-.5v-.4h1.1v2.5h.5v.4h-1.5v-.4zm.5-3.8h.6v.6h-.6v-.6zm1.2 1.2h1.3v.4h-.4l.6 1.7c0 .1.1.3.1.3s0-.1.1-.3l.6-1.7h-.4v-.4h1.3v.4h-.4l-1 2.5h-.6l-1-2.5h-.4v-.4zm5.1-.1c.8 0 1.3.6 1.3 1.4v.2h-2.2c0 .7.5 1 1 1l.9-.3.2.4s-.4.4-1.2.4c-.9 0-1.6-.7-1.6-1.6.1-.8.8-1.5 1.6-1.5zm.7 1.3c0-.5-.3-.8-.7-.8-.4 0-.8.3-.9.8h1.6zm1.1 1.4h.4v-2c0-.1 0-.1-.1-.1h-.3v-.4h.7c.3 0 .4.1.4.3v.4c.1-.4.5-.8.9-.8h.1v.6h-.2c-.6 0-.9.6-.9 1.2v.8h.4v.4h-1.4v-.4zm2.5-.6h.5v.2c0 .3.4.4.7.4.3 0 .6-.1.6-.4 0-.3-.3-.4-.7-.5-.4-.2-.9-.4-.9-.9 0-.6.6-.8 1.1-.8.4 0 1 .2 1 .6v.3h-.5v-.2c0-.2-.2-.3-.5-.3s-.5.1-.5.4c0 .3.3.4.7.5.5.2 1 .3 1 .9 0 .6-.5.9-1.2.9-.5 0-1.2-.2-1.2-.7v-.4zm2.8.6h.5v-2.1h-.5v-.4h1.1v2.5h.5v.4h-1.5v-.4zm.5-3.8h.6v.6h-.6v-.6zm1.8 1.7h-.5v-.4h.5v-.8h.6v.8h.7v.4h-.7v1.4c0 .6.4.7.6.7h.1v.5h-.2c-.4 0-1.1-.1-1.1-1.1v-1.5zm2.3 3.3c.3 0 .4-.2.5-.4l.1-.3-1-2.6h-.4v-.4h1.4v.4h-.4l.7 1.8c0 .1.1.3.1.3s0-.1.1-.3l.7-1.8h-.4v-.4h1.3v.4h-.4l-1.2 3c-.2.5-.6.8-1 .8l-.6-.2.2-.4c-.1-.1.1.1.3.1z" fill="#fff"/><circle fill="#D0D2D3" cx="59.8" cy="13.1" r="2.6"/><circle fill="#D0D2D3" cx="69.6" cy="13.1" r="2.6"/><circle fill="#D0D2D3" cx="79.1" cy="13.1" r="2.6"/><path fill="#fff" d="M326.7 16.2c0 .6-.5 1.1-1.1 1.1h-230.8c-.6 0-1.1-.5-1.1-1.1v-7c0-.6.5-1.1 1.1-1.1h230.8c.6 0 1.1.5 1.1 1.1v7z"/><linearGradient id="e" gradientUnits="userSpaceOnUse" x1="200.502" y1="139.333" x2="200.502" y2="52.308"><stop offset="0" stop-color="#fff"/><stop offset=".096" stop-color="#fff"/><stop offset=".608" stop-color="#fff" stop-opacity="0"/><stop offset="1" stop-color="#fff" stop-opacity="0"/></linearGradient><path fill="url(#e)" d="M55.7 52.3h289.6v87h-289.6z"/><path d="M171.4 94c.9 0 1.9.4 1.9 1v.6h-.7v-.4c0-.4-.7-.6-1.3-.6-1.2 0-1.9.8-1.9 2s.8 2 2 2c.5 0 1.4-.1 1.4-.6v-.7h-1v-.6h1.7v1.4c0 .8-1.3 1.1-2.1 1.1-1.6 0-2.7-1.1-2.7-2.6.1-1.5 1.2-2.6 2.7-2.6zm2.9 4.6h.6v-2.6h-.6v-.5h1.3v3.1h.6v.5h-1.8v-.5zm.5-4.5h.7v.7h-.7v-.7zm1.5 1.4h1.6v.5h-.5l.8 2.1c.1.2.1.3.1.3s0-.2.1-.3l.8-2.1h-.5v-.5h1.6v.5h-.5l-1.2 3.1h-.8l-1.2-3.1h-.5v-.5zm6.2-.1c1 0 1.6.8 1.6 1.7v.3h-2.7c0 .8.6 1.2 1.3 1.2.6 0 1.1-.4 1.1-.4l.3.5s-.5.5-1.4.5c-1.1 0-1.9-.8-1.9-1.9-.1-1.1.7-1.9 1.7-1.9zm.9 1.6c0-.6-.4-1-.9-1s-1 .4-1.1 1h2zm4-3c.9 0 1.9.4 1.9 1v.6h-.7v-.4c0-.4-.7-.6-1.3-.6-1.2 0-1.9.8-1.9 2s.8 2 2 2c.5 0 1.4-.1 1.4-.6v-.7h-1v-.6h1.7v1.4c0 .8-1.3 1.1-2.1 1.1-1.6 0-2.7-1.1-2.7-2.6.1-1.5 1.1-2.6 2.7-2.6zm4.9 2.9h.2v-.1c0-.6-.3-.8-.8-.8-.6 0-1 .4-1 .4l-.3-.5s.5-.4 1.4-.4c.9 0 1.4.5 1.4 1.4v1.6c0 .1.1.2.2.2h.4v.5h-.8c-.3 0-.5-.2-.5-.4v-.2s-.3.8-1.2.8c-.6 0-1.2-.4-1.2-1.1.1-1.3 1.6-1.4 2.2-1.4zm-.8 1.8c.6 0 1-.6 1-1.2v-.2h-.2c-.3 0-1.5 0-1.5.7.1.4.3.7.7.7zm3-4.1h-.6v-.5h1.3v2s.3-.6 1.2-.6c1 0 1.6.8 1.6 1.9 0 1.2-.7 1.9-1.7 1.9-.8 0-1.2-.7-1.2-.7v.6h-.7l.1-4.6zm1.7 4c.6 0 1-.5 1-1.3s-.4-1.3-1-1.3c-.5 0-1.1.4-1.1 1.3.1.7.4 1.3 1.1 1.3zm4.7-4h-.6v-.6h2v.6h-.6v2.6c0 .3.1.6.2.8.2.3.6.5 1.1.5.5 0 .9-.2 1.1-.5.1-.2.2-.5.2-.8v-2.6h-.6v-.6h2v.6h-.7v2.6c0 .5-.1.9-.4 1.2-.3.5-1 .7-1.7.7s-1.3-.3-1.7-.7c-.2-.3-.3-.7-.3-1.2v-2.6zm5.1 4h.6v-2.4c0-.1-.1-.2-.2-.2h-.4v-.5h.8c.3 0 .5.1.5.4v.4c.1-.2.5-.9 1.4-.9.8 0 1.2.5 1.2 1.4v1.8h.6v.5h-1.3v-2.2c0-.5-.1-.9-.7-.9-.7 0-1.2.7-1.2 1.4v1.1h.6v.5h-1.8v-.4zm5 0h.6v-2.6h-.6v-.5h1.3v3.1h.6v.5h-1.9v-.5zm.5-4.5h.7v.7h-.7v-.7zm1.5 1.4h1.6v.5h-.5l.8 2.1c.1.2.1.3.1.3s0-.2.1-.3l.8-2.1h-.5v-.5h1.6v.5h-.5l-1.2 3.1h-.8l-1.2-3.1h-.3v-.5zm6.2-.1c1 0 1.6.8 1.6 1.7v.3h-2.7c0 .8.6 1.2 1.3 1.2.6 0 1.1-.4 1.1-.4l.3.5s-.5.5-1.4.5c-1.1 0-1.9-.8-1.9-1.9-.1-1.1.7-1.9 1.7-1.9zm.9 1.6c0-.6-.4-1-.9-1s-1 .4-1.1 1h2zm1.4 1.6h.5v-2.4c0-.1-.1-.2-.2-.2h-.5v-.5h.8c.3 0 .5.1.5.4v.5c.2-.5.6-.9 1.2-.9h.2v.7h-.2c-.8 0-1.1.8-1.1 1.5v1h.5v.5h-1.8v-.6zm2.9-.6h.6v.2c0 .3.4.5.8.5s.7-.2.7-.5c0-.4-.4-.5-.9-.7-.5-.2-1.1-.4-1.1-1.1 0-.7.7-1 1.3-1 .5 0 1.3.2 1.3.7v.4h-.6v-.2c0-.2-.3-.4-.6-.4s-.6.1-.6.4c0 .3.4.5.8.6.6.2 1.2.4 1.2 1.1 0 .7-.6 1.1-1.5 1.1-.7 0-1.4-.3-1.4-.9v-.2zm3.5.6h.6v-2.6h-.6v-.5h1.3v3.1h.6v.5h-1.8v-.5zm.6-4.5h.7v.7h-.7v-.7zm2.2 2h-.6v-.5h.6v-1h.7v1h.9v.5h-.9v1.7c0 .7.5.8.8.8h.2v.6h-.3c-.5 0-1.4-.1-1.4-1.4v-1.7zm2.8 4c.3 0 .5-.2.7-.5l.2-.4-1.3-3.2h-.5v-.5h1.7v.5h-.5l.8 2.2c0 .2.1.3.1.3s0-.2.1-.3l.8-2.2h-.5v-.5h1.6v.5h-.5l-1.4 3.7c-.2.6-.7.9-1.3.9-.5 0-.8-.2-.8-.2l.2-.5c.1 0 .3.2.6.2z" fill="#11C1EB"/><path opacity=".4" fill="#A4DCE9" enable-background="new" d="M217.4 60.7l-.1-.3-.3-.1c-4.4-2.5-9.2-3.7-14.4-3.7-8.5 0-14.8 3.3-15.1 3.5l-.3.2v.3c-2.2 24.4 15 29.4 15.1 29.4l.2.1.2-.1c19-7.2 14.8-29.1 14.7-29.3z"/><path fill="#A4DCE9" d="M202.4 58.5c-7.5.1-13.2 3.1-13.2 3.1-.4 4.5-.1 8.2.6 11.4h12.6v-14.5z"/><path fill="#0A7B9F" d="M215.4 73c1.3-5.9.2-11.1.2-11.1-4.6-2.6-9.2-3.4-13.3-3.3v14.4h13.1zm-25.6 0c2.7 11.5 11.4 14.6 12.6 15v-15h-12.6z"/><path fill="#A4DCE9" d="M202.4 73v15h.2c8.3-3.2 11.7-9.4 12.9-15.1l-13.1.1z"/><path fill="#fff" d="M202.5 88.7h-.2c-.2 0-15.9-4.6-13.7-27.1v-.3l.3-.2c.2-.1 6.1-3.2 13.8-3.2 4.7 0 9.2 1.2 13.2 3.4l.2.1.1.3c0 .2 3.9 20.3-13.5 26.9l-.2.1zm-12.8-26.7c-1.7 20 11.1 24.9 12.8 25.5 15.2-5.9 13-22.9 12.6-25.2-3.7-2.1-7.9-3.1-12.3-3.1-6.6-.1-11.8 2.2-13.1 2.8zm12.7 19.3c-2.3 0-4.3-.9-5.4-2.4-.7-1-1.1-2.4-1.1-4v-7.2h-1.9v-2.8h7.1v2.8h-1.9v7.2c0 .9.2 1.6.5 2.1.5.8 1.5 1.2 2.7 1.2 1.2 0 2.2-.5 2.7-1.3.3-.5.5-1.3.5-2.1v-7.2h-1.9v-2.8h7.1v2.8h-1.8v7.2c0 1.5-.4 3-1.1 4-1.2 1.6-3.1 2.5-5.5 2.5z"/><path fill="#01506F" d="M210.2 65.4v1.6h-1.9v7.8c0 1.4-.4 2.7-1 3.7-1 1.4-2.8 2.2-4.9 2.2-2.1 0-3.9-.8-4.9-2.2-.7-1-1-2.2-1-3.7v-7.8h-1.9v-1.6h5.9v1.6h-1.9v7.8c0 1 .2 1.8.6 2.4.6 1 1.8 1.5 3.2 1.5 1.4 0 2.6-.6 3.2-1.6.4-.6.6-1.4.6-2.4v-7.7h-1.9v-1.6h5.9m1.2-1.2h-8.3v4h1.9v6.6c0 .7-.1 1.4-.4 1.8-.4.6-1.2 1-2.2 1s-1.8-.4-2.2-1c-.3-.4-.4-1.1-.4-1.8v-6.6h1.9v-4h-8.3v4h1.9v6.6c0 1.8.4 3.2 1.2 4.4 1.3 1.7 3.4 2.7 5.9 2.7 2.5 0 4.7-1 5.9-2.7.8-1.2 1.3-2.7 1.3-4.3v-6.6h1.9v-2.9l-.1-1.2z"/><path fill="#6A9E41" d="M226.5 120.8c0 .5-.4 1-1 1h-45.5c-.5 0-1-.4-1-1v-8.3c0-.5.4-1 1-1h45.5c.5 0 1 .4 1 1v8.3z"/><path fill="#8BC541" d="M226.5 120c0 .5-.4 1-1 1h-45.5c-.5 0-1-.4-1-1v-8.3c0-.5.4-1 1-1h45.5c.5 0 1 .4 1 1v8.3z"/><path d="M193.9 117c0 .4-.1.6-.2.8-.2.4-.6.6-1.1.6-.3 0-.6-.1-.8-.3-.2-.2-.3-.5-.3-.9v-.3h.5v.3c0 .2.1.4.2.5.1.1.3.2.5.2.3 0 .5-.1.6-.3.1-.1.1-.4.1-.7v-2.9h.6v3zm4.4-2.4c.3.4.4.9.4 1.5s-.2 1.2-.5 1.6c-.4.5-.9.8-1.6.8-.7 0-1.2-.2-1.6-.7-.3-.4-.5-1-.5-1.6 0-.6.1-1.1.4-1.5.4-.5.9-.8 1.6-.8.9-.1 1.5.2 1.8.7zm-.5 2.7c.2-.4.3-.8.3-1.3s-.1-.9-.4-1.2c-.3-.3-.6-.5-1.1-.5-.4 0-.8.2-1.1.5s-.4.8-.4 1.4c0 .5.1.9.4 1.2s.6.5 1.2.5c.5 0 .9-.2 1.1-.6zm1.8-3.3h.6v4.3h-.6v-4.3zm1.5 0h.7l2.1 3.5v-3.5h.6v4.3h-.7l-2.2-3.5v3.5h-.6v-4.3zm6.6 0v2.7c0 .3.1.6.2.8.2.3.5.5.9.5.5 0 .8-.2 1-.5.1-.2.1-.4.1-.7v-2.8h.6v2.4c0 .5-.1.9-.2 1.2-.3.5-.8.8-1.5.8s-1.2-.3-1.5-.8c-.1-.3-.2-.7-.2-1.2v-2.4h.6zm4.1 2.9c0 .2.1.4.2.6.2.3.5.4 1 .4.2 0 .4 0 .6-.1.3-.1.5-.3.5-.7 0-.2-.1-.4-.2-.5-.1-.1-.4-.2-.7-.3l-.6-.1c-.4-.1-.6-.2-.8-.3-.3-.2-.4-.4-.4-.8s.1-.7.4-1 .6-.4 1.1-.4c.4 0 .8.1 1.1.3.3.2.5.6.5 1h-.5c0-.2-.1-.4-.2-.5-.2-.2-.5-.3-.9-.3-.3 0-.6.1-.7.2-.1.1-.2.3-.2.5s.1.4.3.5c.1.1.4.1.8.2l.6.1c.3.1.5.2.7.3.3.2.4.5.4.9 0 .5-.2.8-.5 1-.3.2-.7.3-1.2.3s-.9-.1-1.2-.4c-.3-.3-.4-.6-.4-1.1h.3zM220.9 34.9l-.9-.4.3-.6c0-.1 0-.1-.1-.1l-.6.3-.4-.9c0-.1-.1-.1-.1 0l-.4.9-.6-.3c-.1 0-.1 0-.1.1l.3.6-.9.4c-.1 0-.1.1 0 .1l.9.4-.3.6c0 .1 0 .1.1.1l.6-.3.4.9c0 .1.1.1.1 0l.4-.9.6.3c.1 0 .1 0 .1-.1l-.3-.6.9-.5c.1.1.1 0 0 0zm-1.7.4c-.2 0-.4-.2-.4-.4s.2-.4.4-.4.4.2.4.4c0 .3-.2.4-.4.4zM224.8 33.1c.3.2.5.5.6 1h-.4c-.1-.3-.2-.4-.3-.6s-.4-.2-.7-.2c-.3 0-.6.1-.8.4s-.3.6-.3 1.1c0 .4.1.8.3 1 .2.3.5.4.9.4.3 0 .6-.1.8-.3s.3-.5.3-.9h-1.2v-.4h1.5v1.9h-.3l-.1-.4-.4.4c-.2.1-.5.2-.8.2-.4 0-.8-.1-1-.4-.3-.3-.5-.8-.5-1.4 0-.6.2-1 .5-1.4.3-.3.7-.5 1.1-.5.3-.1.6 0 .8.1zm3 .9c.2.1.3.2.4.3l.2.4v.6h-1.8c0 .3.1.5.2.6.1.2.3.2.5.2s.4-.1.5-.2l.2-.3h.4c0 .1 0 .2-.1.3l-.2.3c-.1.1-.3.2-.5.3h-.3c-.3 0-.6-.1-.8-.3-.2-.2-.3-.6-.3-1s.1-.7.3-1 .5-.4.9-.4c0 .1.2.1.4.2zm.1 1c0-.2-.1-.3-.1-.4-.1-.2-.3-.3-.6-.3-.2 0-.4.1-.5.2-.1.1-.2.3-.2.5h1.4zm1.1-1.8h.4v.7h.4v.3h-.4v1.7c0 .1 0 .1.1.2h.4v.3h-.4c-.2 0-.3-.1-.4-.2-.1-.1-.1-.2-.1-.4v-1.7h-.3v-.3h.3v-.6zm2.8-.2h.5v3.5h-.5v-3.5zm1.2.9h.4v.4c.1-.1.2-.3.4-.3.1-.1.3-.1.4-.1.4 0 .6.1.7.4.1.1.1.3.1.6v1.6h-.4v-1.6c0-.2 0-.3-.1-.4-.1-.2-.2-.2-.4-.2h-.2c-.1 0-.2.1-.3.2-.1.1-.1.2-.1.3v1.7h-.5v-2.6zm2.9 0l.7 2.1.7-2.1h.5l-1 2.5h-.5l-.9-2.5h.5zm4 .3c.2.2.3.5.3 1 0 .4-.1.7-.3 1-.2.3-.5.4-.9.4-.3 0-.6-.1-.8-.4-.2-.2-.3-.6-.3-1s.1-.8.3-1c.2-.3.5-.4.9-.4.3.1.6.2.8.4zm-.2 1.7c.1-.2.2-.5.2-.7 0-.2 0-.4-.1-.6-.1-.2-.3-.4-.6-.4s-.4.1-.6.3c-.1.2-.2.4-.2.7 0 .3.1.5.2.7.1.2.3.3.6.3.2 0 .4-.1.5-.3zm1.1-2.9h.4v3.5h-.4v-3.5zm1.3.9l.7 2.1.7-2.1h.5l-1 2.5h-.5l-.9-2.5h.5zm3.8.1c.2.1.3.2.4.3l.2.4v.6h-1.8c0 .3.1.5.2.6.1.2.3.2.5.2s.4-.1.5-.2l.2-.3h.4c0 .1 0 .2-.1.3l-.2.3c-.1.1-.3.2-.5.3h-.3c-.3 0-.6-.1-.8-.3-.2-.2-.3-.6-.3-1s.1-.7.3-1 .5-.4.9-.4c0 .1.2.1.4.2zm.1 1c0-.2-.1-.3-.1-.4-.1-.2-.3-.3-.6-.3-.2 0-.4.1-.5.2-.1.1-.2.3-.2.5h1.4zm2.4-1c.1 0 .2.1.3.2v-1.2h.4v3.5h-.4v-.4c-.1.2-.2.3-.4.3-.1.1-.3.1-.5.1-.3 0-.5-.1-.7-.4-.2-.2-.3-.6-.3-.9 0-.4.1-.7.3-1 .2-.3.5-.4.8-.4.2.1.4.1.5.2zm-1 1.9c.1.2.3.3.6.3.2 0 .4-.1.5-.3.1-.2.2-.4.2-.7 0-.3-.1-.6-.2-.7-.1-.2-.3-.2-.5-.2s-.4.1-.5.2c-.1.2-.2.4-.2.7 0 .3 0 .5.1.7zM198.6 33h.5v1.4h1.8v-1.4h.5v3.5h-.5v-1.6h-1.8v1.6h-.5v-3.5zm5.3 1.2c.2.2.3.5.3 1 0 .4-.1.7-.3 1-.2.3-.5.4-.9.4-.3 0-.6-.1-.8-.4-.2-.2-.3-.6-.3-1s.1-.8.3-1c.2-.3.5-.4.9-.4.3.1.5.2.8.4zm-.3 1.7c.1-.2.2-.5.2-.7 0-.2 0-.4-.1-.6-.1-.2-.3-.4-.6-.4s-.4.1-.6.3c-.1.2-.2.4-.2.7 0 .3.1.5.2.7.1.2.3.3.6.3.2 0 .4-.1.5-.3zm1.1-2h.4v.4l.3-.3c.1-.1.3-.1.5-.1s.4 0 .5.1c.1.1.1.1.2.3l.3-.3s.3-.1.4-.1c.3 0 .6.1.7.4.1.1.1.3.1.5v1.7h-.4v-1.8c0-.2 0-.3-.1-.3-.1-.1-.2-.1-.3-.1-.2 0-.3.1-.4.2s-.2.3-.2.6v1.5h-.4v-1.7c0-.2 0-.3-.1-.4-.1-.1-.2-.2-.4-.2s-.3.1-.4.2c-.1.1-.2.4-.2.7v1.3h-.4v-2.6zm5.6.1c.2.1.3.2.4.3l.2.4v.6h-1.8c0 .3.1.5.2.6.1.2.3.2.5.2s.4-.1.5-.2l.2-.3h.4c0 .1 0 .2-.1.3l-.2.3c-.1.1-.3.2-.5.3h-.3c-.3 0-.6-.1-.8-.3-.2-.2-.3-.6-.3-1s.1-.7.3-1 .5-.4.9-.4l.4.2zm.2 1c0-.2-.1-.3-.1-.4-.1-.2-.3-.3-.6-.3-.2 0-.4.1-.5.2-.1.1-.2.3-.2.5h1.4zM194.5 36.3h-.7c-.1 0-.2-.1-.2-.2v-1.2h-.3c-.1 0-.1-.1-.1-.1l1.6-1.6c.1-.1.2-.1.3 0l1.6 1.6c.1.1.1.1-.1.1h-.3v1.2c0 .1-.1.2-.2.2h-.7c-.1 0-.1 0-.1-.1v-.8c0-.1 0-.1-.1-.1h-.6c-.1 0-.1 0-.1.1v.8c.1 0 .1.1 0 .1zm111.3 1.3c0 .7-.6 1.2-1.2 1.2h-48.3c-.7 0-1.2-.6-1.2-1.2v-6.4c0-.7.6-1.2 1.2-1.2h48.3c.7 0 1.2.6 1.2 1.2v6.4z" fill="#fff"/><path d="M258.8 34.9c0 .1 0 .3.1.4.1.1.1.2.2.2s.2.1.3.1h.3c.1 0 .3 0 .4-.1.1 0 .2-.1.2-.1.1-.1.1-.1.1-.2v-.2c0-.1 0-.2-.1-.3l-.2-.2s-.2-.1-.3-.1l-.3-.1-.3-.1c-.1 0-.2-.1-.3-.2-.1-.1-.2-.1-.2-.2s-.1-.2-.1-.4c0-.1 0-.2.1-.3 0-.1.1-.2.2-.3s.2-.1.3-.2c.1 0 .3-.1.5-.1s.3 0 .5.1.2.1.3.2.2.2.2.3.1.2.1.4h-.3c0-.1 0-.2-.1-.3 0-.1-.1-.2-.2-.2-.1-.1-.2-.1-.2-.1h-.3c-.1 0-.3 0-.4.1-.1 0-.2.1-.2.2-.1.1-.1.1-.1.2v.2c0 .1.1.2.1.2.1.1.1.1.2.1l.3.1s.2.1.3.1.2.1.3.1c.1 0 .2.1.3.2.1.1.2.1.2.2.1.1.1.2.1.4 0 .3-.1.5-.3.7s-.5.2-.8.2c-.2 0-.3 0-.4-.1-.1 0-.3-.1-.4-.2s-.2-.2-.2-.3c-.1-.1-.1-.3-.1-.4h.2zm2.6-.1v.3s.1.2.1.3l.2.2.3.1c.2 0 .3 0 .4-.1.1-.1.2-.2.2-.4h.3l-.1.3c-.1.1-.1.2-.2.2l-.3.2c-.1 0-.2.1-.4.1s-.3 0-.5-.1l-.3-.2c-.1-.1-.1-.2-.2-.4 0-.1-.1-.3-.1-.5s0-.3.1-.5c0-.1.1-.3.2-.4l.3-.3c.1-.1.3-.1.4-.1.3 0 .5.1.7.3.2.2.3.5.3.9h-1.4zm1.5-.3v-.3s-.1-.2-.1-.3l-.2-.2s-.2-.1-.3-.1-.2 0-.3.1c-.1 0-.2.1-.2.2l-.1.2-.1.3h1.3zm1.8 0h.4l.1-.1v-.1c0-.1 0-.2-.1-.3-.1-.1-.2-.1-.4-.1h-.2c-.1 0-.1 0-.2.1-.1 0-.1.1-.1.2l-.1.2h-.3c0-.1 0-.2.1-.3s.1-.2.2-.2c.1-.1.2-.1.3-.1h.6l.3.1.2.2.1.3v1.2c0 .1 0 .2.1.2h.2v.2h-.4l-.1-.1v-.2c-.1.1-.2.2-.4.3-.1.1-.3.1-.5.1h-.3l-.2-.1-.2-.2s-.1-.2-.1-.3c0-.4.3-.6.8-.7l.2-.3zm.4.1l-.3.1h-.3c-.2 0-.4.1-.5.1s-.2.2-.2.3v.2l.1.1s.1.1.2.1h.5s.2-.1.3-.1l.2-.2s.1-.2.1-.3v-.3zm1.2 1.2h-.3v-2.2h.3v.4c.1-.2.2-.3.3-.4.1-.1.3-.1.5-.1v.3c-.1 0-.3 0-.4.1-.1 0-.2.1-.2.2-.1.1-.1.2-.1.3v1.4zm2.8-1.5c0-.2-.1-.3-.2-.4-.1-.1-.3-.1-.4-.1-.1 0-.2 0-.3.1s-.2.1-.2.2c-.1.1-.1.2-.1.3v.6l.1.3c.1.1.1.2.2.2.1.1.2.1.3.1.2 0 .3-.1.5-.2s.2-.3.2-.4h.3l-.1.3c0 .1-.1.2-.2.3s-.2.1-.3.2-.2.1-.4.1-.3 0-.5-.1l-.3-.2c-.1-.1-.1-.2-.2-.4 0-.1-.1-.3-.1-.5s0-.3.1-.4c0-.1.1-.3.2-.4l.3-.3c.1-.1.3-.1.4-.1.3 0 .5.1.6.2.2.1.3.3.3.6h-.2zm.8 1.5v-3.1h.3v1.2l.3-.3c.1-.1.2-.1.4-.1.1 0 .3 0 .4.1.1 0 .2.1.3.2.1.1.1.2.1.2v1.8h-.3v-1.5c0-.2 0-.4-.1-.5-.1-.1-.2-.2-.4-.2h-.2l-.2.1c-.1 0-.1.1-.1.1s-.1.1-.1.2v1.6h-.4z" fill="#11C1EB"/><g opacity=".6" stroke="#11C1EB" stroke-miterlimit="10"><path d="M302.1 34.3l-1.5 1.4" fill="none"/><circle fill="#fff" cx="302.1" cy="34.3" r=".9"/><path d="M301.1 35.2l-.7.8" fill="none"/></g><defs><circle id="f" cx="317" cy="35.6" r="5.7"/></defs><clipPath id="g"><use xlink:href="#f" overflow="visible"/></clipPath><path clip-path="url(#g)" fill="#D0D2D3" d="M306.2 28.9h21.6v18.2h-21.6z"/><g clip-path="url(#g)"><path fill="#F58420" d="M320.3 40.3c.6-1.5.8-3.5.3-5-.6-1.9-2.6-3-4.6-2.6-1.4.3-3.1.9-3.1 4.7 0 3.8.1 3.4 1.2 3.5 1.1.1 6 0 6.2-.6z"/><circle fill="#fff" cx="318.5" cy="35.5" r=".3"/><circle fill="#fff" cx="314.6" cy="35.2" r=".3"/><path fill="#fff" d="M317.3 36.9l-1.9-.3s.5 2.2 1.9.3z"/><path fill="#F58420" d="M320.4 39.2c0 .2-.1 3.5-.7 3.3-.5-.2-.5-2.5-.5-2.5l1.2-.8z"/><path fill="#FBD9BC" d="M311 37.2l-.7.3 1.5 3.5.7-.3z"/><path fill="#AC876E" d="M312 41.1s-.2 0-.2-.1c0 0 0-.2.3-.3h.4l-.1.3c-.1.1-.4.1-.4.1z"/><path fill="#C8A182" d="M312 41s0-.1-.1-.1l.1-.1.2-.1h.3v.1h-.3l-.2.2z"/><path fill="#E5C3AA" d="M311.8 41c.1.1.2.1.4 0 0 0 .3-.1.3-.2v-.1h.1s.1.2-.2.3c0 0-.2.2-.4.1 0 0-.2 0-.2-.1z"/><path fill="#9DCD6F" d="M312.1 40.8"/><path fill="#FBD9BC" d="M311 37.2s-.5-.2-.7.3l.2.1.6-.2-.1-.2z"/><path fill="#F58420" d="M313 39c0 .2-.2 3.5.4 3.3.6-.2.7-2.5.7-2.5l-1.1-.8zm.5-1.2c-.9.1-1.2 1-1.6 1.6-.7 1.1-1.1.2-.6-.6.4-.6.8-1.2 1.3-1.6.4-.3.8-.9 1.3-.5.9.7-.2 1.3-.8 1.2m6.9-.1c.9.1 1.4-.7 1.9-1.2.9-.9 1.1.1.5.7-.5.5-1 1-1.6 1.3-.4.2-1 .7-1.4.2-.7-.9.5-1.2 1-1"/><path fill="#01506F" d="M320.9 37.5l-4.9 1.2-3.2-1.8s-.6.5-.7.8c0 0 .4.2.6.9l-.1 2.7s.7.1 1.8.1h.7c1.8.1 4.1.2 5.2.1l.4-2.9 1.2-.8s-.4-.6-.4-1l-.6.7z"/><path fill="#085C78" d="M312.8 38.8l8 .1s.2-.8.1-1.4l-4.9 1.2-3.2-1.8c.1 0-.1 1.2 0 1.9z"/><path fill="#01506F" d="M320.1 31.8l2.1 4.5-1.4-.4-.8-1.8-1.7-.8-2.5-.4-1.2-2.1z"/><path fill="#0A7B9F" d="M320.8 35.9l-.5-.6-.6-.5c-.8-.6-1.7-1.2-2.7-1.5-.6-.2-1.3-.3-1.9-.4.1-.1.4-.4.5-.4.8-.4 1.8-.3 2.6 0 1 .3 2.1.9 2.4 2 .1.2.3.9.2 1.4zm-5.3-4.9s.2-.2.2.1c0 0-1 2.8-1 2.9 0 0-.5.2-.6-.3l1.4-2.7"/></g><path fill="#fff" d="M338.2 35.9l-1.2 1.2-1.2-1.2"/><path d="M325.7 37.3h.4v-1.1l-1-1.6h-.3v-.4h1.2v.4h-.4l.6 1.1c0 .1.1.1.1.1s0-.1.1-.1l.6-1.1h-.4v-.4h1.2v.4h-.3l-1 1.6v1.1h.4v.4h-1.3v-.4zm3.4-2.1c.7 0 1.3.5 1.3 1.3 0 .7-.6 1.3-1.3 1.3s-1.3-.5-1.3-1.3.6-1.3 1.3-1.3zm0 2.2c.5 0 .8-.4.8-.9s-.4-.9-.8-.9c-.5 0-.8.4-.8.9s.4.9.8.9zm2.1-1.8h-.4v-.4h.9v1.5c0 .3.1.6.5.6.5 0 .8-.5.8-1v-.8h-.4v-.4h.9v2c0 .1 0 .1.1.1h.3v.4h-.5c-.2 0-.3-.1-.3-.3v-.2c0 .1-.3.6-.9.6-.5 0-.8-.3-.8-.9v-1.2z" fill="#fff"/><path fill="#E6E7E8" d="M94.6 152.8h64.1v4.5h-64.1z"/><path stroke="#CECDCC" stroke-width="1.511" stroke-miterlimit="10" d="M78.3 166.5h70.9" fill="none"/><path stroke="#CECDCC" stroke-width="1.476" stroke-miterlimit="10" d="M78.3 169.5h67.7" fill="none"/><path stroke="#14C1E9" stroke-width=".25" stroke-miterlimit="10" d="M71.6 214.8v-70.4c0-.8.7-1.5 1.5-1.5h101c.8 0 1.5.7 1.5 1.5v70.4" fill="none"/><path fill="#14C1E9" d="M84.5 159.5c-.3.3-.7.3-1 0l-4.2-4.4c-1.1-1.1-1.1-2.8 0-3.9s2.8-1.1 3.9 0l.8 1 .8-1c1.1-1.1 2.8-1.1 3.9 0s1.1 2.8 0 3.9l-4.2 4.4z"/><path d="M199 151.7s.7.9 1.9.9c1.1 0 1.9-.8 1.9-1.7 0-1-.7-1.7-1.9-1.7-.9 0-1.5.4-1.5.4l-.7-.2.4-4.2h4.3v2h-1v-1.1h-2.3l-.2 2c0 .2-.1.3-.1.3s.5-.3 1.2-.3c1.7 0 2.9 1.2 2.9 2.7 0 1.6-1.3 2.8-3 2.8l-2.6-1.1.7-.8zm6.7.6h1.2l-1.1 2.7h-.9l.8-2.7zm2.7-2.6c0-2.2 1.2-4.7 3.8-4.7 1 0 1.6.3 1.6.3l-.4 1s-.5-.3-1.2-.3c-1.5 0-2.3 1.4-2.5 2.8.4-.5 1.1-.8 1.9-.8 1.6 0 2.7 1.2 2.7 2.7 0 1.7-1.2 2.8-2.8 2.8-1.8.1-3.1-1.4-3.1-3.8zm3.1 2.9c1 0 1.6-.7 1.6-1.8 0-1-.6-1.8-1.8-1.8-.9 0-1.7.6-1.7 1.3 0 1 .8 2.3 1.9 2.3zm4.1-7.5h5.1v.8l-2.2 2.6c1 .1 2.4.8 2.4 2.4 0 1.4-1.1 2.7-2.9 2.7-1.7 0-2.7-1.1-2.7-1.1l.6-.8s.8.9 2 .9c.9 0 1.7-.7 1.7-1.6 0-1-.8-1.6-1.8-1.6h-.5l-.3-.6 2-2.5c.1-.2.3-.3.3-.3h-2.7v1.1h-1v-2zm10.6 1.4c.1-.3.3-.4.3-.4h-3.5v1.1h-1v-2h5.7v.8l-3.8 7.6h-1.2l3.5-7.1zM245.9 145c1.8 0 3.1 1.6 3.1 3.9 0 2.2-1.2 4.7-3.8 4.7-1 0-1.6-.3-1.6-.3l.4-1s.5.3 1.2.3c1.6 0 2.4-1.4 2.5-2.8-.4.5-1.1.8-1.9.8-1.6 0-2.7-1.2-2.7-2.7 0-1.8 1.2-2.9 2.8-2.9zm.2 4.5c.9 0 1.7-.6 1.7-1.3 0-1-.8-2.2-1.9-2.2-1 0-1.6.8-1.6 1.8.1 1 .7 1.7 1.8 1.7zm5.6-.6c-.6-.4-1-.9-1-1.7 0-1.1.9-2.2 2.6-2.2 1.6 0 2.7.9 2.7 2.2 0 1.2-.8 2-1 2.2.7.4 1.2 1 1.2 1.8 0 1.3-1.1 2.4-2.9 2.4-1.7 0-2.9-1.1-2.9-2.5-.1-1.3 1.1-2.1 1.3-2.2zm1.6 3.7c.9 0 1.7-.6 1.7-1.4 0-1-1.1-1.2-2.4-1.8-.2.2-1 .7-1 1.7-.1.9.7 1.5 1.7 1.5zm.8-3.6c.1-.2.7-.8.7-1.6s-.6-1.3-1.5-1.3-1.4.5-1.4 1.2c-.1.9 1 1.2 2.2 1.7zm3.5-3.9h5.1v.8l-2.2 2.6c1 .1 2.4.8 2.4 2.4 0 1.4-1.1 2.7-2.9 2.7-1.7 0-2.7-1.1-2.7-1.1l.6-.8s.8.9 2 .9c.9 0 1.7-.7 1.7-1.6 0-1-.8-1.6-1.8-1.6h-.5l-.3-.6 2-2.5c.1-.2.3-.3.3-.3h-2.7v1.1h-1v-2zM280 151.5s.9.9 2.1.9c.8 0 1.5-.5 1.5-1.2 0-1.6-4.1-1.2-4.1-3.8 0-1.1.9-2 2.2-2.2v-1.3h.8v1.3c1.3.1 2 .8 2 .8l-.5.9s-.8-.7-1.8-.7c-.9 0-1.5.5-1.5 1.2 0 1.8 4.1 1.2 4.1 3.8 0 1.2-.8 2.2-2.2 2.3v1.3h-.8v-1.3c-1.5-.2-2.3-1.1-2.3-1.1l.5-.9zm5.9 1h1.8v-6s-.1.2-.4.5l-.8.8-.7-.7 2-1.9h1v7.4h1.8v1h-4.8v-1.1zm5.6.4c0-3 4.2-3.4 4.2-5.4 0-.9-.6-1.4-1.5-1.4-1.1 0-1.7 1.1-1.7 1.1l-.8-.6s.8-1.6 2.7-1.6c1.5 0 2.6 1 2.6 2.4 0 2.7-4.1 3.1-4.1 5.1h3.4v-1.1h1v2.1h-5.7l-.1-.6zm6.7-2.4l3.9-5.4h1.3v5.2h1.1v.9h-1.1v2.2h-1.1v-2.2h-4.1v-.7zm1.3-.2h2.8v-3.3c0-.3.1-.6.1-.6s-.1.3-.3.6l-2.6 3.3zm6.6 2h1.2l-1.1 2.7h-.9l.8-2.7zm4-3.4c-.6-.4-1-.9-1-1.7 0-1.1.9-2.2 2.6-2.2 1.6 0 2.7.9 2.7 2.2 0 1.2-.8 2-1 2.2.7.4 1.2 1 1.2 1.8 0 1.3-1.1 2.4-2.9 2.4-1.7 0-2.9-1.1-2.9-2.5 0-1.3 1.1-2.1 1.3-2.2zm1.6 3.7c.9 0 1.7-.6 1.7-1.4 0-1-1.1-1.2-2.4-1.8-.2.2-1 .7-1 1.7-.1.9.8 1.5 1.7 1.5zm.8-3.6c.1-.2.7-.8.7-1.6s-.6-1.3-1.5-1.3-1.4.5-1.4 1.2c-.1.9 1.1 1.2 2.2 1.7zm3.4.3c0-2.4.7-4.3 3-4.3 2.2 0 3 1.9 3 4.3s-.7 4.3-3 4.3c-2.2 0-3-1.9-3-4.3zm4.8 0c0-1.8-.4-3.3-1.8-3.3s-1.8 1.4-1.8 3.3c0 1.8.4 3.3 1.8 3.3s1.8-1.4 1.8-3.3zm2.5.4c0-2.2 1.2-4.7 3.8-4.7 1 0 1.6.3 1.6.3l-.4 1s-.5-.3-1.2-.3c-1.5 0-2.3 1.4-2.5 2.8.4-.5 1.1-.8 1.9-.8 1.6 0 2.7 1.2 2.7 2.7 0 1.7-1.2 2.8-2.8 2.8-1.7.1-3.1-1.4-3.1-3.8zm3.2 2.9c1 0 1.6-.7 1.6-1.8 0-1-.6-1.8-1.8-1.8-.9 0-1.7.6-1.7 1.3 0 1 .8 2.3 1.9 2.3z" fill="#0A7B9F"/><path fill="#11C1EB" d="M197.7 157.5h36.4v3.3h-36.4zm44.9 0h24.3v3.3h-24.3zm36.2 0h44.2v3.3h-44.2z"/><path fill="#BBBDBF" d="M170.1 103.1h66.3v3.3h-66.3z"/><defs><circle id="h" cx="79.8" cy="170.1" r="75.1"/></defs><clipPath id="i"><use xlink:href="#h" overflow="visible"/></clipPath><g clip-path="url(#i)"><defs><path id="j" d="M-164 80h549.9v175.1h-549.9z"/></defs><clipPath><use xlink:href="#j" overflow="visible"/></clipPath></g><defs><circle id="k" cx="79.8" cy="170.1" r="75.1"/></defs><clipPath><use xlink:href="#k" overflow="visible"/></clipPath><defs><circle id="l" cx="79.8" cy="170.1" r="75.1"/></defs><clipPath id="m"><use xlink:href="#l" overflow="visible"/></clipPath><circle clip-path="url(#m)" fill="#fff" cx="112.4" cy="163.2" r="126.7"/><g clip-path="url(#m)"><defs><path id="n" d="M-164 80h549.9v175.1h-549.9z"/></defs><clipPath id="o"><use xlink:href="#n" overflow="visible"/></clipPath><linearGradient id="p" gradientUnits="userSpaceOnUse" x1="3632.216" y1="-7906.788" x2="3632.216" y2="-8490.058" gradientTransform="matrix(-.3 0 0 .3 1200.6 2627)"><stop offset="0" stop-color="#F3FAFD"/><stop offset=".377" stop-color="#EDF7F8"/><stop offset=".911" stop-color="#DAEFED"/><stop offset="1" stop-color="#D6EDEB"/></linearGradient><path clip-path="url(#o)" fill="url(#p)" d="M-164 80h549.9v175h-549.9z"/><path opacity=".2" clip-path="url(#o)" fill="#A4DCE9" enable-background="new" d="M-127.4 170.6h-14c5.1-18.3 30.4-13 30.4-13 3.9-4 10.5-14.2 32.9-15.5 22.4-1.3 29.7 15.8 29.7 15.8 15.6-1.7 24.1 12.6 24.1 12.6l-103.1.1z"/><path clip-path="url(#o)" fill="#fff" d="M-109.3 167.9h-13.1c4.7-17.1 28.3-12.1 28.3-12.1 3.7-3.7 9.8-13.3 30.7-14.5 20.9-1.2 27.7 14.7 27.7 14.7 14.6-1.6 22.4 11.8 22.4 11.8l-96 .1z"/><g clip-path="url(#o)"><linearGradient id="q" gradientUnits="userSpaceOnUse" x1="3629.161" y1="-7854.106" x2="3629.161" y2="-8114.259" gradientTransform="matrix(-.3 0 0 .3 1200.6 2627)"><stop offset="0" stop-color="#A6C454"/><stop offset=".275" stop-color="#B2CC63"/><stop offset=".675" stop-color="#C0D774"/><stop offset="1" stop-color="#C4DA79"/></linearGradient><path fill="url(#q)" d="M-168.1 270.8h559.9v-56.7c-161.9-33-344.8-25.4-559.9 6.6v50.1z"/></g><g clip-path="url(#o)"><path opacity=".2" fill="#A4DCE9" enable-background="new" d="M232.7 133.6c1.7-6.3 10.4-4.4 10.4-4.4 1.4-1.4 3.6-4.9 11.3-5.3 7.7-.4 10.2 5.4 10.2 5.4 5.4-.6 8.3 4.3 8.3 4.3h-40.2z"/><path fill="#fff" d="M236.3 132.3c1.7-6.3 10.4-4.4 10.4-4.4 1.4-1.4 3.6-4.9 11.3-5.3 7.7-.4 10.2 5.4 10.2 5.4 5.4-.6 8.3 4.3 8.3 4.3h-40.2z"/></g><g clip-path="url(#o)"><path opacity=".2" fill="#A4DCE9" enable-background="new" d="M262.1 180.7c3.5-12.6 21-9 21-9 2.7-2.7 7.3-9.8 22.8-10.7l20.5 10.9c10.8-1.2 16.7 8.8 16.7 8.8h-81z"/><path fill="#fff" d="M269.3 178.2c3.5-12.6 21-9 21-9 2.7-2.7 7.3-9.8 22.8-10.7 15.5-.9 20.5 10.9 20.5 10.9 10.8-1.2 16.7 8.8 16.7 8.8h-81z"/></g></g><linearGradient id="r" gradientUnits="userSpaceOnUse" x1="111.285" y1="258.782" x2="111.285" y2="93.548"><stop offset="0" stop-color="#fff"/><stop offset=".096" stop-color="#fff"/><stop offset=".608" stop-color="#fff" stop-opacity="0"/><stop offset="1" stop-color="#fff" stop-opacity="0"/></linearGradient><path clip-path="url(#m)" fill="url(#r)" d="M-164 93.5h550.6v165.2h-550.6z"/><g clip-path="url(#m)"><path fill="#11C1EB" d="M21.7 171.6c1.7 0 3.6.7 3.6 1.9v1.2h-1.2v-.7c0-.8-1.2-1.2-2.3-1.2-2.2 0-3.6 1.5-3.6 3.7s1.4 3.8 3.6 3.8c.8 0 2.5-.3 2.5-1.2v-1.2h-1.8v-1h3.1v2.6c0 1.5-2.4 2-3.8 2-2.9 0-4.9-2.1-4.9-4.9-.1-3 1.9-5 4.8-5zm5.3 8.6h1.1v-4.8h-1.1v-1h2.4v5.8h1.1v1h-3.4l-.1-1zm1-8.5h1.4v1.3h-1.4v-1.3zm2.9 2.7h3v1h-.9l1.4 3.9c.1.3.1.6.1.6s0-.3.1-.6l1.4-3.9h-.9v-1h3v1h-.8l-2.2 5.8h-1.5l-2.2-5.8h-.9l.4-1zm11.5-.1c1.9 0 2.9 1.4 2.9 3.2v.5h-4.9c.1 1.5 1.1 2.3 2.3 2.3 1.2 0 2-.8 2-.8l.5.9s-1 .9-2.6.9c-2.1 0-3.6-1.5-3.6-3.5 0-2.2 1.4-3.5 3.4-3.5zm1.5 2.8c0-1.2-.8-1.8-1.6-1.8-1 0-1.8.7-2 1.8h3.6zm7.5-5.5c1.7 0 3.6.7 3.6 1.9v1.2h-1.2v-.7c0-.8-1.2-1.2-2.3-1.2-2.2 0-3.6 1.5-3.6 3.7s1.4 3.8 3.6 3.8c.8 0 2.5-.3 2.5-1.2v-1.2h-1.8v-1h3.1v2.6c0 1.5-2.4 2-3.8 2-2.9 0-4.9-2.1-4.9-4.9-.1-3 1.9-5 4.8-5zm9 5.4h.4v-.3c0-1.1-.6-1.4-1.4-1.4-1.1 0-1.9.7-1.9.7l-.5-.9s1-.8 2.6-.8c1.7 0 2.6.9 2.6 2.6v3c0 .2.1.3.3.3h.7v1h-1.3c-.6 0-.8-.3-.8-.7v-.1c0-.3.1-.4.1-.4s-.6 1.4-2.2 1.4c-1.1 0-2.2-.7-2.2-2-.3-2.2 2.5-2.4 3.6-2.4zm-1.4 3.3c1.1 0 1.9-1.2 1.9-2.2v-.3h-.3c-.6 0-2.7 0-2.7 1.3-.1.7.4 1.2 1.1 1.2zm5.6-7.5h-1.1v-1h2.4v3.7s.6-1.2 2.2-1.2c1.8 0 3 1.4 3 3.5s-1.3 3.5-3.1 3.5c-1.6 0-2.1-1.2-2.1-1.2v1h-1.2l-.1-8.3zm3.2 7.4c1.1 0 1.9-.9 1.9-2.4s-.8-2.4-1.9-2.4c-1 0-1.9.7-2 2.4.1 1.2.7 2.4 2 2.4zm8.8-7.4h-1.2v-1h3.7v1h-1.2v4.9c0 .6.1 1.1.4 1.5.4.6 1.1 1 2 1 .9 0 1.6-.3 2-1 .2-.4.4-.9.4-1.5v-4.9h-1.2v-1h3.7v1h-1.2v4.9c0 .9-.2 1.7-.7 2.3-.6.9-1.8 1.4-3.1 1.4s-2.5-.5-3.1-1.4c-.4-.6-.6-1.4-.6-2.3l.1-4.9zm9.4 7.4h1.1v-4.5c0-.2-.1-.3-.3-.3h-.8v-1h1.5c.6 0 .9.3.9.7v.7c.1-.4.9-1.6 2.6-1.6 1.5 0 2.2.9 2.2 2.6v3.3h1.1v1h-2.4v-4c0-.9-.2-1.7-1.3-1.7-1.4 0-2.3 1.2-2.3 2.6v2.1h1.1v1h-3.4v-.9zm9.2 0h1.1v-4.8h-1.1v-1h2.4v5.8h1.1v1h-3.4l-.1-1zm1-8.4h1.4v1.3h-1.4v-1.3zm2.8 2.6h3v1h-.9l1.4 3.9c.1.3.1.6.1.6s0-.3.1-.6l1.4-3.9h-.9v-1h3v1h-.8l-2.2 5.8h-1.5l-2.2-5.8h-.9l.4-1zm11.5-.1c1.9 0 2.9 1.4 2.9 3.2v.5h-4.9c.1 1.5 1.1 2.3 2.3 2.3 1.2 0 2-.8 2-.8l.5.9s-1 .9-2.6.9c-2.1 0-3.6-1.5-3.6-3.5 0-2.1 1.5-3.5 3.4-3.5zm1.6 2.8c0-1.2-.8-1.8-1.6-1.8-1 0-1.8.7-2 1.8h3.6zm2.6 3.1h1v-4.5c0-.2-.1-.3-.3-.3h-.8v-1h1.5c.6 0 .9.2.9.8v.9c.3-1 1.1-1.8 2.1-1.8h.3v1.3h-.4c-1.4 0-2.1 1.5-2.1 2.8v1.8h1v1h-3.3l.1-1zm5.5-1.2h1.1v.4c0 .6.8.8 1.5.8.8 0 1.4-.3 1.4-.9 0-.7-.7-.9-1.7-1.2-1-.4-2.1-.8-2.1-2.1s1.3-1.9 2.5-1.9c.9 0 2.3.4 2.3 1.4v.8h-1.1v-.3c0-.4-.5-.7-1.2-.7-.6 0-1.2.3-1.2.8 0 .6.7.9 1.6 1.2 1 .3 2.2.8 2.2 2 0 1.3-1.2 2-2.7 2-1.2 0-2.6-.5-2.6-1.6v-.7zm6.5 1.2h1.1v-4.8h-1.1v-1h2.4v5.8h1.1v1h-3.4l-.1-1zm1-8.4h1.4v1.3h-1.4v-1.3zm4.2 3.7h-1.1v-1h1.2v-1.9h1.3v1.9h1.6v1h-1.6v3.2c0 1.4.9 1.5 1.4 1.5h.3v1.1h-.5c-.9 0-2.6-.3-2.6-2.5v-3.3zm5.2 7.4c.6 0 1-.4 1.2-.9l.3-.7-2.4-5.9h-.9v-1h3.1v1h-.9l1.5 4c.1.3.1.6.1.6l.2-.6 1.5-4h-.9v-1h3v1h-.8l-2.7 6.8c-.5 1.1-1.3 1.7-2.4 1.7-.9 0-1.5-.4-1.5-.4l.4-1c.2.1.6.4 1.2.4z"/><path fill="#2D3D4A" d="M27.4 190.6c-.1.4 0 .8.1 1.1.2.5.8.8 1.7.8.4 0 .8-.1 1.1-.2.7-.2 1.1-.6 1.2-1.2.1-.4 0-.7-.2-.9-.2-.2-.6-.3-1.1-.5l-1-.2c-.6-.2-1.1-.3-1.3-.5-.4-.3-.6-.8-.4-1.4.1-.7.5-1.3 1.1-1.7s1.3-.7 2.2-.7c.8 0 1.5.2 1.9.6.5.4.6 1 .4 1.9h-1c0-.4 0-.7-.1-.9-.2-.4-.7-.6-1.5-.6-.6 0-1.1.1-1.4.4-.3.3-.5.6-.6.9-.1.4 0 .7.3.8.2.1.6.3 1.3.4l1 .2c.5.1.9.3 1.1.5.4.4.5.9.4 1.6-.2.9-.6 1.5-1.3 1.8-.7.4-1.5.5-2.3.5-1 0-1.7-.2-2.1-.7-.4-.5-.6-1.1-.4-2h.9zm11.2-2.2c.1.3.2.6.2 1 0 .3-.1.7-.2 1.2h-4.1c-.1.6-.1 1 .1 1.4.2.3.5.5 1.1.5.5 0 .9-.2 1.3-.5.2-.2.4-.4.5-.7h.9c-.1.2-.2.4-.4.7s-.4.5-.6.6c-.3.3-.7.5-1.2.6-.2.1-.5.1-.8.1-.7 0-1.2-.3-1.6-.8-.4-.5-.5-1.2-.3-2.1.2-.9.6-1.6 1.2-2.2.6-.6 1.3-.8 2.1-.8.4 0 .8.1 1.1.3.3.1.5.4.7.7zm-.9 1.4c0-.4 0-.7-.1-1-.2-.5-.5-.7-1.1-.7-.4 0-.8.2-1.2.5-.4.3-.6.7-.7 1.2h3.1zm5.7-2.1l.5.5.6-2.8h.9l-1.6 7.7h-.8l.2-.8c-.3.3-.6.6-.9.7-.3.2-.7.2-1.1.2-.6 0-1.1-.3-1.5-.8-.3-.5-.4-1.2-.2-2.1.2-.8.5-1.5 1.1-2.1s1.2-.9 2-.9c.2.1.6.2.8.4zm-1.9 4.8c.4 0 .8-.2 1.2-.6.4-.4.6-.9.8-1.6.1-.7.1-1.2-.1-1.6-.2-.3-.5-.5-1-.5s-.9.2-1.3.5-.6.9-.8 1.6c-.1.6-.1 1.1.1 1.5.2.5.6.7 1.1.7zm8.2-7.1h.9l-.6 2.8c.3-.3.6-.5.9-.6s.6-.2 1-.2c.7 0 1.2.2 1.5.7.3.5.4 1.2.2 2.1-.2.9-.6 1.6-1.1 2.2-.6.6-1.2.9-2 .9-.4 0-.8-.1-1-.3-.1-.1-.3-.3-.4-.6l-.2.7h-.9l1.7-7.7zm2.9 4.8c.1-.6.1-1.1-.1-1.5-.2-.4-.5-.6-1-.6-.4 0-.8.2-1.2.5-.4.3-.7.8-.8 1.6-.1.5-.1 1-.1 1.3.1.6.5.9 1.2.9.5 0 .9-.2 1.3-.6s.6-.9.7-1.6zm6.8-1.8c.1.3.2.6.2 1 0 .3-.1.7-.2 1.2h-4.1c-.1.6-.1 1 .1 1.4.2.3.5.5 1.1.5.5 0 .9-.2 1.3-.5.2-.2.4-.4.5-.7h.9c-.1.2-.2.4-.4.7s-.4.5-.6.6c-.3.3-.7.5-1.2.6-.2.1-.5.1-.8.1-.7 0-1.2-.3-1.6-.8-.4-.5-.5-1.2-.3-2.1.2-.9.6-1.6 1.2-2.2.6-.6 1.3-.8 2.1-.8.4 0 .8.1 1.1.3.4.1.6.4.7.7zm-.8 1.4c0-.4 0-.7-.1-1-.2-.5-.5-.7-1.1-.7-.4 0-.8.2-1.2.5-.4.3-.6.7-.7 1.2h3.1zm5.2-.1c.2 0 .4-.1.5-.3.1-.1.1-.2.1-.4.1-.3 0-.6-.2-.7-.2-.1-.5-.2-.9-.2-.5 0-.9.1-1.1.4-.1.1-.3.4-.4.7h-.9c.2-.7.5-1.2 1-1.4s1-.4 1.6-.4c.7 0 1.2.1 1.5.4.4.3.5.6.4 1.2l-.7 3.2v.2s.1.1.2.1h.3l-.2.7c-.2 0-.3.1-.3.1h-.3c-.3 0-.5-.1-.6-.3-.1-.1-.1-.3-.1-.5-.2.3-.6.5-1 .7-.4.2-.8.3-1.2.3-.5 0-.9-.2-1.2-.5-.3-.3-.3-.7-.2-1.2.1-.5.4-.9.7-1.2.4-.3.8-.5 1.4-.5l1.6-.4zm-1.9 2.8c.3 0 .7-.1 1-.2.6-.3.9-.7 1.1-1.3l.2-.8c-.1.1-.3.1-.5.2s-.4.1-.6.1l-.6.1c-.4 0-.6.1-.8.2-.3.2-.5.4-.6.8-.1.3 0 .5.2.6s.3.3.6.3zm5.8-6.6h1l-.3 1.6h.9l-.2.8h-.9l-.8 3.7c0 .2 0 .3.1.4.1 0 .2.1.4.1h.3l-.2.7c-.1 0-.2.1-.4.1h-.4c-.4 0-.7-.1-.8-.3-.1-.2-.1-.5 0-.9l.8-3.7h-.8l.2-.8h.8l.3-1.7zm3.4 1.6l-.8 3.7c-.1.3-.1.5 0 .7.1.3.4.5.8.5.7 0 1.2-.3 1.5-.9.2-.3.4-.7.5-1.3l.6-2.8h.9l-1.2 5.6h-.9l.2-.8c-.2.2-.4.4-.6.5-.4.3-.9.4-1.4.4-.8 0-1.3-.3-1.5-.8-.1-.3-.1-.7 0-1.1l.8-3.8 1.1.1zm4.8 3.8c0 .3 0 .6.1.7.2.3.5.5 1.1.5.3 0 .7-.1 1-.2.3-.2.5-.4.5-.7.1-.2 0-.4-.2-.5-.1-.1-.4-.2-.7-.3l-.7-.2c-.5-.1-.8-.3-1-.4-.4-.3-.5-.6-.4-1.1.1-.5.4-1 .8-1.3.5-.3 1-.5 1.6-.5.8 0 1.4.2 1.7.7.2.3.2.7.1 1h-.8c0-.2 0-.4-.1-.6-.2-.2-.5-.4-1-.4-.4 0-.6.1-.9.2-.2.1-.3.3-.4.5-.1.2 0 .4.2.6.1.1.3.2.6.2l.6.2c.6.2 1.1.3 1.3.5.3.2.4.6.3 1.1-.1.5-.4.9-.8 1.3-.5.4-1.1.5-1.8.5-.8 0-1.4-.2-1.7-.6-.3-.4-.4-.8-.3-1.4h.9zm9.1-3.8l.5 4.6 2.5-4.6h1l-3.3 5.6h-1l-.9-5.6h1.2zm9.2 2.7c-.2.9-.6 1.7-1.1 2.2-.6.6-1.3.9-2.2.9-.8 0-1.3-.3-1.7-.8-.3-.5-.4-1.2-.2-2.1.2-.9.6-1.7 1.2-2.3.6-.6 1.3-.8 2.1-.8.7 0 1.3.2 1.7.7s.4 1.3.2 2.2zm-1 0c.1-.5.1-1 0-1.3-.2-.5-.6-.8-1.2-.8s-1 .2-1.4.7c-.4.4-.6 1-.7 1.6-.1.6-.1 1.1.1 1.5.2.4.5.6 1.1.6.6 0 1.1-.2 1.4-.7.3-.5.5-1 .7-1.6zm3.1-4.8h.9l-1.6 7.7h-.9l1.6-7.7zm2.9 2.1l-.8 3.7c-.1.3-.1.5 0 .7.1.3.4.5.8.5.7 0 1.2-.3 1.5-.9.2-.3.4-.7.5-1.3l.6-2.8h.9l-1.2 5.6h-.9l.2-.8c-.2.2-.4.4-.6.5-.4.3-.9.4-1.4.4-.8 0-1.3-.3-1.5-.8-.1-.3-.1-.7 0-1.1l.8-3.8h1.1zm5 0h.9l-.2.8c.3-.3.7-.6 1-.7.3-.1.7-.2 1-.2.8 0 1.3.3 1.4.8.1.3.1.7 0 1.3l-.8 3.6h-1l.8-3.5c.1-.3.1-.6 0-.8-.1-.4-.4-.5-.8-.5-.2 0-.4 0-.6.1-.3.1-.5.2-.8.5-.2.2-.3.4-.4.6s-.2.5-.2.8l-.6 2.9h-.9l1.2-5.7zm6.5-1.6h1l-.3 1.6h.9l-.2.8h-.9l-.8 3.7c0 .2 0 .3.1.4.1 0 .2.1.4.1h.3l-.2.7c-.1 0-.2.1-.4.1h-.4c-.4 0-.7-.1-.8-.3-.1-.2-.1-.5 0-.9l.8-3.7h-.8l.2-.8h.8l.3-1.7zm5 3.8c.2 0 .4-.1.5-.3.1-.1.1-.2.1-.4.1-.3 0-.6-.2-.7-.2-.1-.5-.2-.9-.2-.5 0-.9.1-1.1.4-.1.1-.3.4-.4.7h-.9c.2-.7.5-1.2 1-1.4.5-.3 1-.4 1.6-.4.7 0 1.2.1 1.5.4.4.3.5.6.4 1.2l-.7 3.2v.2s.1.1.2.1h.3l-.2.7c-.2 0-.3.1-.3.1h-.3c-.3 0-.5-.1-.6-.3-.1-.1-.1-.3-.1-.5-.2.3-.6.5-1 .7-.4.2-.8.3-1.2.3-.5 0-.9-.2-1.2-.5-.3-.3-.3-.7-.2-1.2.1-.5.4-.9.7-1.2s.8-.5 1.4-.5l1.6-.4zm-1.9 2.8c.3 0 .7-.1 1-.2.6-.3.9-.7 1.1-1.3l.2-.8c-.1.1-.3.1-.5.2l-.6.1-.6.1c-.4 0-.6.1-.8.2-.3.2-.5.4-.6.8-.1.3 0 .5.2.6s.3.3.6.3zm5.3-5h.9l-.2 1c.1-.2.3-.4.7-.7.3-.3.7-.4 1.1-.4h.3l-.2 1h-.4c-.5 0-.9.2-1.2.5s-.5.7-.6 1.1l-.7 3.2h-.8l1.1-5.7zm3.6 0h1l-1.2 5.6h-1l1.2-5.6zm.4-2.1h1l-.2 1.1h-1l.2-1.1zm2 2.1h1l-1.2 5.6h-1l1.2-5.6zm.4-2.1h1l-.2 1.1h-1l.2-1.1zm1.7 6c0 .3 0 .6.1.7.2.3.5.5 1.1.5.3 0 .7-.1 1-.2.3-.2.5-.4.5-.7.1-.2 0-.4-.2-.5-.1-.1-.4-.2-.7-.3l-.7-.2c-.5-.1-.8-.3-1-.4-.4-.3-.5-.6-.4-1.1.1-.5.4-1 .8-1.3.5-.3 1-.5 1.6-.5.8 0 1.4.2 1.7.7.2.3.2.7.1 1h-.9c0-.2 0-.4-.1-.6-.2-.2-.5-.4-1-.4-.4 0-.6.1-.9.2-.2.1-.3.3-.4.5-.1.2 0 .4.2.6.1.1.3.2.6.2l.6.2c.6.2 1.1.3 1.3.5.3.2.4.6.3 1.1-.1.5-.4.9-.8 1.3-.5.4-1.1.5-1.8.5-.8 0-1.4-.2-1.7-.6-.3-.4-.4-.8-.3-1.4h1zm4.9.6h1.1l-.2 1.1h-1.1l.2-1.1z"/><path opacity=".4" fill="#A4DCE9" enable-background="new" d="M107.2 113l-.1-.5-.5-.3c-8.1-4.6-17.1-6.9-26.7-6.9-15.7 0-27.5 6.2-28 6.5l-.6.3-.1.6c-4.3 45.4 27.5 54.7 27.8 54.7l.4.1.4-.1c35.3-13.3 27.4-54 27.4-54.4z"/><path fill="#A4DCE9" d="M79.2 109c-14 .2-24.4 5.8-24.4 5.8-.8 8.3-.2 15.3 1.1 21.1h23.3v-26.9z"/><path fill="#0A7B9F" d="M103.4 135.9c2.4-11 .4-20.7.4-20.7-8.5-4.8-17.1-6.3-24.7-6.2v26.9h24.3zm-47.6 0c5 21.4 21.1 27.2 23.3 27.9v-27.9h-23.3z"/><path fill="#A4DCE9" d="M79.2 135.9v27.9c.2.1.3.1.3.1 15.5-5.9 21.7-17.5 24-28h-24.3z"/><path fill="#fff" d="M79.5 165l-.3-.1c-.3-.1-29.5-8.6-25.5-50.3l.1-.6.5-.3c.5-.2 11.3-6 25.7-6 8.8 0 17 2.1 24.5 6.4l.4.2.1.5c.1.4 7.3 37.6-25.1 49.9l-.4.3zm-23.8-49.5c-3.2 37 20.6 46.2 23.7 47.2 28.3-11 24.1-42.5 23.4-46.8-7-3.9-14.7-5.8-22.9-5.8-12.2 0-21.9 4.3-24.2 5.4zm23.6 35.7c-4.3 0-7.9-1.6-10.1-4.5-1.4-1.9-2.1-4.4-2.1-7.5v-13.4h-3.5v-5.2h13.2v5.2h-3.5v13.3c0 1.6.3 3 .9 4 .9 1.5 2.8 2.3 5.1 2.3s4.2-.9 5.1-2.4c.6-1 .9-2.4.9-3.9v-13.3h-3.5v-5.2h13.1v5.2h-3.5v13.4c0 2.8-.8 5.5-2.1 7.4-2 2.9-5.7 4.6-10 4.6z"/><path fill="#01506F" d="M93.8 121.7v3h-3.5v14.5c0 2.7-.7 5.1-1.9 6.8-1.9 2.7-5.3 4.1-9.1 4.1-3.9 0-7.3-1.5-9.2-4.1-1.3-1.8-1.9-4.1-1.9-6.8v-14.5h-3.5v-3h11v3h-3.5v14.4c0 1.8.3 3.4 1.1 4.5 1.2 1.8 3.3 2.8 6 2.8s4.9-1 6-2.9c.7-1.2 1.1-2.7 1.1-4.5v-14.4h-3.5v-3h10.9m2.2-2.1h-15.3v7.4h3.5v12.2c0 1.3-.3 2.5-.8 3.4-.7 1.2-2.2 1.9-4.1 1.9s-3.4-.7-4.2-1.8c-.5-.8-.7-2-.7-3.4v-12.2h3.6v-7.4h-15.4v7.4h3.5v12.3c0 3.3.8 6 2.3 8.1 2.3 3.2 6.3 5 10.9 5 4.7 0 8.6-1.8 10.9-5 1.5-2.1 2.3-5 2.3-8.1v-12.3h3.5v-7.5z"/><path fill="#6A9E41" d="M124 221.3c0 1-.8 1.8-1.8 1.8h-84.5c-1 0-1.8-.8-1.8-1.8v-15.4c0-1 .8-1.8 1.8-1.8h84.4c1 0 1.8.8 1.8 1.8v15.4z"/><path fill="#8BC541" d="M124 219.9c0 1-.8 1.8-1.8 1.8h-84.5c-1 0-1.8-.8-1.8-1.8v-15.4c0-1 .8-1.8 1.8-1.8h84.4c1 0 1.8.8 1.8 1.8v15.4z"/><path d="M63.4 214.3c0 .7-.1 1.2-.3 1.6-.4.7-1.1 1-2.1 1-.6 0-1.1-.2-1.5-.5-.4-.3-.6-.9-.6-1.7v-.6h1v.6c0 .4.1.8.3 1 .2.2.5.3.9.3.6 0 1-.2 1.1-.6.1-.2.2-.7.2-1.4v-5.3h1.1v5.6zm8.3-4.5c.5.7.8 1.6.8 2.7 0 1.2-.3 2.2-.9 3-.7.9-1.7 1.4-3 1.4-1.2 0-2.2-.4-2.9-1.2-.6-.8-.9-1.8-.9-3 0-1.1.3-2 .8-2.8.7-1 1.7-1.5 3.1-1.5 1.2 0 2.3.5 3 1.4zm-1 5.1c.4-.7.6-1.5.6-2.4 0-.9-.2-1.7-.7-2.3-.5-.6-1.2-.9-2-.9s-1.5.3-2 .9-.8 1.4-.8 2.5c0 .9.2 1.6.7 2.2s1.2.9 2.2.9c.9.1 1.6-.2 2-.9zm3.3-6.2h1.1v8h-1.1v-8zm2.8 0h1.3l4 6.5v-6.5h1v8h-1.2l-4-6.5v6.5h-1v-8zm12.4 0v4.9c0 .6.1 1.1.3 1.4.3.6.9.9 1.6.9.9 0 1.6-.3 1.9-.9.2-.3.3-.8.3-1.4v-4.9h1.1v4.5c0 1-.1 1.7-.4 2.3-.5 1-1.4 1.4-2.8 1.4s-2.3-.5-2.8-1.4c-.3-.5-.4-1.3-.4-2.3v-4.5h1.2zm7.6 5.4c0 .5.1.8.3 1.1.3.5 1 .8 1.8.8.4 0 .7-.1 1.1-.2.6-.2.9-.6.9-1.2 0-.4-.1-.7-.4-.9-.3-.2-.7-.3-1.3-.5l-1-.2c-.7-.2-1.2-.3-1.5-.5-.5-.3-.7-.8-.7-1.5s.2-1.3.7-1.8c.5-.5 1.2-.7 2.1-.7.8 0 1.5.2 2.1.6.6.4.9 1.1.9 1.9h-1c-.1-.4-.2-.8-.3-1-.3-.4-.9-.6-1.6-.6-.6 0-1.1.1-1.3.4-.3.3-.4.6-.4.9 0 .4.2.7.5.9.2.1.7.3 1.4.4l1.1.3c.5.1.9.3 1.2.5.5.4.7.9.7 1.6 0 .9-.3 1.5-.9 1.9-.6.4-1.4.6-2.2.6-1 0-1.7-.3-2.3-.8-.5-.5-.8-1.2-.8-2.1h.9z" fill="#fff"/></g><defs><circle id="s" cx="79.8" cy="170.1" r="75.1"/></defs><clipPath><use xlink:href="#s" overflow="visible"/></clipPath><use xlink:href="#s" overflow="visible" stroke="#715CA7" stroke-width="3.727" stroke-miterlimit="10" fill="none"/><defs><circle id="t" cx="79.8" cy="170.1" r="75.1"/></defs><clipPath id="u"><use xlink:href="#t" overflow="visible"/></clipPath><g clip-path="url(#u)"><defs><path id="v" d="M-164 80h549.9v175.1h-549.9z"/></defs><clipPath><use xlink:href="#v" overflow="visible"/></clipPath></g><defs><circle id="w" cx="79.8" cy="170.1" r="75.1"/></defs><clipPath><use xlink:href="#w" overflow="visible"/></clipPath></svg>