<svg xmlns="http://www.w3.org/2000/svg" viewBox="0 0 1200 433" enable-background="new 0 0 1200 433"><linearGradient id="a" gradientUnits="userSpaceOnUse" x1="131.847" y1="8287.576" x2="131.847" y2="8423.571" gradientTransform="matrix(.964 0 0 -.964 2.249 8396.818)"><stop offset="0" stop-color="#A53323"/><stop offset=".332" stop-color="#A23222"/><stop offset=".601" stop-color="#982D1D"/><stop offset=".846" stop-color="#872616"/><stop offset="1" stop-color="#78200F"/></linearGradient><path fill="url(#a)" d="M22.5 277.2h213.7v131.1h-213.7v-131.1z"/><path fill="#531711" d="M94.1 402.9c0 10.3-8.4 18.3-18.3 18.3s-18.3-8.4-18.3-18.3v-28.6c0-10.3 8-18.3 18.3-18.3 10 0 18.3 8 18.3 18.3v28.6zm55 0c0 10.3-8 18.3-18.3 18.3s-18.3-8.4-18.3-18.3v-28.6c0-10.3 8-18.3 18.3-18.3s18.3 8 18.3 18.3v28.6zm54.9 0c0 10.3-8 18.3-18.3 18.3s-18.3-8.4-18.3-18.3v-28.6c0-10.3 8.4-18.3 18.3-18.3 10 0 18.3 8 18.3 18.3v28.6z"/><path fill="#fff" d="M58.5 304.2h28.9v28.9h-28.9v-28.9zm56.2 0h28.9v28.9h-28.9v-28.9zm56.2 0h28.9v28.9h-28.9v-28.9z"/><linearGradient id="b" gradientUnits="userSpaceOnUse" x1="1107.988" y1="8287.576" x2="1107.988" y2="8423.571" gradientTransform="matrix(.964 0 0 -.964 2.249 8396.818)"><stop offset="0" stop-color="#A53323"/><stop offset=".332" stop-color="#A23222"/><stop offset=".601" stop-color="#982D1D"/><stop offset=".846" stop-color="#872616"/><stop offset="1" stop-color="#78200F"/></linearGradient><path fill="url(#b)" d="M963.5 277.2h213.7v131.1h-213.7v-131.1z"/><path fill="#531711" d="M1034.9 402.9c0 10.3-8.4 18.3-18.3 18.3-10 0-18.3-8.4-18.3-18.3v-28.6c0-10.3 8.4-18.3 18.3-18.3 10 0 18.3 8 18.3 18.3v28.6zm54.9 0c0 10.3-8 18.3-18.3 18.3-10 0-18.3-8.4-18.3-18.3v-28.6c0-10.3 8-18.3 18.3-18.3s18.3 8 18.3 18.3v28.6zm55.3 0c0 10.3-8.4 18.3-18.3 18.3s-18.3-8.4-18.3-18.3v-28.6c0-10.3 8-18.3 18.3-18.3 10 0 18.3 8 18.3 18.3v28.6z"/><path fill="#fff" d="M999.5 304.2h28.9v28.9h-28.9v-28.9zm56.2 0h28.9v28.9h-28.9v-28.9zm56.3 0h28.9v28.9h-28.9v-28.9z"/><path fill="#A78671" d="M883.5 249.6l28 24.1h-34.4l6.4-24.1z"/><path fill="#fff" d="M875.8 172.5h19v103.5h-19v-103.5z"/><path fill="#A78671" d="M326.4 249.6l-28.3 24.1h34.4l-6.1-24.1z"/><linearGradient id="c" gradientUnits="userSpaceOnUse" x1="-2043.361" y1="8524.076" x2="-2043.361" y2="8422.416" gradientTransform="matrix(-.964 0 0 -.964 -1188.1 8396.818)"><stop offset="0" stop-color="#A53323"/><stop offset=".332" stop-color="#A23222"/><stop offset=".601" stop-color="#982D1D"/><stop offset=".846" stop-color="#872616"/><stop offset="1" stop-color="#78200F"/></linearGradient><path fill="url(#c)" d="M686.3 180.2h190.8v98h-190.8v-98z"/><path fill="#531711" d="M830.8 273.4c0 7.7 6.4 14.1 14.1 14.1 7.7 0 14.1-6.4 14.1-14.1v-21.8c0-7.7-6.4-14.1-14.1-14.1-7.7 0-14.1 6.4-14.1 14.1v21.8zm-42.4 0c0 7.7 6.4 14.1 14.1 14.1s14.1-6.4 14.1-14.1v-21.8c0-7.7-6.4-14.1-14.1-14.1s-14.1 6.4-14.1 14.1v21.8zm-42.4 0c0 7.7 6.4 14.1 14.1 14.1s14.1-6.4 14.1-14.1v-21.8c0-7.7-6.4-14.1-14.1-14.1s-14.1 6.4-14.1 14.1v21.8zm-42.7 0c0 7.7 6.4 14.1 14.1 14.1s14.1-6.4 14.1-14.1v-21.8c0-7.7-6.4-14.1-14.1-14.1s-14.1 6.4-14.1 14.1v21.8z"/><path fill="#A78671" d="M921.4 180.2l-63.6-43.4h-172.8v43.4h236.4z"/><path fill="#fff" d="M836 196.9h22.2v22.2h-22.2v-22.2zm-43.4 0h22.2v22.2h-22.2v-22.2zm-43.7 0h22.2v22.2h-22.2v-22.2zm-43.4 0h22.2v22.2h-22.2v-22.2zm-10.9-110.5h-34.7v189.9h26.3v-185.4h8.4v-4.5zm-374.6 86.1h19v103.5h-19v-103.5z"/><linearGradient id="d" gradientUnits="userSpaceOnUse" x1="448.289" y1="8524.076" x2="448.289" y2="8422.416" gradientTransform="matrix(.964 0 0 -.964 2.249 8396.818)"><stop offset="0" stop-color="#A53323"/><stop offset=".332" stop-color="#A23222"/><stop offset=".601" stop-color="#982D1D"/><stop offset=".846" stop-color="#872616"/><stop offset="1" stop-color="#78200F"/></linearGradient><path fill="url(#d)" d="M339 180.2h190.8v98h-190.8v-98z"/><path fill="#531711" d="M384.9 273.4c0 7.7-6.4 14.1-14.1 14.1s-14.1-6.4-14.1-14.1v-21.8c0-7.7 6.4-14.1 14.1-14.1s14.1 6.4 14.1 14.1v21.8zm42.7 0c0 7.7-6.4 14.1-14.1 14.1s-14.1-6.4-14.1-14.1v-21.8c0-7.7 6.4-14.1 14.1-14.1s14.1 6.4 14.1 14.1v21.8zm42.4 0c0 7.7-6.4 14.1-14.1 14.1s-14.1-6.4-14.1-14.1v-21.8c0-7.7 6.4-14.1 14.1-14.1s14.1 6.4 14.1 14.1v21.8zm42.4 0c0 7.7-6.4 14.1-14.1 14.1s-14.1-6.4-14.1-14.1v-21.8c0-7.7 6.4-14.1 14.1-14.1s14.1 6.4 14.1 14.1v21.8z"/><path fill="#A78671" d="M294.3 180.2l63.9-43.4h172.5v43.4h-236.4z"/><path fill="#fff" d="M357.6 196.9h22.2v22.2h-22.2v-22.2zm43.7 0h22.2v22.2h-22.2v-22.2zm43.4 0h22.2v22.2h-22.2v-22.2zm43.3 0h22.2v22.2h-22.2v-22.2zm33.1-109.9h34.4v189.2h-26.3v-184.7h-8v-4.5h-.1z"/><linearGradient id="e" gradientUnits="userSpaceOnUse" x1="628.787" y1="8612.41" x2="628.787" y2="8411.787" gradientTransform="matrix(.964 0 0 -.964 2.249 8396.818)"><stop offset="0" stop-color="#A53323"/><stop offset=".332" stop-color="#A23222"/><stop offset=".601" stop-color="#982D1D"/><stop offset=".846" stop-color="#872616"/><stop offset="1" stop-color="#78200F"/></linearGradient><path fill="url(#e)" d="M554.9 95.1h107v193.4h-107v-193.4z"/><path fill="#A53323" d="M511.2 95.7h194.4l-96.1-95.7-98.3 95.7z"/><path fill="#531711" d="M598.2 273.4c0 7.7-6.4 14.1-14.1 14.1s-14.1-6.4-14.1-14.1v-21.8c0-7.7 6.4-14.1 14.1-14.1s14.1 6.4 14.1 14.1v21.8zm44.4 0c0 7.7-6.4 14.1-14.1 14.1s-14.1-6.4-14.1-14.1v-21.8c0-7.7 6.4-14.1 14.1-14.1s14.1 6.4 14.1 14.1v21.8z"/><path fill="#fff" d="M573.5 102.5h22.2v22.2h-22.2v-22.2zm44.3 0h22.2v22.2h-22.2v-22.2zm-44.3 45.9h22.2v22.2h-22.2v-22.2zm44.3 0h22.2v22.2h-22.2v-22.2zm-44.3 46h22.2v22.2h-22.2v-22.2zm44.3 0h22.2v22.2h-22.2v-22.2z"/><path fill="#531711" d="M624.3 59.4c0 9-7.4 16.4-16.4 16.4s-16.4-7.4-16.4-16.4 7.4-16.4 16.4-16.4 16.4 7.1 16.4 16.4z"/><path fill="#A78671" d="M225.9 235.8h-189.9l-36 58.8h259l-33.1-58.8zm940.7 0h-189.6l-36 58.8h259l-33.4-58.8zm-531.6 172.5l-14.6-113.7h291.1v-20.9h-613.3v20.9h294.4l-17.8 114.4.1-.7h-555.9v24.1h1161.4v-24.1h-545.4z"/></svg>