<svg xmlns="http://www.w3.org/2000/svg" viewBox="0 0 183.8 131.1" enable-background="new 0 0 183.8 131.1"><path d="M6 7h174v121.1h-174zm0 80.7h173.9m-173.9-40.4h173.9m-43.5-40.3v121.1m-43.4-121.1v121.1m-43.5-121.1v121.1" stroke="#7AC1E5" stroke-width="5" stroke-miterlimit="10" fill="none"/><path stroke="#3F7A9E" stroke-width="8.323" stroke-linecap="round" stroke-linejoin="round" stroke-miterlimit="10" d="M6.5 125.3l41.9-76.4 42.1 44.4 85.2-85.2" fill="none"/><path fill="#2D3C49" d="M56.2 48.9c0 4-3.3 7.3-7.3 7.3s-7.3-3.3-7.3-7.3 3.3-7.3 7.3-7.3 7.3 3.3 7.3 7.3zm42.6 43.4c0 4-3.3 7.3-7.3 7.3s-7.3-3.3-7.3-7.3 3.3-7.3 7.3-7.3 7.3 3.3 7.3 7.3zm85-85c0 4-3.3 7.3-7.3 7.3s-7.3-3.3-7.3-7.3 3.3-7.3 7.3-7.3 7.3 3.3 7.3 7.3zm-169.3 116.5c0 4-3.3 7.3-7.3 7.3s-7.3-3.3-7.3-7.3 3.3-7.3 7.3-7.3c4.1 0 7.3 3.3 7.3 7.3z"/></svg>