<svg xmlns="http://www.w3.org/2000/svg" viewBox="0 0 978.5 297.9" enable-background="new 0 0 978.5 297.9"><title>gg-logo-vector-out</title><path fill="#11C1EB" d="M154.3 114.3h-48v22.5h34.9c3.7 0 5.8 2.1 5.8 5.8v18.6s-19.6 23.1-52.6 23.1c-37.5 0-67-28.8-67-71.8 0-41.1 29.6-70.7 66.5-70.7 30.6 0 50.6 17.8 50.6 17.8l14.9-19.1s-21.7-22.8-66-22.8c-53.1-.1-93.4 41.6-93.4 94.8 0 57.6 40.9 96.4 90.1 96.4 36.9 0 57.6-22.5 57.6-22.5h.5s-.3 3.9-.3 7.9v11.5h23.1v-74.6c0-11.9-4.9-16.9-16.7-16.9zM230.4 178.2v-88.3c0-11.8-5-16.8-16.8-16.8h-24.9v21.7h10.7c3.7 0 5.8 1.8 5.8 5.8v88.3c0 11.8 5 16.8 16.8 16.8h24.9v-21.7h-10.7c-3.7 0-5.8-1.9-5.8-5.8zM382.6 73.2h-12.3c-11.5 0-16.2 2.9-20.2 13.4l-28.3 76.2c-2.6 7.3-4.7 17.3-4.7 17.3h-.5s-2.1-10-4.7-17.3l-28.5-76.2c-3.9-10.5-8.4-13.4-20.2-13.4h-13.1v21.7h2.6c4.2 0 6.5 1.3 8.1 5.2l40.9 105.6h29.3l40.3-105.6c1.6-3.9 4.2-5.2 8.6-5.2h2.6v-21.7zM495.5 95.6c-9.2-15.5-25.3-25.6-47.7-25.6-37.7 0-66.5 27.2-66.5 69.4 0 39.3 28.6 69.4 70.4 69.4 31.4 0 51.1-19.4 51.1-19.4l-11-18.1s-16 15.5-38.8 15.5c-23.6 0-44-16-45.6-44.3h90.6c-2.4-9.5-3.8-19.6-3.8-30.1.1-5.7.5-11.3 1.3-16.8zm-87 28.4c3.9-22 19.6-33.8 39-33.8 16.5 0 30.4 11.8 31.2 33.8h-70.2z"/><path fill="#F47E20" d="M658.7 114.3h-51.4v22.5h38.3c3.7 0 5.8 2.1 5.8 5.8v18.6s-19.6 23.1-52.6 23.1c-37.5 0-67-28.8-67-71.8 0-41.1 29.6-70.7 66.5-70.7 30.6 0 50.6 17.8 50.6 17.8l14.9-19.1s-21.7-22.8-66-22.8c-52.9 0-93.2 41.6-93.2 94.8 0 57.6 40.9 96.4 90.1 96.4 36.9 0 57.6-22.5 57.6-22.5h.5s-.3 3.9-.3 7.9v11.5h23v-74.6c-.1-11.9-5-16.9-16.8-16.9zM798.3 178.2v-56.3c0-29.3-11.5-51.9-54.5-51.9-12.8 0-45.8 3.1-45.8 24.9v13.1h23.8v-7.6c0-8.6 15.5-10.2 21.7-10.2 20.7 0 29.3 8.4 29.3 31.7v1.3h-5.8c-22.3 0-79.9 2.6-79.9 45.3 0 26.5 22.3 40.3 45.1 40.3 31.7 0 42.2-26.2 42.2-26.2h.5s-.5 3.4-.5 7.9c0 9.4 4.7 15.2 16.5 15.2h23.8v-21.7h-10.7c-3.7 0-5.7-1.9-5.7-5.8zm-25.2-32c0 19.6-13.9 42.2-35.4 42.2-16.8 0-24.9-10.5-24.9-21.2 0-24.4 34.6-25.4 53.7-25.4h6.5v4.4zM898.8 70c-31.2 0-42.7 21.7-42.7 21.7h-.5s.5-4.7.5-11v-43.1c0-11.8-5-16.8-16.8-16.8h-25.1v21.7h10.8c3.7 0 5.8 1.8 5.8 5.8v157.4h24.4v-9.2c0-5.8-.5-9.9-.5-9.9h.5s12 22.3 41.6 22.3c34.8 0 60.2-27.2 60.2-69.4 0-41.2-22.6-69.5-58.2-69.5zm-5.7 117.1c-25.1 0-37.5-23.6-37.5-47.1 0-33.8 18.3-47.7 38-47.7 22.3 0 37.7 18.6 37.7 47.4 0 30.1-17.3 47.4-38.2 47.4z"/><path fill="#0DC1E9" d="M229.5 36c0 10.4-8.4 18.8-18.9 18.8-10.4 0-18.8-8.4-18.8-18.8s8.4-18.8 18.8-18.8c10.5-.1 18.9 8.4 18.9 18.8z"/><path fill="#F47E20" d="M958.4 0c11.3 0 20.4 9.2 20.4 20.7 0 11.6-9.1 20.7-20.4 20.7-11.1 0-20.1-9.1-20.1-20.7 0-11.5 9-20.7 20.1-20.7zm0 38.3c9.7 0 17.1-7.7 17.1-17.6 0-9.8-7.4-17.6-17.1-17.6-9.4 0-16.7 7.7-16.7 17.6-.1 9.9 7.2 17.6 16.7 17.6zm-6.8-28.7h7.9c3.9 0 6.7 2.6 6.7 6.6 0 3.3-2.1 5.4-4.2 5.9v.1s.2.3.7 1.3l4.3 8.4h-3.5l-4.4-9h-4.3v9h-3.2v-22.3zm7.4 10.7c2.4 0 3.9-1.5 3.9-4.1 0-2.5-1.5-3.9-3.9-3.9h-4.2v8h4.2z"/><g fill="#2D3C49"><path d="M59.6 279.9h6.2v-39.3h-6.2v-3.9h10.7l26.4 37.2c.7 1.1 1.4 2.9 1.4 2.9h.1s-.3-2-.2-3.3v-32.9h-6.2v-3.9h17.1v3.9h-6.2v43.2h-4.6l-26.4-37.2c-.7-1.1-1.4-2.9-1.4-2.9h-.1s.3 2 .2 3.2v33h6.2v3.9h-17v-3.9zM131.1 249.3c9.9 0 17.8 7.5 17.8 17.5 0 10.2-8 17.8-17.8 17.8s-17.8-7.6-17.8-17.8c0-10 8-17.5 17.8-17.5zm0 31.2c7.2 0 13.1-5.9 13.1-13.7 0-7.6-5.9-13.4-13.1-13.4-7.2 0-13.1 5.8-13.1 13.4 0 7.8 5.9 13.7 13.1 13.7zM154.7 280h5.7v-24.7c0-1-.5-1.5-1.5-1.5h-4.6v-3.8h6.4c2.8 0 4.1 1.2 4.1 3.8v1.9c0 1.3-.3 2.4-.3 2.4h.1c.9-2.5 5.3-8.9 13.7-8.9 8.3 0 11.2 4.8 11.2 13.1v17.7h5.7v3.8h-10.3v-20.2c0-5.3-.9-10-7.4-10-7.4 0-12.8 6.6-12.8 14v12.4h5.7v3.8h-16v-3.8zM204.4 293.4v-38.1c0-1-.5-1.5-1.5-1.5h-4.6v-3.8h6.4c2.9 0 4 1.2 4 3.6v.3c0 1.3-.2 2.3-.2 2.3h.1s2.7-7 11.8-7c9 0 14.7 7.2 14.7 17.7 0 10.7-6.4 17.6-15.1 17.6-8.1 0-11.1-6.7-11.1-6.7h-.1s.2 1.2.2 2.9v12.6h5.7v3.8h-16v-3.8h5.7zm15.1-12.9c6 0 10.9-5 10.9-13.5 0-8.2-4.4-13.5-10.7-13.5-5.6 0-10.9 4-10.9 13.6 0 6.7 3.8 13.4 10.7 13.4zM241.8 280h5.2v-24.7c0-1-.5-1.5-1.5-1.5h-4.5v-3.8h6.4c2.8 0 4.1 1.1 4.1 3.8v2.3c0 1.4-.1 2.5-.1 2.5h.1c1.7-5.1 5.4-9 10.7-9 .9 0 1.9.2 1.9.2v4.5s-.9-.1-1.7-.1c-7.6 0-10.7 8.5-10.7 15.2v10.6h5.2v3.8h-15v-3.8zM285.3 249.3c9.9 0 17.8 7.5 17.8 17.5 0 10.2-8 17.8-17.8 17.8s-17.8-7.6-17.8-17.8c.1-10 8-17.5 17.8-17.5zm0 31.2c7.2 0 13.1-5.9 13.1-13.7 0-7.6-5.9-13.4-13.1-13.4-7.2 0-13.1 5.8-13.1 13.4.1 7.8 6 13.7 13.1 13.7zM309 280h5.7v-26.2h-6v-3.8h6v-1.7c0-10.7 7.5-12 11-12 1.7 0 2.7.2 2.7.2v4s-.9-.2-2.3-.2c-2.3 0-6.9.8-6.9 8v1.8h22.1v30h5.7v3.8h-16v-3.9h5.7v-26.2h-17.6v26.2h6.7v3.8h-17v-3.8zm27.5-43.3h5.2v5.7h-5.2v-5.7zM355.9 253.8h-6v-3.8h6.1v-9.3h4.5v9.3h8.5v3.8h-8.5v17.3c0 7.9 5 9 7.6 9 .9 0 1.5-.1 1.5-.1v4s-.8.1-1.9.1c-3.9 0-11.8-1.3-11.8-12.5v-17.8zM416.2 235.9c8.1 0 17.8 3.4 17.8 9.3v5.2h-4.5v-3.6c0-4.4-7.2-6.6-13.2-6.6-12 0-19.6 8.4-19.6 20s7.8 20.2 19.6 20.2c4.7 0 14.4-1.5 14.4-6.8v-7.4h-9.9v-3.9h14.3v12.3c0 7.3-11.8 10-18.9 10-14.5 0-24.4-10.5-24.4-24.4s9.8-24.3 24.4-24.3zM442.3 280h5.7v-26.2h-6v-3.8h10.6v30h5.7v3.8h-16v-3.8zm5.5-43.3h5.2v5.7h-5.2v-5.7zM460.3 250.1h13.9v3.8h-4.8l8.4 22.6c.5 1.2.7 2.6.7 2.6h.2s.2-1.4.7-2.6l8.4-22.6h-4.8v-3.8h14v3.8h-4.4l-11.5 30h-4.9l-11.5-30h-4.4v-3.8zM500.6 280h5.7v-26.2h-6v-3.8h10.6v30h5.7v3.8h-16v-3.8zm5.4-43.3h5.2v5.7h-5.2v-5.7zM521.6 280h5.7v-24.7c0-1-.5-1.5-1.5-1.5h-4.6v-3.8h6.4c2.8 0 4.1 1.2 4.1 3.8v1.9c0 1.3-.3 2.4-.3 2.4h.1c.9-2.5 5.3-8.9 13.7-8.9 8.3 0 11.2 4.8 11.2 13.1v17.7h5.7v3.8h-10.3v-20.2c0-5.3-.9-10-7.4-10-7.4 0-12.8 6.6-12.8 14v12.4h5.7v3.8h-16v-3.8zM580.9 293.8c6.6 0 11.8-3.1 11.8-10.7v-3.4c0-1.3.2-2.4.2-2.4h-.1c-2 3.8-5.5 6.2-10.7 6.2-9 0-15-7.2-15-17.3 0-10.1 5.6-17 14.6-17 4.8 0 9.5 1.8 11.3 6h.1s-.1-.5-.1-1.5c0-2.5 1-3.7 3.9-3.7h6v3.8h-4.2c-.9 0-1.5.5-1.5 1.4v27.8c0 10.7-7.9 14.9-16.2 14.9-3.8 0-7.7-1-11-2.7l1.7-3.7c.1 0 4.2 2.3 9.2 2.3zm11.9-27.5c0-9.9-4.7-12.9-10.7-12.9-6.6 0-10.4 4.8-10.4 12.9 0 8.1 4.4 13.3 11 13.3 5.4-.1 10.1-3.4 10.1-13.3zM625.1 279.9h6.2v-39.3h-6.2v-3.9h21.5c2.9 0 5.8.3 8 1.3 4.6 2.1 7.6 6.8 7.6 12.8 0 6.5-3.4 11.5-8.6 13.4-2.2.7-4.4.9-7 .9h-10.6v14.7h6.2v3.9h-17v-3.8zm21.1-18.8c2.2 0 4.1-.3 5.7-.9 3.5-1.4 5.6-4.8 5.6-9.4 0-4.3-1.8-7.4-4.9-9-1.7-.7-3.9-1.1-6.4-1.1h-10.2v20.4h10.2zM670.5 240.4h-6v-3.8h10.5v38.4c0 2.7.7 5 3.8 5 1.2 0 1.9-.1 1.9-.1v3.9s-1.3.2-2.6.2c-4.4 0-7.6-2.2-7.6-8.6v-35zM705.6 263.1h2.2v-1.4c0-6.3-3.4-8.5-8.1-8.5-5.7 0-9.8 3.3-9.8 3.3l-2.1-3.4s4.6-3.8 12.2-3.8c8.2 0 12.4 4.4 12.4 12.7v16.6c0 1 .5 1.5 1.5 1.5h3.7v3.8h-5.6c-2.9 0-4-1.3-4-3.7v-.6c0-1.6.2-2.6.2-2.6h-.1s-2.9 7.7-11.5 7.7c-5.5 0-11.3-3.2-11.3-10.1 0-11 14.6-11.5 20.3-11.5zm-8.4 17.7c6.8 0 10.6-6.8 10.6-12.7v-1.6h-1.9c-2.7 0-15.9-.3-15.9 7.5 0 3.6 2.5 6.8 7.2 6.8zM726.1 253.8h-6v-3.8h6.1v-9.3h4.5v9.3h8.5v3.8h-8.5v17.3c0 7.9 5 9 7.6 9 .9 0 1.5-.1 1.5-.1v4s-.8.1-1.9.1c-3.9 0-11.8-1.3-11.8-12.5v-17.8zM744.7 280h5.7v-26.2h-6v-3.8h6v-1.7c0-10.7 7.5-12 11-12 1.7 0 2.7.2 2.7.2v4s-.9-.2-2.3-.2c-2.3 0-6.9.8-6.9 8v1.8h8.6v3.8h-8.6v26.1h6.7v3.8h-17v-3.8zM785.5 249.3c9.9 0 17.8 7.5 17.8 17.5 0 10.2-8 17.8-17.8 17.8s-17.8-7.6-17.8-17.8c.1-10 8.1-17.5 17.8-17.5zm0 31.2c7.2 0 13.1-5.9 13.1-13.7 0-7.6-5.9-13.4-13.1-13.4-7.2 0-13.1 5.8-13.1 13.4.1 7.8 6 13.7 13.1 13.7zM809.5 280h5.2v-24.7c0-1-.5-1.5-1.5-1.5h-4.6v-3.8h6.4c2.8 0 4.1 1.1 4.1 3.8v2.3c0 1.4-.1 2.5-.1 2.5h.1c1.7-5.1 5.4-9 10.7-9 .9 0 1.9.2 1.9.2v4.5s-.9-.1-1.7-.1c-7.6 0-10.7 8.5-10.7 15.2v10.6h5.2v3.8h-15v-3.8zM836 280h5.7v-24.7c0-1-.5-1.5-1.5-1.5h-4.6v-3.8h6.4c2.8 0 4.1 1.2 4.1 3.8v1.9c0 1.3-.3 2.4-.3 2.4h.1c1.7-4.6 7.2-8.9 12.5-8.9 6.1 0 9.3 2.9 10.3 8.6h.1c1.9-4.5 6.8-8.6 12.5-8.6 8.1 0 11.1 4.8 11.1 13.1v17.7h5.7v3.8h-10.1v-20.3c0-5.5-1.1-10.1-7.2-10.1-6.8 0-11.3 7.2-11.3 14.2v12.4h5.7v3.8h-10.3v-20.3c0-5.1-.7-10.1-7.1-10.1-6.9 0-11.5 7.3-11.5 14.3v12.3h5.7v3.8h-16v-3.8z"/></g></svg>