<svg xmlns="http://www.w3.org/2000/svg" viewBox="0 0 640 290" enable-background="new 0 0 640 290"><g opacity=".3" fill="#CDF3F7"><path d="M869.8 1395.7l-.3.1c0 .1.1.1.1.1 0-.1.1-.2.2-.2zM806.6 1388c0-.5-.1-1.1-.1-1.7-.7.8-1.1 1.5-1.2 2.2.3-.1.8-.3 1.3-.5zM529.7 1415c-4.6-4.9-7.3-9.8-8.5-14.5-11.2-1.5-23.9-1.4-29.5-1.1-24.4 1.1-49 8.9-66.5 23.3 16.1-9.5 35.9-14.7 55.5-15.6 10-.4 42-.4 49 7.9zM1026.8 1451.4c-10.5-17.1-29.3-20-50.4-18.5-4.4.3-21.1.8-22 6.7 3.5-24.1-5-47.9-35-56.3-13.1-3.7-40.3 1.4-49.6 12.4 12.1-5.5 29.1-7.4 38.6-4.7 30 8.4 38.6 32.3 35 56.3.9-5.9 17.6-6.3 22-6.6 21.1-1.5 40 1.6 50.4 18.6 1.9 3.2 3.2 12.8 1.2 16.6-1.4 2.8 2 9.1-.6 11.1h16.8c4.5-7-4.5-32.4-6.4-35.6zM665.1 1361.5c1-4.1 3.2-8.1 6.3-11.9-5.9-4.5-16.8-10.4-29.4-5.2-4.9 2.1-8.5 4.8-11.1 7.7.1 0 .1 0 .2-.1 18.8-7.8 34 9.5 34 9.5zM613 1378.1c0-.1-.4-8.6 5.4-16.4-17.5-19.6-57.1-12.9-76.3 4.5 23.9-13 60.2-13.6 70.9 11.9z" opacity=".8"/><path d="M824.7 1378.3c-11.1 2.9-16.1 5.7-18.2 8.1.1.6.1 1.2.1 1.7.1 0 .1 0 .2-.1l-1.8.6c.1 0 .1 0 .2-.1.2-.7.5-1.4 1.2-2.2-.8-9.2-3.3-24.3-5.4-28.8-13.2-29.4-50.8-45.7-84.9-37.2-8.5 2.1-18.5 7.4-26.4 14.1 5.2-3 10.6-5.2 15.5-6.5 15.5-3.9 32.9-2.6 47.7 3.4 14.1 5.7 28.8 15.3 35.1 29.8 5.7 13.3 8.5 27.6 3.8 41.5-1.7 4.9-3.8 9.5-6 14.3-.4 1-.9 1.9-1.4 2.9 14.2-8.1 22.4-29.9 22.4-29.9.4-.9.5-1.6.5-2.1 1.9-.6 4-1.3 6.4-1.9 27.5-7.1 44.9 17.7 44.9 17.7 2.5-3.1 6.3-5.7 10.9-7.8-1.3-1.7-18.4-24.4-44.8-17.5zm-29 21.8s-3.4-2.5-.2-6.1c.2 2.7.3 4.8.2 6.1z"/></g><path d="M1015.8 1458.7c-10.5-17.1-29.3-19.8-50.4-18.4-4.4.3-21.1.9-22 6.8 3.5-24.1-5-47.8-35-56.3-13.2-3.7-40.8 1.5-49.8 12.7 0 0-17.4-24.7-44.9-17.6-2.4.6-4.6 1.3-6.4 1.9 0 .5-8.7 23.9-22.9 32 1.4-2.7 2.7-5.5 3.9-8.4 4.6-10.8 8-21.4 5.2-33.3-3.7-15-10.2-29-23.4-37.7-5.9-3.9-12.4-7-19-9.6-6.7-2.6-13.7-4.5-20.9-5.1-7.4-.6-14.8.4-22.1 1.7l-2.7.5c-15.8 3.9-36.6 18.7-40.1 33.6 0 0-15.1-17.3-34.1-9.4-18.9 7.8-18 25.8-18 26-19.5-46.4-109.4-15-83.3 37-7-8.3-39-8.4-48.9-7.9-26.4 1.2-53.1 9.6-70.6 26.4-15.7 15-20.7 35.5-28.1 53.5h639.7c1.9-3.1-4.2-25.2-6.2-28.4z" opacity=".8" fill="#fff"/><g opacity=".3" fill="#CDF3F7"><path d="M204.4 217.8zM184.3 215.4v-.5c-.2.2-.3.5-.4.7.1-.1.3-.2.4-.2zM96.4 224c-1.5-1.6-2.3-3.1-2.7-4.6-3.6-.5-7.6-.4-9.4-.3-7.7.4-15.6 2.8-21.1 7.4 5.1-3 11.4-4.7 17.6-5 3.2-.2 13.3-.2 15.6 2.5zM254.3 235.6c-3.3-5.4-9.3-6.4-16-5.9-1.4.1-6.7.2-7 2.1 1.1-7.6-1.6-15.2-11.1-17.9-4.2-1.2-12.8.4-15.7 3.9 3.8-1.7 9.2-2.4 12.3-1.5 9.5 2.7 12.3 10.3 11.1 17.9.3-1.9 5.6-2 7-2.1 6.7-.5 12.7.5 16 5.9.6 1 1 4.1.4 5.4-.5.9.7 2.6-.2 3.6h5.3c1.4-3-1.5-10.4-2.1-11.4zM139.4 207c.3-1.3 1-2.6 2-3.8-1.9-1.4-5.3-3.3-9.3-1.7-1.6.7-2.7 1.5-3.5 2.5h.1c5.9-2.5 10.7 3 10.7 3zM122.8 212.2s-.1-2.7 1.7-5.2c-5.6-6.2-18.2-4.1-24.2 1.4 7.6-4.1 19.1-4.3 22.5 3.8z" opacity=".8"/><path d="M190.1 212.3c-3.5.9-5.1 1.8-5.8 2.6v.5h.1l-.6.2h.1c.1-.2.2-.4.4-.7-.3-2.9-1.1-7.7-1.7-9.2-4.2-9.3-16.1-14.5-27-11.8-2.7.7-5.9 2.3-8.4 4.5 1.7-.9 3.4-1.7 4.9-2.1 4.9-1.2 10.5-.8 15.1 1.1 4.5 1.8 9.2 4.8 11.1 9.5 1.8 4.2 2.7 8.8 1.2 13.2-.5 1.6-1.2 3-1.9 4.5l-.4.9c4.5-2.6 7.1-9.5 7.1-9.5.1-.3.2-.5.2-.7.6-.2 1.3-.4 2-.6 8.7-2.2 14.3 5.6 14.3 5.6.8-1 2-1.8 3.5-2.5-.4-.5-5.8-7.7-14.2-5.5zm-9.2 6.9s-1.1-.8-.1-1.9c.1.8.1 1.5.1 1.9z"/></g><path d="M250.8 237.9c-3.3-5.4-9.3-6.3-16-5.9-1.4.1-6.7.3-7 2.1 1.1-7.6-1.6-15.2-11.1-17.9-4.2-1.2-13 .5-15.8 4 0 0-5.5-7.9-14.3-5.6-.8.2-1.4.4-2 .6 0 .2-2.8 7.6-7.3 10.2.4-.9.9-1.8 1.2-2.7 1.5-3.4 2.6-6.8 1.6-10.6-1.2-4.8-3.2-9.2-7.4-12-1.9-1.2-3.9-2.2-6-3-2.1-.8-4.4-1.4-6.7-1.6-2.4-.2-4.7.1-7 .5-.3 0-.6.1-.9.2-5 1.2-11.6 5.9-12.7 10.7 0 0-4.8-5.5-10.8-3-6 2.5-5.7 8.2-5.7 8.2-6.2-14.7-34.8-4.8-26.5 11.7-2.2-2.7-12.4-2.7-15.5-2.5-8.4.4-16.9 3.1-22.4 8.5-5 4.8-6.6 11.1-8.9 17.1h203.3c.5-.9-1.5-8-2.1-9z" opacity=".8" fill="#fff"/><g opacity=".3" fill="#CDF3F7"><path d="M575.9 122.4c-.1 0-.1.1 0 0zM555.8 120v-.5c-.2.2-.3.5-.4.7.1-.1.3-.2.4-.2zM467.9 128.5c-1.5-1.6-2.3-3.1-2.7-4.6-3.6-.5-7.6-.4-9.4-.3-7.7.4-15.6 2.8-21.1 7.4 5.1-3 11.4-4.7 17.6-5 3.2-.1 13.3-.1 15.6 2.5zM625.8 139.9c-3.3-5.4-9.3-6.3-16-5.8-1.4.1-6.7.3-7 2.2 1.1-7.6-1.6-15.2-11.1-17.9-4.2-1.2-12.8.4-15.7 4 3.8-1.7 9.2-2.3 12.3-1.5 9.5 2.7 12.3 10.3 11.1 17.9.3-1.9 5.6-2 7-2.1 6.7-.5 12.7.5 16 5.9.6 1 1 3.9.4 5.1-.5.9.7 3.3-.2 3.3h5.3c1.4-2-1.5-10.1-2.1-11.1zM510.9 111.5c.3-1.3 1-2.6 2-3.8-1.9-1.4-5.3-3.3-9.3-1.7-1.6.7-2.7 1.5-3.5 2.5h.1c5.9-2.5 10.7 3 10.7 3zM494.3 116.8s-.1-2.7 1.7-5.2c-5.6-6.2-18.2-4.1-24.2 1.4 7.6-4.1 19.1-4.3 22.5 3.8z" opacity=".8"/><path d="M561.6 116.9c-3.5.9-5.1 1.8-5.8 2.6v.5h.1l-.6.2h.1c.1-.2.2-.4.4-.7-.3-2.9-1.1-7.7-1.7-9.2-4.2-9.3-16.1-14.5-27-11.8-2.7.7-5.9 2.3-8.4 4.5 1.7-.9 3.4-1.7 4.9-2.1 4.9-1.2 10.5-.8 15.1 1.1 4.5 1.8 9.2 4.8 11.1 9.5 1.8 4.2 2.7 8.8 1.2 13.2-.5 1.6-1.2 3-1.9 4.5l-.4.9c4.5-2.6 7.1-9.5 7.1-9.5.1-.3.2-.5.2-.7.6-.2 1.3-.4 2-.6 8.7-2.2 14.3 5.6 14.3 5.6.8-1 2-1.8 3.5-2.5-.4-.5-5.8-7.7-14.2-5.5zm-9.2 6.9s-1.1-.8-.1-1.9c.1.8.1 1.5.1 1.9z"/></g><path d="M622.3 142.2c-3.3-5.4-9.3-6.2-16-5.7-1.4.1-6.7.3-7 2.2 1.1-7.6-1.6-15.2-11.1-17.9-4.2-1.2-13 .5-15.8 4 0 0-5.5-7.8-14.3-5.6-.8.2-1.4.4-2 .6 0 .2-2.8 7.6-7.3 10.2.4-.9.9-1.8 1.2-2.7 1.5-3.4 2.6-6.8 1.6-10.6-1.2-4.8-3.2-9.2-7.4-12-1.9-1.2-3.9-2.2-6-3-2.1-.8-4.4-1.4-6.7-1.6-2.4-.2-4.7.1-7 .5-.3 0-.6.1-.9.2-5 1.2-11.6 5.9-12.7 10.7 0 0-4.8-5.5-10.8-3-6 2.5-5.7 8.2-5.7 8.2-6.2-14.7-34.8-4.8-26.5 11.7-2.2-2.7-12.4-2.7-15.5-2.5-8.4.4-16.9 2.9-22.4 8.2-5 4.8-6.6 11.8-8.9 16.8h203.3c.5-.9-1.5-7.7-2.1-8.7z" opacity=".8" fill="#fff"/><g fill="#CDF3F7"><path d="M309 32.2c3.8-6.5 1.6-15.2-3.9-20-2.7-2.4-6.1-3.7-9.7-4.1 5.1-.6 10.3.8 14.1 4.1 4.3 3.8 6.7 9.9 5.7 15.6-1.9.4-4.5 1.5-6.2 4.4zM393.3 70c.3-2.1.2-4-.3-5.8-1.8-7.1-9-12.1-17-13.5 1.4.3-1-11.5-1.2-12.1-3.8-8.6-13-13.6-22.5-14.4 11.1-.8 22.7 4.3 27.1 14.4.3.6 2.6 12.3 1.2 12.1 8 1.5 15.2 6.4 17 13.5.5 1.8.6 3.8.2 5.8-.6 3.6-5 2.3-7.9 2 1.7-.2 3.1 0 3.4-2zM330.3 32.5c3.1 10.8-4 14.8-4 14.8 2.1-7.9.8-11.3.8-11.3v-.1l.1-.1c-.4-2.1-2-6.9-7.6-8 1.5-.3 2.7-.3 2.7-.3 4.3.2 6.9 2.5 8.2 4.6.1.1-.2.3-.2.4z" opacity=".3"/></g><path d="M220.1 45.7c-.4-2.5 1.7-6.2 2-9.2 0 0-6.2 3.6-6 9.4 0 .6.1 1.1.1 1.6.7 4.8 3.5 7 7.6 9.3 0 0-2.7-4.3-3.7-11.1zM268.8 34.5l-.1.1s.3.9.4 2.8c0 1.8-.2 4.6-1.2 8.5 0 0 7.1-4 4-14.8 0-.1-.8-1.8-1.6-2.4-1.5-1.3-3.6-2.3-6.4-2.5 0 0-1.1-.1-2.6.3 5.5 1.2 7.1 5.9 7.5 8z" opacity=".3" fill="#CDF3F7"/><path d="M269 37.5c0-.4-.1-.7-.2-.9.1.2.2.5.2.9z" fill="none"/><path d="M268.7 34.6c-.3-2.2-1.9-6.9-7.4-8.1 3.6 1.8 6.6 4.9 7.6 10 .1.2.2.5.2.9-.1-1.9-.4-2.7-.4-2.8z" opacity=".3" fill="#CDF3F7"/><path d="M393 64.7c-1.8-7.1-9-12.1-17-13.6 1.4.3-1-11.5-1.2-12.1-6.4-14.5-27.8-18.8-40.8-9.6-.8.6-2.3 1.8-3.6 3.1 3.1 10.8-4.1 14.8-4.1 14.8 2.1-7.9.9-11.4.9-11.4-.6-2.5-2.6-7.6-9.5-8 0 0-5.8-.5-8.8 4.7 3.8-6.5 1.6-15.2-4-20-5.8-5.1-14.6-5.5-21.7-1.7-7.8 4.9-11.4 11.8-12.9 17.8.8.7 1.6 2.4 1.6 2.4 3.1 10.8-4 14.8-4 14.8 1-3.9 1.2-6.7 1.2-8.5 0-.3-.1-.6-.2-.9-.3-.8-1-.5-1-.5v-1.5h-.9c-2.1-3.4-1.3-4.8-5.7-8.1h-.1c-7.4-3.8-17.4-2.3-17.4-2.3-22.4 2.9-23.9 16.9-23.7 21.6 1 6.8 3.7 11.1 3.7 11.1-4.1-2.3-6.9-4.5-7.6-9.3-18.7 2.5-16.3 25-16.3 25h193.39999999999998c.3-2 .2-6-.3-7.8zM261.3 26.5c4.3 3.3 3.5 4.7 5.7 8.1h.9v1.5s.7-.3 1 .5c-1.1-5.2-4-8.3-7.6-10.1zM261.3 26.5z" fill="#fff"/><path d="M261.3 26.5z" opacity=".3" fill="#CDF3F7"/><g fill="#CDF3F7"><path d="M448.1 245.1c3.5-6 1.5-14-3.6-18.4-2.5-2.2-5.6-3.4-8.9-3.7 4.7-.5 9.4.7 12.9 3.7 4 3.5 6.2 9.1 5.3 14.3-1.7.4-4.1 1.4-5.7 4.1zM525.4 279.7c.3-1.9.2-3.7-.2-5.3-1.6-6.5-8.3-11.1-15.6-12.4 1.3.2-.9-10.5-1.1-11.1-3.5-7.9-11.9-12.5-20.6-13.2 10.1-.8 20.8 4 24.9 13.2.2.6 2.4 11.3 1.1 11.1 7.3 1.3 14 5.9 15.6 12.4.4 1.7.5 3.4.2 5.3-.5 3.3-4.6 2.1-7.3 1.9 1.5-.3 2.7-.1 3-1.9zM467.7 245.3c2.8 9.9-3.7 13.6-3.7 13.6 1.9-7.2.8-10.4.8-10.4v-.1l.1-.1c-.4-1.9-1.8-6.3-6.9-7.4 1.4-.3 2.4-.2 2.4-.2 4 .2 6.3 2.3 7.6 4.2l-.3.4z" opacity=".3"/></g><path d="M366.7 257.4c-.3-2.3 1.5-5.7 1.8-8.4 0 0-5.7 3.3-5.5 8.6 0 .5.1 1 .1 1.4.6 4.4 3.2 6.4 6.9 8.5.1.1-2.4-3.9-3.3-10.1zM411.3 247.2l-.1.1s.3.8.3 2.6c0 1.7-.2 4.2-1.1 7.8 0 0 6.5-3.7 3.7-13.6 0-.1-.8-1.6-1.5-2.2-1.3-1.2-3.3-2.1-5.9-2.3 0 0-1-.1-2.4.2 5.2 1.1 6.6 5.4 7 7.4z" opacity=".3" fill="#CDF3F7"/><path d="M411.5 249.8c0-.4-.1-.6-.1-.8 0 .3.1.6.1.8z" fill="none"/><path d="M411.3 247.2c-.3-2-1.7-6.3-6.8-7.4 3.3 1.7 6 4.5 7 9.2.1.2.1.5.1.8-.1-1.7-.4-2.5-.3-2.6z" opacity=".3" fill="#CDF3F7"/><path d="M525.2 274.8c-1.6-6.5-8.3-11.1-15.6-12.4 1.3.2-.9-10.5-1.1-11.1-5.9-13.3-25.5-17.3-37.5-8.9-.8.5-2.1 1.6-3.3 2.8 2.8 9.9-3.7 13.6-3.7 13.6 1.9-7.2.8-10.4.8-10.4-.5-2.3-2.3-7-8.7-7.3 0 0-5.3-.4-8 4.3 3.5-6 1.4-14-3.6-18.4-5.4-4.7-13.4-5-19.9-1.5-7.2 4.5-10.4 10.9-11.8 16.3.7.6 1.4 2.2 1.5 2.2 2.8 9.9-3.7 13.6-3.7 13.6.9-3.5 1.1-6.1 1.1-7.8 0-.3-.1-.6-.1-.8-.3-.7-.9-.4-.9-.4v-1.4h-.8c-2-3.1-1.2-4.4-5.2-7.4h-.1c-6.8-3.5-15.9-2.1-15.9-2.1-20.6 2.6-21.9 15.4-21.7 19.7.9 6.2 3.4 10.1 3.4 10.1-3.8-2.1-6.3-4.1-6.9-8.5-17.2 2.3-15 22.9-15 22.9h177.2c0-1.7-.1-5.5-.5-7.1zM404.4 239.8c4 3 3.2 4.3 5.2 7.4h.8v1.4s.7-.3.9.4c-.8-4.7-3.6-7.5-6.9-9.2zM404.4 239.8z" fill="#fff"/><path d="M404.4 239.8z" opacity=".3" fill="#CDF3F7"/><g fill="#CDF3F7"><path d="M86.3 69.7c2.5-4.3 1.1-10.1-2.6-13.3-1.8-1.6-4.1-2.5-6.4-2.7 3.4-.4 6.9.5 9.4 2.7 2.9 2.5 4.5 6.6 3.8 10.4-1.3.2-3.1 1-4.2 2.9zM142.5 94.9c.2-1.4.1-2.7-.2-3.9-1.2-4.8-6-8-11.3-9 .9.2-.6-7.6-.8-8-2.6-5.7-8.6-9.1-15-9.6 7.4-.5 15.1 2.9 18.1 9.6.2.4 1.8 8.2.8 8 5.3 1 10.2 4.3 11.3 9 .3 1.2.4 2.5.2 3.9-.4 2.4-3.4 1.5-5.3 1.3 1.1-.1 2 0 2.2-1.3zM100.5 69.9c2.1 7.2-2.7 9.9-2.7 9.9 1.4-5.3.6-7.5.6-7.5v-.1c-.3-1.4-1.3-4.6-5.1-5.4 1-.2 1.8-.2 1.8-.2 2.9.1 4.6 1.6 5.5 3.1l-.1.2z" opacity=".3"/></g><path d="M27.1 78.7c-.2-1.6 1.1-4.1 1.3-6.1 0 0-4.2 2.4-4 6.3 0 .4 0 .7.1 1.1.4 3.2 2.3 4.7 5 6.2 0-.1-1.7-3-2.4-7.5zM59.5 71.2c-.1.1.1.7.2 2 0 1.2-.1 3.1-.8 5.7 0 0 4.7-2.7 2.7-9.9 0 0-.5-1.2-1.1-1.6-1-.9-2.4-1.5-4.3-1.6 0 0-.7-.1-1.8.2 3.8.7 4.8 3.8 5.1 5.2z" opacity=".3" fill="#CDF3F7"/><path d="M59.7 73.2c0-.3 0-.5-.1-.6 0 .2 0 .4.1.6z" fill="none"/><path d="M59.5 71.3c-.2-1.5-1.3-4.6-5-5.4 2.4 1.2 4.4 3.3 5.1 6.7.1.1.1.3.1.6-.1-1.3-.3-1.9-.2-1.9z" opacity=".3" fill="#CDF3F7"/><path d="M142.3 91.3c-1.2-4.8-6-8.1-11.3-9 .9.2-.6-7.6-.8-8-4.3-9.7-18.6-12.5-27.2-6.4-.5.4-1.5 1.2-2.4 2.1 2.1 7.2-2.7 9.9-2.7 9.9 1.4-5.3.6-7.6.6-7.6-.4-1.7-1.7-5.1-6.3-5.3 0 0-3.8-.3-5.8 3.1 2.5-4.3 1-10.1-2.7-13.3-3.9-3.4-9.7-3.6-14.5-1.1-5.2 3.3-7.6 7.9-8.6 11.8.5.4 1 1.6 1.1 1.6 2.1 7.2-2.7 9.9-2.7 9.9.7-2.6.8-4.4.8-5.7l-.1-.6c-.2-.5-.7-.3-.7-.3v-1h-.6c-1.4-2.3-.9-3.2-3.8-5.4h-.1c-5-2.5-11.6-1.5-11.6-1.5-15 1.9-15.9 11.2-15.8 14.4.7 4.5 2.4 7.4 2.4 7.4-2.7-1.5-4.6-3-5-6.2-12.5 1.5-10.9 16.5-10.9 16.5h128.9c.2-1.4.1-4.1-.2-5.3zM54.5 65.9c2.9 2.2 2.3 3.1 3.8 5.4h.6v1s.5-.2.7.3c-.7-3.4-2.7-5.5-5.1-6.7zM54.5 65.9z" fill="#fff"/><path d="M54.5 65.9z" opacity=".3" fill="#CDF3F7"/></svg>