<svg xmlns="http://www.w3.org/2000/svg" viewBox="0 0 165 35" enable-background="new 0 0 165 35"><path d="M77.874 13.674c-3.252 0-5.891 1.979-6.55 5.67h11.782c-.132-3.691-2.462-5.67-5.232-5.67z" fill="none"/><path fill="#12C2EB" d="M28.09 17.718h-8.057v3.781h5.858c.616 0 .968.351.968.968v3.119s-3.298 3.869-8.835 3.869c-6.286 0-11.252-4.835-11.252-12.044 0-6.901 4.966-11.868 11.164-11.868 5.142 0 8.484 2.989 8.484 2.989l2.506-3.209s-3.649-3.825-11.077-3.825c-8.88 0-15.649 6.99-15.649 15.913 0 9.67 6.857 16.175 15.122 16.175 6.197 0 9.668-3.78 9.668-3.78h.088s-.043.658-.043 1.319v1.934h3.868v-12.527c0-1.979-.836-2.814-2.813-2.814zM40.874 28.443v-14.814c0-1.977-.835-2.812-2.814-2.812h-4.176v3.649h1.802c.616 0 .968.307.968.966v14.813c0 1.978.834 2.814 2.814 2.814h4.173v-3.648h-1.799c-.616 0-.968-.308-.968-.968zM66.408 10.817h-2.065c-1.934 0-2.725.484-3.385 2.242l-4.748 12.791c-.44 1.231-.793 2.901-.793 2.901h-.086s-.354-1.67-.793-2.901l-4.791-12.791c-.66-1.758-1.408-2.242-3.386-2.242h-2.197v3.649h.44c.703 0 1.099.22 1.363.879l6.857 17.714h4.922l6.77-17.714c.263-.659.703-.879 1.45-.879h.44v-3.649zM85.364 14.584c-1.559-2.599-4.256-4.294-8.014-4.294-6.328 0-11.164 4.571-11.164 11.649 0 6.593 4.792 11.647 11.823 11.647 5.276 0 8.573-3.252 8.573-3.252l-1.845-3.034s-2.681 2.593-6.507 2.593c-3.955 0-7.384-2.681-7.649-7.427h15.202c-.411-1.593-.634-3.284-.634-5.055.001-.965.076-1.909.215-2.827zm-14.606 4.76c.659-3.691 3.296-5.67 6.55-5.67 2.768 0 5.098 1.979 5.232 5.67h-11.782z"/><path fill="#F57F20" d="M112.739 17.719h-8.625v3.78h6.429c.614 0 .966.351.966.968v3.119s-3.298 3.869-8.835 3.869c-6.286 0-11.252-4.835-11.252-12.044 0-6.901 4.966-11.868 11.164-11.868 5.142 0 8.484 2.989 8.484 2.989l2.505-3.209s-3.648-3.825-11.076-3.825c-8.881 0-15.649 6.99-15.649 15.913 0 9.67 6.856 16.175 15.119 16.175 6.198 0 9.671-3.78 9.671-3.78h.088s-.043.658-.043 1.319v1.934h3.867v-12.527c0-1.979-.834-2.813-2.813-2.813zM136.166 28.443v-9.45c0-4.924-1.935-8.703-9.143-8.703-2.153 0-7.693.527-7.693 4.176v2.197h3.999v-1.275c0-1.45 2.594-1.714 3.649-1.714 3.473 0 4.922 1.407 4.922 5.319v.22h-.965c-3.736 0-13.408.44-13.408 7.604 0 4.44 3.736 6.769 7.562 6.769 5.319 0 7.076-4.394 7.076-4.394h.088s-.088.57-.088 1.318c0 1.582.791 2.55 2.77 2.55h4.001v-3.648h-1.803c-.616-.001-.967-.309-.967-.969zm-4.22-5.363c0 3.297-2.33 7.078-5.935 7.078-2.812 0-4.175-1.758-4.175-3.56 0-4.088 5.801-4.264 9.011-4.264h1.099v.746zM153.044 10.29c-5.232 0-7.167 3.648-7.167 3.648h-.087s.087-.791.087-1.847v-7.252c0-1.978-.833-2.814-2.812-2.814h-4.219v3.649h1.802c.614 0 .966.307.966.966v26.419h4.09v-1.54c0-.968-.089-1.67-.089-1.67h.089s2.021 3.736 6.987 3.736c5.847 0 10.109-4.572 10.109-11.647.001-6.901-3.778-11.648-9.756-11.648zm-.968 19.648c-4.22 0-6.286-3.956-6.286-7.911 0-5.671 3.076-8 6.373-8 3.737 0 6.328 3.12 6.328 7.955 0 5.055-2.899 7.956-6.415 7.956z"/><circle fill="#0AC1EA" cx="37.558" cy="4.576" r="3.163"/></svg>