<svg xmlns="http://www.w3.org/2000/svg" xmlns:xlink="http://www.w3.org/1999/xlink" viewBox="0 0 1000 1000" enable-background="new 0 0 1000 1000"><path fill="#fff" d="M888 357v8l-41.1 8.3-6.8-5.5 6.2-4.2z"/><path opacity=".2" d="M151.4 208.9c-22.9 0-41.4 18.8-41.4 41.9 0 23.1 18.6 41.9 41.4 41.9 22.9 0 41.4-18.8 41.4-41.9 0-23.1-18.6-41.9-41.4-41.9z"/><path fill="#1EC1E9" d="M510 26.2h16.5v46.2h-16.5z"/><path fill="#A6DBE9" d="M518.3 88.8l8.2-13.8h-16.5zM518.2 12c-4.5 0-8.2 2.1-8.2 5.8v5.7h16.5v-5.7c0-3.7-3.7-5.8-8.3-5.8z"/><g fill="#0D7AA0"><path d="M565.4 13.9h-30.7v73.7h55.3v-49.1h-24.6v-24.6zM568.5 13.9v21.5h21.5z"/></g><path fill-rule="evenodd" clip-rule="evenodd" fill="#fff" d="M563.3 73.2c-.8.8-2.1.8-2.9 0l-12.6-13.2c-3.2-3.2-3.2-8.5 0-11.7 3.2-3.2 8.4-3.2 11.7 0l2.4 2.9 2.4-2.9c3.2-3.2 8.5-3.2 11.7 0 3.2 3.2 3.2 8.5 0 11.7l-12.7 13.2z"/><path fill="#067C70" d="M667.1 10h5.7v8.6h-5.7zM627.1 10h5.7v8.6h-5.7z"/><path fill="#00B1A4" d="M635.7 75.7h8.6v-31.4h-8.6l-5.7 5.7v5.7h5.7z"/><path fill="#067C70" d="M672.9 18.6v11.4h-5.7v-11.4h-34.3v11.4h-5.7v-11.4h-17.2v71.4h80v-71.4h-17.1zm8.5 62.8h-62.9v-42.8h62.9v42.8z"/><path fill="#00B1A4" d="M658.6 75.7h8.5v-31.4h-8.5l-5.7 5.7v5.7h5.7z"/><path fill="#067C70" d="M748 24.7c.3-1 .5-2.1.5-3.3 0-6.3-5.1-11.4-11.4-11.4-6.3 0-11.4 5.1-11.4 11.4 0 1.1.2 2.2.5 3.3-3.8 2.6-6.2 6.6-6.2 11h34.3c0-4.4-2.4-8.4-6.3-11zm-10.9 2.4c-3.2 0-5.7-2.6-5.7-5.7 0-3.2 2.6-5.7 5.7-5.7 3.2 0 5.7 2.6 5.7 5.7.1 3.2-2.5 5.7-5.7 5.7z"/><path fill="#07B1A4" d="M757.1 35.7v2.9h-40v-2.9c0-2 .4-3.9 1.2-5.7h-8.3v60h54.3v-60h-8.3c.7 1.8 1.1 3.7 1.1 5.7zM770 24.3h20v45.7h-20z"/><path fill="#054C45" d="M780 90l10-17.1h-20zM780 10c-5.5 0-10 2-10 5.7v5.7h20v-5.7c0-3.6-4.5-5.7-10-5.7z"/><path fill="#067C70" d="M870.571 16.512l12.869 12.869-18.172 18.172-12.869-12.869z"/><path fill="#054C45" d="M887.3 12.7c-3.5-3.5-9.1-3.5-12.7-.1l12.9 12.9c3.4-3.7 3.3-9.3-.2-12.8z"/><path fill="#067C70" d="M832.298 80.668l-12.867-12.871 15.417-15.413 12.867 12.871z"/><path fill="#054C45" d="M810 90l17.2-6.2-11-11z"/><path fill="#07B1A4" d="M873.5 56.9c-2 0-4 .4-5.9 1.1l-25.6-25.6c2.2-5.9 1-12.8-3.8-17.6-3.2-3.2-7.5-4.8-11.7-4.8-2 0-4 .4-5.9 1.1l10.4 10.4-1 8.6-8.6 1-10.4-10.4c-2.2 5.9-1 12.8 3.8 17.6 3.2 3.2 7.5 4.8 11.7 4.8 2 0 4.3-.4 6.2-1.1l25.8 25.5c-2.9 5.9-1.3 12.8 3.5 17.6 3.2 3.2 7.3 4.8 11.5 4.8 2 0 3.9-.4 5.8-1.1l-10.3-10.3 1-8.6 8.6-1 10.4 10.4c2.2-5.9 1-12.8-3.8-17.6-3.3-3.2-7.5-4.8-11.7-4.8z"/><path fill="#8BC541" d="M958.8 78.4h-8.6c-1.2 0-2.1-1-2.1-2.1v-8.6c0-1.2 1-2.1 2.1-2.1h8.6v-8.6c0-1.2 1-2.1 2.1-2.1h7.3c-.4-1.5-1-2.8-1.9-3.9-3.1-3.8-9-2.9-12.8-5.3-3-2-2.6-4.5-1.3-6.9 3.7-2.8 6.2-7.6 6.2-12.9 0-8.7-6.4-15.8-14.3-15.8s-14.3 7.1-14.3 15.8c0 5.1 2.2 9.7 5.7 12.6 1.4 2.6 2.1 5.2-1.1 7.3-3.8 2.5-9.7 1.5-12.8 5.3-5.6 6.9-.6 21.3 2 28.7.9 2.4 2 6.2 4 8 2.3 2.2 9.6 2.5 16.4 2.2 6 .3 12.4.1 15.4-1.5-.3-.4-.5-.8-.5-1.4v-8.7z"/><path fill="#72983E" d="M969.5 67.8v-10.7h-8.6v10.7h-10.7v8.5h10.7v10.7h8.6v-10.7h10.7v-8.5z"/><path fill="#08C1EA" d="M461.4 144.3h-22.9v2.9h22.9v-2.9zm-37.1-11.4h51.4v11.4l11.4-8.6-37-25.7-37.2 25.7 11.4 8.6v-11.4zm65.7 54.2v-48.6l-40 31.5-40-31.4v48.6l11.4-11.4 2.9 2.9-11.4 11.3h74.3l-11.4-11.4 2.9-2.9 11.3 11.4zm-28.6-48.5h-22.9v2.9h22.9v-2.9zm-22.8 14.3h22.9v-2.9h-22.9v2.9z"/><path fill="#F27E84" d="M541.4 150h5.7c9.5 0 17.1-7.7 17.1-17.1v-5.7c0-9.5-7.7-17.1-17.1-17.1h-20c-9.5 0-17.1 7.7-17.1 17.1v5.7c0 9.5 7.7 17.1 17.1 17.1v14.3l14.3-14.3zm31.5-14.3h-3.1c-1.4 11.3-11 20-22.7 20h-3.3l-7.4 7.4c2 7.2 8.6 12.6 16.5 12.6h5.7l14.3 14.3v-14.3c9.5 0 17.1-7.7 17.1-17.1v-5.7c0-9.5-7.7-17.2-17.1-17.2z"/><path fill="#8BC540" d="M650.2 162.6c0-6.1-4.6-13.3-10.3-13.3-4.1 0-7.7 2.6-9.3 6.4-1.6-3.8-5.2-6.4-9.3-6.4-5.7 0-10.3 7.2-10.3 13.3 0 12.5 19.6 25.9 19.6 25.9s19.6-13.9 19.6-25.9zM664.3 149.2c10.9 0 19.6-8.8 19.6-19.6s-8.8-19.6-19.6-19.6-19.6 8.8-19.6 19.6c-.1 10.9 8.7 19.6 19.6 19.6zM675.5 151.9c-3.5 1.8-7.2 2.8-11.4 2.8-4.1 0-7.9-1-11.3-2.7 1.9 3.2 3 7.7 3 11.3 0 10.2-9.6 18.7-16.2 26.7h49.400000000000006v-18.5c0-8.5-5.3-15.8-13.5-19.6z"/><g fill="#B1A4CF"><path d="M752.9 110.2v35.4l32-15.1c-6.5-11.5-18.3-19.4-32-20.3zM747 110c-20.7 1.5-37 18.8-37 39.9 0 22.1 17.9 40.1 40 40.1 10 0 19.1-3.7 26.1-9.8l-29-29.1v-41.1zM787.4 135.9l-7.2 3-25.3 12 25.3 25.3c6.1-7 9.8-16.2 9.8-26.2 0-4.9-.9-9.7-2.6-14.1zm-7.9 31.6l-14.8-14.8 17.9-8.5 1.2-.5c.4 2.1.6 4.2.6 6.3-.1 6.2-1.8 12.2-4.9 17.5z"/></g><path fill="#465257" d="M733 236h34.1l2-2.1 11.9-12.9h-61.9l11.9 12.9zM740.1 246.9l-22.2-24.2-7.9 12.8 21.1 23.5c1.2-5.2 4.5-9.5 9-12.1zM768.8 259.2l21.2-23.6-7.9-12.8-22.2 24.2c4.4 2.6 7.7 7 8.9 12.2z"/><path fill="#fff" d="M765.7 259.9c-1-4.3-3.7-8-7.4-10.2-2.4-1.5-5.3-2.3-8.3-2.3-3 0-5.8.8-8.2 2.3-3.7 2.2-6.5 5.8-7.5 10.1-.3 1.2-.5 2.5-.5 3.8 0 8.9 7.3 16.2 16.2 16.2s16.2-7.3 16.2-16.2c-.1-1.3-.2-2.5-.5-3.7z"/><path fill="#12C2EC" d="M742.5 269.8h2.1v-12.4h-2.1v-2.4h7.6c1.3 0 2.3.1 3.3.4 1.9.6 3.2 2.2 3.2 4.6 0 2.4-1.3 4.1-3.2 4.8 0 0 .5.3.8.9l2 3.6c.2.4.6.6 1.2.6h.6v2.4h-2c-1.4 0-1.9-.3-2.4-1.3l-2.4-4.4c-.4-.7-.7-.9-1.7-.9h-1.6v4.2h2v2.4h-7.2v-2.5zm8-6.8c1.7 0 2.8-1 2.8-2.8 0-1.1-.4-2-1.4-2.4-.5-.2-1.1-.3-1.9-.3h-2.3v5.5h2.8z"/><g fill="#8BC241"><path d="M610 290h37.1v-37.1h-37.1v37.1zm8.6-28.6h20v20h-20v-20zM652.9 210v37.1h37.1v-37.1h-37.1zm28.5 28.6h-20v-20h20v20zM652.9 290h37.1v-37.1h-37.1v37.1zm8.5-28.6h20v20h-20v-20zM610 247.1h37.1v-37.1h-37.1v37.1zm8.6-28.5h20v20h-20v-20z"/></g><path fill="#F7B45E" d="M575.7 215.7v-5.7h-51.4v5.7h-14.3v18.4c0 14.5 9.2 23.3 21.4 25.3 3.4 4.7 7.2 7.8 12.9 9.3v8.8c-8.6 2.3-14.3 8.7-14.3 12.5h40c0-3.8-5.7-10.2-14.3-12.5v-8.8c5.7-1.5 9.5-4.6 12.9-9.3 12.1-2 21.4-10.7 21.4-25.3v-18.4h-14.3zm-60 20v-14.3h8.6v13.4c0 6.8 1 12.6 2.9 17.5-6.4-2.6-11.5-6.6-11.5-16.6zm44 13.8l-9.7-5.4-9.7 5.4 1.9-11.4-7.9-8.1 10.9-1.7 4.9-10.3 4.9 10.3 10.9 1.7-7.9 8.1 1.7 11.4zm24.6-13.8c0 10-5.1 14-11.5 16.5 1.9-4.9 2.9-10.7 2.9-17.5v-13.4h8.6v14.4z"/><path fill="#4D4D4D" d="M482.4 267.8h-11.899999999999999v-11.8h-9.1v11.8h-11.9v9.2h11.9v11.8h9.1v-11.8h11.9z"/><path fill="#B3B3B3" d="M458.4 280h-8.9c-1.7 0-2.5-1.4-2.5-3v-9.1c0-.8.1-2 .6-2.5.6-.6 1.1-1.3 1.9-1.3h10.5v-8c0-1.7-.3-4 1.4-4h5.2c-.3 0-.7-.9-1.2-1.5-3.1-3.8-9-2.6-12.8-5.1-3-2-2.6-4.3-1.3-6.8 3.7-2.9 6.2-7.5 6.2-12.9 0-6.4-3.5-11.8-8.4-14.3-1.8-.9-3.8-1.4-5.9-1.4-2.1 0-4.1.6-5.9 1.5-4.9 2.5-8.4 7.9-8.4 14.3 0 5.1 2.2 9.7 5.7 12.6 1.4 2.6 2.1 5.2-1.1 7.3-3.8 2.5-9.7 1.5-12.8 5.3-4.4 5.5-2.2 15.7.2 23.3.6 2 1.3 3.9 1.8 5.4.9 2.5 2 6.2 4 8 1.8 1.7 6.7 2.3 12 2.3 1.4 0 2.9 0 4.3-.1 1.4.1 2.9.1 4.3.1 4.6 0 8.8-.4 11.1-1.6v-8.5zM360.4 288.3l-11.3-13.5c-.5-.6-.6-1.7-.3-2.4s1-1.4 1.8-1.4h5.6c1-7 6.3-13 13.2-15.3-.4-1.9-1.1-3.5-2.2-4.9-3.1-3.8-9-2.8-12.8-5.3-3-2-2.6-4.4-1.3-6.9 3.7-2.8 6.1-7.6 6.1-12.9 0-8.7-6.4-15.8-14.3-15.8s-14.3 7.1-14.3 15.8c0 5.1 2.2 9.7 5.7 12.6 1.4 2.6 2.1 5.2-1.1 7.3-3.8 2.5-9.7 1.5-12.8 5.3-5.6 6.9-.6 21.3 2 28.7.9 2.4 2 6.2 4 8 2.3 2.2 9.6 2.5 16.4 2.2 6.2.4 12.6.1 15.6-1.5z"/><path fill="#4D4D4D" d="M376.3 257.2c-9.3 0-17.1 7.3-17.4 16.5h-7.5l11.3 13.5 11.2-13.5h-7.5c.3-5.4 4.4-9 9.9-9h5.1v-7.5h-5.1z"/><circle fill="#B3B3B3" cx="250" cy="250" r="40"/><path fill="#4D4D4D" d="M249.4 270c-1.2 0-2.1-1.2-2.3-2.3-.8-5.9-8-13.5-10.7-15.9-.9-.8-1-2.4-.2-3.3.8-.9 2.3-1.1 3.2-.2.3.3 5.9 5.3 9.5 11.4 2.3-8.3 6.4-21.7 11.3-28.1.8-1 2.2-1.2 3.2-.5 1 .8 1.2 2.2.5 3.2-6.5 8.7-12.2 33.4-12.2 33.6-.3 1.1-1.2 2.1-2.3 2.1z"/><ellipse fill="#705DA7" cx="149.2" cy="249.6" rx="39.2" ry="39.6"/><path fill="#fff" d="M149.2 291.1c-22.7 0-41.2-18.6-41.2-41.6 0-22.9 18.5-41.6 41.2-41.6 22.7 0 41.2 18.6 41.2 41.6-.1 23-18.6 41.6-41.2 41.6zm0-79.1c-20.5 0-37.2 16.9-37.2 37.6 0 20.7 16.7 37.6 37.2 37.6s37.2-16.9 37.2-37.6c-.1-20.7-16.8-37.6-37.2-37.6z"/><path fill="#FBC856" d="M177.9 247.2l-.1-.4-11.4-14.8h-33.400000000000006l-11.6 14.8-.1.2 28.3 27.2-10.8-27.1 10.8 27 8.1-20.1-8.1 20.2zM149.6 232.6z"/><path fill="#FFE576" d="M177.8 246l-11.5-14.3-5.8 14.3z"/><path fill="#FFED9F" d="M149.6 232.1v-.3l-10.8 14.2h21.700000000000003z"/><path fill="#F9CD41" d="M160.5 246.7l5.8-14.5v-.2h-16.7l10.9 14.7z"/><path fill="#FFE088" d="M139 246.7l11-14.1v-.6h-16.9l5.9 14.7z"/><path fill="#FFF8D4" d="M133.1 232h-.1l-11.6 14h17.4z"/><path fill="#FFCA36" d="M160.5 246l-10.9 27.7 28.3-27.3-.1-.4z"/><path fill="#FCED95" d="M121.4 246l-.1.6 28.3 26.8-10.8-27.4z"/><path fill="#F9D76B" d="M149.6 246h-10.8l10.8 27.1 10.9-27.1z"/><path opacity=".2" d="M51.4 210c-22.8 0-41.4 18.8-41.4 41.9 0 23.1 18.6 41.9 41.4 41.9 22.9 0 41.4-18.8 41.4-41.9.1-23.1-18.5-41.9-41.4-41.9z"/><ellipse fill="#AFAFAF" cx="49.2" cy="250.7" rx="39.2" ry="39.6"/><path fill="#fff" d="M49.2 292.2c-22.7 0-41.2-18.6-41.2-41.6 0-22.9 18.5-41.6 41.2-41.6 22.7 0 41.2 18.6 41.2 41.6s-18.5 41.6-41.2 41.6zm0-79.1c-20.5 0-37.2 16.9-37.2 37.6 0 20.7 16.7 37.6 37.2 37.6s37.2-16.9 37.2-37.6c0-20.7-16.7-37.6-37.2-37.6z"/><path fill="#FBC856" d="M49.7 233.7z"/><path fill="#D2D2D2" d="M50 233h-16.900000000000002l-11.6 14-.1.7 28.3 26.8-.4-.9.3.6.9-1.5-.8 2.1 28.3-27.4-.1-.4-11.5-14.3-.1.3h-16.6.3"/><path fill="#FBC856" d="M49.7 233.7z"/><path fill="#D7D7D6" d="M77.9 247l-11.5-14.3-5.8 14.3z"/><path fill="#E3E3E2" d="M49.7 233.1v-.3l-10.8 14.2h21.700000000000003z"/><path fill="#C7C6C5" d="M60.6 247.8l5.8-14.6v-.2h-16.7l10.9 14.8z"/><path fill="#DCDCDB" d="M39.1 247.8l10.9-14.1v-.7h-16.8l5.9 14.8z"/><path fill="#F2F2F2" d="M33.2 233h-.1l-11.6 14h17.4z"/><path fill="#C7C6C6" d="M60.6 247l-10.9 27.7 28.3-27.3-.1-.4z"/><path fill="#DEDEDD" d="M21.5 247l-.1.7 28.3 26.7-10.8-27.4z"/><path fill="#D2D2D2" d="M49.7 247h-10.8l10.8 27.1 10.9-27.1z"/><circle fill="#7DCDCC" cx="850" cy="150" r="40"/><g fill="#E9F6FD"><path d="M875.9 135.7c0-1.8-1.5-3.3-3.3-3.3h-47.6c-1.8 0-3.3 1.5-3.3 3.3v4.1h54.2v-4.1zM821.7 163.5c0 1.8 1.5 3.3 3.3 3.3h47.6c1.8 0 3.3-1.5 3.3-3.3v-19.5h-54.2v19.5z"/></g><path fill="#7DCDCC" d="M826.8 159.7h12.8v1.6h-12.8zM826.8 156.2h16.2v1.6h-16.2zM864.4 157h7.2v4.7h-7.2z"/><circle fill="#7DCDCC" cx="950" cy="150" r="40"/><g fill="#E9F6FD"><path d="M956 124.2h-23.3l.1 50.7 38-.1-.1-35.9h-14.7v-14.7zm8.5 44.3h-25.3v-2.1h25.3v2.1zm0-6.3h-25.3v-2.1h25.3v2.1zm0-6.4h-25.3v-2.1h25.3v2.1zm0-8.4v2.1h-25.3v-2.1h25.3zM957.7 124.3v13l13-.1z"/></g><path fill="#7DCDCC" d="M943.4 137.6c-1.6-.5-2.7-1.3-2.7-2.7 0-1.3.7-2.3 2.4-2.6v-1.5h1.7v1.4c.9 0 1.6.3 2.1.5l-.5 1.7c-.4-.2-1.1-.5-2.1-.5s-1.3.4-1.3.8c0 .5.5.8 1.8 1.3 1.8.6 2.5 1.4 2.5 2.8 0 1.3-.8 2.4-2.5 2.7v1.4h-1.7v-1.3c-.9 0-1.9-.3-2.5-.6l.5-1.7c.6.3 1.5.6 2.5.6.9 0 1.4-.3 1.4-.9 0-.6-.5-1-1.6-1.4z"/><path fill="#D5D5D5" d="M50 310c-22.1 0-40 17.9-40 40s17.9 40 40 40 40-17.9 40-40-17.9-40-40-40zm15 25h-5c-4.2 0-5 0-5 10h10v10h-10v20h-10v-20h-10v-10h10c0-7.7 0-20 15-20h5v10z"/><path fill="#3A5998" d="M150 310c-22.1 0-40 17.9-40 40s17.9 40 40 40 40-17.9 40-40-17.9-40-40-40zm15 25h-5c-4.2 0-5 0-5 10h10v10h-10v20h-10v-20h-10v-10h10c0-7.7 0-20 15-20h5v10z"/><path fill="#D5D5D5" d="M250 310c-22.1 0-40 17.9-40 40s17.9 40 40 40 40-17.9 40-40-17.9-40-40-40zm20 30v1.3c0 13.3-10.1 28.7-28.7 28.7-5.7 0-11-1.7-15.5-4.5.8.1 1.6.1 2.4.1 4.7 0 9.2-1.6 12.6-4.3-4.4-.1-8-3-9.3-7 .6.1 1.5.2 2.2.2.9 0 2.4-.1 3.2-.4-4.6-.9-7-5-7-9.9v-.1c0 .8 1.8 1.2 3.5 1.3-2.7-1.8-5.6-4.9-5.6-8.4 0-1.8.5-3.6 1.4-5.1 5 6.1 12.4 10.1 20.8 10.5-.2-.7-.3-1.5-.3-2.3 0-5.6 4.5-10.1 10.1-10.1 2.9 0 5.5 1.2 7.4 3.2 2.3-.5 4.5-1.3 6.4-2.5-.8 2.4-2.4 4.3-4.4 5.6 2-.2 4-.8 5.8-1.6-1.4 2.1-3.1 3.8-5 5.3z"/><path fill="#26A9E1" d="M350 310c-22.1 0-40 17.9-40 40s17.9 40 40 40 40-17.9 40-40-17.9-40-40-40zm20 30v1.3c0 13.3-10.1 28.7-28.7 28.7-5.7 0-11-1.7-15.5-4.5.8.1 1.6.1 2.4.1 4.7 0 9.2-1.6 12.6-4.3-4.4-.1-8-3-9.3-7 .6.1 1.5.2 2.2.2.9 0 2.4-.1 3.2-.4-4.6-.9-7-5-7-9.9v-.1c0 .8 1.8 1.2 3.5 1.3-2.7-1.8-5.6-4.9-5.6-8.4 0-1.8.5-3.6 1.4-5.1 5 6.1 12.4 10.1 20.8 10.5-.2-.7-.3-1.5-.3-2.3 0-5.6 4.5-10.1 10.1-10.1 2.9 0 5.5 1.2 7.4 3.2 2.3-.5 4.5-1.3 6.4-2.5-.8 2.4-2.4 4.3-4.4 5.6 2-.2 4-.8 5.8-1.6-1.4 2.1-3.1 3.8-5 5.3z"/><path fill="#D5D5D5" d="M450 310c-22.1 0-40 17.9-40 40s17.9 40 40 40 40-17.9 40-40-17.9-40-40-40zm3.3 51.3c-3.1-.2-4.4-1.7-6.9-3.2-1.4 6.9-3 13.5-7.9 16.9-1.5-10.4 2.2-18.2 3.9-26.5-3-4.8.4-14.5 6.6-12.1 7.6 2.9-6.6 17.9 3 19.8 10 2 14.1-16.9 7.9-23-9-8.8-26.1-.2-24 12.5.5 3.1 3.8 4 1.3 8.3-5.7-1.2-7.5-5.6-7.2-11.5.4-9.6 8.9-16.3 17.4-17.2 10.8-1.2 20.9 3.9 22.3 13.7 1.6 11.1-4.8 23.1-16.4 22.3z"/><path fill="#C92129" d="M550 310c-22.1 0-40 17.9-40 40s17.9 40 40 40 40-17.9 40-40-17.9-40-40-40zm3.3 51.3c-3.1-.2-4.4-1.7-6.9-3.2-1.4 6.9-3 13.5-7.9 16.9-1.5-10.4 2.2-18.2 3.9-26.5-3-4.8.4-14.5 6.6-12.1 7.6 2.9-6.6 17.9 3 19.8 10 2 14.1-16.9 7.9-23-9-8.8-26.1-.2-24 12.5.5 3.1 3.8 4 1.3 8.3-5.7-1.2-7.5-5.6-7.2-11.5.3-9.6 8.9-16.3 17.4-17.2 10.8-1.2 20.9 3.9 22.3 13.7 1.6 11.1-4.8 23.1-16.4 22.3z"/><g fill="#D5D5D5"><path d="M657.9 349.2l-12.3-7.5c-.7-.4-1.3-.1-1.3.7v15c0 .8.6 1.2 1.3.7l12.3-7.5c.7-.3.7-.9 0-1.4zM650 310c-22.1 0-40 17.9-40 40s17.9 40 40 40 40-17.9 40-40-17.9-40-40-40zm22.5 49c0 4.3-3.3 7.9-7.4 7.9h-30.3c-4 0-7.4-3.5-7.4-7.9v-18c0-4.3 3.3-7.9 7.4-7.9h30.3c4.1 0 7.4 3.6 7.4 7.9v18z"/></g><g fill="#CC2127"><path d="M757.9 349.2l-12.3-7.5c-.7-.4-1.3-.1-1.3.7v15c0 .8.6 1.2 1.3.7l12.3-7.5c.7-.3.7-.9 0-1.4zM750 310c-22.1 0-40 17.9-40 40s17.9 40 40 40 40-17.9 40-40-17.9-40-40-40zm22.5 49c0 4.3-3.3 7.9-7.4 7.9h-30.3c-4 0-7.4-3.5-7.4-7.9v-18c0-4.3 3.3-7.9 7.4-7.9h30.3c4.1 0 7.4 3.6 7.4 7.9v18z"/></g><path fill="#7DCDCC" d="M860.2 282v-9.4c0-2 1.6-3.6 3.6-3.6h4.9v-4.9c0-2 1.6-3.6 3.6-3.6h9.4c.9 0 1.8.4 2.4.9 1.2-3.7 1.8-7.6 1.8-11.7 0-20.9-17-37.9-37.9-37.9s-37.9 17-37.9 37.9 17 37.9 37.9 37.9c5 0 9.7-1 14.1-2.7-1.2-.4-1.9-1.6-1.9-2.9z"/><g opacity=".75" fill="#fff"><path d="M842.9 272.7h-13.3c-.8 0-1.5-.7-1.5-1.5s.7-1.5 1.5-1.5h13.3c.8 0 1.5.7 1.5 1.5s-.7 1.5-1.5 1.5zM860.1 261.9h-34.3c-.8 0-1.5-.7-1.5-1.5s.7-1.5 1.5-1.5h34.3c.8 0 1.5.7 1.5 1.5s-.7 1.5-1.5 1.5zM871.9 240.3h-45.3c-.8 0-1.5-.7-1.5-1.5s.7-1.5 1.5-1.5h45.3c.8 0 1.5.7 1.5 1.5s-.7 1.5-1.5 1.5zM861.5 229.4h-26.7c-.8 0-1.5-.7-1.5-1.5s.7-1.5 1.5-1.5h26.7c.8 0 1.5.7 1.5 1.5s-.6 1.5-1.5 1.5zM873.7 251.1h-51c-.8 0-1.5-.7-1.5-1.5s.7-1.5 1.5-1.5h51c.8 0 1.5.7 1.5 1.5s-.7 1.5-1.5 1.5z"/></g><g fill="#067C70"><path d="M845.4 272.4l13.8-5.4-11.7-9.2zM860.539 265.28l-11.787-9.277 21.153-26.874 11.787 9.277zM882.4 225.5c-3.2-2.6-6.8-3.4-8.5-1.3l-2.6 3.3 11.8 9.2 2.6-3.3c1.6-2.1-.1-5.4-3.3-7.9z"/></g><path fill="#00B1A4" d="M881.6 272.6v-8.4h-9.4v8.4h-8.4v9.4h8.4v8.4h9.4v-8.4h8.4v-9.4z"/><path fill="#E6E7E8" d="M960.2 282v-9.4c0-2 1.6-3.6 3.6-3.6h4.9v-4.9c0-2 1.6-3.6 3.6-3.6h9.4c.9 0 1.8.4 2.4.9 1.2-3.7 1.8-7.6 1.8-11.7 0-20.9-17-37.9-37.9-37.9s-37.9 17-37.9 37.9 17 37.9 37.9 37.9c5 0 9.7-1 14.1-2.7-1.2-.4-1.9-1.6-1.9-2.9z"/><g opacity=".75" fill="#fff"><path d="M942.9 272.7h-13.3c-.8 0-1.5-.7-1.5-1.5s.7-1.5 1.5-1.5h13.3c.8 0 1.5.7 1.5 1.5s-.7 1.5-1.5 1.5zM960.1 261.9h-34.3c-.8 0-1.5-.7-1.5-1.5s.7-1.5 1.5-1.5h34.3c.8 0 1.5.7 1.5 1.5s-.7 1.5-1.5 1.5zM971.9 240.3h-45.3c-.8 0-1.5-.7-1.5-1.5s.7-1.5 1.5-1.5h45.3c.8 0 1.5.7 1.5 1.5s-.7 1.5-1.5 1.5zM961.5 229.4h-26.7c-.8 0-1.5-.7-1.5-1.5s.7-1.5 1.5-1.5h26.7c.8 0 1.5.7 1.5 1.5s-.6 1.5-1.5 1.5zM973.7 251.1h-51c-.8 0-1.5-.7-1.5-1.5s.7-1.5 1.5-1.5h51c.8 0 1.5.7 1.5 1.5s-.7 1.5-1.5 1.5z"/></g><g fill="#BBBDBF"><path d="M945.4 272.4l13.8-5.4-11.7-9.2zM960.534 265.282l-11.787-9.277 21.153-26.874 11.787 9.277zM982.4 225.5c-3.2-2.6-6.8-3.4-8.5-1.3l-2.6 3.3 11.8 9.2 2.6-3.3c1.6-2.1-.1-5.4-3.3-7.9z"/></g><path fill="#00B1A4" d="M981.6 272.6v-8.4h-9.4v8.4h-8.4v9.4h8.4v8.4h9.4v-8.4h8.4v-9.4z"/><g fill="#B1A4CF"><path d="M889.1 363l-41.4 8.1c-.3 0-2.7.3-4-1.8-.6-1.6.2-3.1 1.5-3.7h.4l41.8-7.6c1-.2 1.7-.9 1.9-1.9.1-.7-.1-1.4-.5-1.9l-39.8 7.8c-.4.1-.9.1-1.4.1-1.2 0-2.5-.2-3.9-.8s-.1-.1-.2-.1c-.7-.3-1.3-.8-1.9-1.3-6.6-4.6-26.8-18.6-28.4-20-.6-.5-1-1-1.3-1.4-2.9 1.3-6.2 4.1-4.4 9.7 0 0 .4 1.9 2.4 3.6 1.8 1.5 24.7 17.5 31.3 22 .5.4 1 .8 1.5 1l.2.2c1.4.7 2.8.9 4 .9.5 0 1 0 1.4-.1l41.5-8.1c1.3-.2 2.1-1.5 1.9-2.8-.1-1.3-1.4-2.1-2.6-1.9zM845.8 352.6c-1.2.5-1.9 1.6-1.7 2.9 1.2 2.2 3.7 1.9 4 1.9l34.6-6.8-6.1-3.5-30.4 5.5h-.4z"/></g><path fill="#705DA7" d="M950 390c-22.1 0-40-17.9-40-40s17.9-40 40-40 40 17.9 40 40-17.9 40-40 40zm0-72.5c-17.9 0-32.5 14.6-32.5 32.5s14.6 32.5 32.5 32.5 32.5-14.6 32.5-32.5-14.6-32.5-32.5-32.5z"/><path fill="#D1D1D1" d="M931.5 370.2c-.6.6-1.6.6-2.2 0l-.4-.5c-.6-.6-.6-1.6 0-2.2l18.5-17.9c.6-.6 1.6-.6 2.2 0l.4.5c.6.6.6 1.6 0 2.2l-18.5 17.9z"/><path fill="#4D4B84" d="M953 350.6c0 1.5-1.3 2.7-3 2.7s-3-1.2-3-2.7v-24.9c0-1.5 1.3-2.7 3-2.7s3 1.2 3 2.7v24.9zM947.9 352.8c-1.5-1-1.9-2.9-.9-4.4 1-1.4 2.9-1.9 4.4-.9l15.8 10.3c1.5 1 1.9 2.9.9 4.4-1 1.5-2.9 1.9-4.4.9l-15.8-10.3z"/><circle fill="#B1A4CF" cx="950" cy="350" r="4.6"/><path fill="#fff" d="M846.2 352.6h-.4c-1.1.5-1.8 1.6-1.6 2.9 1.2 2.2 3.7 1.9 4 1.9l34.6-6.8 3.9-.8v-4.5l-10 1.8-30.5 5.5z"/><path fill="#705DA7" d="M892.3 351.1c-.2-1.3-1.5-2.1-2.8-1.9l-3 .6-3.9.8-34.6 6.8c-.3 0-2.8.3-4-1.9-.2-1.3.5-2.4 1.6-2.9h.4l30.4-5.5 10-1.8 1.4-.3c1-.2 1.7-.9 1.9-1.9.2-1-.3-1.9-1.1-2.4l-34.2-19.7c-.5-.3-1-.4-1.6-.3l-35 5.9c-.3 0-.5.1-.7.3-2.7.7-8.3 3-6.1 9.7 0 0 .2.9.9 1.9.3.5.7.9 1.3 1.4 1.6 1.4 21.8 15.4 28.4 20 .6.6 1.3 1 1.9 1.3.1.1.2.1.2.1 1.3.6 2.7.8 3.9.8.5 0 1 0 1.4-.1l39.8-7.8 1.7-.3c1.2-.3 2.1-1.6 1.8-2.8z"/><path fill="#fff" d="M830.2 334.3c-.8 0-1.5-.6-1.7-1.4-.2-.9.4-1.8 1.3-2l25-4.7c.9-.2 1.8.4 2 1.3.2.9-.4 1.8-1.3 2l-25 4.7c-.1.1-.2.1-.3.1zM838.4 339.7c-.8 0-1.5-.6-1.7-1.4-.2-.9.4-1.8 1.3-2l13.9-2.6c.9-.2 1.8.4 2 1.3.2.9-.4 1.8-1.3 2l-13.9 2.6c-.1.1-.2.1-.3.1z"/><path fill="#B1A4CF" d="M90 443.6l-15.1-33.6c-23.8 2.6-38.6 25.4-62.5 28 5 11.2 10.1 22.4 15.1 33.7 23.9-2.6 38.7-25.4 62.5-28.1zm-60 17.7l-1-2.3c6.3-1.7 11.9-4.7 17.4-8 .4.8.7 1.5 1 2.3-5.5 3.3-11.2 6.3-17.4 8zm34.2-41.7c.9-.4 1.7-.8 2.6-1.1.3.8.7 1.5 1.1 2.3 1.8-.6 3.3-.6 4.4-.5l.6 3.2c-.9-.1-2.4-.3-4.3.5-1.7.7-1.9 1.7-1.6 2.5.4.9 1.6 1 4.2.9 3.7-.1 5.8 1 6.9 3.4 1.1 2.4.2 4.8-2.7 6.5l1.2 2.7c-.9.3-1.8.7-2.6 1.1-.4-.8-.8-1.7-1.1-2.5-1.8.7-3.7 1.1-4.9 1l-.6-3.5c1.4 0 3.1-.2 4.9-.9 1.5-.7 2.3-1.6 1.8-2.7-.5-1-1.6-1.3-3.9-1.1-3.3.3-5.7 0-6.9-2.5-1-2.3-.3-5 2.3-6.8-.6-.8-1-1.6-1.4-2.5zm-41.3 26.2c11.6-3.2 21.3-10.7 31.4-17l1 2.3c-10.2 6.4-19.8 13.9-31.4 17.1-.3-.9-.6-1.6-1-2.4zm3 6.6c11.6-3.2 21.3-10.7 31.4-17l1 2.3c-10.1 6.3-19.7 13.8-31.3 17l-1.1-2.3z"/><path fill="#4D4B84" d="M25.1 490c24.9-3.1 40.8-26.2 64.9-29.1l-5.5-12.4c-16.9 3.6-36.2 26.2-59.2 27.2l-9.3-20.5-6 1.2 15.1 33.6z"/><path fill="#B1A4CF" d="M155 415c-17.1 0-31.3 12.2-34.4 28.4 2.2.6 4.3 1.8 5.9 3.3 2.8-2.6 6.9-4.2 10.7-3.7 7.8 1 12.2 6.4 12.2 15.1 0 7.9-7.4 15.9-13.6 21.2 5.5 3.6 12.1 5.8 19.3 5.8 19.3 0 35-15.7 35-35-.1-19.4-15.8-35.1-35.1-35.1z"/><g fill="#715CA7"><path d="M126.5 446.8c2.8-2.6 6.9-4.2 10.7-3.7 4.6.6 7.9 2.7 9.9 6 .6-.9 1.5-1.5 2.2-2.6 2.1-3.4-4.4-6.7-7.9-7.1-2.5-.3-3.4 2.2-4.5-.9-.7-2-.2-4.5-.3-6.7-.2-3-1.4-6.7-4-8.6-.8.7-1.5 1.3-2.3 2.1-5.2 5.2-8.4 11.5-9.6 18.2 2.1.6 4.2 1.8 5.8 3.3zM179.6 425.3c-6.6-6.6-15.3-10.2-24.6-10.2-1.1 0-2.1.1-3.1.1-.7 1.7-3.5 3.8-2.6 5.6 1.4 2.6 4.9-1.1 6.5-1.6 2.1-.6 5.8-1.6 5.9 1.3.1 2.2-2.1 3.9-1.8 6.3 2.5.7 3.9-3.3 6.1-1.2 2.2 2-.5 4.7-1.8 6.1-2.1 2.3-2 3.4-3 6.1-1.6 4.2-1.6-.1-2.6-1.4-1.3-1.5-4.6-1.5-6.2-.7-2.4 1.2-2.4 3.4-1.4 5.8 2.6 6.6 10.4 1.7 15.2 4.4 4.5 2.6 5.5 11.8 1.8 15-1.3 1.1-3.8 2.4-4.9 4.3-.5 1-.3 2.4-.8 3.5-.3.8-3.7 8-5.2 5.2l-1.6-1.3c-3.5-3.7-1.2-11.4-5.2-15.6l-1.2-1.1c.1.7.1 1.3.1 2 0 7.9-7.4 15.8-13.4 21.1 5.6 3.7 12.2 5.7 19.1 5.7 9.3 0 18-3.6 24.6-10.2 13.8-13.4 13.8-35.6.1-49.2z"/></g><path fill="#B1A4CF" d="M135.2 449c-3.2-.4-7.3 3.3-8.6 6.2-1.3-2.9-5.4-6.6-8.6-6.2-6.6.9-8.1 5.2-8.1 9.9 0 9.6 16.6 20 16.6 20s16.6-10.7 16.6-20c.2-4.7-1.6-9.1-7.9-9.9z"/><path fill="#F57E20" d="M749.9 246.2c-9.6 0-17.4 7.8-17.4 17.4 0 9.6 7.8 17.4 17.4 17.4s17.4-7.8 17.4-17.4c0-9.6-7.8-17.4-17.4-17.4zm0 31.8c-7.9 0-14.4-6.5-14.4-14.4s6.5-14.4 14.4-14.4 14.4 6.5 14.4 14.4-6.4 14.4-14.4 14.4z"/><g fill="#12C2EC"><circle cx="238.4" cy="421.7" r="11.7"/><path d="M284.5 462.3l-7.7-3.8c-.4-.2-.7-1.1-.8-1.4-.3-.6-.7-1.1-1.2-1.6-.9-.9-2.2-1.6-3.5-1.7-1.1-.2-2.3 0-3.3.5-.5.2-1.1.6-1.5 1-.4.4-.6.9-1.2.7-.9-.2-1.7-.7-2.5-1.1l-1.6-.7c.1-1.3-.2-2.2-1.2-3.1l-13-11.7c-1-1.3-2.6-2.4-4.4-2.4h-9.3c-1.6 0-3.1 1-4.1 2.2l-13.6 9.9c-1.8 1.3-2.2 3.9-.9 5.7l.6.8c1.3 1.8 5 2.2 6.8.9l7.9-4.9v14.2l-4.2 24.1h9.6l1.8-15h3l2.1 15h9l-3.3-25.5v-11.4l5.8 5.1c1.1 1 2.7 1.2 4 .8l5.7 2.9.5.5v7.5c0 2.3-.2 4.5-.7 6.7-.3 1.6-.6 3.3-1 4.9l-1.6 8.2-.1.4h6.8l2.4-15h.7l3.1 15h7l-2.1-7.9-.9-3.6c-.4-1.4-1-2.9-1-4.4 0-1.1.3-2.1.3-3.3v-5.9l5.6 1.9c1.2.4 2.8-.2 3.2-1.4.5-1.3.1-2.7-1.2-3.1z"/></g><circle fill="#12C2EC" cx="270.5" cy="442.5" r="7.7"/><path fill="#fff" d="M366.3 434.2l-1.5-.3-14.8-16.5-15 16.5-1.5.3 1 1.3 15.5 53.2 15.3-53.2 1-1.3zm-16.3-14.8l13.3 14.9h-26.9l13.6-14.9zm0 64.6l-14.1-48.4h28.1l-14 48.4z"/><path fill="#07B1A4" d="M349.1 418.4h-28.2l14.1 15.5z"/><path fill="#7ECECD" d="M320.1 419.5l-10.1 14.7h23.5z"/><path fill="#D4EEF7" d="M390 434.2l-10.3-15-13.4 15z"/><path fill="#7ECECD" d="M310 435.6l38.9 49.4-14.4-49.4z"/><path fill="#A5DDEB" d="M378.6 418.4h-27.7l13.9 15.5z"/><path fill="#D4EEF7" d="M365.3 435.6l-14.2 49.4 38.9-49.4z"/><path fill="#7ECECD" d="M350 419.4l-13.5 14.8h26.8z"/><path fill="#A5DDEB" d="M350 484l13.9-48.4h-28z"/><path fill="#FCC956" d="M445 489.3c-16.6 0-30.1-13.5-30.1-30.1s13.5-30.1 30.1-30.1 30.1 13.5 30.1 30.1-13.5 30.1-30.1 30.1zm0-54.3c-13.4 0-24.2 10.9-24.2 24.2 0 13.4 10.9 24.2 24.2 24.2 13.4 0 24.2-10.9 24.2-24.2 0-13.4-10.9-24.2-24.2-24.2zM445 476.8c-9.7 0-17.6-7.9-17.6-17.6s7.9-17.6 17.6-17.6 17.6 7.9 17.6 17.6-7.9 17.6-17.6 17.6zm0-29.3c-6.5 0-11.7 5.3-11.7 11.7s5.2 11.8 11.7 11.8 11.7-5.3 11.7-11.7-5.3-11.8-11.7-11.8z"/><path fill="#A5DDEB" d="M488.9 425.9l-13.3-.9-15.4 18.7 13.4-1.2z"/><circle fill="#FCC956" cx="444.7" cy="459.2" r="4.7"/><path fill="#A5DDEB" d="M459.5 441.4l-2.4-11.9 16.9-20.2v14.9z"/><path opacity=".49" fill="#62B6BF" d="M474.7 425l3.2.1-15.2 18.4-3 .3z"/><path stroke="#07B1A4" stroke-width="3.521" stroke-linecap="round" stroke-miterlimit="10" fill="none" d="M446.5 458.1l30.1-35.9"/><path fill="#07B1A4" d="M445.6 456.3l-1.7 2.2 2.7 2.2 2.5-3z"/><path stroke="#E09A26" stroke-width="1.174" stroke-linecap="round" stroke-miterlimit="10" d="M443.9 458.5s.8.2 2.8 2.2" fill="none"/><defs><circle id="a" cx="650" cy="450" r="40"/></defs><clipPath id="b"><use xlink:href="#a" overflow="visible"/></clipPath><g clip-path="url(#b)"><defs><circle id="c" cx="650.1" cy="449.9" r="40"/></defs><clipPath id="d"><use xlink:href="#c" overflow="visible"/></clipPath><linearGradient id="e" gradientUnits="userSpaceOnUse" x1="678.421" y1="521.793" x2="678.421" y2="361.963"><stop offset="0" stop-color="#F4FAFD"/><stop offset=".377" stop-color="#EDF7F9"/><stop offset=".911" stop-color="#DBF0EE"/><stop offset="1" stop-color="#D7EEEC"/></linearGradient><path clip-path="url(#d)" fill="url(#e)" d="M510.3 362h336.2v159.8h-336.2z"/><g clip-path="url(#d)"><path fill="#08C1EA" d="M615.3 466.3c-.2-5.7-.3-10.5-.2-11.7.1-4.3.5-9.8 3.5-13.3 3.4-3.8 8.7-6 13.7-5.7 10 .7 12 8.4 13 16.9 1 8.7 2.2 17.4 2.8 26.2.1 2.1 1.4 7.4.1 9.3-1.3 1.8-8.7 1.1-10.7 1.2-3.8.2-7.7.2-11.5.6-2.5.2-6.7 1.7-9 .5-2.4-1.2-1.6-8.5-1.6-10.7-.2-4.4 0-8.8-.1-13.3z"/><path fill="#fff" d="M627 451.5c0 .9-.7 1.6-1.5 1.7-.9 0-1.6-.7-1.7-1.5 0-.9.7-1.6 1.5-1.7.9-.1 1.7.6 1.7 1.5z"/><circle fill="#fff" cx="640.1" cy="445.9" r="1.6"/><path fill="#08C1EA" d="M615.2 486c0 .9 1.7 17.2 4.3 15.8 2.6-1.3 1.7-12.7 1.7-12.7l-6-3.1zM648.5 484c.1.9 1.7 17.2-1.1 16.4-2.8-.8-4.1-12.1-4.1-12.1l5.2-4.3z"/><path fill="#fff" d="M631.1 457.4l8.2-2.9s-.8 10.2-8.2 2.9z"/><path fill="#08C1EA" d="M610.1 480.7c.9 1.8 3.5 5.4 5.9 4.1 3.3-4.9-12.1-10.2 1-16.2-.6-2.2 1.7-4.8-.8-4.6-3.6.3-6.7 3.6-8.1 6.6-2 4.1.2 7.9 2.8 11.3"/><path fill="#08C1EA" d="M641.9 465s7.8-2 11.6-10c2.9-6.1 5.9-2.7 4.5 0-1 2.1-4.7 9.4-13.3 14-8.5 4.7-2.8-4-2.8-4z"/></g><g clip-path="url(#d)"><path fill="#FFDF5A" d="M621.3 439.4l-.7-17.1 12.7 14c.1 0-5 5.8-12 3.1z"/><path fill="#705DA7" d="M624.2 427.6l.7 1.4 1.5.2-1.1 1.1.2 1.4-1.3-.7-1.3.7.2-1.4-1-1.1 1.4-.2zM624.3 433.7l.7.8 1-.1-.5.9.5 1-1.1-.3-.8.8-.1-1.1-.9-.5 1-.4zM629.3 433.6l.6 1.1 1.3.2-.9.9.2 1.3-1.2-.6-1.1.6.2-1.3-1-.9 1.3-.2z"/></g><g clip-path="url(#d)"><path fill="#F58520" d="M685.8 488.4c2.5-6.1 3.7-14.6 1.8-21.1-2.3-8.3-11-12.9-19.5-11.3-6.2 1.1-13.3 3.7-13.7 19.8-.4 16.1.2 14.4 4.9 14.8 4.7.5 25.3.7 26.5-2.2z"/><circle fill="#fff" cx="678" cy="467.2" r="1.4"/><circle fill="#fff" cx="662.9" cy="464.9" r="1.4"/><path fill="#F58520" d="M686.2 483c0 .8-.9 14.8-3.2 13.8-2.3-1.1-1.9-10.9-1.9-10.9l5.1-2.9zM654.7 482.3c-.1.8-.9 14.8 1.5 14.1 2.4-.8 3.2-10.6 3.2-10.6l-4.7-3.5zM654.9 470.9c-.4.4-3.4 1-6.2-2.1-1.2-1.4-2.1-3.2-3.5-4.4-1-.8-2.1-.8-2.4.5-1 3.7 6.9 9.7 10.1 10.2l2.6.4-.4-4.2"/><path fill="#fff" d="M664.8 472.4l9.5.8s-5.2 9.9-9.5-.8z"/><path fill="#F58520" d="M686.1 478.9c.5-.3 3.5-.2 5.5 3.5.9 1.6 1.3 3.6 2.3 5.1.7 1 1.8 1.2 2.5.1 1.8-3.3-4.3-11.1-7.3-12.4l-2.5-1.1-.6 4.1"/></g><path clip-path="url(#d)" fill="#B2A4D0" d="M684.2 463.1l4.6-12.7-11.6 7.1c-.1-.1 3.3 6.1 7 5.6z"/><path clip-path="url(#d)" fill="#FBCBCC" d="M680.2 456.1l1.3.7.3-1.5.6 1.4 1-1.1-.3 1.5 1.5-.3-1.1 1 1.3.7-1.5.2.7 1.3-1.3-.8-.2 1.5-.6-1.3-1.1 1 .3-1.4-1.4.2 1.1-1-1.4-.7 1.5-.1z"/><path clip-path="url(#d)" stroke="#7ECECD" stroke-width="2" stroke-linecap="round" stroke-linejoin="round" stroke-miterlimit="10" fill="none" d="M759.2 407.6l9.7 21.4"/><circle clip-path="url(#d)" fill="#B2A4D0" cx="758.4" cy="404.2" r="4"/></g><path opacity=".2" clip-path="url(#b)" fill="#A4DCEA" d="M657.4 439.4h43.4s-3.6-6.1-10.2-5.3c0 0-3.1-7.2-12.5-6.6-9.4.5-12.2 4.9-13.9 6.5 0 0-10.7-2.3-12.8 5.5h6z"/><path clip-path="url(#b)" fill="#fff" d="M658.8 440.9h43.4s-3.6-6.1-10.2-5.3c0 0-3.1-7.2-12.5-6.6-9.4.5-12.2 4.9-13.9 6.5 0 0-10.7-2.3-12.8 5.5h6z"/><ellipse clip-path="url(#b)" fill="#6AEEFF" cx="641.5" cy="418.4" rx="11.2" ry="11"/><ellipse clip-path="url(#b)" fill="#FF94FA" cx="652.3" cy="412.4" rx="10.2" ry="10"/><path clip-path="url(#b)" stroke="#ccc" stroke-miterlimit="10" fill="none" d="M652.8 423.6l-7.9 41.1M645.6 432.6l-.7 32.1"/><ellipse clip-path="url(#b)" fill="#FFFC7F" cx="649.7" cy="425.7" rx="10.3" ry="10.6"/><circle clip-path="url(#b)" fill="#74FF8A" cx="665.3" cy="418.6" r="10.7"/><path clip-path="url(#b)" stroke="#ccc" stroke-miterlimit="10" fill="none" d="M649.7 436.3l-4.3 28.5M660.2 428l-14.8 36.8"/><use xlink:href="#a" overflow="visible" stroke="#E6E6E6" stroke-miterlimit="10" fill="none"/><circle fill="#0FC2EC" cx="50.5" cy="50" r="40"/><defs><circle id="f" cx="50.5" cy="50" r="40"/></defs><clipPath id="g"><use xlink:href="#f" overflow="visible"/></clipPath><path clip-path="url(#g)" fill="#069AC1" d="M29.1 68.2l19.2 26.1 9.4.7 11.2-.1 18.6-18.8 9.7-9.8s-25-34.9-26.3-35.4l-41.8 37.3z"/><circle fill="#fff" cx="50.4" cy="50.4" r="27.9"/><path fill="#715DA8" d="M52.4 27.3l1.2 23.6c.1 1.7-1.2 3.1-2.8 3.2-1.7.1-3.1-1.2-3.2-2.8v-.3l1.2-23.6c.1-1 .9-1.7 1.8-1.7 1 0 1.7.7 1.8 1.6zM63 62.5l-14.2-9.3c-1.4-.9-1.8-2.8-.9-4.2.9-1.4 2.8-1.8 4.2-.9.2.1.3.2.4.3l12.3 11.8c.6.5.6 1.4 0 2-.5.6-1.2.7-1.8.3z"/><circle fill="#fff" stroke="#715DA8" stroke-width="2.481" stroke-linecap="round" stroke-linejoin="round" stroke-miterlimit="10" cx="50.5" cy="50.3" r="3.7"/><circle fill="#0FC2EC" cx="149.2" cy="50" r="40"/><defs><circle id="h" cx="149.2" cy="50" r="40"/></defs><clipPath id="i"><use xlink:href="#h" overflow="visible"/></clipPath><path clip-path="url(#i)" fill="#069AC1" d="M127.3 72.6l14.8 20.1 12.1 2.3 17.4-1.4 18-18.7 3.3-11.6s-19.4-33.6-20.7-34.1l-44.9 43.4z"/><path fill="#fff" d="M172.7 69.9c0 2-1.7 3.9-3.9 3.9h-38.7c-2 0-3.9-1.7-3.9-3.9v-38.7c0-2 1.7-3.9 3.9-3.9h38.9c2 0 3.9 1.7 3.9 3.9v38.7h-.2zM138.4 36.4c-2.4 0-4.7-2-4.7-4.5v-9.1c0-2.4 2.2-4.5 4.7-4.5 2.4 0 4.7 2 4.7 4.5v9.1c-.1 2.6-2.3 4.5-4.7 4.5z"/><path fill="#0FC2EC" d="M138.4 20.6c1.3 0 2.8.9 2.8 2.2v9.1c0 1.3-1.5 2.2-2.8 2.2-1.3 0-2.8-.9-2.8-2.2v-9.1c0-1.1 1.5-2.2 2.8-2.2m0-4.5c-3.7 0-6.5 3-6.5 6.9v9.1c0 3.7 2.8 6.9 6.5 6.9s6.5-3 6.5-6.9v-9.1c0-3.9-2.8-6.9-6.5-6.9z"/><path fill="#fff" d="M160.7 36.4c-2.4 0-4.7-2-4.7-4.5v-9.1c0-2.4 2.2-4.5 4.7-4.5 2.4 0 4.7 2 4.7 4.5v9.1c-.1 2.6-2.3 4.5-4.7 4.5z"/><path fill="#0FC2EC" d="M160.7 20.6c1.3 0 2.8.9 2.8 2.2v9.1c0 1.3-1.5 2.2-2.8 2.2-1.3 0-2.8-.9-2.8-2.2v-9.1c0-1.1 1.5-2.2 2.8-2.2m0-4.5c-3.7 0-6.5 3-6.5 6.9v9.1c0 3.7 2.8 6.9 6.5 6.9s6.5-3 6.5-6.9v-9.1c0-3.9-2.8-6.9-6.5-6.9z"/><path fill="#FCC956" d="M156.5 63l-7.3-4.1-7.2 4.1c-.7.4-1.3 0-1.1-.7l1.5-8.6-6-6c-.6-.6-.4-1.1.4-1.3l8-1.3 3.7-7.8c.4-.7.9-.7 1.3 0l3.7 7.8 8 1.3c.7.2.9.7.4 1.3l-6 6 1.5 8.6c.2.9-.2 1.2-.9.7z"/><circle fill="#0FC2EC" cx="249.6" cy="49.5" r="40"/><defs><circle id="j" cx="249.6" cy="49.5" r="40"/></defs><clipPath id="k"><use xlink:href="#j" overflow="visible"/></clipPath><path clip-path="url(#k)" fill="#069AC1" d="M245.3 40.4l36.5 34.8 6.9-2.9 5.6-5.6s5.8-.1.7-6.9c0 0-17.9-31.2-18.1-31.5l-31.6 12.1zM222.3 32.1l16.9 63.2 10.5 1.7h22.4l23.3-13.2c7.6 3.9-34.2-45.2-34.5-45.6l-38.6-6.1z"/><path fill="#F2F2F2" d="M285 57.7l-10.2-11.5 2.7-16.9c0-.3-.1-.6-.4-.7-.2-.2-.5-.2-.8-.2l-28.7 7.6c-.5.1-.8.6-.7 1.1l7.7 29c.1.5.6.8 1.1.7l28.7-7.6c.5-.1.8-.6.7-1.1 0-.2 0-.3-.1-.4z"/><path fill="#D1D3D4" d="M266.5 54.9c-.2-.4-.6-.5-1.1-.4l-12.1 3.2c-.5.1-.8.6-.7 1.1l1.9 7.2c.1.3.3.6.7.7h.5c.2 0 .3-.1.4-.3l10.3-10.4c.3-.3.4-.7.1-1.1z"/><path fill="#fff" d="M258.8 24.5c-.1-.3-.4-.5-.8-.4l-30.8 8.2c-.3.1-.5.4-.4.8l8.2 30.8c.1.3.4.5.8.4l30.8-8.2c.3-.1.5-.4.4-.8l-8.2-30.8z"/><path fill="#F57F20" d="M256.7 52.7l-7.1-1.8-5.2 5.1c-.5.5-1.1.3-1.1-.4l-.7-7.6-6.4-3.7c-.6-.3-.6-.9 0-1.2l6.5-2.9 1.4-7.5c.1-.7.6-.8 1.1-.3l4.9 5.8 7.1-.7c.7 0 1 .4.6 1l-3.7 6.4 3.2 6.9c.4.8.2 1.2-.6.9z"/><ellipse transform="matrix(.966 -.257 .257 .966 -.644 57.994)" fill="#fff" cx="221.3" cy="31.5" rx="3.4" ry="3.1"/><defs><circle id="l" cx="249.6" cy="49.5" r="40"/></defs><clipPath id="m"><use xlink:href="#l" overflow="visible"/></clipPath><path clip-path="url(#m)" stroke="#fff" stroke-width="2.966" stroke-linecap="round" stroke-linejoin="round" stroke-miterlimit="10" fill="none" d="M222.4 34.5l21.6 82.5"/><circle fill="#0FC2EC" cx="49.6" cy="149.8" r="40"/><defs><circle id="n" cx="49.6" cy="149.8" r="40"/></defs><clipPath id="o"><use xlink:href="#n" overflow="visible"/></clipPath><path clip-path="url(#o)" fill="#069AC1" d="M70.2 179.4l7.7 10.1 14.8 3.1 5-7.6s3.6-2.5-3.8-12.3c-6.3-8.5-12.3-16.5-12.4-16.7l-11.3 23.4zM17.1 163.6l23.9 32.2 17-.1 26.8 1.8 7.8-4.9c7.6 3.9-36.3-40.5-36.6-40.9l-38.9 11.9z"/><path fill="#fff" d="M33.5 150.9c2-1.2 3.4-3.3 3.4-5.8v-1.7c0-3.7-3-6.8-6.8-6.8s-6.8 3-6.8 6.8v1.7c0 2.5 1.4 4.7 3.4 5.8v1.2c-5.8.9-10.2 4.2-10.2 8.2v1.7c0 .9.8 1.7 1.7 1.7h23.7c.9 0 1.7-.8 1.7-1.7v-1.7c0-3.9-4.3-7.2-10.2-8.2v-1.2z"/><path fill="#fff" d="M73 150.9c2-1.2 3.4-3.3 3.4-5.8v-1.7c0-3.7-3-6.8-6.8-6.8s-6.8 3-6.8 6.8v1.7c0 2.5 1.4 4.7 3.4 5.8v1.2c-5.8.9-10.2 4.2-10.2 8.2v1.7c0 .9.8 1.7 1.7 1.7h23.7c.9 0 1.7-.8 1.7-1.7v-1.7c0-3.9-4.3-7.2-10.2-8.2v-1.2z"/><path fill="#12C2EB" d="M49.8 132.5c5 0 9 4 9 9v2.3c0 3.3-1.8 6.2-4.5 7.8v1.6c7.8 1.3 13.5 5.7 13.5 10.9v2.3c0 1.2-1 2.3-2.3 2.3h-31.5c-1.2 0-2.3-1-2.3-2.3v-2.3c0-5.3 5.8-9.7 13.5-10.9v-1.6c-2.7-1.6-4.5-4.4-4.5-7.8v-2.3c.1-4.9 4.2-9 9.1-9m0-2.4c-6.3 0-11.5 5.2-11.5 11.5v2.3c0 2.9 1.1 5.7 3.1 7.8-7.3 2.2-12.1 7-12.1 12.6v2.3c0 2.6 2.1 4.7 4.7 4.7h31.6c2.6 0 4.7-2.1 4.7-4.7v-2.3c0-5.5-4.8-10.4-12.1-12.6 1.9-2.1 3.1-4.9 3.1-7.8v-2.3c.1-6.4-5.1-11.5-11.5-11.5z"/><path fill="#069AC1" d="M71.6 178h-34.8l-19.2-14h66.4z"/><path fill="#fff" d="M54.4 151.6c2.7-1.6 4.5-4.4 4.5-7.8v-2.3c0-5-4-9-9-9s-9 4-9 9v2.3c0 3.3 1.8 6.2 4.5 7.8v1.6c-7.8 1.3-13.5 5.7-13.5 10.9v2.3c0 1.2 1 2.3 2.3 2.3h31.6c1.2 0 2.3-1 2.3-2.3v-2.3c0-5.3-5.8-9.7-13.5-10.9v-1.6z"/><circle fill="#0FC2EC" cx="348.5" cy="50.3" r="40"/><defs><circle id="p" cx="348.5" cy="50.3" r="40"/></defs><clipPath id="q"><use xlink:href="#p" overflow="visible"/></clipPath><path clip-path="url(#q)" fill="#069AC1" d="M323 39.1l10.1 15.1-10 14.4 21.9 29.4 12.7-.4 23.9-7.7 14.1-25.5-21.8-34.3-50.9 9z"/><g fill="#fff"><path d="M321.7 44.2v21.5c0 1.8 1.5 3.3 3.3 3.3h46.2c1.8 0 3.3-1.5 3.3-3.3v-21.5c0-.9-.7-1.7-1.7-1.7h-49.5c-.9.1-1.6.8-1.6 1.7zm42.9 13.2c0 .9-.7 1.7-1.7 1.7h-9.9c-.9 0-1.7-.7-1.7-1.7v-3.3c0-.9.7-1.7 1.7-1.7h9.9c.9 0 1.7.7 1.7 1.7v3.3zM374.5 37.3v-5c0-1.8-1.5-3.3-3.3-3.3h-46.2c-1.8 0-3.3 1.5-3.3 3.3v5c0 .9.7 1.7 1.7 1.7h49.5c.9 0 1.6-.7 1.6-1.7z"/></g><path fill="#8CC640" d="M364.6 57.4c0 .9-.7 1.7-1.7 1.7h-9.9c-.9 0-1.7-.7-1.7-1.7v-3.3c0-.9.7-1.7 1.7-1.7h9.9c.9 0 1.7.7 1.7 1.7v3.3zM329.5 57.4c0 .9-.7 1.7-1.7 1.7h-.1c-.9 0-1.7-.7-1.7-1.7v-3.3c0-.9.7-1.7 1.7-1.7h.1c.9 0 1.7.7 1.7 1.7v3.3zM334.5 57.4c0 .9-.7 1.7-1.7 1.7h-.1c-.9 0-1.7-.7-1.7-1.7v-3.3c0-.9.7-1.7 1.7-1.7h.1c.9 0 1.7.7 1.7 1.7v3.3zM339.4 57.4c0 .9-.7 1.7-1.7 1.7h-.1c-.9 0-1.7-.7-1.7-1.7v-3.3c0-.9.7-1.7 1.7-1.7h.1c.9 0 1.7.7 1.7 1.7v3.3z"/><circle fill="#0FC2EC" cx="149.6" cy="149.8" r="40"/><defs><circle id="r" cx="149.6" cy="149.8" r="40"/></defs><clipPath id="s"><use xlink:href="#r" overflow="visible"/></clipPath><path clip-path="url(#s)" fill="#069AC1" d="M141.9 143.8l37.9 39.6 17.7-11.8s-37.2-47.3-37.5-47.7l-18.1 19.9zM126.7 170.4l17.5 23.8 22.2.8 26.3-2.4c7.6 3.9-36.3-40.5-36.6-40.9l-29.4 18.7z"/><path fill="#fff" d="M157.9 147.5c3.8-2.2 6.4-6.3 6.4-11v-3.2c0-7-5.7-12.8-12.8-12.8s-12.8 5.7-12.8 12.8v3.2c0 4.7 2.6 8.8 6.4 11v2.3c-11 1.8-19.1 8-19.1 15.4v3.2c0 1.8 1.4 3.2 3.2 3.2h44.6c1.8 0 3.2-1.4 3.2-3.2v-3.2c0-7.4-8.1-13.6-19.1-15.4v-2.3z"/><path fill="#DD225C" d="M136 163.5c-.8 0-1.5-.3-2.1-.9l-9.9-9.4c-3.1-3.1-3.1-8.1-.1-11.1 1.5-1.5 3.5-2.3 5.6-2.3 2.1 0 4 .8 5.5 2.3l.1.1.8 1 .9-1.1c1.5-1.5 3.5-2.3 5.6-2.3 2.1 0 4 .8 5.5 2.3 3.1 3 3.1 8 0 11.1l-9.9 9.5c-.5.5-1.2.8-2 .8z"/><path fill="#0FC2EC" d="M142.4 141.1c1.6 0 3.3.6 4.6 1.9 2.5 2.5 2.6 6.6 0 9.2l-9.9 9.5c-.3.3-.7.5-1.1.5-.4 0-.8-.2-1.1-.5l-10-9.4c-2.5-2.5-2.6-6.6 0-9.2 1.3-1.3 2.9-1.9 4.6-1.9 1.6 0 3.3.6 4.6 1.9l1.9 2.3 1.9-2.3c1.1-1.3 2.8-2 4.5-2m0-2.7c-2.5 0-4.8 1-6.5 2.7-1.7-1.7-4-2.6-6.4-2.6-2.5 0-4.8 1-6.5 2.7-3.6 3.6-3.5 9.4.1 13l9.9 9.4c.8.8 1.9 1.2 3 1.2s2.2-.5 3-1.3l9.8-9.5c3.6-3.6 3.5-9.4-.1-13-1.6-1.6-3.9-2.6-6.3-2.6z"/><circle fill="#0FC2EC" cx="449.8" cy="51" r="40"/><defs><circle id="t" cx="449.8" cy="51" r="40"/></defs><clipPath id="u"><use xlink:href="#t" overflow="visible"/></clipPath><path clip-path="url(#u)" fill="#069AC1" d="M430.5 65.9l20.2 32.2 26.3-8 14.5-19-22.9-35.1-7.7 27.1-30.4 2.8z"/><path fill="#fff" d="M464.4 47h9.3c-1.9-10-9.7-17.2-18.7-19.3v9c4 1.6 8 5.3 9.4 10.3zM434.6 57h-8.6c2.2 9 9 16.3 18 18.3v-8.9c-4-1.4-7.7-4.4-9.4-9.4zM444 36.5v-8.9c-9 2.1-16.2 9.3-18.2 19.3h8.5c1.6-4.9 5.7-8.8 9.7-10.4zM455 66.3v9c9-2.1 16.3-9.3 18.5-18.3h-9.3c-1.7 4-5.2 7.8-9.2 9.3z"/><path fill="#DD225C" d="M449.3 35.7c1.9 0 3.7.3 5.7 1v-9c-1-.4-3.7-.6-5.5-.6-1.8 0-3.5.2-5.5.6v8.9c2-.6 3.5-.9 5.3-.9zM449.3 67.3c-1.8 0-3.3-.3-5.3-.8v8.9c2 .4 3.6.6 5.5.6s4.5-.2 5.5-.6v-9c-2 .6-3.8.9-5.7.9zM433.6 51.6c0-1.7.3-3.6.8-4.6h-8.5c-.3 1-.5 2.9-.5 4.6 0 2 .3 3.4.7 5.4h8.6c-.7-2-1.1-3.4-1.1-5.4zM473.7 47h-9.3c.5 1 .8 2.9.8 4.6 0 2-.4 3.4-1.1 5.4h9.3c.5-2 .7-3.4.7-5.4.1-1.7-.1-3.6-.4-4.6z"/><path fill="#F1F2F2" d="M455 36.7v3.7c3 1.3 5 3.7 6.2 6.7h3.3c-1.5-5.1-5.5-8.8-9.5-10.4zM438.8 57h-4.1c1.7 5 5.4 8 9.4 9.5v-3.8c-2.1-1.1-4.1-2.7-5.3-5.7zM444 40.3v-3.8c-4 1.6-8.1 5.5-9.7 10.5h4c1.2-3 2.7-5.4 5.7-6.7zM455 62.7v3.7c4-1.6 7.5-5.3 9.2-9.3h-3.4c-1.3 2.9-2.8 4.4-5.8 5.6z"/><path fill="#C91B5A" d="M449.5 39.1c2 0 4.5.5 5.5 1.3v-3.7c-2-.6-3.8-1-5.7-1-1.8 0-3.3.3-5.3.8v3.8c2-.8 3.5-1.2 5.5-1.2zM449.5 63.9c-1.9 0-3.5-.4-5.5-1.2v3.8c2 .5 3.5.8 5.3.8 1.9 0 3.7-.3 5.7-1v-3.7c-1 .9-3.6 1.3-5.5 1.3zM437.3 51.6c0-1.8.4-3.6 1-4.6h-4c-.5 1-.8 2.9-.8 4.6 0 2 .4 3.4 1.1 5.4h4.1c-.8-2-1.4-3.3-1.4-5.4zM462.2 51.6c0 2.1-.5 3.4-1.5 5.4h3.4c.7-2 1.1-3.4 1.1-5.4 0-1.7-.3-3.6-.8-4.6h-3.3c.7 1 1.1 2.8 1.1 4.6z"/><defs><circle id="v" cx="250.5" cy="150.3" r="40"/></defs><use xlink:href="#v" overflow="visible" fill="#fff"/><clipPath id="w"><use xlink:href="#v" overflow="visible"/></clipPath><path clip-path="url(#w)" stroke="#EAEAEA" stroke-miterlimit="10" fill="none" d="M205 116.5h97M205 136.5h97M205 156.5h97M205 176.5h97"/><path clip-path="url(#w)" fill="#715DA8" d="M242 122h7v75h-7zM256 160h6v39h-6zM270 146h6v44h-6z"/><path clip-path="url(#w)" fill="#F57F20" d="M228 176h7v18h-7z"/><path clip-path="url(#w)" stroke="#07B1A4" stroke-width="1.295" stroke-miterlimit="10" fill="none" d="M218 186l13.3-10.4 14-20 13-4 15.1-10.5 20.6-3.8"/><circle clip-path="url(#w)" fill="#fff" stroke="#07B1A4" stroke-width=".741" stroke-miterlimit="10" cx="231.3" cy="175.6" r="2.2"/><circle clip-path="url(#w)" fill="#fff" stroke="#07B1A4" stroke-width=".741" stroke-miterlimit="10" cx="245.3" cy="155.6" r="2.2"/><circle clip-path="url(#w)" fill="#fff" stroke="#07B1A4" stroke-width=".741" stroke-miterlimit="10" cx="258.3" cy="151.6" r="2.2"/><circle clip-path="url(#w)" fill="#fff" stroke="#07B1A4" stroke-width=".741" stroke-miterlimit="10" cx="273.3" cy="141.6" r="2.2"/><use xlink:href="#v" overflow="visible" stroke="#EAEAEA" stroke-miterlimit="10" fill="none"/><circle fill="#0FC2EC" cx="350.6" cy="150" r="40"/><defs><circle id="x" cx="350.6" cy="150" r="40"/></defs><clipPath id="y"><use xlink:href="#x" overflow="visible"/></clipPath><path clip-path="url(#y)" fill="#069AC1" d="M350.6 157.6l-5.3 5.8-11.7 12 19.6 24.1 46.9-36.2-24.4-30.1-25.1 24.4z"/><path fill="#fff" d="M337.4 125c-4.3 1.7-8.8 7.4-8.8 7.4-.3 4.1-4.3 4.1-4.3 4.1l-.1-.1c-.1-.1-.3.1-.5.3l-2.1 2.1c-.3.3-.2.7.1 1l4.9 4.9c.3.3 1 .7 1.3.4l2.1-2.1c.2-.2.1-.5.1-.7 0 0-.3-4.2 3.8-4.4 1 0 2.3 1.4 2.3 1.4l3.7-3.7s-3.1-3-1.9-6.1c1.8-4.8 8.3-1.3 9.5-3 .5-.6-5.1-3.5-10.1-1.5zM336.223 139.275l3.818-3.818 18.102 18.102-3.818 3.818zM374.9 168.6c1.2 1.2.8 3.5-.6 4.9l-.2.2c-1.4 1.4-3.5 1.6-4.7.4l-20-20c-.6-2.3-1-3.4.4-4.8l.2-.2c1.4-1.4 2.4-.6 4.9-.5l20 20z"/><path fill="#F1F2F2" d="M350.8 146.2l-1.7-1.6-3.8 3.7 2 2.2zM358.8 152.5l-2-1.9-5.5 5.4 2 1.9z"/><path fill="#fff" d="M342.9 173.1c1.9-1.9 2.9-4.4 2.9-7 0-.9-.1-1.8-.4-2.6l18.4-18.4c.9.3 1.9.4 2.8.4 2.5-.1 4.9-1.1 6.8-2.9 1.8-1.8 2.8-4.1 2.8-6.7 0-.8-.1-1.6-.3-2.4 0-.2-.2-.3-.4-.4-.2-.1-.4 0-.5.1l-4.6 4.6c-.4.4-.8.7-1.2.8-.5.2-.7 0-.8-.1l-4.2-4.2c-.3-.3-.5-.8-.5-1.4 0-.6.2-1.1.5-1.4l4.6-4.6c.1-.1.2-.4.1-.6-.1-.2-.2-.3-.4-.4-3.2-.5-6.4.6-8.6 2.8-1.8 1.8-2.8 4.2-2.8 6.8 0 .9.1 1.8.4 2.6l-18.7 18.9c-3.3-.9-6.9-.1-9.5 2.5-1.8 1.8-2.9 4.5-2.9 7.2 0 .5 0 1 .1 1.4 0 .2.2.4.4.4.2.1.4 0 .6-.1l4.6-4.6c.3-.3.8-.5 1.4-.5.6 0 1.1.2 1.4.4l4.2 4.2c.1.1.2.3.2.5 0 .4-.3 1-.9 1.6l-4.6 4.6c-.1.1-.2.3-.1.5s.2.3.4.4c3.1.8 6.5-.1 8.8-2.4z"/><path fill="#8CC640" d="M344.4 160.3c-.6.6-1.7.6-2.3 0-.6-.6-.6-1.7 0-2.3l15.9-15.9c.6-.6 1.7-.6 2.3 0 .6.6.6 1.7 0 2.3l-15.9 15.9z"/><path fill="#A1E2DA" d="M550 412.1c-21 0-37.9 17-37.9 37.9 0 12.4 5.7 23.4 15.2 30.4v-41.8c0-1.1.9-1.8 2.1-1.8h14.9l6.2 1.8 5.6-1.8h15.5c1.1 0 2.3.7 2.3 1.8v41.2c8.5-6.9 14.4-17.7 14.4-29.8-.2-21-17.3-37.9-38.3-37.9z"/><path fill="#07B1A4" d="M571.4 436.8h-15.5l-5.6 1.8-6.2-1.8h-14.9c-1.1 0-2.1.7-2.1 1.8v41.8c1.9 1.1 2.8 2.2 4.7 3.1v-42.8h37v42.3c.9-.9 2.8-2 4.7-3.2v-41.2c.2-1.1-1-1.8-2.1-1.8zM550 487.6c4.7 0 9.2-.5 13.3-2.4h-26.7c4.2 1.9 8.7 2.4 13.4 2.4z"/><path fill="#71D1C8" d="M532 440.6v42.8c1.9.8 3.1 1.8 4.7 2.7h26.7c1.8-.9 3.7-2.1 5.6-3.1v-42.5h-37z"/><path fill="#08B1A3" d="M563.3 453.9h-15.2c-.3 0-.5-.2-.5-.5s.2-.5.5-.5h15.2c.3 0 .5.2.5.5s-.3.5-.5.5z"/><path fill="#07B1A4" d="M537.7 449.1h5.7v6.6h-5.7z"/><path fill="#08B1A3" d="M563.3 464.3h-15.2c-.3 0-.5-.2-.5-.5s.2-.5.5-.5h15.2c.3 0 .5.2.5.5s-.3.5-.5.5zM563.3 475.7h-15.2c-.3 0-.5-.2-.5-.5s.2-.5.5-.5h15.2c.3 0 .5.2.5.5s-.3.5-.5.5z"/><path fill="#07B1A4" d="M537.7 460.5h5.7v6.6h-5.7zM537.7 470.9h5.7v6.6h-5.7z"/><path fill="#068979" d="M558.6 435.8c.2-.8.4-1.7.4-2.5 0-4.9-4-8.8-8.8-8.8-4.9 0-8.8 3.9-8.8 8.8 0 .9.2 1.8.4 2.6-2.9 2-4.8 4.8-4.8 8.6h26.5c-.1-3.9-2-6.7-4.9-8.7zm-8.4 1.8c-2.4 0-4.4-2-4.4-4.4 0-2.4 2-4.4 4.4-4.4 2.4 0 4.4 2 4.4 4.4 0 2.5-2 4.4-4.4 4.4z"/><path fill="#71D1C8" d="M540.9 465.6l-2.7-1.4c-.1-.1-.2-.3-.1-.4l.3-.5c.1-.1.3-.2.4-.1l1.9 1 2.3-4.1c.1-.1.3-.2.4-.1l.5.3c.1.1.2.3.1.4l-2.8 4.9s-.2.1-.3 0z"/><path fill="#067C70" d="M550 410c-22.1 0-40 17.9-40 40s17.9 40 40 40 40-17.9 40-40-17.9-40-40-40zm0 75.9c-19.8 0-35.9-16.1-35.9-35.9s16.1-35.9 35.9-35.9 35.9 16.1 35.9 35.9-16.1 35.9-35.9 35.9z"/><path fill="#FFF3DD" d="M771.3 436.8h-15.5l-5.6 1.8-6.2-1.8h-14.9c-1.1 0-2.1.7-2.1 1.8v41.8c1.9 1.1 2.8 2.2 4.7 3.1v-42.8h37v42.3c.9-.9 2.8-2 4.7-3.2v-41.2c.2-1.1-.9-1.8-2.1-1.8z"/><path fill="#07B1A4" d="M749.9 487.6c4.7 0 9.2-.5 13.3-2.4h-26.7c4.2 1.9 8.7 2.4 13.4 2.4z"/><path fill="#fff" d="M731.9 440.6v42.8c1.9.8 3.1 1.8 4.7 2.7h26.7c1.8-.9 3.7-2.1 5.6-3.1v-42.5h-37z"/><path fill="#A5DDEB" d="M763.3 452.2h-15.2c-.3 0-.5-.2-.5-.5s.2-.5.5-.5h15.2c.3 0 .5.2.5.5s-.3.5-.5.5zM757.8 455.6h-9.7c-.3 0-.5-.2-.5-.5s.2-.5.5-.5h9.7c.3 0 .5.2.5.5s-.3.5-.5.5zM757.8 465.5h-9.7c-.3 0-.5-.2-.5-.5s.2-.5.5-.5h9.7c.3 0 .5.2.5.5s-.3.5-.5.5zM757.8 475.1h-9.7c-.3 0-.5-.2-.5-.5s.2-.5.5-.5h9.7c.3 0 .5.2.5.5s-.3.5-.5.5z"/><path stroke="#D4EEF7" stroke-width=".615" stroke-miterlimit="10" fill="none" d="M737.7 450.6h5.7v6.1h-5.7z"/><path fill="#A5DDEB" d="M763.3 462.1h-15.2c-.3 0-.5-.2-.5-.5s.2-.5.5-.5h15.2c.3 0 .5.2.5.5s-.3.5-.5.5zM763.3 471.8h-15.2c-.3 0-.5-.2-.5-.5s.2-.5.5-.5h15.2c.3 0 .5.2.5.5 0 .2-.3.5-.5.5z"/><path stroke="#D4EEF7" stroke-width=".615" stroke-miterlimit="10" fill="none" d="M737.7 461.2h5.7v6.1h-5.7zM737.7 470.8h5.7v6.1h-5.7z"/><path fill="#FCB45D" d="M756.9 435.9c.2-.7.3-1.4.3-2.1 0-4-3.3-7.3-7.3-7.3s-7.3 3.2-7.3 7.3c0 .7.1 1.5.3 2.1-2.4 1.7-4 3.9-4 7.1h21.8c.2-3.2-1.4-5.4-3.8-7.1zm-6.9 1.5c-2 0-3.6-1.6-3.6-3.6s1.6-3.6 3.6-3.6 3.6 1.6 3.6 3.6-1.6 3.6-3.6 3.6z"/><path fill="#0FC2EC" d="M750 410c-22.1 0-40 17.9-40 40s17.9 40 40 40 40-17.9 40-40-17.9-40-40-40zm0 75.9c-19.8 0-35.9-16.1-35.9-35.9s16.1-35.9 35.9-35.9 35.9 16.1 35.9 35.9-16.1 35.9-35.9 35.9z"/><path fill="#F57F20" d="M740.5 466.1l-2.4-1.9c-.1-.1-.2-.3-.1-.4l.4-.5c.1-.1.3-.2.4-.1l1.7 1.3 3-3.7c.1-.1.3-.2.4-.1l.5.4c.1.1.2.3.1.4l-3.6 4.4c-.1.3-.3.3-.4.2z"/><path fill="#FFF3DD" d="M810 447.4l39.8-33.3 40.2 32.9z"/><path fill="#FFE6B3" d="M890 447s-42.2-5-80 .4c0 0 40.1 25.6 80-.4z"/><path fill="#FBCBCC" d="M810.185 426.944l67.701-11.058 6.512 39.871-67.701 11.058z"/><path fill="#EFBFC2" d="M879.3 424.8l-65.1 4 1.1 20.8 64.3-22.8z"/><path fill="#7ECECD" d="M814.935 429.457l68.477-4.074 2.399 40.327-68.477 4.074z"/><path fill="#EFBFC2" d="M813.7 448l3.3 1.3v1.7l-3.1-1.5z"/><path fill="#07B1A4" d="M878.1 428.9c-.5.1-.9.5-1 .7-.1-.2-.4-.6-.9-.8-.6-.2-1.7.4-1.4 1.5.1.2.2.5.4.7l1.7 1.9 1.9-1.7c.2-.2.4-.5.5-.7.4-.9-.5-1.7-1.2-1.6z"/><path fill="#F37E85" d="M872.4 420.3c-.5.1-.9.5-1 .7-.1-.2-.4-.6-.9-.8-.6-.2-1.7.4-1.4 1.5.1.2.2.5.4.7l1.7 1.9 1.9-1.7c.2-.2.4-.5.5-.7.4-.9-.6-1.7-1.2-1.6z"/><path fill="#07B1A4" d="M856.9 442.8c-2.3-2-5.3-3-6.1-3.2-.3-.5-.4-.9-.3-1.3.2-.9 1.4-1.7 1.8-1.9.6-.3 1.2-.5 1.9-.5 1.4 0 2.8.8 3.5 1.6.5.6.9 1.2.9 1.6-.1 2.9-1.2 3.6-1.7 3.7z"/><path fill="#7ECECD" d="M854.2 436.3c1.3 0 2.5.8 3.2 1.5.5.5.8 1 .7 1.3-.1 2.1-.7 3-1.2 3.3-2.2-1.8-4.9-2.8-5.9-3-.2-.3-.2-.6-.2-.9.2-.8 1.2-1.5 1.6-1.6.7-.5 1.3-.6 1.8-.6m0-.9c-.7 0-1.4.2-2 .6 0 0-3.3 1.7-1.6 4 0 0 3.7 1 6.2 3.3 0 0 2.1-.1 2.2-4.2.1-1.4-2.2-3.7-4.8-3.7z"/><path fill="#07B1A4" d="M847.5 461.2c-.2-1.9-.4-3.7-.5-5.5 0-.8-.1-1.6-.2-2.4-.1-1-.2-2.1-.2-3.1v-5.1c-.1-2.4.7-5.5 2.6-6.9.6-.4 2.1-1.2 3.3-1.8-.5 1.1-1.1 2.9-.7 5.4.6 3.9 1.3 14.2 1.4 16l-5.7 3.4z"/><path fill="#7ECECD" d="M851.7 437.3c-.4 1.1-.6 2.7-.3 4.6.5 3.7 1.2 13.4 1.4 15.7l-4.8 2.9c-.2-1.6-.3-3.2-.4-4.8 0-.8-.1-1.6-.2-2.4-.1-1-.2-2.1-.2-3.1v-5.1c-.1-2.2.7-5.2 2.4-6.5.2-.3 1.1-.8 2.1-1.3m1.9-1.9s-3.7 1.8-4.7 2.5c-2 1.5-2.9 4.8-2.8 7.2l.1 5.1.4 5.5c.1 2.1.3 4.1.5 6.2l6.4-3.9s-.8-12-1.4-16.3c-.5-4.2 1.5-6.3 1.5-6.3z"/><path fill="#07B1A4" d="M840.7 451.4c1.5-.9 10.4-6.3 13.8-8.1 2.3-1.2 3.5-2.5 4.1-3.5.1 1.2.3 2.8.3 3.5 0 2.9-3 5.3-4.3 6.2-2.5 1.8-5.4 3.6-9 5.7l-1.7 1-2.8 1.7-.4-6.5z"/><path fill="#7ECECD" d="M858.4 440.9c.1 1 .2 1.9.2 2.4 0 2.7-2.9 5-4.1 5.9-2.5 1.8-5.4 3.6-9 5.7l-1.7 1c-.7.4-1.5.9-2.3 1.3l-.4-5.6c2-1.2 10.3-6.3 13.6-7.9 1.8-.9 2.9-1.9 3.7-2.8m.5-2.5s-.7 2.6-4.6 4.5c-3.8 2-14.1 8.2-14.1 8.2l.5 7.5 5.1-3c3.1-1.8 6.1-3.7 9.1-5.8 2.1-1.5 4.4-3.9 4.4-6.6.1-1.1-.4-4.8-.4-4.8z"/><path fill="#79C6C2" d="M816.1 449l34.7 14.1 33.9-14.6v6.6l-33.2 13.9-35.4-15.9z"/><path fill="#FFF3DD" d="M810 447.4l40.7 16.9 39.3-17.3v38h-80z"/><path fill="#FFECCA" d="M810 485l40.7-20.2 39 20.2z"/><path fill="#85AA3D" d="M983.1 444.7c-2.6-3.3-7.8-2.5-11-4.6-2.7-1.8-2.1-4-.9-6.3 3-2.5 4.8-6.4 4.8-10.8 0-7.3-5-13.3-12-13.5v68.6c6 .3 11.9 0 13.9-1.9 1.7-1.6 2.7-4.8 3.5-6.9 2.2-6.3 6.5-18.7 1.7-24.6zM952 423c0 4.4 1.9 8.3 4.8 10.8 1.2 2.2 1.7 4.5-1 6.3-3.2 2.1-8.4 1.3-11 4.6l-.5.6c-.1 1.2.4 2.4 1.9 3.4 3.2 2.1 8.4 1.3 11 4.6 4.8 6 .5 18.3-1.7 24.7h.1c2.5.3 5.3.3 8.3.1v-68.6c-6.9.2-11.9 6.2-11.9 13.5z"/><path fill="#8BC541" d="M922.3 434.3c0 4.4 2 8.3 5 10.8 1.2 2.2 1.8 4.5-.9 6.3-3.2 2.1-8.3 1.3-11 4.6-4.8 6-.5 18.3 1.8 24.7.7 2.1 1.5 5.3 3.2 6.9 2 1.8 8.6 2.1 13.6 1.9v-68.6c-6 .1-11.7 6.1-11.7 13.4zM952.8 456c-2.6-3.3-7.8-2.5-11-4.6-2.7-1.8-2.1-4-.9-6.3 3-2.5 5-6.4 5-10.8 0-7.3-5.8-13.3-11.8-13.5v68.6c6 .3 11.7 0 13.7-1.9 1.7-1.6 2.6-4.8 3.4-6.9 2.1-6.3 6.4-18.7 1.6-24.6z"/></svg>