<svg xmlns="http://www.w3.org/2000/svg" viewBox="0 0 1500 845" enable-background="new 0 0 1500 845"><linearGradient id="a" gradientUnits="userSpaceOnUse" x1="750" y1="1087.756" x2="750" y2="-427.919"><stop offset="0" stop-color="#F3FAFD"/><stop offset=".377" stop-color="#ECF7F9"/><stop offset=".911" stop-color="#DAEFED"/><stop offset="1" stop-color="#D6EDEB"/></linearGradient><path fill="url(#a)" d="M0 0v845h1500v-845z"/><path d="M689.6 668.3c-47.9-9.8-96.1-17.8-144.6-23.5-36.4-4.3-73-6.5-109.6-7.4-53.6-1.3-107.2-.7-160.9.8-90.5 2.6-181.1 6.8-271.3 15.8l-3.2.3v82.9c63.2-1 143.9-2.1 186.7-2.1 77.1 0 301.8 11 383.4 11 81.7 0 474.2-18.3 578.6-14.7 104.4 3.7 245 5.5 285.9 7.3 14.3.6 39.2.8 65.3.8v-94.7c-490.2-86.3-810.3 23.5-810.3 23.5z" fill="#E0E6A4"/><path d="M1434.7 738.9c-40.8-1.8-181.5-3.7-285.9-7.4-104.4-3.7-496.9 14.8-578.6 14.8-81.7 0-306.3-11.1-383.4-11.1-42.9 0-123.5 1.1-186.7 2.2v107.6h1500v-105.3c-26.3 0-51.1-.2-65.4-.8z" fill="#C4DA79"/><path d="M326.7 412.1c.4-2.8.7-5.6.7-8.3 0-4.5-.6-8.7-1.7-12.9-6.8-27.4-34.6-46.1-65.4-51.7.6.1 1-.3 1.3-1.2l-1.3-.3c1.1.2 1.6-1.6 1.7-4.7-.2-12.2-5.6-38.5-6.4-40.2-24.8-55.7-107-72.3-157-37-3.2 2.2-8.7 6.8-13.8 11.9 9 31.5-4.6 48-11.7 54.2-2.3 2-3.9 2.9-3.9 2.9 1.4-5.3 2.4-10.1 3.1-14.4 3.3-20.1.1-29.1.1-29.1l.2-.2c-2.1-9.6-9.8-29.4-36.6-30.7 0 0-22.1-1.8-33.6 18 1-1.8 1.9-3.6 2.7-5.5-.9 1.2-1.8 2.5-2.7 4 4.1-7 6.3-14.6 7.1-22.3.9-13.1-2.7-26.6-9.6-38v206.4h326.5c.2-.3.2-.6.3-.9zm1146-49.4c-.2 10.1 2.1 20.1 7.3 29.1-.9-1.6-1.9-3-2.9-4.3.8 2 1.8 3.9 2.9 5.8-11.5-19.7-33.5-18-33.5-18-26.8 1.4-34.4 21.1-36.5 30.7l.2.2s-4.8 13.2 3.1 43.4h-.1s-27.3-15.5-15.5-57.1c-5.1-5.1-10.5-9.7-13.7-11.9-50-35.2-132.2-18.6-157 37-.8 1.8-6.1 28-6.4 40.2.1 3.1.6 4.9 1.7 4.7l-1.3.3c.3.9.7 1.3 1.3 1.2-30.8 5.6-58.6 24.3-65.4 51.7-1 4.2-1.6 8.4-1.7 12.9 0 2.7.2 5.5.7 8.3 0 .3.1.6.2.9h344v-225.4c-1.7 1.2-3.4 2.5-5 3.9-13.4 11.5-21.7 28.9-22.4 46.4zm-261.4-67.7c15.2.3 30.6.8 45.7-.1.7 0 .2-8 .2-8.8-.2-2.9-.7-5.8-1.4-8.6-1.5-5.6-4-10.9-7.1-15.7-6-9-14.3-16.6-23.7-22.2-2.9-1.8-6-3.3-9.1-4.7-13.4-5.8-30-8.6-44.4-4.8-2.8.7-9.1 1.5-9.5 5.4.1-1.1.2-2.2.2-3.4 0-1 .1-2 .1-2.9v-1.2c0-.7 0-1.4-.1-2.1v-.4l-.1-1.4c0-.5-.1-1-.1-1.4v-.2c-.1-1-.3-2-.5-2.9-.3-1.4-.6-2.7-1-4.1-.5-1.6-1.1-3.3-1.7-4.8-.1-.3-.3-.6-.4-1-.7-1.5-1.5-2.9-2.3-4.3-.7-1.2-1.6-2.3-2.4-3.4-.6-.7-1.2-1.4-1.9-2.1l-1-1c-.3-.3-.7-.7-1.1-1-1.1-1-2.2-1.9-3.5-2.8-.8-.6-1.7-1.1-2.6-1.7-.9-.5-1.8-1-2.8-1.5l-3-1.4c-2.6-1.1-5.4-2-8.5-2.7l-1.5-.3c-.1 0-.3 0-.4-.1-.4-.1-.9-.1-1.4-.2h-.2c-.5 0-1.1-.1-1.7-.1h-2.3c-.6 0-1.2 0-1.8.1h-.4l-1.6.1h-.5l-2 .2h-.2c-.6.1-1.2.2-1.9.3l-.5.1c-1.4.2-2.7.5-4.1.8l-.4.1-1.9.5h-.2l-2.1.6-.3.1-1.8.6-.3.1c-.7.2-1.3.5-2 .8l-.2.1c-.6.2-1.2.5-1.7.7l-.3.2-1.8.9-.2.2-.1-.1c-.1.1-.2.1-.4.2s-.4.2-.5.3c0 0-.1 0-.1.1l-1.1.6c-.1 0-.2.1-.2.1l-.7.4-.3.2-.3.2-.9.6c-.1.1-.2.1-.2.2l-.6.5c-.1.1-.2.1-.2.2l-.2.2-.6.5-.2.2-.1.1-.8.8c-.3.3-.6.6-.8.9-.3.3-.5.6-.7.9 0 0-3.7-4.7-10.1-8.9-7-4.6-17.3-8.4-29.7-4.6-1.5.5-2.9.9-4.2 1.4-.5.2-.9.3-1.3.5 0 .5 0 1.1-.3 1.8 0 0-6.4 18.8-18.1 26.6-.2.1.3.2-.7.3h.2c.4-1 .9-1.7 1.2-2.5l2.4-6c1.4-3.8 2.6-7.7 3.4-11.5 1-6.6.3-13.2-1.5-19.5-3.3-9.9-8.2-19-16.2-25.5-1.7-1.3-3.4-2.5-5.2-3.6-5.2-3-10.8-5.4-16.4-7.3-2.3-.8-4.6-1.4-7-2-6.5-1.3-13.2-1.7-19.8-1.1-3.6.4-7.2 1.2-10.8 1.9-.8.2-1.6.3-2.3.5-.5.1-1 .3-1.5.5l-.4.2-1.1.4-.5.2c-.4.1-.7.3-1.1.5l-.4.2c-1 .5-2.1.9-3.1 1.5l-.3.1-1.3.7-.4.2-1.2.7-.3.2-1.5.9c-5.9 3.8-11.5 8.7-15.4 14-.3.4-.6.8-.9 1.3 0 0 0 .1-.1.1-.3.4-.5.8-.7 1.2l-.1.2-.6 1.1-.1.3-.5 1-.2.3c-.1.3-.3.6-.4 1-.1.1-.1.2-.2.4l-.3.9-.1.4-.3.9c0 .1-.1.2-.1.4l-.3 1.3s-13.9-14.4-30-6.8c-5 2.4-8.4 5.6-10.5 8.8l-.8 1.2-.2.3-.6 1-.1.2-.6 1.2s0 .1-.1.1l-.4 1.1c0 .1-.1.2-.1.2l-.4 1.1c-.1.4-.2.8-.3 1.1v.2l-.2.9v.2c-.1.7-.2 1.3-.3 1.9v.2c0 .2 0 .5-.1.7v1.4l.1.1c0 .2.1.3.1.4v.1l-.1.4-.1.1v.3c-10.4-21.6-41.7-19.7-61.9-7.6-12.6 9.8-19.1 25.4-9.1 43.2-6.5-7-34.3-5.7-42.9-4.9l-3.9.4-.9.1c-1.2.2-2.4.3-3.5.5-.1 0-.2 0-.3.1-19.9 3.4-38.9 12.3-51.7 25.6-13.1 13.7-16.5 31.6-22.2 48.6h453.3l82.3.3zm-205.1-145.7c1.8 1.1 3.6 2.3 5.2 3.6-1.5-1.2-3.1-2.3-4.8-3.3-.1-.1-.2-.2-.4-.3z" opacity=".8" fill="#fff"/><path d="M753.1 220.2l.9-.1c1.3-.2 2.6-.3 3.9-.4 8.6-.8 36.4-2.1 42.9 4.9-4.2-4.1-6.7-8.2-8-12.2-9.8-.8-20.8-.2-25.7.3-21.1 2-42.3 9.8-56.8 23 11.3-7.4 24.9-12.3 39-14.7.1 0 .2 0 .3-.1 1.2-.4 2.4-.6 3.5-.7zm163.3-47.9l.3-1.3c0-.1.1-.2.1-.4l.3-.9.1-.4.3-.9c0-.1.1-.2.2-.4.1-.3.3-.6.4-1l.2-.3.5-1 .1-.3.6-1.1.1-.2.7-1.2-.1-.1c.3-.4.7-.8.7-1.3-5-3.7-14.9-8.4-25.6-3.3-4.2 2-7.1 4.5-9.3 7.2 0 0 .1 0 .2-.1 16.2-7.4 30.2 7 30.2 7zm-44.6 16.5v-.3s.1 0 .1-.1.1-.2.1-.4v-.1l-.1-.4-.1-.1v-1.4c0-.2 0-.5.1-.7v-.2c.1-.6.2-1.2.3-1.9v-.2l.2-.9v-.2l.3-1.1c.1-.4.2-.7.4-1.1 0-.1.1-.2.1-.2.1-.3.3-.7.4-1.1 0 0 0-.1.1-.1l.6-1.2.1-.2.6-1 .2-.3c.2-.4.5-.8.8-1.2-16-16.3-50.2-8.9-66.1 7.1.1-.1.2-.1.3-.1 18.3-14.6 50.3-16.2 61.6 7.4zm66.8-42.2l1.2-.7.4-.2 1.3-.7.3-.1 3.1-1.5.4-.2 1.1-.5.5-.2 1.1-.4.4-.2 1.5-.5c4.2-1.3 8.6-2.1 13.1-2.5 2.8-.3 5.6-.5 8.4-.5 3.9.1 7.7.7 11.4 1.6 3 .6 5.9 1.4 8.7 2.4 5 1.7 10.1 4 14.8 6.9l.5.3c1.7 1 3.3 2.1 4.8 3.3 4.9 3.8 9 8.4 11.7 13.9 1.8 3.8 3.4 7.6 4.5 11.6.3 1 .6 2 .9 2.9 1.7 5.7 1.6 11.2.6 16.6-.2 1.6-.6 3.2-1.1 4.8-.7 2.3-1.4 4.5-2.3 6.7l-.4 1.1c-.9 2.5-1.9 5-3 7.4l.5-.3c11.7-7.9 18.2-28 18.1-28.4l1.3-.5c1.3-.5 2.6-.9 4.2-1.4 12.3-3.8 22.6.1 29.7 4.6 6.4 4.2 10.1 8.9 10.1 8.9l.7-.9c.5-.6 1.1-1.2 1.8-1.8l.2-.2c.3-.3.7-.4 1.1-.7.2-.2.4-.3.6-.3.1 0 .2-.3.2-.4 0-.2.6-.6.9-.6.1 0 .1-.2.1-.3v-.1c0-.1.3-.1.4-.2.8-.5 1.8-1.1 2.7-1.6l.4-.2c.7-.4 1.4-.7 2.1-1l.3-.2c.6-.3 1.1-.5 1.7-.7l.2-.1 2-.8.3-.1 1.8-.6.3-.1 2.1-.6h.2l1.9-.5.4-.1c1.4-.3 2.8-.6 4.1-.8l.5-.1c.6-.1 1.2-.2 1.9-.3h.2c.7-.1 1.3-.2 2-.2h.5l1.6-.1h.4l1.8-.1h2.3l1.7.1h.2c.5 0 .9.1 1.4.2.1 0 .3 0 .4.1l1.5.3c3.1.7 5.9 1.6 8.5 2.7 1 .4 2 .9 3 1.4 1 .5 1.9 1 2.8 1.5.9.5 1.8 1.1 2.6 1.7 1.2.9 2.4 1.8 3.5 2.8l1.1 1 1 1c.7.7 1.3 1.4 1.9 2.1.9 1.1 1.7 2.2 2.4 3.4.9 1.4 1.6 2.8 2.3 4.3.1.3.3.6.4 1 .7 1.6 1.3 3.2 1.7 4.8.4 1.3.7 2.7 1 4.1.2 1 .3 2 .5 2.9l.2 1.6.1 1.4v.4l.1 2.1v1.2c0 1 0 2-.1 2.9 0 1.1-.1 2.2-.2 3.4.4-3.8 6.7-4.6 9.5-5.4 14.3-3.7 31-.9 44.4 4.8 3.1 1.3 6.2 2.9 9.1 4.6 9.4 5.6 17.7 13.2 23.7 22.2 3.2 4.8 5.6 10.1 7.1 15.7.7 2.8 1.2 5.7 1.4 8.6.1.9.5 8.7-.2 8.8l.6-.1c.8-4 1.2-8.1 1.2-12.3 0-36.8-32.7-66.7-73-66.7-8.2 0-16.2 1.3-23.5 3.6-2.9-24.6-23.8-43.6-49.2-43.6-10.5 0-20.2 3.3-28.3 8.9-7-4.4-17.1-7.9-29-4.2-9.5 2.9-13.8 5.6-15.5 7.8-1.1-7.9-3.9-21-5.9-24.9-12.7-25-46.1-37.6-75.4-28.9-7.3 2.2-15.8 7.2-22.4 13.4l1.5-.9c.1-.2.2-.3.4-.3zm100.7 43.4l1.2-.5c.1 0 .1 0 .2-.1l-1.5.6h.1zm-8.2 5.2c.3 2.3.5 4.2.5 5.3-.1-.1-3.1-2.1-.5-5.3zm424.7 179.5c6.4 1.3 14.8 4.7 21.2 12.9-3.4-7.9-4.8-16.4-4.4-24.8.4-18 8.7-36.1 22.4-47.9 1.6-1.4 3.3-2.7 5-3.9v-8.6c-8.1 2.7-15.6 6.8-22.1 12.4-16.7 14.5-25.9 38.2-22.1 59.9zm-300.7 154.1c0-4.9.5-9.6 1.7-14.1 6.7-27 33.9-45.9 64.1-51.8-.3-1.1-.5-2.8-.4-5-.2-11.4 5.6-39.9 6.4-41.7 14.7-33.2 49.9-52.5 86.5-55.2-42.5-3.2-87.2 16.6-104.4 55.2-1 2.3-10.1 47.4-4.7 46.4-30.8 5.6-58.6 24.6-65.4 52-1.7 7-2.1 14.4-.9 22.4.1.8.3 1.6.5 2.3l17.5-1.1-.1-.4h-.2c-.4-3-.6-6-.6-9zm254.7-122.7l-.2-.3c1.6-8.1 7.5-26.4 29.1-30.9-5.9-1.3-10.2-1-10.2-1-16.7.8-26.6 9.5-31.7 17.7-.1 0 1 .9.9 1.1-11.8 41.5 15.3 56.9 15.5 57-7.9-30.2-3.4-43.6-3.4-43.6zm-1400.2-161.6c-.4 6.3-1.8 12.5-4.4 18.4 6.5-8.4 15-11.8 21.5-13.2 3.9-21.7-5.4-45.4-22.1-59.9-1.5-1.3-3-2.5-4.6-3.6v18.5c7.3 11.9 10.9 26.1 9.6 39.8zm252 93.5c30.3 5.9 57.4 24.7 64.1 51.8 1.1 4.5 1.7 9.2 1.7 14.1 0 3-.2 6-.7 9.2h-.2c0 .1 0 .3-.1.4l17.5 1.1c.2-.7.4-1.5.5-2.3 1.3-7.9.9-15.4-.9-22.4-6.8-27.4-34.6-46.4-65.4-52 5.4 1-3.7-44.1-4.7-46.4-17.1-38.6-61.9-58.3-104.4-55.2 36.6 2.7 71.7 22 86.5 55.2.8 1.8 6.6 30.3 6.4 41.7.1 2 0 3.7-.3 4.8zm-189.3-27.6c-.7 4.3-1.7 9.1-3.1 14.4.1-.1 1.7-1 3.9-2.9 7.1-6.2 20.5-22.7 11.6-54.1-.1-.3 1-1.1.9-1.1-5.1-8.2-15-16.9-31.7-17.7 0 0-4.4-.4-10.2 1 21.6 4.6 27.6 22.8 29.1 30.9l-.2.3c.1.3 3 9.4-.3 29.2z" opacity=".3" fill="#CDF3F7"/></svg>