<svg xmlns="http://www.w3.org/2000/svg" viewBox="0 0 704.8 330.7" enable-background="new 0 0 704.8 330.7"><path d="M145.7 199.4l-3.9-8.3-5.7 9.7-3.2-1.7c-.1 0-.3-.1-.5-.2-2.4 4.2-4.2 9.7-5.4 12.5-6.8 17.7-13.5 23.5-31.3 20.3-5.7-1-16.4-5.7-21.3.3-7.8 9.5 9.2 11 14.1 11.4 18.8 1.6 34.8 1.8 44.9-17.3 1.8-3.5 7.3-13.9 9.2-21.9l-.5-.3 3.6-4.5z" fill="#46B9E5"/><path d="M678.4 307.7c7.1-16.7 10.6-39.9 5.9-57.5-6.1-22.7-29.6-35.6-52.8-31.8-16.9 2.8-36.6 9.6-38.3 53.6-1.8 44-.1 39.5 12.7 40.8 12.7 1.3 69.2 2.7 72.5-5.1z" fill="#F58520"/><path d="M655.2 251.3c-.4 2.1 1 4 3.1 4.4 2 .4 4-1 4.4-3.1.4-2-1-4-3.1-4.4-2.1-.3-4.1 1.1-4.4 3.1zm-41.1-5.8c-.4 2.1 1 4 3.1 4.4 2 .4 4-1 4.4-3.1.4-2.1-1-4-3.1-4.4-2.1-.3-4 1.1-4.4 3.1z" fill="#fff"/><path d="M679.8 293c0 2.1-3 40.6-9.3 37.6-6.2-3-4.6-29.8-4.6-29.8l13.9-7.8zm-86.2-3.2c-.3 2.1-3.2 40.6 3.4 38.5 6.6-2 9.1-28.7 9.1-28.7l-12.5-9.8zm2.9-20.7c-1.3.8-9.6-.1-14.6-10.4-2.2-4.5-2.9-10-5.7-14.2-1.9-2.8-4.8-3.6-6.7-.6-5.5 8.9 10.2 30.9 18.1 34.8l6.5 3.3 2.2-11.2" fill="#F58520"/><path d="M620.9 264.8l25.8 2.6c0 .1-14.5 26.8-25.8-2.6z" fill="#fff"/><path d="M675.9 285.9c1.3-.8 9.6-.3 14.9 9.8 2.3 4.4 3.3 9.9 6.2 14 2 2.8 5 3.5 6.7.4 5.1-9.1-11.4-30.5-19.4-34.1l-6.7-3-1.8 11.3" fill="#F58520"/><path d="M577.9 14.5c-1-1.1-2.4-1.7-3.9-1.7l-422.8-12.8c-3.1-.1-5.6 2.3-5.7 5.3l-9.2 291.2c0 1.5.5 2.9 1.5 4s2.4 1.7 3.9 1.7l422.8 12.8h.2c3 0 5.4-2.4 5.5-5.3l9.2-291.2c0-1.5-.5-2.9-1.5-4z" fill="#FFFFF0"/><path d="M571.5 241.8c-1.7-.1-3.1 1.1-3 2.9 0 2.4 2.4 2.2 3.2 4 1.1 2.4 1 5.3 1.3 7.9.3 2.7 2.8-12.8 1.6-13.7-.9-.7-2-1.1-3.1-1.1z" fill="#F58520"/><path d="M22.9 232.9c.5-15.4.9-28.4 1.2-31.7.9-11.6 2.9-26.5 11.6-35.3 9.7-9.8 24.4-15 38-13.2 26.9 3.5 31 24.5 32.4 47.6 1.4 23.7 3.2 47.4 3.4 71.2 0 5.8 2.5 20.3-1.3 25.2-3.7 4.7-23.6 1.5-29.1 1.5-10.4 0-20.8-.6-31.1-.3-6.9.2-18.2 3.5-24.5-.2-6.4-3.7-2.9-23.2-2.6-29.2.4-11.8 1.6-23.7 2-35.6z" fill="#46B9E5"/><path d="M52.4 196.6c-.1 2.4-2 4.3-4.4 4.2-2.4-.1-4.3-2-4.2-4.4.1-2.4 2-4.3 4.4-4.2 2.4 0 4.3 2 4.2 4.4zm41.9-7.8c-.1 2.4-2 4.3-4.4 4.2-2.4-.1-4.3-2-4.2-4.4.1-2.4 2-4.3 4.4-4.2 2.4.1 4.3 2 4.2 4.4z" fill="#fff"/><path d="M19.5 286.1c-.1 2.4 1.8 46.7 9.1 43.5 7.3-3.2 6.6-34 6.6-34l-15.7-9.5zm90.4-.3c.3 2.4 2 46.6-5.5 44-7.5-2.6-9.3-33.3-9.3-33.3l14.8-10.7z" fill="#46B9E5"/><path d="M60.4 213.5l23.3-2.6s-8.5 26.6-23.3 2.6z" fill="#fff"/><path d="M6.6 273c2.1 4.9 8.7 15.2 15.2 12.1 9.6-12.6-31.1-29.4 5.4-43.7-1.2-6.1 5.4-12.6-1.6-12.5-9.7.2-18.6 8.6-22.9 16.5-6 10.8-.6 21.4 5.7 30.8" fill="#46B9E5"/><path d="M140.6 204.3c.1.1.1.1.2.1-.1 0-.2-.1-.2-.1z" fill="#12C2EC"/><path d="M144 188c1.7.3 2.7 1.8 2.4 3.4-.5 2.3-2.8 1.7-4 3.2-1.6 2.1-2.1 5-2.9 7.4-.3 1.1-2.3 1.1-3.2 1-1.5-.1-3.2-.6-3.8-2.1-.7-1.5.2-2.6.8-3.9.8-1.9 1.8-3.7 3.1-5.3 1.7-2.2 4.6-4.3 7.6-3.7z" fill="#46B9E5"/></svg>