<svg xmlns="http://www.w3.org/2000/svg" xmlns:xlink="http://www.w3.org/1999/xlink" viewBox="0 0 50 50" enable-background="new 0 0 50 50"><circle cx="25" cy="25.1" r="21.5" fill="#0FC2EC"/><defs><path id="a" d="M46.5 25.1c.1 10.3-9.6 21.3-21.5 21.5-11.8.2-21.5-9.6-21.5-21.5s9.7-21.5 21.5-21.5 21.4 9.6 21.5 21.5z"/></defs><clipPath id="b"><use xlink:href="#a" overflow="visible"/></clipPath><path d="M13.9 36.9l22.4 19.6 16.7-21.7c4.3 2.1-16-21.3-16.7-21.6l-22.4 23.7z" clip-path="url(#b)" fill="#069AC1"/><path d="M38 35.9c0 1.1-.9 2.1-2.1 2.1h-20.8c-1.1 0-2.1-.9-2.1-2.1v-20.8c0-1.1.9-2.1 2.1-2.1h20.9c1.1 0 2.1.9 2.1 2.1v20.8zM20.5 17.9c-1.3 0-2.5-1.1-2.5-2.4v-4.9c0-1.3 1.2-2.4 2.5-2.4s2.5 1.1 2.5 2.4v4.9c0 1.4-1.2 2.4-2.5 2.4z" fill="#fff"/><path d="M20.5 9.4c.7 0 1.5.5 1.5 1.2v4.9c0 .7-.8 1.2-1.5 1.2s-1.5-.5-1.5-1.2v-4.9c0-.6.8-1.2 1.5-1.2m0-2.4c-2 0-3.5 1.6-3.5 3.7v4.9c0 2 1.5 3.7 3.5 3.7s3.5-1.6 3.5-3.7v-4.9c0-2.1-1.5-3.7-3.5-3.7z" fill="#0FC2EC"/><path d="M32.5 17.9c-1.3 0-2.5-1.1-2.5-2.4v-4.9c0-1.3 1.2-2.4 2.5-2.4s2.5 1.1 2.5 2.4v4.9c0 1.4-1.2 2.4-2.5 2.4z" fill="#fff"/><path d="M32.5 9.4c.7 0 1.5.5 1.5 1.2v4.9c0 .7-.8 1.2-1.5 1.2s-1.5-.5-1.5-1.2v-4.9c0-.6.8-1.2 1.5-1.2m0-2.4c-2 0-3.5 1.6-3.5 3.7v4.9c0 2 1.5 3.7 3.5 3.7s3.5-1.6 3.5-3.7v-4.9c0-2.1-1.5-3.7-3.5-3.7z" fill="#0FC2EC"/><path d="M29.3 32.2l-3.9-2.2-3.9 2.2c-.4.2-.7 0-.6-.4l.8-4.6-3.2-3.2c-.3-.3-.2-.6.2-.7l4.3-.7 2-4.2c.2-.4.5-.4.7 0l2 4.2 4.3.7c.4.1.5.4.2.7l-3.2 3.2.8 4.6c.1.5-.1.7-.5.4z" fill="#FCC956"/></svg>