<svg xmlns="http://www.w3.org/2000/svg" viewBox="0 0 1200 375" enable-background="new 0 0 1200 375"><linearGradient id="a" gradientUnits="userSpaceOnUse" x1="1997.667" y1="-7504.333" x2="1997.667" y2="-8754.333" gradientTransform="matrix(-.3 0 0 .3 1199.3 2626.3)"><stop offset="0" stop-color="#F4FAFD"/><stop offset=".377" stop-color="#EDF7F9"/><stop offset=".911" stop-color="#DBF0EE"/><stop offset="1" stop-color="#D7EEEC"/></linearGradient><path fill="url(#a)" d="M0 0h1200v375h-1200z"/><path opacity=".2" fill="#A4DCEA" enable-background="new" d="M511.5 156.8h-30.1c10.9-39.2 65.2-27.8 65.2-27.8 8.4-8.5 22.6-30.5 70.6-33.2l63.7 33.8c33.5-3.6 51.6 27.1 51.6 27.1l-221 .1z"/><path fill="#fff" d="M550.4 150.9h-28.1c10.1-36.6 60.7-25.9 60.7-25.9 7.9-7.9 21.1-28.4 65.8-31 44.8-2.5 59.4 31.5 59.4 31.5 31.2-3.4 48.1 25.3 48.1 25.3l-205.9.1z"/><linearGradient id="b" gradientUnits="userSpaceOnUse" x1="1997.667" y1="-7504.333" x2="1997.667" y2="-7817.303" gradientTransform="matrix(-.3 0 0 .3 1199.3 2626.3)"><stop offset="0" stop-color="#A7C556"/><stop offset=".275" stop-color="#B3CE65"/><stop offset=".675" stop-color="#C0D874"/><stop offset="1" stop-color="#C4DB79"/></linearGradient><path fill="url(#b)" d="M0 375h1200v-48.1c-347-70.7-739-54.5-1200 14.2v33.9z"/><path opacity=".2" fill="#A4DCEA" enable-background="new" d="M120.9 242.2c3.7-13.4 22.3-9.5 22.3-9.5 2.9-2.9 7.8-10.4 24.2-11.4 16.4-.9 21.8 11.6 21.8 11.6 11.5-1.3 17.7 9.3 17.7 9.3h-86z"/><path fill="#fff" d="M128.7 239.5c3.7-13.4 22.3-9.5 22.3-9.5 2.9-2.9 7.8-10.4 24.2-11.4 16.4-.9 21.8 11.6 21.8 11.6 11.5-1.3 17.7 9.3 17.7 9.3h-86z"/><path opacity=".2" fill="#A4DCEA" enable-background="new" d="M859 114.8c3.7-13.4 22.3-9.5 22.3-9.5 2.9-2.9 7.8-10.4 24.2-11.4 16.4-.9 21.8 11.6 21.8 11.6 11.5-1.3 17.7 9.3 17.7 9.3h-86z"/><path fill="#fff" d="M866.8 112.2c3.7-13.4 22.3-9.5 22.3-9.5 2.9-2.9 7.8-10.4 24.2-11.4 16.4-.9 21.8 11.6 21.8 11.6 11.5-1.3 17.7 9.3 17.7 9.3h-86z"/><path opacity=".2" fill="#A4DCEA" enable-background="new" d="M921.9 215.9c7.5-27.1 45-19.2 45-19.2 5.8-5.8 15.6-21.1 48.8-22.9l44 23.3c23.2-2.5 35.7 18.8 35.7 18.8h-173.5z"/><path fill="#fff" d="M937.5 210.5c7.5-27.1 45-19.2 45-19.2 5.8-5.8 15.6-21.1 48.8-22.9 33.2-1.9 44 23.3 44 23.3 23.2-2.5 35.7 18.8 35.7 18.8h-173.5z"/></svg>