<?xml version="1.0" encoding="utf-8"?>
<!-- Generator: Adobe Illustrator 17.1.0, SVG Export Plug-In . SVG Version: 6.00 Build 0)  -->
<!DOCTYPE svg PUBLIC "-//W3C//DTD SVG 1.1//EN" "http://www.w3.org/Graphics/SVG/1.1/DTD/svg11.dtd">
<svg version="1.1" id="Layer_5" xmlns="http://www.w3.org/2000/svg" xmlns:xlink="http://www.w3.org/1999/xlink" x="0px" y="0px"
	 viewBox="0 0 1200 1198" enable-background="new 0 0 1200 1198" xml:space="preserve">
<rect y="35.2" fill="#FFFFFF" width="1200" height="1135.4"/>
<g opacity="0.6">
	<g>
		<g>
			<g>
				<defs>
					<rect id="SVGID_1_" y="100" width="1200" height="613.3"/>
				</defs>
				<clipPath id="SVGID_2_">
					<use xlink:href="#SVGID_1_"  overflow="visible"/>
				</clipPath>
				
					<linearGradient id="SVGID_3_" gradientUnits="userSpaceOnUse" x1="-3637.9998" y1="18958" x2="-3637.9998" y2="20231" gradientTransform="matrix(-0.3 0 0 -0.3 -489.4 6230)">
					<stop  offset="0" style="stop-color:#F4FAFD"/>
					<stop  offset="0.377" style="stop-color:#EDF7F9"/>
					<stop  offset="0.9106" style="stop-color:#DBF0EE"/>
					<stop  offset="1" style="stop-color:#D7EEEC"/>
				</linearGradient>
				<polygon clip-path="url(#SVGID_2_)" fill="url(#SVGID_3_)" points="-9,160.7 1213,160.7 1213,542.6 -9,542.6 				"/>
			</g>
		</g>
	</g>
	<g>
		<g>
			<g>
				<defs>
					<rect id="SVGID_4_" y="100" width="1200" height="613.3"/>
				</defs>
				<clipPath id="SVGID_5_">
					<use xlink:href="#SVGID_4_"  overflow="visible"/>
				</clipPath>
				<path opacity="0.2" clip-path="url(#SVGID_5_)" fill="#A4DCEA" enable-background="new    " d="M511.9,320.4h-30.7
					c11.1-39.9,66.4-28.3,66.4-28.3c8.6-8.7,23-31.1,71.9-33.8c48.9-2.7,64.9,34.4,64.9,34.4c34.1-3.7,52.5,27.6,52.5,27.6
					L511.9,320.4L511.9,320.4z"/>
			</g>
		</g>
	</g>
	<g>
		<g>
			<g>
				<defs>
					<rect id="SVGID_7_" y="100" width="1200" height="613.3"/>
				</defs>
				<clipPath id="SVGID_8_">
					<use xlink:href="#SVGID_7_"  overflow="visible"/>
				</clipPath>
				<path clip-path="url(#SVGID_8_)" fill="#FFFFFF" d="M551.5,314.4h-28.6c10.3-37.3,61.8-26.4,61.8-26.4c8-8,21.5-28.9,67-31.6
					c45.6-2.5,60.5,32.1,60.5,32.1c31.8-3.5,49,25.8,49,25.8L551.5,314.4L551.5,314.4z"/>
			</g>
		</g>
	</g>
	<g>
		<g>
			<g>
				<defs>
					<rect id="SVGID_9_" y="100" width="1200" height="613.3"/>
				</defs>
				<clipPath id="SVGID_10_">
					<use xlink:href="#SVGID_9_"  overflow="visible"/>
				</clipPath>
				<g clip-path="url(#SVGID_10_)">
					
						<linearGradient id="SVGID_11_" gradientUnits="userSpaceOnUse" x1="-3637.9998" y1="18958" x2="-3637.9998" y2="19276.7617" gradientTransform="matrix(-0.3 0 0 -0.3 -489.4 6230)">
						<stop  offset="0" style="stop-color:#FFFFFF"/>
						<stop  offset="1" style="stop-color:#C4DB79;stop-opacity:0.5"/>
					</linearGradient>
					<path fill="url(#SVGID_11_)" d="M-9,542.6h1222v-49c-353.4-72-752.5-55.5-1222,14.5V542.6z"/>
				</g>
			</g>
		</g>
	</g>
	<g>
		<g>
			<g>
				<defs>
					<rect id="SVGID_12_" y="100" width="1200" height="613.3"/>
				</defs>
				<clipPath id="SVGID_13_">
					<use xlink:href="#SVGID_12_"  overflow="visible"/>
				</clipPath>
				<g clip-path="url(#SVGID_13_)">
					<path opacity="0.2" fill="#A4DCEA" enable-background="new    " d="M865.7,277.6c3.8-13.6,22.7-9.7,22.7-9.7
						c3-3,7.9-10.6,24.6-11.6c16.7-0.9,22.2,11.8,22.2,11.8c11.7-1.3,18,9.5,18,9.5h-77.1L865.7,277.6L865.7,277.6z"/>
					<path fill="#FFFFFF" d="M873.7,275c3.8-13.6,22.7-9.7,22.7-9.7c3-3,7.9-10.6,24.6-11.6c16.7-0.9,22.2,11.8,22.2,11.8
						c11.7-1.3,18,9.5,18,9.5h-77.1L873.7,275L873.7,275z"/>
				</g>
			</g>
		</g>
	</g>
	<g>
		<g>
			<g>
				<defs>
					<rect id="SVGID_14_" y="100" width="1200" height="613.3"/>
				</defs>
				<clipPath id="SVGID_15_">
					<use xlink:href="#SVGID_14_"  overflow="visible"/>
				</clipPath>
				<g clip-path="url(#SVGID_15_)">
					<path opacity="0.2" fill="#A4DCEA" enable-background="new    " d="M929.8,380.6c7.6-27.6,45.8-19.6,45.8-19.6
						c5.9-5.9,15.9-21.5,49.7-23.3c33.8-1.8,44.8,23.7,44.8,23.7c23.6-2.5,36.4,19.1,36.4,19.1H951L929.8,380.6z"/>
					<path fill="#FFFFFF" d="M945.7,375.1c7.6-27.6,45.8-19.6,45.8-19.6c5.9-5.9,15.9-21.5,49.7-23.3c33.8-1.9,44.8,23.7,44.8,23.7
						c23.6-2.5,36.4,19.1,36.4,19.1H967L945.7,375.1L945.7,375.1z"/>
				</g>
			</g>
		</g>
	</g>
</g>
<g>
	<g>
		<g>
			<g>
				<g>
					<defs>
						<rect id="SVGID_16_" y="100" width="1200" height="613.3"/>
					</defs>
					<clipPath id="SVGID_17_">
						<use xlink:href="#SVGID_16_"  overflow="visible"/>
					</clipPath>
				</g>
			</g>
			<g>
				<g>
					<defs>
						<rect id="SVGID_18_" y="100" width="1200" height="613.3"/>
					</defs>
					<clipPath id="SVGID_19_">
						<use xlink:href="#SVGID_18_"  overflow="visible"/>
					</clipPath>
				</g>
			</g>
			<g>
				<g>
					<defs>
						<rect id="SVGID_20_" y="100" width="1200" height="613.3"/>
					</defs>
					<clipPath id="SVGID_21_">
						<use xlink:href="#SVGID_20_"  overflow="visible"/>
					</clipPath>
				</g>
			</g>
			<g>
				<g>
					<defs>
						<rect id="SVGID_22_" y="100" width="1200" height="613.3"/>
					</defs>
					<clipPath id="SVGID_23_">
						<use xlink:href="#SVGID_22_"  overflow="visible"/>
					</clipPath>
				</g>
			</g>
			<g>
				<g>
					<defs>
						<rect id="SVGID_24_" y="100" width="1200" height="613.3"/>
					</defs>
					<clipPath id="SVGID_25_">
						<use xlink:href="#SVGID_24_"  overflow="visible"/>
					</clipPath>
				</g>
			</g>
		</g>
	</g>
	<g>
		<path fill="#12C2EB" d="M1177.5,0H22.5C10.1,0,0,10.1,0,22.5v106.9V152v15h14.9h27.9l1157.2-0.8V22.5C1200,10.1,1189.9,0,1177.5,0
			z"/>
		<g>
			<g>
				<path opacity="0.2" fill="#A4DCEA" enable-background="new    " d="M114.1,407.4c3.8-13.6,22.7-9.7,22.7-9.7
					c3-3,7.9-10.6,24.6-11.6c16.7-0.9,22.2,11.8,22.2,11.8c11.7-1.3,18,9.5,18,9.5h-77.1L114.1,407.4L114.1,407.4z"/>
				<path fill="#FFFFFF" d="M122.1,404.6c3.8-13.6,22.7-9.7,22.7-9.7c3-3,7.9-10.6,24.6-11.6c16.7-0.9,22.2,11.8,22.2,11.8
					c11.7-1.3,18,9.5,18,9.5h-77.1L122.1,404.6L122.1,404.6z"/>
			</g>
			<path fill="#2E3C49" d="M1028.6,513.7"/>
			<g>
				<g>
					<g>
						<path fill="#A4DCEA" d="M83.4,37.1c-22.8,0.3-39.9,9.5-39.9,9.5c-1.3,13.6-0.4,25,1.8,34.5h38.1
							C83.4,81.1,83.4,37.1,83.4,37.1z"/>
						<path fill="#077BA0" d="M123,81.1c3.9-18,0.7-33.8,0.7-33.8c-13.9-7.9-28-10.3-40.3-10.2v44H123z"/>
						<path fill="#077BA0" d="M45.3,81.1c8.2,34.9,34.4,44.4,38.1,45.6V81.1H45.3z"/>
						<path fill="#A4DCEA" d="M83.4,81.1v45.6c0.3,0.1,0.4,0.1,0.4,0.1c25.3-9.6,35.4-28.7,39.1-45.7
							C122.9,81.1,83.4,81.1,83.4,81.1z"/>
					</g>
					<path fill="#FFFFFF" d="M83.9,128.7l-0.6-0.2c-0.5-0.1-48.1-14-41.7-82.1l0.1-1l0.8-0.5c0.7-0.4,18.4-9.7,42-9.7
						c14.4,0,27.8,3.5,39.9,10.4l0.7,0.4l0.2,0.8c0.1,0.6,11.9,61.5-41,81.6L83.9,128.7z M45.1,47.8c-5.3,60.4,33.6,75.5,38.6,77.1
						c46.2-18,39.4-69.5,38.3-76.5c-11.4-6.3-24-9.5-37.4-9.5C64.7,38.9,48.9,45.9,45.1,47.8z"/>
				</g>
				<g>
					<g>
						<path fill="#FFFFFF" d="M83.6,106.1c-7,0-13-2.7-16.4-7.4c-2.2-3.1-3.4-7.2-3.4-12.2V64.7h-5.7v-8.5h21.5v8.5h-5.7v21.8
							c0,2.7,0.5,4.9,1.5,6.5c1.5,2.4,4.5,3.8,8.3,3.8s6.8-1.4,8.3-3.9c1-1.6,1.5-3.9,1.5-6.4V64.7h-5.7v-8.5h21.5v8.5h-5.7v21.8
							c0,4.6-1.2,8.9-3.5,12.1C96.6,103.4,90.7,106.1,83.6,106.1z"/>
						<path fill="#004F6E" d="M107.3,57.9v5h-5.7v23.6c0,4.3-1.2,8.3-3.2,11.1c-3.1,4.4-8.7,6.7-14.9,6.7c-6.5,0-11.9-2.5-15-6.7
							c-2.1-2.9-3-6.7-3-11.1V62.9h-5.7v-5h18v5h-5.7v23.6c0,3,0.6,5.6,1.7,7.4c1.9,3,5.4,4.7,9.8,4.7c4.3,0,7.9-1.7,9.8-4.8
							c1.1-1.9,1.7-4.4,1.7-7.4V62.9h-5.7v-5H107.3 M110.9,54.4h-3.6H89.4h-3.6V58v5v3.6h3.6h2.2v19.9c0,2.2-0.4,4.2-1.3,5.6
							c-1.1,1.9-3.6,3-6.7,3s-5.6-1.1-6.8-3c-0.8-1.2-1.2-3.2-1.2-5.5v-20h2.2h3.6V63v-5v-3.6h-3.6h-18h-3.6V58v5v3.6h3.6H62v20.1
							c0,5.4,1.3,9.8,3.7,13.2c3.8,5.2,10.3,8.1,17.9,8.1s14.1-3,17.8-8.2c2.5-3.5,3.8-8.2,3.8-13.2V66.5h2.1h3.6v-3.6v-5
							L110.9,54.4L110.9,54.4z"/>
					</g>
				</g>
			</g>
			<g>
				<g>
					<g>
						<path fill="#FFFFFF" d="M166.6,85.3h-7.1v3.3h5.2c0.5,0,0.9,0.3,0.9,0.9v2.7c0,0-2.9,3.4-7.8,3.4c-5.5,0-9.9-4.3-9.9-10.6
							c0-6.1,4.4-10.4,9.8-10.4c4.5,0,7.5,2.6,7.5,2.6l2.2-2.8c0,0-3.2-3.4-9.8-3.4c-7.8,0-13.8,6.2-13.8,14c0,8.5,6,14.2,13.3,14.2
							c5.5,0,8.5-3.3,8.5-3.3h0.1c0,0,0,0.6,0,1.2v1.7h3.4v-11C169,86,168.3,85.3,166.6,85.3z"/>
						<path fill="#FFFFFF" d="M177.8,94.7v-13c0-1.7-0.7-2.5-2.5-2.5h-3.7v3.2h1.6c0.5,0,0.9,0.3,0.9,0.9v13c0,1.7,0.7,2.5,2.5,2.5
							h3.7v-3.2h-1.6C178.1,95.6,177.8,95.3,177.8,94.7z"/>
						<path fill="#FFFFFF" d="M200.3,79.2h-1.8c-1.7,0-2.4,0.4-3,2l-4.2,11.3c-0.4,1.1-0.7,2.6-0.7,2.6h-0.1c0,0-0.3-1.5-0.7-2.6
							l-4.2-11.3c-0.6-1.5-1.2-2-3-2h-1.9v3.2h0.4c0.6,0,1,0.2,1.2,0.8l6,15.6h4.3l6-15.6c0.2-0.6,0.6-0.8,1.3-0.8h0.4V79.2
							L200.3,79.2z"/>
						<path fill="#FFFFFF" d="M217,82.5c-1.4-2.3-3.7-3.8-7.1-3.8c-5.6,0-9.8,4-9.8,10.3c0,5.8,4.2,10.3,10.4,10.3
							c4.6,0,7.5-2.9,7.5-2.9l-1.6-2.7c0,0-2.4,2.3-5.7,2.3c-3.5,0-6.5-2.4-6.7-6.5h13.4c-0.4-1.4-0.6-2.9-0.6-4.5
							C216.8,84.2,216.9,83.4,217,82.5z M204.1,86.7c0.6-3.2,2.9-5,5.8-5c2.4,0,4.5,1.7,4.6,5H204.1z"/>
						<path fill="#FFFFFF" d="M241.1,85.3h-7.6v3.3h5.7c0.5,0,0.9,0.3,0.9,0.9v2.7c0,0-2.9,3.4-7.8,3.4c-5.5,0-9.9-4.3-9.9-10.6
							c0-6.1,4.4-10.4,9.8-10.4c4.5,0,7.5,2.6,7.5,2.6l2.2-2.8c0,0-3.2-3.4-9.8-3.4c-7.8,0-13.8,6.2-13.8,14c0,8.5,6,14.2,13.3,14.2
							c5.5,0,8.5-3.3,8.5-3.3h0.1c0,0,0,0.6,0,1.2v1.7h3.4v-11C243.6,86,242.8,85.3,241.1,85.3z"/>
						<path fill="#FFFFFF" d="M261.7,94.7v-8.3c0-4.3-1.7-7.7-8-7.7c-1.9,0-6.8,0.5-6.8,3.7v1.9h3.5v-1.1c0-1.3,2.3-1.5,3.2-1.5
							c3.1,0,4.3,1.2,4.3,4.7v0.2h-0.8c-3.3,0-11.8,0.4-11.8,6.7c0,3.9,3.3,6,6.7,6c4.7,0,6.2-3.9,6.2-3.9h0.1c0,0-0.1,0.5-0.1,1.2
							c0,1.4,0.7,2.2,2.4,2.2h3.5v-3.2h-1.6C262,95.6,261.7,95.3,261.7,94.7z M258,90c0,2.9-2.1,6.2-5.2,6.2c-2.5,0-3.7-1.5-3.7-3.1
							c0-3.6,5.1-3.8,7.9-3.8h1V90z"/>
						<path fill="#FFFFFF" d="M276.6,78.8c-4.6,0-6.3,3.2-6.3,3.2h-0.1c0,0,0.1-0.7,0.1-1.6V74c0-1.7-0.7-2.5-2.5-2.5h-3.7v3.2h1.6
							c0.5,0,0.9,0.3,0.9,0.9v23.3h3.6v-1.4c0-0.9-0.1-1.5-0.1-1.5h0.1c0,0,1.8,3.3,6.2,3.3c5.1,0,8.9-4,8.9-10.3
							C285.2,82.9,281.8,78.8,276.6,78.8z M275.7,96.1c-3.7,0-5.5-3.5-5.5-7c0-5,2.7-7,5.6-7c3.3,0,5.6,2.7,5.6,7
							C281.4,93.5,278.8,96.1,275.7,96.1z"/>
						<circle fill="#FFFFFF" cx="174.9" cy="73.7" r="2.8"/>
					</g>
				</g>
			</g>
			<g>
				<path fill="#FFFFFF" d="M296.6,79h-2.8v-2.4h8.8V79h-2.8v11.5c0,1.5,0.3,2.7,0.9,3.6c0.9,1.5,2.7,2.3,4.8,2.3
					c2.1,0,3.9-0.8,4.8-2.3c0.5-0.9,0.9-2.1,0.9-3.6V79h-2.8v-2.4h8.7V79h-2.8v11.6c0,2.1-0.6,4-1.5,5.4c-1.5,2.1-4.2,3.3-7.3,3.3
					c-3.2,0-5.8-1.2-7.3-3.3c-1-1.4-1.5-3.3-1.5-5.4V79H296.6z"/>
				<path fill="#FFFFFF" d="M318.8,96.5h2.5V85.9c0-0.5-0.3-0.7-0.7-0.7h-2v-2.4h3.6c1.4,0,2,0.6,2,1.8v0.8c0,0.5-0.1,0.9-0.1,0.9
					h0.1c0.3-0.9,2.2-3.9,6.2-3.9c3.7,0,5.3,2.1,5.3,6.1v7.9h2.5v2.4h-5.6v-9.5c0-2.2-0.4-4-3-4c-3.2,0-5.3,2.9-5.3,6.1v5.1h2.5v2.4
					h-8.1v-2.4C318.7,96.5,318.8,96.5,318.8,96.5z"/>
				<path fill="#FFFFFF" d="M340.6,96.5h2.5V85.2h-2.7v-2.4h5.7v13.6h2.5v2.4h-8.1v-2.3C340.5,96.5,340.6,96.5,340.6,96.5z
					 M343,76.6h3.2v3.1H343V76.6z"/>
				<path fill="#FFFFFF" d="M349.7,82.9h7.2v2.4h-2.1l3.4,9.3c0.3,0.7,0.3,1.5,0.3,1.5h0.1c0,0,0.1-0.8,0.3-1.5l3.4-9.3h-2.1v-2.4
					h7.1v2.4h-2l-5.2,13.6h-3.4l-5.1-13.6h-2v-2.4H349.7z"/>
				<path fill="#FFFFFF" d="M376.9,82.5c4.5,0,6.9,3.3,6.9,7.5c0,0.4-0.1,1.2-0.1,1.2H372c0.2,3.5,2.7,5.4,5.5,5.4s4.8-1.8,4.8-1.8
					l1.3,2.2c0,0-2.4,2.2-6.2,2.2c-5,0-8.5-3.6-8.5-8.4C368.9,85.8,372.3,82.5,376.9,82.5z M380.6,89.2c-0.1-2.8-1.8-4.3-3.8-4.3
					c-2.3,0-4.2,1.6-4.7,4.3H380.6z"/>
				<path fill="#FFFFFF" d="M386.7,96.5h2.4V85.9c0-0.5-0.3-0.7-0.7-0.7h-2v-2.4h3.6c1.4,0,2.1,0.6,2.1,1.9v1c0,0.6-0.1,1.1-0.1,1.1
					h0.1c0.7-2.3,2.6-4.2,5.1-4.2c0.4,0,0.8,0.1,0.8,0.1v3c0,0-0.4-0.1-0.9-0.1c-3.4,0-4.9,3.4-4.9,6.6v4.2h2.4v2.4h-7.8v-2.3H386.7
					z"/>
				<path fill="#FFFFFF" d="M399.7,93.7h2.7v1c0,1.4,1.9,2,3.7,2c1.8,0,3.2-0.7,3.2-2.1c0-1.6-1.8-2.1-4-2.9c-2.4-0.9-5-2-5-4.9
					c0-3.2,3.1-4.4,5.9-4.4c2.2,0,5.5,0.9,5.5,3.2v1.9H409v-1c0-1-1.3-1.6-2.8-1.6s-2.8,0.6-2.8,1.9c0,1.5,1.8,2.1,3.7,2.8
					c2.5,0.8,5.3,1.9,5.3,4.8c0,3-2.8,4.7-6.4,4.7c-2.9,0-6.3-1.3-6.3-3.8L399.7,93.7L399.7,93.7z"/>
				<path fill="#FFFFFF" d="M415.2,96.5h2.5V85.2H415v-2.4h5.7v13.6h2.5v2.4h-8.1v-2.3C415.1,96.5,415.2,96.5,415.2,96.5z
					 M417.6,76.6h3.2v3.1h-3.2V76.6z"/>
				<path fill="#FFFFFF" d="M427.4,85.2h-2.7v-2.4h2.7v-4.4h3v4.4h3.8v2.4h-3.8v7.5c0,3.3,2.2,3.7,3.4,3.7c0.4,0,0.7,0,0.7,0V99
					c0,0-0.4,0.1-1.1,0.1c-2,0-6.1-0.6-6.1-6v-7.9H427.4z"/>
				<path fill="#FFFFFF" d="M439.8,102.9c1.4,0,2.4-0.9,2.9-2.2l0.7-1.6l-5.6-13.9h-2v-2.4h7.3v2.4H441l3.6,9.5
					c0.2,0.7,0.3,1.4,0.3,1.4h0.1c0,0,0.1-0.7,0.4-1.4l3.5-9.5h-2.1v-2.4h7.1v2.4h-2l-6.3,16.1c-1.1,2.7-3.2,4.1-5.6,4.1
					c-2.1,0-3.4-1-3.4-1l1-2.3C437.5,102.2,438.4,102.9,439.8,102.9z"/>
			</g>
			<path fill="#FFFFFF" d="M1151.2,111.9c0,3.3-2.7,6-6,6H876.7c-3.3,0-6-2.7-6-6v-41c0-3.3,2.7-6,6-6h268.5c3.3,0,6,2.7,6,6V111.9z
				"/>
			<g opacity="0.6">
				<path fill="#12C2EB" d="M890.6,96.6l1.8-2.6c1.1,1.2,2.9,2.2,5.1,2.2c1.9,0,2.8-0.9,2.8-1.8c0-2.8-9.2-0.9-9.2-6.9
					c0-2.7,2.3-4.9,6.1-4.9c2.5,0,4.7,0.8,6.2,2.2l-1.9,2.5c-1.3-1.2-3-1.8-4.7-1.8c-1.5,0-2.3,0.6-2.3,1.6c0,2.5,9.2,0.8,9.2,6.8
					c0,2.9-2.1,5.1-6.4,5.1C894.3,99.2,892.1,98.1,890.6,96.6z"/>
				<path fill="#12C2EB" d="M905.3,93.1c0-3.4,2.5-6.1,6-6.1s5.8,2.6,5.8,6.4V94h-8.6c0.2,1.5,1.4,2.7,3.3,2.7c1,0,2.4-0.4,3.1-1.2
					l1.3,2c-1.2,1.1-3,1.6-4.8,1.6C908,99.2,905.3,96.8,905.3,93.1z M911.3,89.4c-1.9,0-2.7,1.4-2.9,2.6h5.7
					C914.1,90.9,913.3,89.4,911.3,89.4z"/>
				<path fill="#12C2EB" d="M926.3,98.9v-1.2c-0.8,0.9-2.2,1.5-3.7,1.5c-1.8,0-4-1.2-4-3.8c0-2.7,2.2-3.7,4-3.7
					c1.5,0,2.9,0.5,3.7,1.4v-1.6c0-1.2-1-1.9-2.5-1.9c-1.2,0-2.4,0.5-3.4,1.4l-1.2-2c1.4-1.2,3.2-1.8,5.1-1.8c2.6,0,5.1,1.1,5.1,4.4
					v7.5h-3.1L926.3,98.9L926.3,98.9z M926.3,96.1v-1.4c-0.5-0.7-1.5-1-2.4-1c-1.2,0-2.2,0.6-2.2,1.8c0,1.1,1,1.7,2.2,1.7
					C924.8,97.1,925.8,96.8,926.3,96.1z"/>
				<path fill="#12C2EB" d="M932.3,98.9V87.3h3v1.6c0.8-1,2.3-1.9,3.7-1.9v3c-0.2,0-0.5-0.1-0.8-0.1c-1,0-2.4,0.6-2.9,1.3v7.7H932.3
					z"/>
				<path fill="#12C2EB" d="M940.2,93.1c0-3.6,2.6-6.1,6.1-6.1c2.4,0,3.8,1,4.6,2.1l-2,1.9c-0.6-0.8-1.4-1.2-2.4-1.2
					c-1.8,0-3.1,1.3-3.1,3.4s1.3,3.4,3.1,3.4c1.1,0,1.9-0.5,2.4-1.2l2,1.8c-0.8,1.1-2.2,2.1-4.6,2.1
					C942.8,99.2,940.2,96.6,940.2,93.1z"/>
				<path fill="#12C2EB" d="M960.8,98.9v-7.1c0-1.6-0.8-2.1-2.2-2.1c-1.2,0-2.1,0.7-2.6,1.4v7.8h-3v-16h3v5.9
					c0.7-0.9,2.2-1.8,4.1-1.8c2.5,0,3.8,1.4,3.8,3.6v8.2L960.8,98.9L960.8,98.9z"/>
			</g>
			<path fill="none" stroke="#FFFFFF" stroke-miterlimit="10" d="M458,174.5"/>
			<path fill="none" stroke="#FFFFFF" stroke-miterlimit="10" d="M293,174.5"/>
			<path fill="none" stroke="#FFFFFF" stroke-miterlimit="10" d="M458,128.5"/>
			<path fill="none" stroke="#E8E8E8" stroke-miterlimit="10" d="M458,173.5"/>
			<path fill="none" stroke="#D4D4D4" stroke-miterlimit="10" d="M458,21.5"/>
			<path fill="none" stroke="#D4D4D4" stroke-miterlimit="10" d="M293,21.5"/>
			<path fill="none" stroke="#FFFFFF" stroke-miterlimit="10" d="M458,127.5"/>
			<path fill="none" stroke="#E8E8E8" stroke-miterlimit="10" d="M458,127.5"/>
			<path fill="none" stroke="#FFFFFF" stroke-miterlimit="10" d="M458,21.5"/>
			<path fill="none" stroke="#FFFFFF" stroke-miterlimit="10" d="M293,21.5"/>
			<path fill="none" stroke="#9DB4C2" stroke-miterlimit="10" d="M457,82.5"/>
			<path fill="none" stroke="#9DB4C2" stroke-miterlimit="10" d="M292,82.5"/>
			<path fill="none" stroke="#CFDFE8" stroke-miterlimit="10" d="M457,83.5"/>
			<path fill="none" stroke="#CFDFE8" stroke-miterlimit="10" d="M292,83.5"/>
			<path fill="none" stroke="#9DB4C2" stroke-miterlimit="10" d="M457,125.5"/>
			<path fill="none" stroke="#9DB4C2" stroke-miterlimit="10" d="M292,125.5"/>
			<path fill="none" stroke="#CFDFE8" stroke-miterlimit="10" d="M457,126.5"/>
			<path fill="none" stroke="#CFDFE8" stroke-miterlimit="10" d="M292,126.5"/>
			<path fill="none" stroke="#9DB4C2" stroke-miterlimit="10" d="M457,171.5"/>
			<path fill="none" stroke="#9DB4C2" stroke-miterlimit="10" d="M292,171.5"/>
			<path fill="none" stroke="#CFDFE8" stroke-miterlimit="10" d="M457,172.5"/>
			<path fill="none" stroke="#CFDFE8" stroke-miterlimit="10" d="M292,172.5"/>
			<path fill="none" stroke="#9DB4C2" stroke-miterlimit="10" d="M426,208.5"/>
			<path fill="none" stroke="#9DB4C2" stroke-miterlimit="10" d="M261,208.5"/>
			<path fill="none" stroke="#CFDFE8" stroke-miterlimit="10" d="M426,209.5"/>
			<path fill="none" stroke="#CFDFE8" stroke-miterlimit="10" d="M261,209.5"/>
			<path fill="none" stroke="#9DB4C2" stroke-miterlimit="10" d="M426,253.5"/>
			<path fill="none" stroke="#9DB4C2" stroke-miterlimit="10" d="M704,233.5"/>
			<path fill="none" stroke="#CFDFE8" stroke-miterlimit="10" d="M426,254.5"/>
			<path fill="none" stroke="#CFDFE8" stroke-miterlimit="10" d="M704,234.5"/>
			<path fill="none" stroke="#9DB4C2" stroke-miterlimit="10" d="M457,20.5"/>
			<path fill="none" stroke="#9DB4C2" stroke-miterlimit="10" d="M292,20.5"/>
			<path fill="none" stroke="#CFDFE8" stroke-miterlimit="10" d="M457,21.5"/>
			<path fill="none" stroke="#CFDFE8" stroke-miterlimit="10" d="M292,21.5"/>
			<path fill="none" stroke="#ADADAE" stroke-miterlimit="10" d="M457,21.5"/>
			<path fill="none" stroke="#ADADAE" stroke-miterlimit="10" d="M292,21.5"/>
			<path fill="none" stroke="#ADADAE" stroke-miterlimit="10" d="M457,80.5"/>
			<path fill="none" stroke="#ADADAE" stroke-miterlimit="10" d="M292,80.5"/>
			<path id="Explore_1_x2C__Compass_1_1_" fill="#FFFFFF" d="M686.1,93.4l-4.6-2l1.5-2.9c0.1-0.3,0-0.4-0.2-0.2l-2.9,1.5l-2-4.6
				c-0.1-0.3-0.3-0.3-0.4,0l-2,4.6l-2.9-1.5c-0.3-0.1-0.4,0-0.2,0.2l1.5,2.9l-4.6,2c-0.3,0.1-0.3,0.3,0,0.4l4.6,2l-1.5,2.9
				c-0.1,0.3,0,0.4,0.2,0.2l2.9-1.5l2,4.6c0.1,0.3,0.3,0.3,0.4,0l2-4.6l2.9,1.5c0.3,0.1,0.4,0,0.2-0.2l-1.5-2.9l4.6-2
				C686.3,93.8,686.3,93.6,686.1,93.4z M677.6,95.6c-1.1,0-1.9-0.9-1.9-1.9c0-1.1,0.9-1.9,1.9-1.9c1.1,0,1.9,0.9,1.9,1.9
				C679.6,94.7,678.7,95.6,677.6,95.6z"/>
			<g>
				<g>
					<path fill="#FFFFFF" d="M692.6,93.1c0-5.1,3.8-8.3,8.5-8.3c3.3,0,5.4,1.7,6.6,3.6l-2.8,1.5c-0.7-1.1-2.1-2.1-3.8-2.1
						c-2.9,0-5,2.2-5,5.3s2.1,5.3,5,5.3c1.4,0,2.8-0.6,3.4-1.2v-1.9h-4.2v-3h7.6v6.1c-1.6,1.8-3.9,3-6.8,3
						C696.4,101.4,692.6,98.1,692.6,93.1z"/>
					<path fill="#FFFFFF" d="M709.8,95.2c0-3.4,2.5-6.1,6-6.1s5.8,2.6,5.8,6.4v0.7H713c0.2,1.5,1.4,2.7,3.3,2.7c1,0,2.4-0.4,3.1-1.2
						l1.3,2c-1.2,1.1-3,1.6-4.8,1.6C712.5,101.3,709.8,99,709.8,95.2z M715.8,91.6c-1.9,0-2.7,1.4-2.9,2.6h5.7
						C718.6,93.1,717.8,91.6,715.8,91.6z"/>
					<path fill="#FFFFFF" d="M724.4,98.2v-6h-1.9v-2.7h1.9v-3.2h3.1v3.2h2.4v2.7h-2.4v5.2c0,0.7,0.4,1.3,1.1,1.3
						c0.5,0,0.9-0.2,1.1-0.3l0.6,2.3c-0.5,0.4-1.3,0.7-2.5,0.7C725.6,101.3,724.4,100.2,724.4,98.2z"/>
					<path fill="#FFFFFF" d="M738.1,101.1V85h3.4v16L738.1,101.1L738.1,101.1z"/>
					<path fill="#FFFFFF" d="M752.5,101.1v-7c0-1.6-0.8-2.2-2.1-2.2c-1.2,0-2.1,0.7-2.6,1.4v7.8h-3V89.5h3V91
						c0.7-0.9,2.2-1.8,4.1-1.8c2.5,0,3.8,1.4,3.8,3.7v8.2C755.7,101.1,752.5,101.1,752.5,101.1z"/>
					<path fill="#FFFFFF" d="M761.5,101.1l-4.7-11.6h3.3l3,8.1l3-8.1h3.3l-4.7,11.6H761.5z"/>
					<path fill="#FFFFFF" d="M770.1,95.2c0-3.3,2.3-6.1,6.1-6.1s6.1,2.8,6.1,6.1c0,3.3-2.3,6.1-6.1,6.1
						C772.4,101.3,770.1,98.6,770.1,95.2z M779.2,95.2c0-1.8-1.1-3.4-3-3.4s-3,1.6-3,3.4s1.1,3.4,3,3.4S779.2,97.1,779.2,95.2z"/>
					<path fill="#FFFFFF" d="M784.6,101.1V85h3v16L784.6,101.1L784.6,101.1z"/>
					<path fill="#FFFFFF" d="M793.7,101.1L789,89.5h3.3l3,8.1l3-8.1h3.3l-4.7,11.6H793.7z"/>
					<path fill="#FFFFFF" d="M802.3,95.2c0-3.4,2.5-6.1,6-6.1s5.8,2.6,5.8,6.4v0.7h-8.6c0.2,1.5,1.4,2.7,3.3,2.7
						c1,0,2.4-0.4,3.1-1.2l1.3,2c-1.2,1.1-3,1.6-4.8,1.6C804.9,101.3,802.3,99,802.3,95.2z M808.3,91.6c-1.9,0-2.7,1.4-2.9,2.6h5.7
						C811.1,93.1,810.3,91.6,808.3,91.6z"/>
					<path fill="#FFFFFF" d="M824.3,101.1v-1.5c-0.9,1.2-2.2,1.8-3.6,1.8c-2.9,0-5.1-2.2-5.1-6.1c0-3.8,2.2-6.1,5.1-6.1
						c1.4,0,2.7,0.6,3.6,1.8v-6h3.1v16L824.3,101.1L824.3,101.1z M824.3,97.3v-4.1c-0.5-0.8-1.6-1.3-2.6-1.3c-1.7,0-2.9,1.4-2.9,3.4
						s1.2,3.4,2.9,3.4C822.6,98.6,823.7,98.1,824.3,97.3z"/>
				</g>
			</g>
			<g>
				<g>
					<path fill="#FFFFFF" d="M589.3,101.1v-6.7h-7.6v6.7h-3.4V85h3.4v6.3h7.6V85h3.4v16L589.3,101.1L589.3,101.1z"/>
					<path fill="#FFFFFF" d="M595.1,95.2c0-3.3,2.3-6.1,6.1-6.1s6.1,2.8,6.1,6.1c0,3.3-2.3,6.1-6.1,6.1
						C597.4,101.3,595.1,98.6,595.1,95.2z M604.2,95.2c0-1.8-1.1-3.4-3-3.4s-3,1.6-3,3.4s1.1,3.4,3,3.4
						C603.1,98.6,604.2,97.1,604.2,95.2z"/>
					<path fill="#FFFFFF" d="M624,101.1v-7.3c0-1.1-0.5-1.8-1.7-1.8c-1.1,0-2,0.7-2.4,1.3v7.8h-3.1v-7.3c0-1.1-0.5-1.8-1.7-1.8
						c-1.1,0-1.9,0.7-2.4,1.4v7.8h-3V89.5h3V91c0.5-0.7,2-1.8,3.8-1.8c1.7,0,2.8,0.8,3.2,2.1c0.7-1.1,2.2-2.1,4-2.1
						c2.1,0,3.4,1.1,3.4,3.5v8.4H624z"/>
					<path fill="#FFFFFF" d="M629.3,95.2c0-3.4,2.5-6.1,6-6.1s5.8,2.6,5.8,6.4v0.7h-8.6c0.2,1.5,1.4,2.7,3.3,2.7
						c1,0,2.4-0.4,3.1-1.2l1.3,2c-1.2,1.1-3,1.6-4.8,1.6C631.9,101.3,629.3,99,629.3,95.2z M635.3,91.6c-1.9,0-2.7,1.4-2.9,2.6h5.7
						C638.1,93.1,637.3,91.6,635.3,91.6z"/>
				</g>
			</g>
			<path fill="#FFFFFF" d="M559,100.1h-3.4c-0.5,0-0.9-0.4-0.9-1v-5.7h-1.4c-0.5,0-0.7-0.3-0.3-0.7l7.7-7.6c0.4-0.4,1-0.4,1.4,0
				l7.7,7.6c0.4,0.4,0.2,0.7-0.3,0.7h-1.4v5.7c0,0.5-0.4,1-0.9,1h-3.4c-0.3,0-0.5-0.2-0.5-0.5v-3.8c0-0.3-0.2-0.5-0.5-0.5H560
				c-0.3,0-0.5,0.2-0.5,0.5v3.8C559.5,99.8,559.3,100.1,559,100.1z"/>
			<g opacity="0.6">
				
					<line fill="none" stroke="#12C2EC" stroke-width="1.6015" stroke-miterlimit="10" x1="1129.5" y1="90.5" x2="1119.6" y2="100.4"/>
				<circle fill="#FFFFFF" stroke="#12C2EC" stroke-width="2.4023" stroke-miterlimit="10" cx="1129.5" cy="90.5" r="5.9"/>
				<line fill="none" stroke="#12C2EC" stroke-width="3.2031" stroke-miterlimit="10" x1="1123" y1="97" x2="1117.7" y2="102.3"/>
			</g>
			<g>
				<path fill="#F47E20" d="M72.5,394.8c3.7,0,8.2,1.5,8.2,4.2v2.6h-2.8V400c0-1.8-2.8-2.7-5.3-2.7c-5,0-8.1,3.4-8.1,8.3
					s3.2,8.5,8.2,8.6c1.9,0,5.7-0.6,5.7-2.7v-2.8h-4.2v-2.4h6.9v6c0,3.3-5.5,4.5-8.7,4.5c-6.6,0-11.1-4.8-11.1-11.1
					C61.3,399.5,65.8,394.8,72.5,394.8z"/>
				<path fill="#F47E20" d="M92.9,407.1h1v-0.6c0-2.4-1.4-3.3-3.3-3.3c-2.4,0-4.4,1.5-4.4,1.5l-1.2-2.1c0,0,2.2-1.8,5.8-1.8
					c3.9,0,5.9,2,5.9,5.9v6.8c0,0.5,0.2,0.7,0.7,0.7h1.5v2.3h-3c-1.4,0-1.9-0.7-1.9-1.7v-0.2c0-0.6,0.1-1,0.1-1H94
					c0,0-1.3,3.2-5,3.2c-2.5,0-5.1-1.5-5.1-4.6C84,407.4,90.3,407.1,92.9,407.1z M89.7,414.6c2.6,0,4.2-2.7,4.2-5V409h-0.8
					c-1.4,0-6.2,0.1-6.2,3C86.9,413.4,87.9,414.6,89.7,414.6z"/>
				<path fill="#F47E20" d="M102.3,397.5h-2.6v-2.3h5.5v7.1c0,0.7-0.1,1.3-0.1,1.3h0.1c0,0,1.4-2.7,4.9-2.7c4.1,0,6.7,3.3,6.7,8
					c0,4.9-2.9,8-7,8c-3.5,0-4.8-2.8-4.8-2.8l0,0c0,0,0.1,0.5,0.1,1.2v1.2h-2.8L102.3,397.5z M109.5,414.3c2.4,0,4.4-2,4.4-5.4
					c0-3.3-1.8-5.5-4.3-5.5c-2.3,0-4.4,1.6-4.4,5.5C105.1,411.6,106.5,414.3,109.5,414.3z"/>
				<path fill="#F47E20" d="M126.8,414.2h2.7l1.4-16.6h-2.7v-2.3h6l5.5,13c0.3,0.9,0.5,1.5,0.5,1.5h0.1c0,0,0.2-0.7,0.5-1.5l5.5-13
					h6v2.3h-2.7l1.4,16.6h2.7v2.4h-8.2v-2.4h2.6l-1-12.7c0-0.7,0.1-1.8,0.1-1.8h-0.1c0,0-0.2,1-0.5,1.6l-4.9,11.2H139l-4.9-11.2
					c-0.2-0.6-0.5-1.6-0.5-1.6h-0.1c0,0,0.1,1.1,0.1,1.8l-1,12.7h2.6v2.4H127L126.8,414.2z"/>
				<path fill="#F47E20" d="M163.7,400.9c4.6,0,8.2,3.4,8.2,8c0,4.7-3.7,8-8.2,8c-4.6,0-8.2-3.4-8.2-8
					C155.4,404.2,159.1,400.9,163.7,400.9z M163.7,414.4c2.9,0,5.3-2.3,5.3-5.5s-2.4-5.4-5.3-5.4c-2.9,0-5.3,2.3-5.3,5.4
					C158.4,412.1,160.8,414.4,163.7,414.4z"/>
				<path fill="#F47E20" d="M174.4,414.3h2.4v-10.1c0-0.5-0.2-0.7-0.7-0.7h-1.9v-2.3h3.4c1.3,0,1.9,0.6,1.9,1.7v0.8
					c0,0.5-0.1,0.9-0.1,0.9h0.1c0.3-0.8,2.1-3.7,6-3.7c3.5,0,5.1,2,5.1,5.9v7.5h2.4v2.3h-5.3v-9.1c0-2.1-0.4-3.8-2.9-3.8
					c-3.1,0-5.1,2.8-5.1,5.9v4.8h2.4v2.3h-7.7L174.4,414.3z"/>
				<path fill="#F47E20" d="M195,411.6h2.6v1c0,1.3,1.8,1.9,3.5,1.9s3.1-0.7,3.1-2c0-1.5-1.7-2-3.8-2.8c-2.3-0.8-4.8-1.9-4.8-4.7
					c0-3,3-4.2,5.6-4.2c2.1,0,5.3,0.8,5.3,3.1v1.8h-2.6v-1c0-0.9-1.2-1.6-2.7-1.6c-1.4,0-2.7,0.6-2.7,1.8c0,1.4,1.7,2.1,3.5,2.7
					c2.4,0.8,5,1.8,5,4.6c0,2.9-2.7,4.5-6.1,4.5c-2.8,0-6-1.2-6-3.7L195,411.6z"/>
				<path fill="#F47E20" d="M211.4,403.5h-2.6v-2.3h2.6V397h2.9v4.2h3.7v2.3h-3.7v7.2c0,3.1,2.1,3.5,3.3,3.5c0.4,0,0.7,0,0.7,0v2.4
					c0,0-0.4,0.1-1.1,0.1c-1.9,0-5.8-0.6-5.8-5.7L211.4,403.5z"/>
				<path fill="#F47E20" d="M228.1,400.9c4.3,0,6.6,3.2,6.6,7.2c0,0.4-0.1,1.1-0.1,1.1h-11.2c0.2,3.4,2.6,5.2,5.3,5.2
					s4.6-1.7,4.6-1.7l1.2,2.1c0,0-2.3,2.1-5.9,2.1c-4.8,0-8.1-3.5-8.1-8C220.4,404.1,223.7,400.9,228.1,400.9z M231.6,407.3
					c-0.1-2.7-1.7-4.1-3.7-4.1c-2.2,0-4,1.5-4.5,4.1H231.6z"/>
				<path fill="#F47E20" d="M237.4,414.3h2.3v-10.1c0-0.5-0.2-0.7-0.7-0.7h-1.9v-2.3h3.4c1.3,0,2,0.5,2,1.8v1c0,0.6-0.1,1.1-0.1,1.1
					h0.1c0.7-2.2,2.5-4,4.8-4c0.4,0,0.8,0.1,0.8,0.1v2.9c0,0-0.4-0.1-0.8-0.1c-3.3,0-4.7,3.3-4.7,6.3v4h2.3v2.3h-7.5L237.4,414.3z"
					/>
			</g>
			<path fill="#067C70" d="M721.1,612.2c0,16.7-13.5,30.2-30.2,30.2s-30.2-13.5-30.2-30.2s13.5-30.2,30.2-30.2
				S721.1,595.5,721.1,612.2z"/>
			<path fill="#E09A26" d="M721.1,717.2c0,16.7-13.5,30.2-30.2,30.2s-30.2-13.5-30.2-30.2s13.5-30.2,30.2-30.2
				S721.1,700.5,721.1,717.2z"/>
			<circle fill="#A71E53" cx="690.9" cy="822.1" r="30.2"/>
			<circle fill="#72983E" cx="690.9" cy="927.1" r="30.2"/>
			<rect x="761.3" y="594.2" fill="#CECECD" width="351.6" height="18.1"/>
			<rect x="133.3" y="583.7" fill="#CECECD" width="151.1" height="18.1"/>
			<rect x="133.3" y="817.5" fill="#CECECD" width="186.5" height="18.1"/>
			
				<line fill="none" stroke="#CECECD" stroke-width="6.0042" stroke-miterlimit="10" x1="761.3" y1="628.4" x2="1111.5" y2="628.4"/>
			<line fill="none" stroke="#CECECD" stroke-width="6.0042" stroke-miterlimit="10" x1="761.3" y1="641.2" x2="980.5" y2="641.2"/>
			<rect x="766.5" y="699.8" fill="#CECECD" width="273.7" height="18.1"/>
			<line fill="none" stroke="#CECECD" stroke-width="6.1754" stroke-miterlimit="10" x1="766.5" y1="734" x2="1137" y2="734"/>
			
				<line fill="none" stroke="#CECECD" stroke-width="6.1754" stroke-miterlimit="10" x1="766.5" y1="747.1" x2="1062.3" y2="747.1"/>
			<rect x="68.2" y="887.5" fill="#CECECD" width="261.7" height="18.1"/>
			<line fill="none" stroke="#CECECD" stroke-width="6.0383" stroke-miterlimit="10" x1="68.2" y1="921.7" x2="422.5" y2="921.7"/>
			<line fill="none" stroke="#CECECD" stroke-width="6.0383" stroke-miterlimit="10" x1="68.2" y1="934.8" x2="351" y2="934.8"/>
			<line fill="none" stroke="#CECECD" stroke-width="5.4963" stroke-miterlimit="10" x1="68.2" y1="946.6" x2="302.5" y2="946.6"/>
			<rect x="766.5" y="801.4" fill="#CECECD" width="314.7" height="18.1"/>
			<line fill="none" stroke="#CECECD" stroke-width="6.1754" stroke-miterlimit="10" x1="766.5" y1="835.7" x2="1137" y2="835.7"/>
			<line fill="none" stroke="#CECECD" stroke-width="6.1754" stroke-miterlimit="10" x1="766.5" y1="848.7" x2="890.7" y2="848.7"/>
			<rect x="761.3" y="902.1" fill="#CECECD" width="229.5" height="18.1"/>
			
				<line fill="none" stroke="#CECECD" stroke-width="6.1754" stroke-miterlimit="10" x1="761.3" y1="936.3" x2="1131.8" y2="936.3"/>
			
				<line fill="none" stroke="#CECECD" stroke-width="6.1754" stroke-miterlimit="10" x1="761.3" y1="949.4" x2="1130.7" y2="949.4"/>
			<line fill="none" stroke="#CECECD" stroke-width="6.1754" stroke-miterlimit="10" x1="761.3" y1="964.5" x2="824.4" y2="964.5"/>
			<g>
				<g>
					<g>
						<defs>
							<circle id="SVGID_26_" cx="140.3" cy="284.6" r="76.2"/>
						</defs>
						<clipPath id="SVGID_27_">
							<use xlink:href="#SVGID_26_"  overflow="visible"/>
						</clipPath>
						<rect x="-0.1" y="128.7" clip-path="url(#SVGID_27_)" fill="#FFFFFF" width="364.8" height="277.4"/>
					</g>
				</g>
				<g>
					<g>
						<defs>
							<circle id="SVGID_28_" cx="140.3" cy="284.6" r="76.2"/>
						</defs>
						<clipPath id="SVGID_29_">
							<use xlink:href="#SVGID_28_"  overflow="visible"/>
						</clipPath>
						<g clip-path="url(#SVGID_29_)">
							<path fill="#F58520" d="M81.8,359.1c-8.6-24.5-11.5-57.9-3.2-82.7c10.7-31.8,45.6-48.1,78.3-40.6c23.8,5.5,51.4,17,49.9,80
								c-1.5,62.9-3.4,56.4-21.8,57.1C166.6,373.6,85.8,370.5,81.8,359.1z"/>
							<path fill="#FFFFFF" d="M120.1,280.7c0.3,3-1.8,5.6-4.8,6c-3,0.3-5.6-1.8-5.9-4.8s1.8-5.6,4.8-5.9
								C117.1,275.6,119.8,277.7,120.1,280.7z"/>
							<path fill="#FFFFFF" d="M179.3,276.1c0.3,3-1.8,5.6-4.8,5.9s-5.6-1.8-5.9-4.8c-0.3-3,1.8-5.6,4.8-5.9
								C176.3,271,179,273.1,179.3,276.1z"/>
							<path fill="#F58520" d="M81.1,337.9c-0.1,3,0.6,58.2,9.8,54.5s9.4-42.1,9.4-42.1L81.1,337.9z"/>
							<path fill="#F58520" d="M204.6,341.2c0.2,3,0.8,58.2-8.4,54.7c-9.3-3.5-10.4-41.8-10.4-41.8L204.6,341.2z"/>
							<path fill="#F58520" d="M202.2,311.4c1.8,1.2,13.8,0.8,21.8-13.5c3.5-6.3,5.1-14,9.5-19.8c2.9-3.9,7.2-4.7,9.6-0.2
								c7,13.2-17.4,43.2-29.1,48c-9.6,4-9.6,4-9.6,4l-2.2-16.2"/>
							<path fill="#F58520" d="M83.9,316.1c-1.8,1.2-13.8,0.8-21.8-13.5c-3.5-6.3-5.1-14-9.4-19.8c-2.9-3.9-7.2-4.7-9.6-0.3
								c-7,13.2,17.4,43.2,29.1,48c9.6,4.1,9.6,4.1,9.6,4.1l2.2-16.2"/>
							<path fill="#FFFFFF" d="M167.5,303l-36.7,0.8C130.8,303.9,149.3,339.7,167.5,303z"/>
						</g>
					</g>
				</g>
				<g>
					
						<circle id="SVGID_6_" fill="none" stroke="#BBBDBF" stroke-width="7.8849" stroke-miterlimit="10" cx="140.3" cy="284.6" r="76.2"/>
				</g>
			</g>
			<g>
				<path fill="#F58520" d="M562,444.4l5.2-7c2.9,2.8,7.4,4.2,10.9,4.2c4.4,0,6.7-1.7,6.7-3.9c0-2.3-1.7-3.4-7.1-3.4
					c-1.7,0-4.8,0-5.4,0.1v-9.2c0.8,0.1,3.9,0.1,5.4,0.1c4.1,0,6.5-1,6.5-3.1c0-2.5-2.9-3.7-6.7-3.7c-3.7,0-7.1,1.3-10,3.8l-5-6.5
					c3.4-3.8,8.6-6.5,16-6.5c10.2,0,15.9,4.4,15.9,11c0,4.7-4,8.2-8.8,9c4.3,0.4,9.4,3.7,9.4,9.5c0,7-6.6,11.9-16.6,11.9
					C570.8,450.7,565.1,448,562,444.4z"/>
				<path fill="#F58520" d="M604.3,450l13.6-31h-19.5v-9h31.4v7.1L615.7,450H604.3z"/>
				<path fill="#F58520" d="M570.4,478.8v-7.1c0-1.6-0.8-2.1-2.2-2.1c-1.2,0-2.1,0.7-2.6,1.4v7.8h-3v-16h3v5.9
					c0.7-0.9,2.2-1.8,4.1-1.8c2.5,0,3.8,1.4,3.8,3.6v8.2h-3.1V478.8z"/>
				<path fill="#F58520" d="M575.7,473c0-3.3,2.3-6.1,6.1-6.1s6.1,2.8,6.1,6.1c0,3.3-2.3,6.1-6.1,6.1S575.7,476.3,575.7,473z
					 M584.8,473c0-1.8-1.1-3.4-3-3.4s-3,1.6-3,3.4s1.1,3.4,3,3.4S584.8,474.8,584.8,473z"/>
				<path fill="#F58520" d="M598,478.8v-1.5c-0.8,0.9-2.2,1.8-4.1,1.8c-2.5,0-3.7-1.4-3.7-3.6v-8.2h3v7c0,1.6,0.8,2.1,2.1,2.1
					c1.2,0,2.1-0.6,2.6-1.3v-7.8h3v11.6H598V478.8z"/>
				<path fill="#F58520" d="M604.1,478.8v-11.6h3v1.6c0.8-1,2.3-1.9,3.7-1.9v3c-0.2,0-0.5-0.1-0.8-0.1c-1,0-2.4,0.6-2.9,1.3v7.7
					H604.1z"/>
				<path fill="#F58520" d="M611.7,477.3l1.3-2.1c0.8,0.8,2.6,1.6,4,1.6c1.3,0,1.9-0.5,1.9-1.2c0-1.9-6.9-0.4-6.9-4.9
					c0-1.9,1.7-3.6,4.8-3.6c2,0,3.5,0.7,4.7,1.6l-1.2,2.1c-0.7-0.7-2-1.3-3.4-1.3c-1.1,0-1.8,0.5-1.8,1.2c0,1.7,6.9,0.3,6.9,5
					c0,2.1-1.8,3.7-5,3.7C614.9,479.1,613,478.4,611.7,477.3z"/>
			</g>
			<g>
				<path fill="#F58520" d="M808,450v-26.8l-6.7,6.8l-5.9-6.2l14-13.8h8.9v40H808z"/>
				<path fill="#F58520" d="M824.6,450v-8c17.3-12.5,20.6-15.3,20.6-19.3c0-2.8-2.6-4.2-5.5-4.2c-4.4,0-7.8,1.7-10.7,4.4l-5.7-6.8
					c4.3-4.7,10.6-6.7,16.2-6.7c9.4,0,16.2,5.3,16.2,13.3c0,6.1-4.4,11.3-14.3,18.3H856v9L824.6,450L824.6,450z"/>
				<path fill="#F58520" d="M796.6,478.8v-16h3v5.9c0.9-1.2,2.2-1.8,3.6-1.8c3,0,5.1,2.3,5.1,6.1c0,3.9-2.2,6.1-5.1,6.1
					c-1.4,0-2.7-0.6-3.6-1.8v1.5L796.6,478.8L796.6,478.8z M802.3,476.4c1.8,0,3-1.3,3-3.4s-1.2-3.4-3-3.4c-1,0-2.1,0.6-2.6,1.3v4.1
					C800.2,475.8,801.3,476.4,802.3,476.4z"/>
				<path fill="#F58520" d="M817.6,478.8v-1.2c-0.8,0.9-2.2,1.5-3.7,1.5c-1.8,0-4-1.2-4-3.8c0-2.7,2.2-3.7,4-3.7
					c1.5,0,2.9,0.5,3.7,1.4v-1.6c0-1.2-1-1.9-2.5-1.9c-1.2,0-2.4,0.5-3.4,1.4l-1.2-2c1.4-1.2,3.2-1.8,5.1-1.8c2.6,0,5.1,1.1,5.1,4.4
					v7.5h-3.1L817.6,478.8L817.6,478.8z M817.6,476v-1.4c-0.5-0.7-1.5-1-2.4-1c-1.2,0-2.2,0.6-2.2,1.8c0,1.1,1,1.7,2.2,1.7
					C816.2,477,817.1,476.7,817.6,476z"/>
				<path fill="#F58520" d="M831.7,478.8v-1.5c-0.9,1.2-2.2,1.8-3.6,1.8c-2.9,0-5.1-2.2-5.1-6.1c0-3.8,2.2-6.1,5.1-6.1
					c1.4,0,2.7,0.6,3.6,1.8v-5.9h3.1v16L831.7,478.8L831.7,478.8z M831.7,475.1V471c-0.5-0.8-1.6-1.3-2.6-1.3
					c-1.7,0-2.9,1.4-2.9,3.4s1.2,3.4,2.9,3.4C830.1,476.4,831.2,475.8,831.7,475.1z"/>
				<path fill="#F58520" d="M837.5,481.8l1.4-2.2c0.9,1,2.2,1.4,3.6,1.4s3.2-0.6,3.2-2.9v-1.2c-0.9,1.2-2.2,1.8-3.6,1.8
					c-2.9,0-5.1-2-5.1-5.9c0-3.8,2.2-5.9,5.1-5.9c1.4,0,2.6,0.6,3.6,1.8v-1.5h3.1V478c0,4.4-3.4,5.5-6.3,5.5
					C840.5,483.5,839,483,837.5,481.8z M845.7,474.7V471c-0.5-0.8-1.6-1.3-2.6-1.3c-1.7,0-2.9,1.2-2.9,3.2s1.2,3.2,2.9,3.2
					C844.1,476,845.2,475.4,845.7,474.7z"/>
				<path fill="#F58520" d="M851.1,473c0-3.4,2.5-6.1,6-6.1s5.8,2.6,5.8,6.4v0.7h-8.6c0.2,1.5,1.4,2.7,3.3,2.7c1,0,2.4-0.4,3.1-1.2
					l1.3,2c-1.2,1.1-3,1.6-4.8,1.6C853.7,479.1,851.1,476.7,851.1,473z M857.1,469.3c-1.9,0-2.7,1.4-2.9,2.6h5.7
					C859.9,470.8,859.1,469.3,857.1,469.3z"/>
				<path fill="#F58520" d="M864.1,477.3l1.3-2.1c0.8,0.8,2.6,1.6,4,1.6c1.3,0,1.9-0.5,1.9-1.2c0-1.9-6.9-0.4-6.9-4.9
					c0-1.9,1.7-3.6,4.8-3.6c2,0,3.5,0.7,4.7,1.6l-1.2,2.1c-0.7-0.7-2-1.3-3.4-1.3c-1.1,0-1.8,0.5-1.8,1.2c0,1.7,6.9,0.3,6.9,5
					c0,2.1-1.8,3.7-5,3.7C867.2,479.1,865.3,478.4,864.1,477.3z"/>
			</g>
			<g>
				<path fill="#F58520" d="M1021.2,450l13.6-31h-19.5v-9h31.4v7.1l-14.1,32.9H1021.2z"/>
				<path fill="#F58520" d="M1015.5,478.8v-11.6h3v1.6c0.8-1,2.3-1.9,3.7-1.9v3c-0.2,0-0.5-0.1-0.8-0.1c-1,0-2.4,0.6-2.9,1.3v7.7
					H1015.5z"/>
				<path fill="#F58520" d="M1023.4,473c0-3.4,2.5-6.1,6-6.1s5.8,2.6,5.8,6.4v0.7h-8.6c0.2,1.5,1.4,2.7,3.3,2.7c1,0,2.4-0.4,3.1-1.2
					l1.3,2c-1.2,1.1-3,1.6-4.8,1.6C1026.1,479.1,1023.4,476.7,1023.4,473z M1029.4,469.3c-1.9,0-2.7,1.4-2.9,2.6h5.7
					C1032.2,470.8,1031.4,469.3,1029.4,469.3z"/>
				<path fill="#F58520" d="M1038.1,478.8v-8.9h-1.9v-2.7h1.9v-0.6c0-2.5,1.6-4,3.9-4c0.9,0,1.7,0.2,2.2,0.5l-0.6,2.2
					c-0.2-0.2-0.6-0.3-1-0.3c-0.9,0-1.4,0.6-1.4,1.6v0.6h2.4v2.7h-2.4v8.9L1038.1,478.8L1038.1,478.8z M1045.3,478.8v-16h3v16
					H1045.3z"/>
				<path fill="#F58520" d="M1050.6,473c0-3.4,2.5-6.1,6-6.1s5.8,2.6,5.8,6.4v0.7h-8.6c0.2,1.5,1.4,2.7,3.3,2.7c1,0,2.4-0.4,3.1-1.2
					l1.3,2c-1.2,1.1-3,1.6-4.8,1.6C1053.3,479.1,1050.6,476.7,1050.6,473z M1056.6,469.3c-1.9,0-2.7,1.4-2.9,2.6h5.7
					C1059.4,470.8,1058.6,469.3,1056.6,469.3z"/>
				<path fill="#F58520" d="M1063.9,473c0-3.6,2.6-6.1,6.1-6.1c2.4,0,3.8,1,4.6,2.1l-2,1.9c-0.6-0.8-1.4-1.2-2.4-1.2
					c-1.8,0-3.1,1.3-3.1,3.4s1.3,3.4,3.1,3.4c1.1,0,1.9-0.5,2.4-1.2l2,1.8c-0.8,1.1-2.2,2.1-4.6,2.1
					C1066.4,479.1,1063.9,476.6,1063.9,473z"/>
				<path fill="#F58520" d="M1077.2,475.9v-6h-1.9v-2.7h1.9V464h3.1v3.2h2.4v2.7h-2.4v5.2c0,0.7,0.4,1.3,1.1,1.3
					c0.5,0,0.9-0.2,1.1-0.3l0.6,2.3c-0.5,0.4-1.3,0.7-2.5,0.7C1078.3,479.1,1077.2,478,1077.2,475.9z"/>
				<path fill="#F58520" d="M1084.4,464.1c0-1,0.8-1.8,1.8-1.8s1.8,0.8,1.8,1.8s-0.8,1.8-1.8,1.8
					C1085.2,466,1084.4,465.1,1084.4,464.1z M1084.7,478.8v-11.6h3v11.6H1084.7z"/>
				<path fill="#F58520" d="M1090,473c0-3.3,2.3-6.1,6.1-6.1c3.8,0,6.1,2.8,6.1,6.1c0,3.3-2.3,6.1-6.1,6.1S1090,476.3,1090,473z
					 M1099.1,473c0-1.8-1.1-3.4-3-3.4s-3,1.6-3,3.4s1.1,3.4,3,3.4S1099.1,474.8,1099.1,473z"/>
				<path fill="#F58520" d="M1112.4,478.8v-7c0-1.6-0.8-2.2-2.1-2.2c-1.2,0-2.1,0.7-2.6,1.4v7.8h-3v-11.6h3v1.5
					c0.7-0.9,2.2-1.8,4.1-1.8c2.5,0,3.8,1.4,3.8,3.7v8.2H1112.4z"/>
				<path fill="#F58520" d="M1117.4,477.3l1.3-2.1c0.8,0.8,2.6,1.6,4,1.6c1.3,0,1.9-0.5,1.9-1.2c0-1.9-6.9-0.4-6.9-4.9
					c0-1.9,1.7-3.6,4.8-3.6c2,0,3.5,0.7,4.7,1.6l-1.2,2.1c-0.7-0.7-2-1.3-3.4-1.3c-1.1,0-1.8,0.5-1.8,1.2c0,1.7,6.9,0.3,6.9,5
					c0,2.1-1.8,3.7-5,3.7C1120.6,479.1,1118.7,478.4,1117.4,477.3z"/>
			</g>
			<g>
				<path fill="#595A5A" d="M61.9,436.8h-1.7V435h6v1.8h-1.9l3.8,11.2c0.2,0.6,0.3,1.3,0.3,1.3h0.1c0,0,0.1-0.7,0.3-1.3l3.8-11.2
					h-1.9V435h6v1.8H75l-5.4,15.1h-2.5L61.9,436.8z"/>
				<path fill="#595A5A" d="M83.1,439.5c3.6,0,6.6,2.7,6.6,6.3c0,3.7-2.9,6.4-6.6,6.4c-3.6,0-6.6-2.7-6.6-6.4
					C76.6,442.2,79.5,439.5,83.1,439.5z M83.1,450.2c2.3,0,4.2-1.8,4.2-4.4c0-2.5-1.9-4.3-4.2-4.3c-2.3,0-4.2,1.8-4.2,4.3
					C79,448.4,80.8,450.2,83.1,450.2z"/>
				<path fill="#595A5A" d="M92.7,436.8h-2V435H95v13.3c0,1,0.2,1.7,1.3,1.7c0.4,0,0.6,0,0.6,0v1.9c0,0-0.5,0-1,0
					c-1.7,0-3.2-0.7-3.2-3.5C92.7,448.4,92.7,436.8,92.7,436.8z"/>
				<path fill="#595A5A" d="M100.1,441.6h-2v-1.8h4.4v7.3c0,1.7,0.3,3,2.3,3c2.4,0,3.9-2.3,3.9-4.7v-3.8h-2v-1.8h4.4v9.8
					c0,0.3,0.2,0.5,0.5,0.5h1.3v1.8h-2.5c-1.1,0-1.5-0.5-1.5-1.3v-0.5c0-0.4,0-0.7,0-0.7l0,0c-0.2,0.6-1.6,2.9-4.6,2.9
					c-2.6,0-4-1.4-4-4.7v-6L100.1,441.6L100.1,441.6z"/>
				<path fill="#595A5A" d="M114.7,450.1h1.9v-8c0-0.4-0.2-0.5-0.5-0.5h-1.5v-1.8h2.7c1.1,0,1.5,0.5,1.5,1.3v0.6
					c0,0.4-0.1,0.7-0.1,0.7l0,0c0.2-0.6,1.7-3,4.7-3c2.8,0,4,1.6,4,4.7v6h1.9v1.8h-4.2v-7.2c0-1.7-0.3-3-2.3-3
					c-2.4,0-4.1,2.2-4.1,4.7v3.8h1.9v1.8h-6.1v-1.9H114.7z"/>
				<path fill="#595A5A" d="M132.4,441.6h-2v-1.8h2.1v-3.3h2.3v3.3h2.9v1.8h-2.9v5.7c0,2.5,1.7,2.8,2.6,2.8c0.3,0,0.6,0,0.6,0v1.9
					c0,0-0.3,0-0.8,0c-1.5,0-4.6-0.5-4.6-4.5v-5.9H132.4z"/>
				<path fill="#595A5A" d="M145.6,439.5c3.5,0,5.3,2.5,5.3,5.7c0,0.3-0.1,0.9-0.1,0.9h-8.9c0.1,2.7,2,4.1,4.2,4.1
					c2.1,0,3.6-1.4,3.6-1.4l1,1.7c0,0-1.8,1.7-4.7,1.7c-3.8,0-6.4-2.8-6.4-6.4C139.5,442,142.1,439.5,145.6,439.5z M148.4,444.6
					c-0.1-2.1-1.4-3.2-2.9-3.2c-1.8,0-3.2,1.2-3.6,3.2H148.4z"/>
				<path fill="#595A5A" d="M158.9,439.5c3.5,0,5.3,2.5,5.3,5.7c0,0.3-0.1,0.9-0.1,0.9h-8.9c0.1,2.7,2,4.1,4.2,4.1
					c2.1,0,3.6-1.4,3.6-1.4l1,1.7c0,0-1.8,1.7-4.7,1.7c-3.8,0-6.4-2.8-6.4-6.4C152.8,442,155.4,439.5,158.9,439.5z M161.8,444.6
					c-0.1-2.1-1.4-3.2-2.9-3.2c-1.8,0-3.2,1.2-3.6,3.2H161.8z"/>
				<path fill="#595A5A" d="M166.4,450.1h1.8v-8c0-0.4-0.2-0.5-0.5-0.5h-1.5v-1.8h2.7c1.1,0,1.6,0.4,1.6,1.4v0.8c0,0.5,0,0.8,0,0.8
					l0,0c0.6-1.8,2-3.2,3.8-3.2c0.3,0,0.6,0,0.6,0v2.3c0,0-0.3-0.1-0.7-0.1c-2.6,0-3.7,2.6-3.7,5v3.2h1.8v1.8h-6L166.4,450.1
					L166.4,450.1z"/>
				<path fill="#595A5A" d="M182.6,450.1h2.1v-13.2h-2.1V435h7.9c1,0,2.1,0.1,2.9,0.5c1.8,0.7,2.9,2.5,2.9,4.8c0,2.4-1.2,4.3-3.2,5
					c-0.8,0.3-1.6,0.4-2.5,0.4h-3.4v4.5h2.1v1.9h-6.6L182.6,450.1L182.6,450.1z M190.2,443.6c0.8,0,1.4-0.1,1.9-0.3
					c1.1-0.5,1.7-1.6,1.7-3s-0.6-2.4-1.5-2.9c-0.5-0.3-1.2-0.4-2.1-0.4H187v6.6L190.2,443.6L190.2,443.6z"/>
				<path fill="#595A5A" d="M198.2,450.1h1.8v-8c0-0.4-0.2-0.5-0.5-0.5H198v-1.8h2.7c1.1,0,1.6,0.4,1.6,1.4v0.8c0,0.5,0,0.8,0,0.8
					l0,0c0.6-1.8,2-3.2,3.8-3.2c0.3,0,0.6,0,0.6,0v2.3c0,0-0.3-0.1-0.7-0.1c-2.6,0-3.7,2.6-3.7,5v3.2h1.8v1.8h-6L198.2,450.1
					L198.2,450.1z"/>
				<path fill="#595A5A" d="M214.5,439.5c3.6,0,6.6,2.7,6.6,6.3c0,3.7-2.9,6.4-6.6,6.4s-6.6-2.7-6.6-6.4
					C208,442.2,210.9,439.5,214.5,439.5z M214.5,450.2c2.3,0,4.2-1.8,4.2-4.4c0-2.5-1.9-4.3-4.2-4.3s-4.2,1.8-4.2,4.3
					C210.4,448.4,212.2,450.2,214.5,450.2z"/>
				<path fill="#595A5A" d="M223.1,450.1h1.9v-8.5h-2v-1.8h2v-0.6c0-3.9,2.9-4.4,4.4-4.4c0.6,0,1.1,0.1,1.1,0.1v1.9
					c0,0-0.3-0.1-0.9-0.1c-0.8,0-2.3,0.2-2.3,2.4v0.6h8.3V450h1.9v1.8h-6.1V450h1.9v-8.5h-5.9v8.5h2.2v1.8h-6.5L223.1,450.1
					L223.1,450.1z M233.2,435h2.4v2.4h-2.4V435z"/>
				<path fill="#595A5A" d="M240.1,436.8h-2V435h4.3v13.3c0,1,0.2,1.7,1.3,1.7c0.4,0,0.6,0,0.6,0v1.9c0,0-0.5,0-1,0
					c-1.7,0-3.2-0.7-3.2-3.5L240.1,436.8L240.1,436.8z"/>
				<path fill="#595A5A" d="M252,439.5c3.5,0,5.3,2.5,5.3,5.7c0,0.3-0.1,0.9-0.1,0.9h-8.9c0.1,2.7,2,4.1,4.2,4.1
					c2.1,0,3.6-1.4,3.6-1.4l1,1.7c0,0-1.8,1.7-4.7,1.7c-3.8,0-6.4-2.8-6.4-6.4C245.9,442,248.6,439.5,252,439.5z M254.9,444.6
					c-0.1-2.1-1.4-3.2-2.9-3.2c-1.8,0-3.2,1.2-3.6,3.2H254.9z"/>
				<path fill="#595A5A" d="M69.8,465c2,0,6.5,0.7,6.5,3.4v2.1h-2.2v-1.3c0-1.5-2.6-2-4.1-2c-3.6,0-6.3,2.7-6.3,6.5
					c0,4,2.7,6.9,6.4,6.9c1.2,0,4.2-0.4,4.2-2v-1.3h2.2v2.1c0,2.5-4.2,3.3-6.6,3.3c-5.1,0-8.8-3.9-8.8-8.9
					C61.2,468.7,64.9,465,69.8,465z"/>
				<path fill="#595A5A" d="M79.9,467.1h-2v-1.8h4.3v13.3c0,1,0.2,1.7,1.3,1.7c0.4,0,0.6,0,0.6,0v1.9c0,0-0.5,0-1,0
					c-1.7,0-3.2-0.7-3.2-3.5C79.9,478.7,79.9,467.1,79.9,467.1z"/>
				<path fill="#595A5A" d="M92.8,474.7h0.8v-0.5c0-1.9-1.1-2.6-2.6-2.6c-1.9,0-3.5,1.2-3.5,1.2l-0.9-1.7c0,0,1.8-1.4,4.6-1.4
					c3.1,0,4.7,1.6,4.7,4.7v5.4c0,0.4,0.2,0.5,0.5,0.5h1.2v1.8h-2.4c-1.1,0-1.5-0.5-1.5-1.3v-0.2c0-0.5,0.1-0.8,0.1-0.8l0,0
					c0,0-1.1,2.6-4,2.6c-2,0-4-1.2-4-3.7C85.7,475,90.7,474.7,92.8,474.7z M90.2,480.7c2.1,0,3.3-2.1,3.3-3.9v-0.5H93
					c-1.1,0-4.9,0-4.9,2.4C88,479.7,88.8,480.7,90.2,480.7z"/>
				<path fill="#595A5A" d="M99.2,478.3h2v0.8c0,1,1.4,1.5,2.8,1.5s2.4-0.6,2.4-1.6c0-1.2-1.3-1.6-3-2.2c-1.8-0.7-3.8-1.5-3.8-3.7
					c0-2.4,2.4-3.4,4.5-3.4c1.7,0,4.2,0.7,4.2,2.4v1.5h-2v-0.8c0-0.7-1-1.2-2.1-1.2c-1.2,0-2.2,0.5-2.2,1.5c0,1.2,1.3,1.6,2.8,2.1
					c1.9,0.6,4,1.4,4,3.7c0,2.3-2.1,3.6-4.9,3.6c-2.2,0-4.8-1-4.8-2.9L99.2,478.3L99.2,478.3z"/>
				<path fill="#595A5A" d="M110.7,478.3h2v0.8c0,1,1.4,1.5,2.8,1.5s2.4-0.6,2.4-1.6c0-1.2-1.3-1.6-3-2.2c-1.8-0.7-3.8-1.5-3.8-3.7
					c0-2.4,2.4-3.4,4.5-3.4c1.7,0,4.2,0.7,4.2,2.4v1.5h-2v-0.8c0-0.7-1-1.2-2.1-1.2c-1.2,0-2.2,0.5-2.2,1.5c0,1.2,1.3,1.6,2.8,2.1
					c1.9,0.6,4,1.4,4,3.7c0,2.3-2.1,3.6-4.9,3.6c-2.2,0-4.8-1-4.8-2.9L110.7,478.3L110.7,478.3z"/>
				<path fill="#595A5A" d="M134.8,469.8c3.6,0,6.6,2.7,6.6,6.3c0,3.7-2.9,6.4-6.6,6.4c-3.6,0-6.6-2.7-6.6-6.4
					C128.3,472.4,131.2,469.8,134.8,469.8z M134.8,480.5c2.3,0,4.2-1.8,4.2-4.4c0-2.5-1.9-4.3-4.2-4.3s-4.2,1.8-4.2,4.3
					C130.6,478.7,132.5,480.5,134.8,480.5z"/>
				<path fill="#595A5A" d="M143.4,480.4h1.9v-8.5h-2v-1.8h2v-0.6c0-3.9,2.9-4.4,4.4-4.4c0.6,0,1.1,0.1,1.1,0.1v1.9
					c0,0-0.3-0.1-0.9-0.1c-0.8,0-2.3,0.2-2.3,2.4v0.6h2.9v1.8h-2.9v8.5h2.2v1.8h-6.5v-1.7L143.4,480.4L143.4,480.4z"/>
				<path fill="#595A5A" d="M158.4,480.9c0-6,8.4-6.8,8.4-11c0-1.8-1.2-2.9-3-2.9c-2.2,0-3.5,2.3-3.5,2.3l-1.7-1.2
					c0,0,1.5-3.2,5.4-3.2c3.1,0,5.4,1.9,5.4,4.9c0,5.4-8.3,6.3-8.3,10.4h6.9V478h2.1v4.2h-11.5C158.4,481.8,158.4,481.3,158.4,480.9
					z"/>
				<path fill="#595A5A" d="M172.7,473.7c0-4.9,1.5-8.7,6-8.7s6,3.9,6,8.7c0,4.9-1.5,8.8-6,8.8S172.7,478.6,172.7,473.7z
					 M182.3,473.7c0-3.7-0.8-6.6-3.6-6.6s-3.6,2.9-3.6,6.6s0.8,6.6,3.6,6.6C181.5,480.4,182.3,477.5,182.3,473.7z"/>
				<path fill="#595A5A" d="M187.4,480.2h3.7v-11c0-0.5,0-1,0-1l0,0c0,0-0.2,0.4-0.8,1l-1.6,1.6l-1.4-1.5l4.1-3.9h2.1v15h3.7v2h-9.7
					v-2.2H187.4z"/>
				<path fill="#595A5A" d="M198.3,476.2l7.8-10.9h2.7v10.5h2.3v1.9h-2.3v4.5h-2.3v-4.5h-8.2V476.2z M200.9,475.7L200.9,475.7h5.6
					v-6.6c0-0.6,0.1-1.3,0.1-1.3h-0.1c0,0-0.3,0.6-0.6,1.1L200.9,475.7z"/>
			</g>
			<path fill="none" stroke="#12C2EB" stroke-miterlimit="10" d="M587.3,745c0,3.3-2.7,6-6,6H47.1c-3.3,0-6-2.7-6-6V550.1
				c0-3.3,2.7-6,6-6h534.2c3.3,0,6,2.7,6,6V745z"/>
			<path fill="none" stroke="#12C2EB" stroke-miterlimit="10" d="M587.3,985c0,3.3-2.7,6-6,6H47.1c-3.3,0-6-2.7-6-6V790.1
				c0-3.3,2.7-6,6-6h534.2c3.3,0,6,2.7,6,6V985z"/>
			<path id="Feather_2" fill="#12C2EB" d="M99.8,808.4c-22.1,0-33.2,32.9-35.4,39.9c-0.2,0.7-0.4,1.6-0.4,2v0.7
				c0,0.8,0.6,1.4,1.4,1.4s1.4-0.6,1.4-1.4v-1.4c2.7-4.9,6.5-13.1,11.7-16.5c0.9,1.7,2.7,2.8,4.8,2.8c1,0,1.9-0.3,2.7-0.7l0,0l0,0
				c0.8-0.5,1.5-1.1,2-1.9c0,0,0.1-0.1,0.1-0.2c0.2-0.3,0.3-0.7,0.4-1c0-0.1,0.1-0.2,0.1-0.3c0.1-0.4,0.2-0.9,0.2-1.3
				c0-0.3,0-0.5-0.1-0.8c0.8,0.5,1.8,0.8,2.8,0.8c3,0,5.5-2.5,5.5-5.5c0-0.2,0-0.3-0.1-0.5c0.9,0.3,1.8,0.5,2.8,0.5
				c4.6,0,8.2-3.7,8.2-8.2S104.4,808.4,99.8,808.4z"/>
			<path id="Trophy_1_x2C__Award_1" fill="#12C2EB" d="M110.5,578.1h-7.3v-2.4c0-1.4-1.1-2.4-2.4-2.4H81.2c-1.4,0-2.4,1.1-2.4,2.4
				v2.4h-7.3c-1.4,0-2.4,1.1-2.4,2.4v4.9c0,3.9,2.6,9.8,9.8,9.8c0.3,0-0.3,0.1,0,0c1.5,3.7,5.8,6.3,9.8,7.1v5.1h-2.4
				c-2.7,0-4.9,2.2-4.9,4.9H101c0-2.7-2.2-4.9-4.9-4.9h-2.4v-5.1c4-0.8,8.2-3.4,9.8-7.1c0.3,0.1-0.3,0,0,0c7.2,0,9.8-5.8,9.8-9.8
				v-4.9C112.9,579.2,111.8,578.1,110.5,578.1z M73.8,585.4V583h4.9v7.3C74.3,590.3,73.8,586.5,73.8,585.4z M108.1,585.4
				c0,0.8-0.2,4.9-4.9,4.9V583h4.9V585.4z"/>
			<g>
				<g>
					<g>
						<g>
							<g>
								<defs>
									<polygon id="SVGID_30_" points="138.7,659.5 138.7,723.2 153.3,708.7 167.7,723.2 167.7,659.5 									"/>
								</defs>
								<clipPath id="SVGID_31_">
									<use xlink:href="#SVGID_30_"  overflow="visible"/>
								</clipPath>
								<rect x="133" y="653.6" clip-path="url(#SVGID_31_)" fill="#12C2EC" width="11.6" height="69.5"/>
							</g>
						</g>
					</g>
					<g>
						<g>
							<g>
								<defs>
									<polygon id="SVGID_32_" points="138.7,659.5 138.7,723.2 153.3,708.7 167.7,723.2 167.7,659.5 									"/>
								</defs>
								<clipPath id="SVGID_33_">
									<use xlink:href="#SVGID_32_"  overflow="visible"/>
								</clipPath>
								<rect x="161.9" y="653.6" clip-path="url(#SVGID_33_)" fill="#12C2EC" width="11.6" height="69.5"/>
							</g>
						</g>
					</g>
					<g>
						<g>
							<g>
								<defs>
									<polygon id="SVGID_34_" points="138.7,659.5 138.7,723.2 153.3,708.7 167.7,723.2 167.7,659.5 									"/>
								</defs>
								<clipPath id="SVGID_35_">
									<use xlink:href="#SVGID_34_"  overflow="visible"/>
								</clipPath>
								<rect x="150.3" y="653.6" clip-path="url(#SVGID_35_)" fill="#12C2EC" width="5.8" height="69.5"/>
							</g>
						</g>
					</g>
					<g>
						<g>
							<g>
								<defs>
									<polygon id="SVGID_36_" points="138.7,659.5 138.7,723.2 153.3,708.7 167.7,723.2 167.7,659.5 									"/>
								</defs>
								<clipPath id="SVGID_37_">
									<use xlink:href="#SVGID_36_"  overflow="visible"/>
								</clipPath>
								<rect x="144.5" y="653.6" clip-path="url(#SVGID_37_)" fill="#7DDFEF" width="5.8" height="69.5"/>
							</g>
						</g>
					</g>
					<g>
						<g>
							<g>
								<defs>
									<polygon id="SVGID_38_" points="138.7,659.5 138.7,723.2 153.3,708.7 167.7,723.2 167.7,659.5 									"/>
								</defs>
								<clipPath id="SVGID_39_">
									<use xlink:href="#SVGID_38_"  overflow="visible"/>
								</clipPath>
								<rect x="156.1" y="653.6" clip-path="url(#SVGID_39_)" fill="#7DDFEF" width="5.8" height="69.5"/>
							</g>
						</g>
					</g>
				</g>
				<g>
					<circle fill="#E0E0E0" cx="153.1" cy="669.8" r="26.5"/>
					<path fill="#AAA79F" d="M153.3,642.4c-15,0-27.3,12.3-27.3,27.3s12.3,27.3,27.3,27.3s27.3-12.3,27.3-27.3
						C180.5,654.7,168.3,642.4,153.3,642.4z M153.3,695.4c-14.2,0-25.8-11.5-25.8-25.8s11.5-25.8,25.8-25.8
						c14.2,0,25.8,11.5,25.8,25.8C179,683.9,167.4,695.4,153.3,695.4z"/>
					<path fill="#CCCBCB" d="M153.3,648.5c-11.7,0-21.2,9.5-21.2,21.2c0,5.9,2.4,11.2,6.2,15l30-30
						C164.4,650.9,159.1,648.5,153.3,648.5z"/>
					<path fill="#A09A8E" d="M168.2,654.7l-30,30c3.8,3.8,9.1,6.2,15,6.2c11.7,0,21.2-9.5,21.2-21.2
						C174.4,663.8,172.1,658.5,168.2,654.7z"/>
				</g>
			</g>
			<g>
				<g>
					<g>
						<g>
							<g>
								<defs>
									<polygon id="SVGID_40_" points="246.6,659.5 246.6,723.2 261.2,708.7 275.7,723.2 275.7,659.5 									"/>
								</defs>
								<clipPath id="SVGID_41_">
									<use xlink:href="#SVGID_40_"  overflow="visible"/>
								</clipPath>
								<rect x="240.9" y="653.6" clip-path="url(#SVGID_41_)" fill="#12C2EC" width="11.6" height="69.5"/>
							</g>
						</g>
					</g>
					<g>
						<g>
							<g>
								<defs>
									<polygon id="SVGID_42_" points="246.6,659.5 246.6,723.2 261.2,708.7 275.7,723.2 275.7,659.5 									"/>
								</defs>
								<clipPath id="SVGID_43_">
									<use xlink:href="#SVGID_42_"  overflow="visible"/>
								</clipPath>
								<rect x="269.9" y="653.6" clip-path="url(#SVGID_43_)" fill="#12C2EC" width="11.6" height="69.5"/>
							</g>
						</g>
					</g>
					<g>
						<g>
							<g>
								<defs>
									<polygon id="SVGID_44_" points="246.6,659.5 246.6,723.2 261.2,708.7 275.7,723.2 275.7,659.5 									"/>
								</defs>
								<clipPath id="SVGID_45_">
									<use xlink:href="#SVGID_44_"  overflow="visible"/>
								</clipPath>
								<rect x="258.2" y="653.6" clip-path="url(#SVGID_45_)" fill="#12C2EC" width="5.8" height="69.5"/>
							</g>
						</g>
					</g>
					<g>
						<g>
							<g>
								<defs>
									<polygon id="SVGID_46_" points="246.6,659.5 246.6,723.2 261.2,708.7 275.7,723.2 275.7,659.5 									"/>
								</defs>
								<clipPath id="SVGID_47_">
									<use xlink:href="#SVGID_46_"  overflow="visible"/>
								</clipPath>
								<rect x="252.4" y="653.6" clip-path="url(#SVGID_47_)" fill="#7DDFEF" width="5.8" height="69.5"/>
							</g>
						</g>
					</g>
					<g>
						<g>
							<g>
								<defs>
									<polygon id="SVGID_48_" points="246.6,659.5 246.6,723.2 261.2,708.7 275.7,723.2 275.7,659.5 									"/>
								</defs>
								<clipPath id="SVGID_49_">
									<use xlink:href="#SVGID_48_"  overflow="visible"/>
								</clipPath>
								<rect x="264" y="653.6" clip-path="url(#SVGID_49_)" fill="#7DDFEF" width="5.8" height="69.5"/>
							</g>
						</g>
					</g>
				</g>
				<g>
					<circle fill="#E0E0E0" cx="261" cy="669.8" r="26.5"/>
					<path fill="#AAA79F" d="M261.2,642.4c-15,0-27.3,12.3-27.3,27.3s12.3,27.3,27.3,27.3s27.3-12.3,27.3-27.3
						C288.4,654.7,276.2,642.4,261.2,642.4z M261.2,695.4c-14.2,0-25.8-11.5-25.8-25.8s11.5-25.8,25.8-25.8
						c14.2,0,25.8,11.5,25.8,25.8S275.4,695.4,261.2,695.4z"/>
					<path fill="#CCCBCB" d="M261.2,648.5c-11.7,0-21.2,9.5-21.2,21.2c0,5.9,2.4,11.2,6.2,15l30-30
						C272.3,650.9,267,648.5,261.2,648.5z"/>
					<path fill="#A09A8E" d="M276.1,654.7l-30,30c3.8,3.8,9.1,6.2,15,6.2c11.7,0,21.2-9.5,21.2-21.2
						C282.3,663.8,280,658.5,276.1,654.7z"/>
				</g>
			</g>
			<g>
				<g>
					<g>
						<g>
							<g>
								<defs>
									<polygon id="SVGID_50_" points="354.6,659.5 354.6,723.2 369.1,708.7 383.6,723.2 383.6,659.5 									"/>
								</defs>
								<clipPath id="SVGID_51_">
									<use xlink:href="#SVGID_50_"  overflow="visible"/>
								</clipPath>
								<rect x="348.9" y="653.6" clip-path="url(#SVGID_51_)" fill="#12C2EC" width="11.6" height="69.5"/>
							</g>
						</g>
					</g>
					<g>
						<g>
							<g>
								<defs>
									<polygon id="SVGID_52_" points="354.6,659.5 354.6,723.2 369.1,708.7 383.6,723.2 383.6,659.5 									"/>
								</defs>
								<clipPath id="SVGID_53_">
									<use xlink:href="#SVGID_52_"  overflow="visible"/>
								</clipPath>
								<rect x="377.8" y="653.6" clip-path="url(#SVGID_53_)" fill="#12C2EC" width="11.6" height="69.5"/>
							</g>
						</g>
					</g>
					<g>
						<g>
							<g>
								<defs>
									<polygon id="SVGID_54_" points="354.6,659.5 354.6,723.2 369.1,708.7 383.6,723.2 383.6,659.5 									"/>
								</defs>
								<clipPath id="SVGID_55_">
									<use xlink:href="#SVGID_54_"  overflow="visible"/>
								</clipPath>
								<rect x="366.2" y="653.6" clip-path="url(#SVGID_55_)" fill="#12C2EC" width="5.8" height="69.5"/>
							</g>
						</g>
					</g>
					<g>
						<g>
							<g>
								<defs>
									<polygon id="SVGID_56_" points="354.6,659.5 354.6,723.2 369.1,708.7 383.6,723.2 383.6,659.5 									"/>
								</defs>
								<clipPath id="SVGID_57_">
									<use xlink:href="#SVGID_56_"  overflow="visible"/>
								</clipPath>
								<rect x="360.4" y="653.6" clip-path="url(#SVGID_57_)" fill="#7DDFEF" width="5.8" height="69.5"/>
							</g>
						</g>
					</g>
					<g>
						<g>
							<g>
								<defs>
									<polygon id="SVGID_58_" points="354.6,659.5 354.6,723.2 369.1,708.7 383.6,723.2 383.6,659.5 									"/>
								</defs>
								<clipPath id="SVGID_59_">
									<use xlink:href="#SVGID_58_"  overflow="visible"/>
								</clipPath>
								<rect x="372" y="653.6" clip-path="url(#SVGID_59_)" fill="#7DDFEF" width="5.8" height="69.5"/>
							</g>
						</g>
					</g>
				</g>
				<g>
					<circle fill="#E0E0E0" cx="368.9" cy="669.8" r="26.5"/>
					<path fill="#AAA79F" d="M369.1,642.4c-15,0-27.3,12.3-27.3,27.3s12.3,27.3,27.3,27.3s27.3-12.3,27.3-27.3
						S384.2,642.4,369.1,642.4z M369.1,695.4c-14.2,0-25.8-11.5-25.8-25.8s11.5-25.8,25.8-25.8c14.2,0,25.8,11.5,25.8,25.8
						S383.3,695.4,369.1,695.4z"/>
					<path fill="#CCCBCB" d="M369.1,648.5c-11.7,0-21.2,9.5-21.2,21.2c0,5.9,2.4,11.2,6.2,15l30-30
						C380.2,650.9,374.9,648.5,369.1,648.5z"/>
					<path fill="#A09A8E" d="M384.1,654.7l-30,30c3.8,3.8,9.1,6.2,15,6.2c11.7,0,21.2-9.5,21.2-21.2
						C390.3,663.8,387.9,658.5,384.1,654.7z"/>
				</g>
			</g>
			<g>
				<g>
					<g>
						<g>
							<g>
								<defs>
									<polygon id="SVGID_60_" points="462.5,659.5 462.5,723.2 477.1,708.7 491.5,723.2 491.5,659.5 									"/>
								</defs>
								<clipPath id="SVGID_61_">
									<use xlink:href="#SVGID_60_"  overflow="visible"/>
								</clipPath>
								<rect x="456.8" y="653.6" clip-path="url(#SVGID_61_)" fill="#12C2EC" width="11.6" height="69.5"/>
							</g>
						</g>
					</g>
					<g>
						<g>
							<g>
								<defs>
									<polygon id="SVGID_62_" points="462.5,659.5 462.5,723.2 477.1,708.7 491.5,723.2 491.5,659.5 									"/>
								</defs>
								<clipPath id="SVGID_63_">
									<use xlink:href="#SVGID_62_"  overflow="visible"/>
								</clipPath>
								<rect x="485.7" y="653.6" clip-path="url(#SVGID_63_)" fill="#12C2EC" width="11.6" height="69.5"/>
							</g>
						</g>
					</g>
					<g>
						<g>
							<g>
								<defs>
									<polygon id="SVGID_64_" points="462.5,659.5 462.5,723.2 477.1,708.7 491.5,723.2 491.5,659.5 									"/>
								</defs>
								<clipPath id="SVGID_65_">
									<use xlink:href="#SVGID_64_"  overflow="visible"/>
								</clipPath>
								<rect x="474.1" y="653.6" clip-path="url(#SVGID_65_)" fill="#12C2EC" width="5.8" height="69.5"/>
							</g>
						</g>
					</g>
					<g>
						<g>
							<g>
								<defs>
									<polygon id="SVGID_66_" points="462.5,659.5 462.5,723.2 477.1,708.7 491.5,723.2 491.5,659.5 									"/>
								</defs>
								<clipPath id="SVGID_67_">
									<use xlink:href="#SVGID_66_"  overflow="visible"/>
								</clipPath>
								<rect x="468.3" y="653.6" clip-path="url(#SVGID_67_)" fill="#7DDFEF" width="5.8" height="69.5"/>
							</g>
						</g>
					</g>
					<g>
						<g>
							<g>
								<defs>
									<polygon id="SVGID_68_" points="462.5,659.5 462.5,723.2 477.1,708.7 491.5,723.2 491.5,659.5 									"/>
								</defs>
								<clipPath id="SVGID_69_">
									<use xlink:href="#SVGID_68_"  overflow="visible"/>
								</clipPath>
								<rect x="479.9" y="653.6" clip-path="url(#SVGID_69_)" fill="#7DDFEF" width="5.8" height="69.5"/>
							</g>
						</g>
					</g>
				</g>
				<g>
					<circle fill="#E0E0E0" cx="476.9" cy="669.8" r="26.5"/>
					<path fill="#AAA79F" d="M477.1,642.4c-15,0-27.3,12.3-27.3,27.3s12.3,27.3,27.3,27.3s27.3-12.3,27.3-27.3
						C504.3,654.7,492.1,642.4,477.1,642.4z M477.1,695.4c-14.2,0-25.8-11.5-25.8-25.8s11.5-25.8,25.8-25.8
						c14.2,0,25.8,11.5,25.8,25.8C502.8,683.9,491.2,695.4,477.1,695.4z"/>
					<path fill="#CCCBCB" d="M477.1,648.5c-11.7,0-21.2,9.5-21.2,21.2c0,5.9,2.4,11.2,6.2,15l30-30
						C488.2,650.9,482.9,648.5,477.1,648.5z"/>
					<path fill="#A09A8E" d="M492,654.7l-30,30c3.8,3.8,9.1,6.2,15,6.2c11.7,0,21.2-9.5,21.2-21.2
						C498.2,663.8,495.8,658.5,492,654.7z"/>
				</g>
			</g>
		</g>
		<path fill="none" stroke="#12C2EB" stroke-miterlimit="10" d="M1166,985c0,3.3-2.7,6-6,6H625.8c-3.3,0-6-2.7-6-6V550.1
			c0-3.3,2.7-6,6-6H1160c3.3,0,6,2.7,6,6V985z"/>
		<path fill="#12C2EB" d="M1200,1031v144.7c0,12.3-10,22.3-22.3,22.3H22.2C10,1198,0,1188.1,0,1175.8V1031H1200z"/>
	</g>
</g>
<g>
	<path fill="#12C2EB" d="M1196,166.2V1033H4V166.2H1196 M1200,162.2H0V1037h1200V162.2L1200,162.2z"/>
</g>
</svg>
