<svg xmlns="http://www.w3.org/2000/svg" viewBox="0 0 373.5 134.6" enable-background="new 0 0 373.5 134.6"><linearGradient id="a" gradientUnits="userSpaceOnUse" x1="131.717" y1="6955.833" x2="131.717" y2="7091.733" gradientTransform="matrix(.3 0 0 -.3 .7 2213.8)"><stop offset="0" stop-color="#A53323"/><stop offset=".332" stop-color="#A23222"/><stop offset=".601" stop-color="#982D1D"/><stop offset=".846" stop-color="#872616"/><stop offset="1" stop-color="#78200F"/></linearGradient><path fill="url(#a)" d="M7 86.3h66.5v40.8h-66.5z"/><path fill="#531711" d="M29.3 125.4c0 3.2-2.6 5.7-5.7 5.7s-5.7-2.6-5.7-5.7v-8.9c0-3.2 2.5-5.7 5.7-5.7 3.1 0 5.7 2.5 5.7 5.7v8.9zM46.4 125.4c0 3.2-2.5 5.7-5.7 5.7s-5.7-2.6-5.7-5.7v-8.9c0-3.2 2.5-5.7 5.7-5.7s5.7 2.5 5.7 5.7v8.9zM63.5 125.4c0 3.2-2.5 5.7-5.7 5.7s-5.7-2.6-5.7-5.7v-8.9c0-3.2 2.6-5.7 5.7-5.7s5.7 2.5 5.7 5.7v8.9z"/><path fill="#fff" d="M18.2 94.7h9v9h-9zM35.7 94.7h9v9h-9zM53.2 94.7h9v9h-9z"/><linearGradient id="b" gradientUnits="userSpaceOnUse" x1="1108.017" y1="6955.833" x2="1108.017" y2="7091.733" gradientTransform="matrix(.3 0 0 -.3 .7 2213.8)"><stop offset="0" stop-color="#A53323"/><stop offset=".332" stop-color="#A23222"/><stop offset=".601" stop-color="#982D1D"/><stop offset=".846" stop-color="#872616"/><stop offset="1" stop-color="#78200F"/></linearGradient><path fill="url(#b)" d="M299.9 86.3h66.5v40.8h-66.5z"/><path fill="#531711" d="M322.1 125.4c0 3.2-2.6 5.7-5.7 5.7s-5.7-2.6-5.7-5.7v-8.9c0-3.2 2.6-5.7 5.7-5.7s5.7 2.5 5.7 5.7v8.9zM339.2 125.4c0 3.2-2.5 5.7-5.7 5.7-3.1 0-5.7-2.6-5.7-5.7v-8.9c0-3.2 2.5-5.7 5.7-5.7s5.7 2.5 5.7 5.7v8.9zM356.4 125.4c0 3.2-2.6 5.7-5.7 5.7s-5.7-2.6-5.7-5.7v-8.9c0-3.2 2.5-5.7 5.7-5.7 3.1 0 5.7 2.5 5.7 5.7v8.9z"/><path fill="#fff" d="M311.1 94.7h9v9h-9zM328.6 94.7h9v9h-9zM346.1 94.7h9v9h-9z"/><path fill="#A78671" d="M275 77.7l8.7 7.5h-10.7z"/><path fill="#fff" d="M272.6 53.7h5.9v32.2h-5.9z"/><path fill="#A78671" d="M101.6 77.7l-8.8 7.5h10.7z"/><linearGradient id="c" gradientUnits="userSpaceOnUse" x1="-2043.605" y1="7192.233" x2="-2043.605" y2="7090.633" gradientTransform="matrix(-.3 0 0 -.3 -369.796 2213.8)"><stop offset="0" stop-color="#A53323"/><stop offset=".332" stop-color="#A23222"/><stop offset=".601" stop-color="#982D1D"/><stop offset=".846" stop-color="#872616"/><stop offset="1" stop-color="#78200F"/></linearGradient><path fill="url(#c)" d="M213.6 56.1h59.4v30.5h-59.4z"/><path fill="#531711" d="M258.6 85.1c0 2.4 2 4.4 4.4 4.4 2.4 0 4.4-2 4.4-4.4v-6.8c0-2.4-2-4.4-4.4-4.4-2.4 0-4.4 2-4.4 4.4v6.8zM245.4 85.1c0 2.4 2 4.4 4.4 4.4 2.4 0 4.4-2 4.4-4.4v-6.8c0-2.4-2-4.4-4.4-4.4-2.4 0-4.4 2-4.4 4.4v6.8zM232.2 85.1c0 2.4 2 4.4 4.4 4.4 2.4 0 4.4-2 4.4-4.4v-6.8c0-2.4-2-4.4-4.4-4.4-2.4 0-4.4 2-4.4 4.4v6.8zM218.9 85.1c0 2.4 2 4.4 4.4 4.4 2.4 0 4.4-2 4.4-4.4v-6.8c0-2.4-2-4.4-4.4-4.4-2.4 0-4.4 2-4.4 4.4v6.8z"/><path fill="#A78671" d="M286.8 56.1l-19.8-13.5h-53.8v13.5z"/><path fill="#fff" d="M260.2 61.3h6.9v6.9h-6.9zM246.7 61.3h6.9v6.9h-6.9zM233.1 61.3h6.9v6.9h-6.9zM219.6 61.3h6.9v6.9h-6.9zM216.2 26.9h-10.8v59.1h8.2v-57.7h2.6zM99.6 53.7h5.9v32.2h-5.9z"/><linearGradient id="d" gradientUnits="userSpaceOnUse" x1="448.217" y1="7192.233" x2="448.217" y2="7090.633" gradientTransform="matrix(.3 0 0 -.3 .7 2213.8)"><stop offset="0" stop-color="#A53323"/><stop offset=".332" stop-color="#A23222"/><stop offset=".601" stop-color="#982D1D"/><stop offset=".846" stop-color="#872616"/><stop offset="1" stop-color="#78200F"/></linearGradient><path fill="url(#d)" d="M105.5 56.1h59.4v30.5h-59.4z"/><path fill="#531711" d="M119.8 85.1c0 2.4-2 4.4-4.4 4.4-2.4 0-4.4-2-4.4-4.4v-6.8c0-2.4 2-4.4 4.4-4.4 2.4 0 4.4 2 4.4 4.4v6.8zM133.1 85.1c0 2.4-2 4.4-4.4 4.4-2.4 0-4.4-2-4.4-4.4v-6.8c0-2.4 2-4.4 4.4-4.4 2.4 0 4.4 2 4.4 4.4v6.8zM146.3 85.1c0 2.4-2 4.4-4.4 4.4-2.4 0-4.4-2-4.4-4.4v-6.8c0-2.4 2-4.4 4.4-4.4 2.4 0 4.4 2 4.4 4.4v6.8zM159.5 85.1c0 2.4-2 4.4-4.4 4.4-2.4 0-4.4-2-4.4-4.4v-6.8c0-2.4 2-4.4 4.4-4.4 2.4 0 4.4 2 4.4 4.4v6.8z"/><path fill="#A78671" d="M91.6 56.1l19.9-13.5h53.7v13.5z"/><path fill="#fff" d="M111.3 61.3h6.9v6.9h-6.9zM124.9 61.3h6.9v6.9h-6.9zM138.4 61.3h6.9v6.9h-6.9zM151.9 61.3h6.9v6.9h-6.9zM162.2 27.1h10.7v58.9h-8.2v-57.5h-2.5z"/><linearGradient id="e" gradientUnits="userSpaceOnUse" x1="628.817" y1="7280.733" x2="628.817" y2="7080.233" gradientTransform="matrix(.3 0 0 -.3 .7 2213.8)"><stop offset="0" stop-color="#A53323"/><stop offset=".332" stop-color="#A23222"/><stop offset=".601" stop-color="#982D1D"/><stop offset=".846" stop-color="#872616"/><stop offset="1" stop-color="#78200F"/></linearGradient><path fill="url(#e)" d="M172.7 29.6h33.3v60.2h-33.3z"/><path fill="#A53323" d="M159.1 29.8h60.5l-29.9-29.8z"/><path fill="#531711" d="M186.2 85.1c0 2.4-2 4.4-4.4 4.4-2.4 0-4.4-2-4.4-4.4v-6.8c0-2.4 2-4.4 4.4-4.4 2.4 0 4.4 2 4.4 4.4v6.8zM200 85.1c0 2.4-2 4.4-4.4 4.4-2.4 0-4.4-2-4.4-4.4v-6.8c0-2.4 2-4.4 4.4-4.4 2.4 0 4.4 2 4.4 4.4v6.8z"/><path fill="#fff" d="M178.5 31.9h6.9v6.9h-6.9zM192.3 31.9h6.9v6.9h-6.9zM178.5 46.2h6.9v6.9h-6.9zM192.3 46.2h6.9v6.9h-6.9zM178.5 60.5h6.9v6.9h-6.9zM192.3 60.5h6.9v6.9h-6.9z"/><path fill="#531711" d="M194.3 18.5c0 2.8-2.3 5.1-5.1 5.1s-5.1-2.3-5.1-5.1 2.3-5.1 5.1-5.1 5.1 2.2 5.1 5.1z"/><path fill="#A78671" d="M184.6 90.8l-6 38.4h19.3l-5-39.1zM92.8 85.2h190.9v6.5h-190.9zM5.9 127.1h361.5v7.5h-361.5zM0 91.7l11.2-18.3h59.1l10.3 18.3zM292.9 91.7l11.2-18.3h59l10.4 18.3z"/></svg>