<svg xmlns="http://www.w3.org/2000/svg" xmlns:xlink="http://www.w3.org/1999/xlink" viewBox="0 0 1200 1198" enable-background="new 0 0 1200 1198"><g><path fill="#fff" d="M0 20h1200v1109h-1200z"/><g opacity=".6"><defs><path id="a" d="M0 100h1200v613.3h-1200z"/></defs><clipPath id="b"><use xlink:href="#a" overflow="visible"/></clipPath><linearGradient id="c" gradientUnits="userSpaceOnUse" x1="-3638" y1="18958" x2="-3638" y2="20231" gradientTransform="matrix(-.3 0 0 -.3 -489.4 6230)"><stop offset="0" stop-color="#F4FAFD"/><stop offset=".377" stop-color="#EDF7F9"/><stop offset=".911" stop-color="#DBF0EE"/><stop offset="1" stop-color="#D7EEEC"/></linearGradient><path clip-path="url(#b)" fill="url(#c)" d="M-9 160.7h1222v381.9h-1222z"/><defs><path id="d" d="M0 100h1200v613.3h-1200z"/></defs><clipPath id="e"><use xlink:href="#d" overflow="visible"/></clipPath><path opacity=".2" clip-path="url(#e)" fill="#A4DCEA" enable-background="new" d="M511.9 320.4h-30.7c11.1-39.9 66.4-28.3 66.4-28.3 8.6-8.7 23-31.1 71.9-33.8 48.9-2.7 64.9 34.4 64.9 34.4 34.1-3.7 52.5 27.6 52.5 27.6l-225 .1z"/><defs><path id="f" d="M0 100h1200v613.3h-1200z"/></defs><clipPath id="g"><use xlink:href="#f" overflow="visible"/></clipPath><path clip-path="url(#g)" fill="#fff" d="M551.5 314.4h-28.6c10.3-37.3 61.8-26.4 61.8-26.4 8-8 21.5-28.9 67-31.6 45.6-2.5 60.5 32.1 60.5 32.1 31.8-3.5 49 25.8 49 25.8l-209.7.1z"/><defs><path id="h" d="M0 100h1200v613.3h-1200z"/></defs><clipPath id="i"><use xlink:href="#h" overflow="visible"/></clipPath><g clip-path="url(#i)"><linearGradient id="j" gradientUnits="userSpaceOnUse" x1="-3638" y1="18958" x2="-3638" y2="19276.762" gradientTransform="matrix(-.3 0 0 -.3 -489.4 6230)"><stop offset="0" stop-color="#fff"/><stop offset="1" stop-color="#C4DB79" stop-opacity=".5"/></linearGradient><path fill="url(#j)" d="M-9 542.6h1222v-49c-353.4-72-752.5-55.5-1222 14.5v34.5z"/></g><defs><path id="k" d="M0 100h1200v613.3h-1200z"/></defs><clipPath id="l"><use xlink:href="#k" overflow="visible"/></clipPath><g clip-path="url(#l)"><path opacity=".2" fill="#A4DCEA" enable-background="new" d="M865.7 277.6c3.8-13.6 22.7-9.7 22.7-9.7 3-3 7.9-10.6 24.6-11.6 16.7-.9 22.2 11.8 22.2 11.8 11.7-1.3 18 9.5 18 9.5h-87.5z"/><path fill="#fff" d="M873.7 275c3.8-13.6 22.7-9.7 22.7-9.7 3-3 7.9-10.6 24.6-11.6 16.7-.9 22.2 11.8 22.2 11.8 11.7-1.3 18 9.5 18 9.5h-87.5z"/></g><defs><path id="m" d="M0 100h1200v613.3h-1200z"/></defs><clipPath id="n"><use xlink:href="#m" overflow="visible"/></clipPath><g clip-path="url(#n)"><path opacity=".2" fill="#A4DCEA" enable-background="new" d="M929.8 380.6c7.6-27.6 45.8-19.6 45.8-19.6 5.9-5.9 15.9-21.5 49.7-23.3 33.8-1.8 44.8 23.7 44.8 23.7 23.6-2.5 36.4 19.1 36.4 19.1h-155.5l-21.2.1z"/><path fill="#fff" d="M945.7 375.1c7.6-27.6 45.8-19.6 45.8-19.6 5.9-5.9 15.9-21.5 49.7-23.3 33.8-1.9 44.8 23.7 44.8 23.7 23.6-2.5 36.4 19.1 36.4 19.1h-155.4l-21.3.1z"/></g></g><path fill="#12C2EB" d="M1177.5 0h-1155c-12.4 0-22.5 10.1-22.5 22.5v144.5h42.8l1157.2-.8v-143.7c0-12.4-10.1-22.5-22.5-22.5z"/><path opacity=".2" fill="#A4DCEA" enable-background="new" d="M114.1 407.4c3.8-13.6 22.7-9.7 22.7-9.7 3-3 7.9-10.6 24.6-11.6 16.7-.9 22.2 11.8 22.2 11.8 11.7-1.3 18 9.5 18 9.5h-87.5z"/><path fill="#fff" d="M122.1 404.6c3.8-13.6 22.7-9.7 22.7-9.7 3-3 7.9-10.6 24.6-11.6 16.7-.9 22.2 11.8 22.2 11.8 11.7-1.3 18 9.5 18 9.5h-87.5z"/><path fill="#2E3C49" d="M1028.6 513.7"/><path fill="#A4DCEA" d="M83.4 37.1c-22.8.3-39.9 9.5-39.9 9.5-1.3 13.6-.4 25 1.8 34.5h38.1v-44z"/><path fill="#077BA0" d="M123 81.1c3.9-18 .7-33.8.7-33.8-13.9-7.9-28-10.3-40.3-10.2v44h39.6zM45.3 81.1c8.2 34.9 34.4 44.4 38.1 45.6v-45.6h-38.1z"/><path fill="#A4DCEA" d="M83.4 81.1v45.6c.3.1.4.1.4.1 25.3-9.6 35.4-28.7 39.1-45.7h-39.5z"/><path fill="#fff" d="M83.9 128.7l-.6-.2c-.5-.1-48.1-14-41.7-82.1l.1-1 .8-.5c.7-.4 18.4-9.7 42-9.7 14.4 0 27.8 3.5 39.9 10.4l.7.4.2.8c.1.6 11.9 61.5-41 81.6l-.4.3zm-38.8-80.9c-5.3 60.4 33.6 75.5 38.6 77.1 46.2-18 39.4-69.5 38.3-76.5-11.4-6.3-24-9.5-37.4-9.5-19.9 0-35.7 7-39.5 8.9zM83.6 106.1c-7 0-13-2.7-16.4-7.4-2.2-3.1-3.4-7.2-3.4-12.2v-21.8h-5.7v-8.5h21.5v8.5h-5.7v21.8c0 2.7.5 4.9 1.5 6.5 1.5 2.4 4.5 3.8 8.3 3.8s6.8-1.4 8.3-3.9c1-1.6 1.5-3.9 1.5-6.4v-21.8h-5.7v-8.5h21.5v8.5h-5.7v21.8c0 4.6-1.2 8.9-3.5 12.1-3.5 4.8-9.4 7.5-16.5 7.5z"/><path fill="#004F6E" d="M107.3 57.9v5h-5.7v23.6c0 4.3-1.2 8.3-3.2 11.1-3.1 4.4-8.7 6.7-14.9 6.7-6.5 0-11.9-2.5-15-6.7-2.1-2.9-3-6.7-3-11.1v-23.6h-5.7v-5h18v5h-5.7v23.6c0 3 .6 5.6 1.7 7.4 1.9 3 5.4 4.7 9.8 4.7 4.3 0 7.9-1.7 9.8-4.8 1.1-1.9 1.7-4.4 1.7-7.4v-23.5h-5.7v-5h17.9m3.6-3.5h-25.1v12.2h5.800000000000001v19.9c0 2.2-.4 4.2-1.3 5.6-1.1 1.9-3.6 3-6.7 3s-5.6-1.1-6.8-3c-.8-1.2-1.2-3.2-1.2-5.5v-20h5.800000000000001v-12.2h-25.200000000000003v12.2h5.800000000000001v20.1c0 5.4 1.3 9.8 3.7 13.2 3.8 5.2 10.3 8.1 17.9 8.1s14.1-3 17.8-8.2c2.5-3.5 3.8-8.2 3.8-13.2v-20.1h5.7v-12.1z"/><g fill="#fff"><path d="M166.6 85.3h-7.1v3.3h5.2c.5 0 .9.3.9.9v2.7s-2.9 3.4-7.8 3.4c-5.5 0-9.9-4.3-9.9-10.6 0-6.1 4.4-10.4 9.8-10.4 4.5 0 7.5 2.6 7.5 2.6l2.2-2.8s-3.2-3.4-9.8-3.4c-7.8 0-13.8 6.2-13.8 14 0 8.5 6 14.2 13.3 14.2 5.5 0 8.5-3.3 8.5-3.3h.1v2.9h3.4v-11c-.1-1.8-.8-2.5-2.5-2.5zM177.8 94.7v-13c0-1.7-.7-2.5-2.5-2.5h-3.7v3.2h1.6c.5 0 .9.3.9.9v13c0 1.7.7 2.5 2.5 2.5h3.7v-3.2h-1.6c-.6 0-.9-.3-.9-.9zM200.3 79.2h-1.8c-1.7 0-2.4.4-3 2l-4.2 11.3c-.4 1.1-.7 2.6-.7 2.6h-.1s-.3-1.5-.7-2.6l-4.2-11.3c-.6-1.5-1.2-2-3-2h-1.9v3.2h.4c.6 0 1 .2 1.2.8l6 15.6h4.3l6-15.6c.2-.6.6-.8 1.3-.8h.4v-3.2zM217 82.5c-1.4-2.3-3.7-3.8-7.1-3.8-5.6 0-9.8 4-9.8 10.3 0 5.8 4.2 10.3 10.4 10.3 4.6 0 7.5-2.9 7.5-2.9l-1.6-2.7s-2.4 2.3-5.7 2.3c-3.5 0-6.5-2.4-6.7-6.5h13.4c-.4-1.4-.6-2.9-.6-4.5 0-.8.1-1.6.2-2.5zm-12.9 4.2c.6-3.2 2.9-5 5.8-5 2.4 0 4.5 1.7 4.6 5h-10.4zM241.1 85.3h-7.6v3.3h5.7c.5 0 .9.3.9.9v2.7s-2.9 3.4-7.8 3.4c-5.5 0-9.9-4.3-9.9-10.6 0-6.1 4.4-10.4 9.8-10.4 4.5 0 7.5 2.6 7.5 2.6l2.2-2.8s-3.2-3.4-9.8-3.4c-7.8 0-13.8 6.2-13.8 14 0 8.5 6 14.2 13.3 14.2 5.5 0 8.5-3.3 8.5-3.3h.1v2.9h3.4v-11c0-1.8-.8-2.5-2.5-2.5zM261.7 94.7v-8.3c0-4.3-1.7-7.7-8-7.7-1.9 0-6.8.5-6.8 3.7v1.9h3.5v-1.1c0-1.3 2.3-1.5 3.2-1.5 3.1 0 4.3 1.2 4.3 4.7v.2h-.8c-3.3 0-11.8.4-11.8 6.7 0 3.9 3.3 6 6.7 6 4.7 0 6.2-3.9 6.2-3.9h.1s-.1.5-.1 1.2c0 1.4.7 2.2 2.4 2.2h3.5v-3.2h-1.6c-.5 0-.8-.3-.8-.9zm-3.7-4.7c0 2.9-2.1 6.2-5.2 6.2-2.5 0-3.7-1.5-3.7-3.1 0-3.6 5.1-3.8 7.9-3.8h1v.7zM276.6 78.8c-4.6 0-6.3 3.2-6.3 3.2h-.1s.1-.7.1-1.6v-6.4c0-1.7-.7-2.5-2.5-2.5h-3.7v3.2h1.6c.5 0 .9.3.9.9v23.3h3.6v-1.4c0-.9-.1-1.5-.1-1.5h.1s1.8 3.3 6.2 3.3c5.1 0 8.9-4 8.9-10.3-.1-6.1-3.5-10.2-8.7-10.2zm-.9 17.3c-3.7 0-5.5-3.5-5.5-7 0-5 2.7-7 5.6-7 3.3 0 5.6 2.7 5.6 7 0 4.4-2.6 7-5.7 7z"/><circle cx="174.9" cy="73.7" r="2.8"/></g><path fill="#fff" d="M296.6 79h-2.8v-2.4h8.8v2.4h-2.8v11.5c0 1.5.3 2.7.9 3.6.9 1.5 2.7 2.3 4.8 2.3 2.1 0 3.9-.8 4.8-2.3.5-.9.9-2.1.9-3.6v-11.5h-2.8v-2.4h8.7v2.4h-2.8v11.6c0 2.1-.6 4-1.5 5.4-1.5 2.1-4.2 3.3-7.3 3.3-3.2 0-5.8-1.2-7.3-3.3-1-1.4-1.5-3.3-1.5-5.4v-11.6h-.1zM318.8 96.5h2.5v-10.6c0-.5-.3-.7-.7-.7h-2v-2.4h3.6c1.4 0 2 .6 2 1.8v.8c0 .5-.1.9-.1.9h.1c.3-.9 2.2-3.9 6.2-3.9 3.7 0 5.3 2.1 5.3 6.1v7.9h2.5v2.4h-5.6v-9.5c0-2.2-.4-4-3-4-3.2 0-5.3 2.9-5.3 6.1v5.1h2.5v2.4h-8.1v-2.4h.1zM340.6 96.5h2.5v-11.3h-2.7v-2.4h5.7v13.6h2.5v2.4h-8.1v-2.3h.1zm2.4-19.9h3.2v3.1h-3.2v-3.1zM349.7 82.9h7.2v2.4h-2.1l3.4 9.3c.3.7.3 1.5.3 1.5h.1s.1-.8.3-1.5l3.4-9.3h-2.1v-2.4h7.1v2.4h-2l-5.2 13.6h-3.4l-5.1-13.6h-2v-2.4h.1z" enable-background="new"/><g enable-background="new" fill="#fff"><path d="M376.9 82.5c4.5 0 6.9 3.3 6.9 7.5 0 .4-.1 1.2-.1 1.2h-11.7c.2 3.5 2.7 5.4 5.5 5.4l4.8-1.8 1.3 2.2s-2.4 2.2-6.2 2.2c-5 0-8.5-3.6-8.5-8.4 0-5 3.4-8.3 8-8.3zm3.7 6.7c-.1-2.8-1.8-4.3-3.8-4.3-2.3 0-4.2 1.6-4.7 4.3h8.5zM386.7 96.5h2.4v-10.6c0-.5-.3-.7-.7-.7h-2v-2.4h3.6c1.4 0 2.1.6 2.1 1.9v1c0 .6-.1 1.1-.1 1.1h.1c.7-2.3 2.6-4.2 5.1-4.2.4 0 .8.1.8.1v3s-.4-.1-.9-.1c-3.4 0-4.9 3.4-4.9 6.6v4.2h2.4v2.4h-7.8v-2.3h-.1zM399.7 93.7h2.7v1c0 1.4 1.9 2 3.7 2 1.8 0 3.2-.7 3.2-2.1 0-1.6-1.8-2.1-4-2.9-2.4-.9-5-2-5-4.9 0-3.2 3.1-4.4 5.9-4.4 2.2 0 5.5.9 5.5 3.2v1.9h-2.7v-1c0-1-1.3-1.6-2.8-1.6s-2.8.6-2.8 1.9c0 1.5 1.8 2.1 3.7 2.8 2.5.8 5.3 1.9 5.3 4.8 0 3-2.8 4.7-6.4 4.7-2.9 0-6.3-1.3-6.3-3.8v-1.6z"/></g><path fill="#fff" d="M415.2 96.5h2.5v-11.3h-2.7v-2.4h5.7v13.6h2.5v2.4h-8.1v-2.3h.1zm2.4-19.9h3.2v3.1h-3.2v-3.1z" enable-background="new"/><g enable-background="new" fill="#fff"><path d="M427.3 85.2h-2.7v-2.4h2.7v-4.4h3v4.4h3.8v2.4h-3.8v7.5c0 3.3 2.2 3.7 3.4 3.7h.7v2.6s-.4.1-1.1.1c-2 0-6.1-.6-6.1-6v-7.9h.1zM439.7 102.9c1.4 0 2.4-.9 2.9-2.2l.7-1.6-5.6-13.9h-2v-2.4h7.3v2.4h-2.1l3.6 9.5c.2.7.3 1.4.3 1.4h.1s.1-.7.4-1.4l3.5-9.5h-2.1v-2.4h7.1v2.4h-2l-6.3 16.1c-1.1 2.7-3.2 4.1-5.6 4.1-2.1 0-3.4-1-3.4-1l1-2.3c0 .1.9.8 2.2.8z"/></g><path fill="#fff" d="M1151.2 111.9c0 3.3-2.7 6-6 6h-268.5c-3.3 0-6-2.7-6-6v-41c0-3.3 2.7-6 6-6h268.5c3.3 0 6 2.7 6 6v41z"/><g opacity=".6" enable-background="new" fill="#12C2EB"><path d="M890.6 96.6l1.8-2.6c1.1 1.2 2.9 2.2 5.1 2.2 1.9 0 2.8-.9 2.8-1.8 0-2.8-9.2-.9-9.2-6.9 0-2.7 2.3-4.9 6.1-4.9 2.5 0 4.7.8 6.2 2.2l-1.9 2.5c-1.3-1.2-3-1.8-4.7-1.8-1.5 0-2.3.6-2.3 1.6 0 2.5 9.2.8 9.2 6.8 0 2.9-2.1 5.1-6.4 5.1-3 .2-5.2-.9-6.7-2.4zM905.3 93.1c0-3.4 2.5-6.1 6-6.1s5.8 2.6 5.8 6.4v.6h-8.6c.2 1.5 1.4 2.7 3.3 2.7 1 0 2.4-.4 3.1-1.2l1.3 2c-1.2 1.1-3 1.6-4.8 1.6-3.4.1-6.1-2.3-6.1-6zm6-3.7c-1.9 0-2.7 1.4-2.9 2.6h5.7c0-1.1-.8-2.6-2.8-2.6zM926.3 98.9v-1.2c-.8.9-2.2 1.5-3.7 1.5-1.8 0-4-1.2-4-3.8 0-2.7 2.2-3.7 4-3.7 1.5 0 2.9.5 3.7 1.4v-1.6c0-1.2-1-1.9-2.5-1.9-1.2 0-2.4.5-3.4 1.4l-1.2-2c1.4-1.2 3.2-1.8 5.1-1.8 2.6 0 5.1 1.1 5.1 4.4v7.5h-3.1v-.2zm0-2.8v-1.4c-.5-.7-1.5-1-2.4-1-1.2 0-2.2.6-2.2 1.8 0 1.1 1 1.7 2.2 1.7.9-.1 1.9-.4 2.4-1.1zM932.3 98.9v-11.6h3v1.6c.8-1 2.3-1.9 3.7-1.9v3c-.2 0-.5-.1-.8-.1-1 0-2.4.6-2.9 1.3v7.7h-3zM940.2 93.1c0-3.6 2.6-6.1 6.1-6.1 2.4 0 3.8 1 4.6 2.1l-2 1.9c-.6-.8-1.4-1.2-2.4-1.2-1.8 0-3.1 1.3-3.1 3.4 0 2 1.3 3.4 3.1 3.4 1.1 0 1.9-.5 2.4-1.2l2 1.8c-.8 1.1-2.2 2.1-4.6 2.1-3.5-.1-6.1-2.7-6.1-6.2zM960.8 98.9v-7.1c0-1.6-.8-2.1-2.2-2.1-1.2 0-2.1.7-2.6 1.4v7.8h-3v-16h3v5.9c.7-.9 2.2-1.8 4.1-1.8 2.5 0 3.8 1.4 3.8 3.6v8.2l-3.1.1z"/></g><path stroke="#fff" stroke-miterlimit="10" d="M458 174.5M293 174.5M458 128.5" fill="none"/><path stroke="#E8E8E8" stroke-miterlimit="10" d="M458 173.5" fill="none"/><path stroke="#D4D4D4" stroke-miterlimit="10" d="M458 21.5M293 21.5" fill="none"/><path stroke="#fff" stroke-miterlimit="10" d="M458 127.5" fill="none"/><path stroke="#E8E8E8" stroke-miterlimit="10" d="M458 127.5" fill="none"/><path stroke="#fff" stroke-miterlimit="10" d="M458 21.5M293 21.5" fill="none"/><path stroke="#9DB4C2" stroke-miterlimit="10" d="M457 82.5M292 82.5" fill="none"/><path stroke="#CFDFE8" stroke-miterlimit="10" d="M457 83.5M292 83.5" fill="none"/><path stroke="#9DB4C2" stroke-miterlimit="10" d="M457 125.5M292 125.5" fill="none"/><path stroke="#CFDFE8" stroke-miterlimit="10" d="M457 126.5M292 126.5" fill="none"/><path stroke="#9DB4C2" stroke-miterlimit="10" d="M457 171.5M292 171.5" fill="none"/><path stroke="#CFDFE8" stroke-miterlimit="10" d="M457 172.5M292 172.5" fill="none"/><path stroke="#9DB4C2" stroke-miterlimit="10" d="M426 208.5M261 208.5" fill="none"/><path stroke="#CFDFE8" stroke-miterlimit="10" d="M426 209.5M261 209.5" fill="none"/><path stroke="#9DB4C2" stroke-miterlimit="10" d="M426 253.5M704 233.5" fill="none"/><path stroke="#CFDFE8" stroke-miterlimit="10" d="M426 254.5M704 234.5" fill="none"/><path stroke="#9DB4C2" stroke-miterlimit="10" d="M457 20.5M292 20.5" fill="none"/><path stroke="#CFDFE8" stroke-miterlimit="10" d="M457 21.5M292 21.5" fill="none"/><path stroke="#ADADAE" stroke-miterlimit="10" d="M457 21.5M292 21.5M457 80.5M292 80.5" fill="none"/><path fill="#fff" d="M686.1 93.4l-4.6-2 1.5-2.9c.1-.3 0-.4-.2-.2l-2.9 1.5-2-4.6c-.1-.3-.3-.3-.4 0l-2 4.6-2.9-1.5c-.3-.1-.4 0-.2.2l1.5 2.9-4.6 2c-.3.1-.3.3 0 .4l4.6 2-1.5 2.9c-.1.3 0 .4.2.2l2.9-1.5 2 4.6c.1.3.3.3.4 0l2-4.6 2.9 1.5c.3.1.4 0 .2-.2l-1.5-2.9 4.6-2c.2 0 .2-.2 0-.4zm-8.5 2.2c-1.1 0-1.9-.9-1.9-1.9 0-1.1.9-1.9 1.9-1.9 1.1 0 1.9.9 1.9 1.9.1 1-.8 1.9-1.9 1.9z"/><g enable-background="new" fill="#fff"><path d="M692.6 93.1c0-5.1 3.8-8.3 8.5-8.3 3.3 0 5.4 1.7 6.6 3.6l-2.8 1.5c-.7-1.1-2.1-2.1-3.8-2.1-2.9 0-5 2.2-5 5.3 0 3 2.1 5.3 5 5.3 1.4 0 2.8-.6 3.4-1.2v-1.9h-4.2v-3h7.6v6.1c-1.6 1.8-3.9 3-6.8 3-4.7 0-8.5-3.3-8.5-8.3zM709.8 95.2c0-3.4 2.5-6.1 6-6.1s5.8 2.6 5.8 6.4v.7h-8.6c.2 1.5 1.4 2.7 3.3 2.7 1 0 2.4-.4 3.1-1.2l1.3 2c-1.2 1.1-3 1.6-4.8 1.6-3.4 0-6.1-2.3-6.1-6.1zm6-3.6c-1.9 0-2.7 1.4-2.9 2.6h5.7c0-1.1-.8-2.6-2.8-2.6zM724.4 98.2v-6h-1.9v-2.7h1.9v-3.2h3.1v3.2h2.4v2.7h-2.4v5.2c0 .7.4 1.3 1.1 1.3.5 0 .9-.2 1.1-.3l.6 2.3c-.5.4-1.3.7-2.5.7-2.2-.1-3.4-1.2-3.4-3.2zM738.1 101.1v-16.1h3.4v16l-3.4.1zM752.5 101.1v-7c0-1.6-.8-2.2-2.1-2.2-1.2 0-2.1.7-2.6 1.4v7.8h-3v-11.6h3v1.5c.7-.9 2.2-1.8 4.1-1.8 2.5 0 3.8 1.4 3.8 3.7v8.2h-3.2zM761.5 101.1l-4.7-11.6h3.3l3 8.1 3-8.1h3.3l-4.7 11.6h-3.2zM770.1 95.2c0-3.3 2.3-6.1 6.1-6.1s6.1 2.8 6.1 6.1-2.3 6.1-6.1 6.1-6.1-2.7-6.1-6.1zm9.1 0c0-1.8-1.1-3.4-3-3.4s-3 1.6-3 3.4 1.1 3.4 3 3.4 3-1.5 3-3.4zM784.6 101.1v-16.1h3v16l-3 .1zM793.7 101.1l-4.7-11.6h3.3l3 8.1 3-8.1h3.3l-4.7 11.6h-3.2zM802.3 95.2c0-3.4 2.5-6.1 6-6.1s5.8 2.6 5.8 6.4v.7h-8.6c.2 1.5 1.4 2.7 3.3 2.7 1 0 2.4-.4 3.1-1.2l1.3 2c-1.2 1.1-3 1.6-4.8 1.6-3.5 0-6.1-2.3-6.1-6.1zm6-3.6c-1.9 0-2.7 1.4-2.9 2.6h5.7c0-1.1-.8-2.6-2.8-2.6zM824.3 101.1v-1.5c-.9 1.2-2.2 1.8-3.6 1.8-2.9 0-5.1-2.2-5.1-6.1 0-3.8 2.2-6.1 5.1-6.1 1.4 0 2.7.6 3.6 1.8v-6h3.1v16l-3.1.1zm0-3.8v-4.1c-.5-.8-1.6-1.3-2.6-1.3-1.7 0-2.9 1.4-2.9 3.4s1.2 3.4 2.9 3.4c.9-.1 2-.6 2.6-1.4z"/></g><g enable-background="new" fill="#fff"><path d="M589.3 101.1v-6.7h-7.6v6.7h-3.4v-16.1h3.4v6.3h7.6v-6.3h3.4v16l-3.4.1zM595.1 95.2c0-3.3 2.3-6.1 6.1-6.1s6.1 2.8 6.1 6.1-2.3 6.1-6.1 6.1-6.1-2.7-6.1-6.1zm9.1 0c0-1.8-1.1-3.4-3-3.4s-3 1.6-3 3.4 1.1 3.4 3 3.4 3-1.5 3-3.4zM624 101.1v-7.3c0-1.1-.5-1.8-1.7-1.8-1.1 0-2 .7-2.4 1.3v7.8h-3.1v-7.3c0-1.1-.5-1.8-1.7-1.8-1.1 0-1.9.7-2.4 1.4v7.8h-3v-11.7h3v1.5c.5-.7 2-1.8 3.8-1.8 1.7 0 2.8.8 3.2 2.1.7-1.1 2.2-2.1 4-2.1 2.1 0 3.4 1.1 3.4 3.5v8.4h-3.1zM629.3 95.2c0-3.4 2.5-6.1 6-6.1s5.8 2.6 5.8 6.4v.7h-8.6c.2 1.5 1.4 2.7 3.3 2.7 1 0 2.4-.4 3.1-1.2l1.3 2c-1.2 1.1-3 1.6-4.8 1.6-3.5 0-6.1-2.3-6.1-6.1zm6-3.6c-1.9 0-2.7 1.4-2.9 2.6h5.7c0-1.1-.8-2.6-2.8-2.6z"/></g><path fill="#fff" d="M559 100.1h-3.4c-.5 0-.9-.4-.9-1v-5.7h-1.4c-.5 0-.7-.3-.3-.7l7.7-7.6c.4-.4 1-.4 1.4 0l7.7 7.6c.4.4.2.7-.3.7h-1.4v5.7c0 .5-.4 1-.9 1h-3.4c-.3 0-.5-.2-.5-.5v-3.8c0-.3-.2-.5-.5-.5h-2.8c-.3 0-.5.2-.5.5v3.8c0 .2-.2.5-.5.5z"/><g opacity=".6" stroke="#12C2EC" stroke-miterlimit="10"><path stroke-width="1.601" fill="none" d="M1129.5 90.5l-9.9 9.9"/><circle fill="#fff" stroke-width="2.402" cx="1129.5" cy="90.5" r="5.9"/><path stroke-width="3.203" fill="none" d="M1123 97l-5.3 5.3"/></g><path fill="#12C2EC" d="M430.4 400.6c4.8 0 10.5 2 10.5 5.4v3.4h-3.6v-2c0-2.3-3.6-3.4-6.8-3.4-6.4 0-10.5 4.4-10.5 10.7 0 6.3 4.1 11 10.6 11 2.5 0 7.4-.7 7.4-3.4v-3.6h-5.4v-3h8.9v7.7c0 4.2-7.1 5.8-11.2 5.8-8.4 0-14.3-6.2-14.3-14.3s5.8-14.3 14.4-14.3zM445.8 425.7h3.1v-13.8h-3.3v-2.9h7v16.8h3.1v2.9h-10l.1-3zm3-24.6h4v3.9h-4v-3.9zM456.9 408.9h8.8v2.9h-2.5l4.2 11.5c.3.9.4 1.8.4 1.8h.1s.1-1 .4-1.8l4.2-11.5h-2.5v-2.9h8.8v2.9h-2.5l-6.4 16.8h-4.2l-6.3-16.8h-2.5v-2.9z" enable-background="new"/><g enable-background="new" fill="#12C2EC"><path d="M490.4 408.5c5.6 0 8.5 4.1 8.5 9.2 0 .5-.1 1.4-.1 1.4h-14.4c.2 4.4 3.3 6.7 6.8 6.7 3.4 0 5.9-2.2 5.9-2.2l1.6 2.8s-3 2.7-7.7 2.7c-6.2 0-10.4-4.5-10.4-10.3 0-6.3 4.2-10.3 9.8-10.3zm4.7 8.2c-.1-3.5-2.2-5.3-4.7-5.3-2.9 0-5.2 1.9-5.8 5.2l10.5.1zM516.9 400.7c4.8 0 10.5 2 10.5 5.4v3.4h-3.6v-2c0-2.3-3.6-3.4-6.8-3.4-6.4 0-10.5 4.4-10.5 10.7 0 6.3 4.1 11 10.6 11 2.5 0 7.4-.7 7.4-3.4v-3.6h-5.4v-3h8.9v7.7c0 4.2-7.1 5.8-11.2 5.8-8.4 0-14.3-6.2-14.3-14.3s5.8-14.3 14.4-14.3zM543.1 416.5h1.2v-.7c0-3.1-1.8-4.2-4.2-4.2-3.1 0-5.6 1.9-5.6 1.9l-1.5-2.7s2.9-2.3 7.5-2.3c5 0 7.7 2.6 7.7 7.6v8.8c0 .6.3.9.9.9h2v2.9h-3.9c-1.8 0-2.5-.9-2.4-2.1v-.3c0-.8.2-1.3.2-1.3h-.1s-1.7 4.2-6.5 4.2c-3.3 0-6.5-1.9-6.5-6-.3-6.2 8-6.7 11.2-6.7zm-4.1 9.7c3.3 0 5.4-3.4 5.4-6.4v-.8h-1c-1.8 0-8 .1-8 3.8.1 1.8 1.3 3.4 3.6 3.4zM555.3 404.1h-3.3v-2.9h7.1v9.1c0 .9-.1 1.6-.1 1.6h.1s1.8-3.4 6.3-3.4c5.3 0 8.7 4.2 8.7 10.3 0 6.3-3.8 10.3-9 10.3-4.6 0-6.2-3.6-6.2-3.6h-.1s.1.7.1 1.6v1.6h-3.6v-24.6zm9.2 21.7c3.1 0 5.6-2.5 5.6-7 0-4.3-2.3-7-5.6-7-2.9 0-5.7 2.1-5.7 7.1.1 3.5 1.9 6.9 5.7 6.9z"/></g><path fill="#12C2EC" d="M590.1 404.2h-3.5v-3h10.8v3h-3.5v14.2c0 1.8.3 3.3 1 4.5 1.1 1.8 3.3 2.8 5.9 2.8 2.6 0 4.8-1 5.9-2.9.7-1.1 1.1-2.6 1.1-4.4v-14.2h-3.5v-3h10.8v3h-3.4v14.2c0 2.6-.7 5-1.9 6.7-1.9 2.6-5.2 4-8.9 4-3.9 0-7.2-1.5-9-4-1.3-1.8-1.8-4-1.8-6.7v-14.2zM617.5 425.7h3.1v-13c0-.6-.3-.9-.9-.9h-2.4v-2.9h4.4c1.7 0 2.5.7 2.5 2.2v1c0 .6-.1 1.1-.1 1.1h.1c.4-1 2.7-4.8 7.7-4.8 4.5 0 6.5 2.5 6.5 7.5v9.7h3.1v2.9h-6.9v-11.7c0-2.8-.5-4.9-3.7-4.9-4 0-6.6 3.6-6.6 7.5v6.2h3.1v2.9h-10l.1-2.8zM644.3 425.8h3.1v-13.8h-3.3v-2.9h7v16.8h3.1v2.9h-10l.1-3zm3-24.6h4v3.9h-4v-3.9zM655.4 409h8.8v2.9h-2.5l4.2 11.5c.3.9.4 1.8.4 1.8h.1s.1-1 .4-1.8l4.2-11.5h-2.5v-2.9h8.8v2.9h-2.5l-6.4 16.8h-4.2l-6.3-16.8h-2.5v-2.9z" enable-background="new"/><g enable-background="new" fill="#12C2EC"><path d="M689 408.5c5.6 0 8.5 4.1 8.5 9.2 0 .5-.1 1.4-.1 1.4h-14.4c.2 4.4 3.3 6.7 6.8 6.7 3.4 0 5.9-2.2 5.9-2.2l1.6 2.8s-3 2.7-7.7 2.7c-6.2 0-10.4-4.5-10.4-10.3 0-6.2 4.2-10.3 9.8-10.3zm4.7 8.3c-.1-3.5-2.2-5.3-4.7-5.3-2.9 0-5.2 1.9-5.8 5.2l10.5.1zM701.1 425.8h3v-13c0-.6-.3-.9-.9-.9h-2.5v-2.9h4.4c1.7 0 2.5.7 2.5 2.3v1.2c0 .8-.1 1.4-.1 1.4h.1c.9-2.9 3.2-5.1 6.2-5.1.5 0 1 .1 1 .1v3.7s-.5-.1-1.1-.1c-4.2 0-6 4.2-6 8.1v5.2h2.9v2.9h-9.6l.1-2.9zM717.2 422.4h3.3v1.3c0 1.7 2.3 2.5 4.5 2.5s4-.9 4-2.5c0-2-2.2-2.6-4.9-3.6-2.9-1.1-6.1-2.4-6.1-6 0-3.9 3.9-5.4 7.3-5.4 2.8 0 6.8 1.1 6.8 4v2.4h-3.3v-1.3c0-1.2-1.6-2-3.5-2s-3.5.8-3.5 2.4c0 1.9 2.2 2.6 4.5 3.5 3 1 6.5 2.3 6.5 6s-3.4 5.8-7.9 5.8c-3.6 0-7.7-1.6-7.7-4.7v-2.4z"/></g><path fill="#12C2EC" d="M736.2 425.8h3.1v-13.8h-3.3v-2.9h7v16.8h3.1v2.9h-10l.1-3zm3-24.5h4v3.9h-4v-3.9z" enable-background="new"/><g enable-background="new" fill="#12C2EC"><path d="M751.2 412h-3.3v-2.9h3.4v-5.4h3.7v5.4h4.7v2.9h-4.7v9.2c0 4 2.7 4.5 4.2 4.5h.9v3.2s-.5.1-1.4.1c-2.5 0-7.5-.8-7.5-7.4v-9.6zM766.5 433.8c1.7 0 3-1.2 3.6-2.7l.8-1.9-6.9-17.2h-2.5v-2.9h9v2.9h-2.6l4.4 11.7c.3.9.3 1.7.3 1.7h.1s.2-.9.5-1.7l4.4-11.7h-2.5v-2.9h8.7v2.9h-2.5l-7.8 19.9c-1.3 3.3-3.9 5.1-6.9 5.1-2.5 0-4.2-1.2-4.2-1.2l1.3-2.8c0-.2 1.1.8 2.8.8z"/></g><g enable-background="new" fill="#2D3D4A"><path d="M442 457.4v1.5c0 1.5 2 2.4 4.1 2.4 2.4 0 4.1-1.1 4.1-3.1 0-2.4-2.4-3.2-5-4.2-2.7-1-5.5-2.2-5.5-5.8 0-3.9 3.1-5.5 6.6-5.5 3.1 0 6.2 1.2 6.2 3.4v2.4h-2.7v-1.4c0-1.2-1.8-1.8-3.5-1.8-2 0-3.6.9-3.6 2.8 0 2.2 2.1 2.9 4.4 3.8 3 1.1 6 2.3 6 6.1 0 3.9-3.2 6-7 6-3.2 0-6.8-1.4-6.8-4.4v-2.2h2.7zM463.2 448.5c4.2 0 6.4 3.1 6.4 6.9 0 .4-.1 1.1-.1 1.1h-10.8c.2 3.3 2.5 5 5.1 5l4.4-1.7 1.2 2.1s-2.2 2-5.7 2c-4.6 0-7.8-3.4-7.8-7.7-.1-4.7 3.1-7.7 7.3-7.7zm3.5 6.2c-.1-2.6-1.7-3.9-3.5-3.9-2.2 0-3.9 1.5-4.3 3.9h7.8zM478.8 448.5c3.4 0 4.6 2.5 4.6 2.5h.1s-.1-.5-.1-1.1v-4.7h-2.5v-2.2h5.3v17.8c0 .4.2.6.6.6h1.5v2.2h-2.9c-1.3 0-1.8-.6-1.8-1.6v-.2c0-.5.1-.8.1-.8h-.1s-1.2 2.9-5 2.9c-4 0-6.4-3.2-6.4-7.7-.2-4.7 2.6-7.7 6.6-7.7zm.3 13c2.2 0 4.3-1.6 4.3-5.2 0-2.7-1.4-5.3-4.2-5.3-2.4 0-4.3 1.9-4.3 5.2 0 3.2 1.8 5.3 4.2 5.3zM498.9 445.2h-2.5v-2.2h5.3v6.8c0 .7-.1 1.2-.1 1.2h.1s1.3-2.6 4.8-2.6c4 0 6.5 3.2 6.5 7.7 0 4.7-2.8 7.7-6.7 7.7-3.4 0-4.7-2.7-4.7-2.7h-.1s.1.5.1 1.2v1.2h-2.7v-18.3zm7 16.3c2.3 0 4.2-1.9 4.2-5.2 0-3.2-1.7-5.3-4.2-5.3-2.2 0-4.3 1.5-4.3 5.3.1 2.6 1.4 5.2 4.3 5.2zM522.8 448.5c4.2 0 6.4 3.1 6.4 6.9 0 .4-.1 1.1-.1 1.1h-10.8c.2 3.3 2.5 5 5.1 5l4.4-1.7 1.2 2.1s-2.2 2-5.7 2c-4.6 0-7.8-3.4-7.8-7.7-.1-4.7 3.1-7.7 7.3-7.7zm3.5 6.2c-.1-2.6-1.7-3.9-3.5-3.9-2.2 0-3.9 1.5-4.3 3.9h7.8z"/></g><path fill="#2D3D4A" d="M539.9 454.6h.9v-.6c0-2.3-1.3-3.2-3.1-3.2-2.3 0-4.2 1.4-4.2 1.4l-1.1-2s2.2-1.7 5.6-1.7c3.8 0 5.7 2 5.7 5.7v6.6c0 .4.2.6.6.6h1.5v2.2h-2.9c-1.3 0-1.8-.6-1.8-1.6v-.2c0-.6.1-1 .1-1h-.1s-1.3 3.1-4.9 3.1c-2.5 0-4.9-1.4-4.9-4.5 0-4.5 6.2-4.8 8.6-4.8zm-3.1 7.2c2.5 0 4.1-2.6 4.1-4.8v-.6h-.7c-1.3 0-6 .1-6 2.9 0 1.3 1 2.5 2.6 2.5z" enable-background="new"/><g enable-background="new" fill="#2D3D4A"><path d="M549.4 451.1h-2.5v-2.2h2.5v-4.1h2.8v4.1h3.5v2.2h-3.5v6.9c0 3 2 3.4 3.1 3.4h.7v2.4s-.4.1-1 .1c-1.9 0-5.6-.6-5.6-5.5v-7.3zM559.9 451.1h-2.5v-2.2h5.3v8.9c0 2 .4 3.7 2.8 3.7 2.9 0 4.8-2.8 4.8-5.7v-4.6h-2.5v-2.2h5.3v12c0 .4.2.6.6.6h1.5v2.2h-3.1c-1.3 0-1.9-.6-1.9-1.6v-.6c0-.5.1-.9.1-.9h-.1c-.3.8-2 3.5-5.6 3.5-3.2 0-4.8-1.8-4.8-5.7l.1-7.4zM577.4 458.9h2.5v1c0 1.3 1.7 1.8 3.4 1.8s3-.7 3-1.9c0-1.5-1.6-2-3.7-2.7-2.2-.8-4.6-1.8-4.6-4.5 0-2.9 2.9-4.1 5.5-4.1 2.1 0 5.1.8 5.1 3v1.8h-2.5v-1c0-.9-1.2-1.5-2.6-1.5-1.4 0-2.6.6-2.6 1.8 0 1.4 1.6 2 3.4 2.6 2.3.8 4.9 1.7 4.9 4.5s-2.6 4.3-5.9 4.3c-2.7 0-5.8-1.2-5.8-3.5l-.1-1.6z"/></g><path fill="#2D3D4A" d="M597.8 448.9h6.6v2.2h-1.9l3.1 8.6c.2.6.3 1.4.3 1.4h.1s.1-.7.3-1.4l3.2-8.6h-1.9v-2.2h6.6v2.2h-1.8l-4.8 12.6h-3.2l-4.7-12.6h-1.9v-2.2zM623.5 448.6c4.4 0 8 3.2 8 7.7s-3.6 7.8-8 7.8-8-3.3-8-7.8 3.6-7.7 8-7.7zm0 13c2.8 0 5.1-2.2 5.1-5.3 0-3.1-2.3-5.3-5.1-5.3s-5.1 2.2-5.1 5.2c0 3.1 2.3 5.4 5.1 5.4zM635.2 445.3h-2.5v-2.2h5.3v16.2c0 1.3.3 2.1 1.6 2.1h.8v2.3s-.6.1-1.3.1c-2.1 0-3.9-.8-3.9-4.3v-14.2zM644.1 451.1h-2.5v-2.2h5.3v8.9c0 2 .4 3.7 2.8 3.7 2.9 0 4.8-2.8 4.8-5.7v-4.6h-2.5v-2.2h5.3v12c0 .4.2.6.6.6h1.5v2.2h-3.1c-1.3 0-1.9-.6-1.9-1.6v-.6c0-.5.1-.9.1-.9h-.1c-.3.8-2 3.5-5.6 3.5-3.2 0-4.8-1.8-4.8-5.7l.1-7.4zM661.9 461.5h2.3v-9.7c0-.4-.2-.6-.6-.6h-1.8v-2.2h3.3c1.3 0 1.9.6 1.9 1.6v.8c0 .5-.1.8-.1.8h.1c.3-.8 2-3.6 5.7-3.6 3.4 0 4.9 1.9 4.9 5.7v7.3h2.3v2.2h-5.2v-8.8c0-2.1-.4-3.7-2.8-3.7-3 0-4.9 2.7-4.9 5.7v4.7h2.3v2.2h-7.5l.1-2.4z" enable-background="new"/><g enable-background="new" fill="#2D3D4A"><path d="M683.4 451.1h-2.5v-2.2h2.5v-4.1h2.8v4.1h3.5v2.2h-3.5v6.9c0 3 2 3.4 3.1 3.4h.7v2.4s-.4.1-1 .1c-1.9 0-5.6-.6-5.6-5.5v-7.3zM700.4 454.6h.9v-.6c0-2.3-1.3-3.2-3.2-3.2-2.3 0-4.2 1.4-4.2 1.4l-1.1-2s2.2-1.7 5.6-1.7c3.8 0 5.7 2 5.7 5.7v6.6c0 .4.2.6.6.6h1.5v2.2h-2.9c-1.3 0-1.8-.6-1.8-1.6v-.2c0-.6.1-1 .1-1h-.1s-1.3 3.1-4.9 3.1c-2.5 0-4.9-1.4-4.9-4.5.1-4.5 6.3-4.8 8.7-4.8zm-3.1 7.3c2.5 0 4.1-2.6 4.1-4.8v-.6h-.7c-1.3 0-6 .1-6 2.9 0 1.3 1 2.5 2.6 2.5zM708.5 461.5h2.2v-9.7c0-.4-.2-.6-.6-.6h-1.8v-2.2h3.3c1.3 0 1.9.5 1.9 1.7v.9c0 .6-.1 1-.1 1h.1c.7-2.2 2.4-3.9 4.7-3.8.4 0 .7.1.7.1v2.8s-.4-.1-.8-.1c-3.2 0-4.5 3.2-4.5 6.1v3.9h2.2v2.2h-7.2v-2.3h-.1zM720.8 461.5h2.3v-10.4h-2.5v-2.2h5.3v12.6h2.3v2.2h-7.5v-2.2h.1zm2.3-18.4h3v2.9h-3v-2.9zM730.6 461.5h2.3v-10.4h-2.5v-2.2h5.3v12.6h2.3v2.2h-7.5l.1-2.2zm2.3-18.4h3v2.9h-3v-2.9zM740.2 459h2.5v1c0 1.3 1.7 1.8 3.4 1.8s3-.7 3-1.9c0-1.5-1.6-2-3.7-2.7-2.2-.8-4.6-1.8-4.6-4.5 0-2.9 2.9-4.1 5.5-4.1 2.1 0 5.1.8 5.1 3v1.8h-2.5v-1c0-.9-1.2-1.5-2.6-1.5-1.4 0-2.6.6-2.6 1.8 0 1.4 1.6 2 3.4 2.6 2.3.8 4.9 1.7 4.9 4.5s-2.6 4.3-5.9 4.3c-2.7 0-5.8-1.2-5.8-3.5l-.1-1.6zM755.2 460.7h3v3.1h-3v-3.1z"/></g><path fill="#067C70" d="M591.1 732.2c0 16.7-13.5 30.2-30.2 30.2s-30.2-13.5-30.2-30.2 13.5-30.2 30.2-30.2 30.2 13.5 30.2 30.2z"/><path fill="#E09A26" d="M591.1 837.2c0 16.7-13.5 30.2-30.2 30.2s-30.2-13.5-30.2-30.2 13.5-30.2 30.2-30.2 30.2 13.5 30.2 30.2z"/><circle fill="#A71E53" cx="560.9" cy="942.1" r="30.2"/><path fill="#CECECD" d="M133.3 643.7h151.1v18.1h-151.1zM133.3 857.5h186.5v18.1h-186.5zM632.4 699.8h372.7v18.1h-372.7z"/><path stroke="#CECECD" stroke-width="7.207" stroke-miterlimit="10" fill="none" d="M632.4 734h504.6M632.4 747.1h402.8"/><path fill="#CECECD" d="M68.2 907.5h261.7v18.1h-261.7z"/><path stroke="#CECECD" stroke-width="6.038" stroke-miterlimit="10" fill="none" d="M68.2 941.7h354.3M68.2 954.8h282.8"/><path stroke="#CECECD" stroke-width="5.496" stroke-miterlimit="10" fill="none" d="M68.2 966.6h234.3"/><path fill="#CECECD" d="M68.2 694.6h310.3v18.1h-310.3z"/><path stroke="#CECECD" stroke-width="5.131" stroke-miterlimit="10" fill="none" d="M68.2 728.8h255.8"/><path stroke="#CECECD" stroke-width="6.047" stroke-miterlimit="10" fill="none" d="M68.2 741.9h283.6"/><path stroke="#CECECD" stroke-width="5.908" stroke-miterlimit="10" fill="none" d="M68.2 753.7h270.8"/><path fill="#CECECD" d="M632.4 801.4h428.6v18.1h-428.6z"/><path stroke="#CECECD" stroke-width="7.207" stroke-miterlimit="10" fill="none" d="M632.4 835.7h504.6M632.4 848.7h169.2"/><path fill="#CECECD" d="M625.3 902.1h312.5v18.1h-312.5z"/><path stroke="#CECECD" stroke-width="7.207" stroke-miterlimit="10" fill="none" d="M625.3 936.3h504.6M625.3 949.4h503.2M625.3 964.5h86"/><path fill="#F58520" d="M513 629.6l4.8-6.1c2.3 2.1 5.5 3.3 8.8 3.3 3.7 0 5.5-1.8 5.5-3.9 0-2.3-1.8-3.9-5.3-3.9-2.7 0-4.8.8-6.7 2.5l-6.1-1.5v-20.1h24.6v7.6h-15.9v6.6c1.6-1.6 4.3-2.7 7.3-2.7 5.8 0 10.9 4.2 10.9 11 0 7.3-5.5 12-14.4 12-5.8.1-10.4-1.7-13.5-4.8zM548.4 641.1l-3.3-2.6c1.6-.8 3.8-3 4.3-4.8-.3.1-.7.2-1.2.2-2.2 0-4-1.7-4-4.2 0-2.6 2.1-4.7 4.7-4.7 2.7 0 5.2 2.1 5.2 5.9.1 4.1-2.1 7.7-5.7 10.2z" enable-background="new"/><g enable-background="new" fill="#F58520"><path d="M556.6 617c0-10.8 6.5-17.6 16.8-17.6 4 0 7.8 1.3 10.3 3.3l-3.8 6.7c-1.9-1.5-3.7-2.2-6.5-2.2-4.1 0-7.9 3-7.9 7.7v.4c1.7-2.2 4.9-3.9 8.3-3.9 6.1 0 11.8 3.9 11.8 11.1 0 7-5.7 11.9-13.5 11.9-10.9.1-15.5-7.7-15.5-17.4zm20.1 5.9c0-2.9-2.9-4-5.5-4-2.1 0-4.2.8-5.7 2.3.3 2.7 1.9 5.6 6 5.6 3.2 0 5.2-2 5.2-3.9zM587.5 629.2l4.4-6c2.4 2.4 6.3 3.6 9.3 3.6 3.8 0 5.7-1.4 5.7-3.3s-1.4-2.9-6.1-2.9c-1.5 0-4.1 0-4.6.1v-7.8c.7.1 3.3.1 4.6.1 3.5 0 5.5-.9 5.5-2.6 0-2.1-2.4-3.1-5.7-3.1-3.1 0-6.1 1.1-8.4 3.3l-4.2-5.5c2.9-3.2 7.3-5.5 13.6-5.5 8.7 0 13.5 3.7 13.5 9.3 0 4-3.4 7-7.4 7.6 3.6.4 8 3.2 8 8 0 6-5.6 10.1-14 10.1-6.7-.1-11.6-2.4-14.2-5.4zM623.4 633.9l11.5-26.3h-16.5v-7.6h26.6v6.1l-12 27.9-9.6-.1z"/></g><g enable-background="new" fill="#F58520"><path d="M518.9 658.3v-6c0-1.4-.7-1.8-1.8-1.8-1 0-1.8.6-2.2 1.2v6.6h-2.6v-13.6h2.6v5c.6-.8 1.9-1.5 3.5-1.5 2.2 0 3.2 1.2 3.2 3.1v7h-2.7zM523.4 653.4c0-2.8 2-5.2 5.2-5.2 3.3 0 5.2 2.4 5.2 5.2s-2 5.2-5.2 5.2c-3.2-.1-5.2-2.4-5.2-5.2zm7.7 0c0-1.5-.9-2.8-2.5-2.8s-2.5 1.3-2.5 2.8.9 2.9 2.5 2.9c1.6-.1 2.5-1.4 2.5-2.9zM542.4 658.3v-1.3c-.7.8-1.9 1.5-3.5 1.5-2.2 0-3.2-1.2-3.2-3.1v-7h2.6v6c0 1.4.7 1.8 1.8 1.8 1 0 1.8-.5 2.2-1.1v-6.7h2.6v9.8l-2.5.1zM547.5 658.3v-9.8h2.6v1.3c.7-.9 1.9-1.6 3.1-1.6v2.5c-.2 0-.4-.1-.7-.1-.9 0-2 .5-2.4 1.1v6.5l-2.6.1zM554 657l1.1-1.8c.7.7 2.2 1.3 3.4 1.3 1.1 0 1.6-.4 1.6-1.1 0-1.6-5.8-.3-5.8-4.2 0-1.6 1.4-3.1 4-3.1 1.7 0 3 .6 4 1.3l-1 1.8c-.6-.6-1.7-1.1-2.9-1.1-.9 0-1.5.4-1.5 1 0 1.5 5.8.2 5.8 4.2 0 1.8-1.5 3.2-4.3 3.2-1.7 0-3.4-.5-4.4-1.5z"/></g><g enable-background="new" fill="#F58520"><path d="M727.1 631.2l3.8-6.7c1.9 1.5 3.8 2.2 6.5 2.2 4.9 0 7.9-3.6 7.9-7.7v-.4c-1.7 2.2-4.9 3.9-8.3 3.9-6.1 0-11.8-4-11.8-11.2 0-7 5.7-11.9 13.5-11.9 10.7 0 15.4 7.7 15.4 17.5 0 10.8-6.5 17.6-16.8 17.6-3.9-.1-7.6-1.3-10.2-3.3zm18.3-18.5c-.2-2.7-1.9-5.6-6.1-5.6-3.2 0-5.1 2-5.1 3.9 0 2.9 2.9 4 5.5 4 2.1 0 4.2-.7 5.7-2.3zM756.9 624.9c0-3.9 3-7 6.9-8.6-3.6-1.4-6.3-3.8-6.3-7.9 0-6.6 7.2-9.1 13.8-9.1s13.8 2.5 13.8 9.1c0 4.1-2.7 6.5-6.4 7.9 3.9 1.5 6.9 4.7 6.9 8.6 0 6.6-7 9.6-14.4 9.6s-14.3-2.9-14.3-9.6zm19.9-1c0-2.1-3.4-3.3-5.5-3.6-2.2.3-5.5 1.5-5.5 3.6 0 2 2.2 3.3 5.5 3.3 3.2 0 5.5-1.3 5.5-3.3zm-.6-14.1c0-1.9-2-3.1-4.9-3.1-3 0-4.9 1.2-4.9 3.1 0 1.8 2.9 2.9 4.9 3.2 2.1-.3 4.9-1.4 4.9-3.2zM787.9 629.2l4.4-6c2.4 2.4 6.3 3.6 9.3 3.6 3.8 0 5.7-1.4 5.7-3.3s-1.4-2.9-6.1-2.9c-1.5 0-4.1 0-4.6.1v-7.8c.7.1 3.3.1 4.6.1 3.5 0 5.5-.9 5.5-2.6 0-2.1-2.4-3.1-5.7-3.1-3.1 0-6.1 1.1-8.5 3.3l-4.2-5.5c2.9-3.2 7.3-5.5 13.6-5.5 8.7 0 13.5 3.7 13.5 9.3 0 4-3.4 7-7.4 7.6 3.6.4 8 3.2 8 8 0 6-5.6 10.1-14 10.1-6.6-.1-11.5-2.4-14.1-5.4z"/></g><g enable-background="new" fill="#F58520"><path d="M737.7 658.3v-6.2c0-.9-.4-1.6-1.5-1.6-.9 0-1.7.6-2 1.1v6.6h-2.6v-6.2c0-.9-.4-1.6-1.5-1.6-.9 0-1.6.6-2 1.2v6.6h-2.6v-9.8h2.6v1.3c.4-.6 1.7-1.5 3.2-1.5 1.4 0 2.4.7 2.7 1.8.6-.9 1.9-1.8 3.4-1.8 1.8 0 2.9 1 2.9 3v7.1h-2.6zM742.2 653.4c0-2.8 2.1-5.2 5.1-5.2 2.9 0 4.9 2.2 4.9 5.4v.6h-7.3c.2 1.2 1.2 2.3 2.8 2.3.8 0 2-.4 2.6-1l1.1 1.7c-1 .9-2.5 1.4-4.1 1.4-2.9-.1-5.1-2.1-5.1-5.2zm5.1-3.1c-1.6 0-2.3 1.2-2.4 2.2h4.8c-.1-1-.7-2.2-2.4-2.2zM766.3 658.3v-6.2c0-.9-.4-1.6-1.5-1.6-.9 0-1.7.6-2 1.1v6.6h-2.6v-6.2c0-.9-.4-1.6-1.5-1.6-.9 0-1.6.6-2 1.2v6.6h-2.6v-9.8h2.6v1.3c.4-.6 1.7-1.5 3.2-1.5 1.4 0 2.4.7 2.7 1.8.6-.9 1.9-1.8 3.4-1.8 1.8 0 2.9 1 2.9 3v7.1h-2.6zM771.4 658.3v-13.6h2.6v5c.8-1 1.9-1.5 3-1.5 2.5 0 4.4 2 4.4 5.2 0 3.3-1.9 5.1-4.4 5.1-1.2 0-2.3-.5-3-1.5v1.3h-2.6zm4.8-2.1c1.5 0 2.5-1.1 2.5-2.8s-1-2.9-2.5-2.9c-.8 0-1.8.5-2.2 1.1v3.5c.4.7 1.4 1.1 2.2 1.1zM782.7 653.4c0-2.8 2.1-5.2 5.1-5.2 2.9 0 4.9 2.2 4.9 5.4v.6h-7.3c.2 1.2 1.2 2.3 2.8 2.3.8 0 2-.4 2.6-1l1.1 1.7c-1 .9-2.5 1.4-4.1 1.4-2.8-.1-5.1-2.1-5.1-5.2zm5.1-3.1c-1.6 0-2.3 1.2-2.4 2.2h4.8c0-1-.7-2.2-2.4-2.2zM794.6 658.3v-9.8h2.6v1.3c.7-.9 1.9-1.6 3.1-1.6v2.5c-.2 0-.4-.1-.7-.1-.9 0-2 .5-2.4 1.1v6.5l-2.6.1zM801.1 657l1.1-1.8c.7.7 2.2 1.3 3.4 1.3 1.1 0 1.6-.4 1.6-1.1 0-1.6-5.8-.3-5.8-4.2 0-1.6 1.4-3.1 4-3.1 1.7 0 3 .6 4 1.3l-1 1.8c-.6-.6-1.7-1.1-2.9-1.1-.9 0-1.5.4-1.5 1 0 1.5 5.8.2 5.8 4.2 0 1.8-1.5 3.2-4.3 3.2-1.7 0-3.4-.5-4.4-1.5z"/></g><g enable-background="new" fill="#F58520"><path d="M935.2 634.3c-5.4-.5-9.3-2.4-12.2-5.2l4.6-6.6c2.4 2.4 6.2 4.5 10.8 4.5 3 0 4.8-1.2 4.8-2.8 0-4.6-19.2-.9-19.2-14 0-5.1 3.9-9.8 11.1-10.6v-4.8h5.7v4.8c4.1.6 7.6 2.1 10.5 4.5l-4.8 6.3c-2.9-2.3-6.6-3.5-9.9-3.5-2.5 0-3.7 1-3.7 2.4 0 4.3 19.2 1.2 19.2 13.8 0 6.1-4 10.4-11.4 11.2v4.6h-5.7v-4.6h.2zM964.6 633.9v-22.8l-5.7 5.8-5-5.2 11.9-11.7h7.6v34l-8.8-.1zM978.6 633.9v-6.8c14.7-10.6 17.5-13 17.5-16.3 0-2.3-2.2-3.6-4.7-3.6-3.8 0-6.6 1.4-9.1 3.7l-4.8-5.8c3.6-4 9-5.7 13.7-5.7 8 0 13.7 4.5 13.7 11.3 0 5.2-3.7 9.6-12.2 15.5h12.4v7.6l-26.5.1zM1024.6 633.9v-6.2h-16.2v-6.8l12.9-20.9h12.2v20h4.1v7.7h-4.1v6.2h-8.9zm0-26.3l-7.7 12.4h7.7v-12.4zM1044.7 641.1l-3.3-2.6c1.6-.8 3.8-3 4.3-4.8-.3.1-.7.2-1.2.2-2.2 0-4-1.7-4-4.2 0-2.6 2.1-4.7 4.7-4.7 2.7 0 5.2 2.1 5.2 5.9.1 4.1-2.1 7.7-5.7 10.2zM1053.6 624.9c0-3.9 3-7 6.9-8.6-3.6-1.4-6.3-3.8-6.3-7.9 0-6.6 7.2-9.1 13.8-9.1 6.6 0 13.8 2.5 13.8 9.1 0 4.1-2.7 6.5-6.4 7.9 3.9 1.5 6.9 4.7 6.9 8.6 0 6.6-7 9.6-14.4 9.6s-14.3-2.9-14.3-9.6zm19.9-1c0-2.1-3.4-3.3-5.5-3.6-2.2.3-5.5 1.5-5.5 3.6 0 2 2.2 3.3 5.5 3.3 3.1 0 5.5-1.3 5.5-3.3zm-.6-14.1c0-1.9-2-3.1-4.9-3.1-3 0-4.9 1.2-4.9 3.1 0 1.8 2.9 2.9 4.9 3.2 2.1-.3 4.9-1.4 4.9-3.2zM1085 616.9c0-9 4.6-17.5 14.6-17.5 9.9 0 14.6 8.6 14.6 17.5s-4.6 17.6-14.6 17.6c-9.9 0-14.6-8.6-14.6-17.6zm20.3 0c0-6-1.6-9.8-5.7-9.8s-5.7 3.8-5.7 9.8 1.6 9.8 5.7 9.8 5.7-3.8 5.7-9.8zM1116.8 617c0-10.8 6.5-17.6 16.8-17.6 4 0 7.8 1.3 10.3 3.3l-3.8 6.7c-1.9-1.5-3.7-2.2-6.5-2.2-4.1 0-7.9 3-7.9 7.7v.4c1.7-2.2 4.9-3.9 8.3-3.9 6.1 0 11.8 3.9 11.8 11.1 0 7-5.7 11.9-13.5 11.9-10.8.1-15.5-7.7-15.5-17.4zm20.1 5.9c0-2.9-2.9-4-5.5-4-2.1 0-4.2.8-5.7 2.3.3 2.7 1.9 5.6 6 5.6 3.2 0 5.2-2 5.2-3.9z"/></g><g enable-background="new" fill="#F58520"><path d="M925.6 658.3l-3.9-9.8h2.8l2.6 6.8 2.6-6.8h2.8l-3.9 9.8h-3zM939.4 658.3v-1c-.7.8-1.8 1.3-3.1 1.3-1.6 0-3.4-1.1-3.4-3.3 0-2.3 1.9-3.2 3.4-3.2 1.3 0 2.5.4 3.1 1.2v-1.3c0-1-.9-1.6-2.2-1.6-1.1 0-2 .4-2.9 1.2l-1-1.7c1.2-1.1 2.7-1.5 4.3-1.5 2.2 0 4.3.9 4.3 3.7v6.4h-2.5v-.2zm0-2.4v-1.2c-.4-.6-1.2-.9-2.1-.9-1 0-1.9.5-1.9 1.5 0 .9.8 1.4 1.9 1.4.9.1 1.7-.2 2.1-.8zM944.6 658.3v-13.6h2.6v13.6h-2.6zM956.4 658.3v-1.3c-.7.8-1.9 1.5-3.5 1.5-2.2 0-3.2-1.2-3.2-3.1v-7h2.6v6c0 1.4.7 1.8 1.8 1.8 1 0 1.8-.5 2.2-1.1v-6.7h2.6v9.8l-2.5.1zM960.9 653.4c0-2.8 2.1-5.2 5.1-5.2 2.9 0 4.9 2.2 4.9 5.4v.6h-7.3c.2 1.2 1.2 2.3 2.8 2.3.8 0 2-.4 2.6-1l1.1 1.7c-1 .9-2.5 1.4-4.1 1.4-2.9-.1-5.1-2.1-5.1-5.2zm5.1-3.1c-1.6 0-2.3 1.2-2.4 2.2h4.8c-.1-1-.7-2.2-2.4-2.2zM977.4 653.4c0-2.8 2-5.2 5.2-5.2 3.3 0 5.2 2.4 5.2 5.2s-2 5.2-5.2 5.2c-3.3-.1-5.2-2.4-5.2-5.2zm7.7 0c0-1.5-.9-2.8-2.5-2.8s-2.5 1.3-2.5 2.8.9 2.9 2.5 2.9 2.5-1.4 2.5-2.9zM990.2 658.3v-7.6h-1.6v-2.3h1.6v-.5c0-2.1 1.3-3.4 3.3-3.4.9 0 1.9.2 2.6.9l-1 1.5c-.3-.3-.6-.4-1.1-.4-.7 0-1.2.5-1.2 1.4v.5h2v2.3h-2v7.6h-2.6zM1008.2 658.3v-6c0-1.4-.7-1.8-1.8-1.8-1 0-1.8.6-2.2 1.2v6.6h-2.6v-13.6h2.6v5c.6-.8 1.9-1.5 3.5-1.5 2.2 0 3.2 1.2 3.2 3.1v7h-2.7zM1012.7 653.4c0-2.8 2-5.2 5.2-5.2 3.3 0 5.2 2.4 5.2 5.2s-2 5.2-5.2 5.2c-3.2-.1-5.2-2.4-5.2-5.2zm7.7 0c0-1.5-.9-2.8-2.5-2.8s-2.5 1.3-2.5 2.8.9 2.9 2.5 2.9 2.5-1.4 2.5-2.9zM1031.7 658.3v-1.3c-.7.8-1.9 1.5-3.5 1.5-2.2 0-3.2-1.2-3.2-3.1v-7h2.6v6c0 1.4.7 1.8 1.8 1.8 1 0 1.8-.5 2.2-1.1v-6.7h2.6v9.8l-2.5.1zM1036.8 658.3v-9.8h2.6v1.3c.7-.9 1.9-1.6 3.1-1.6v2.5c-.2 0-.4-.1-.7-.1-.9 0-2 .5-2.4 1.1v6.5l-2.6.1zM1043.3 657l1.1-1.8c.7.7 2.2 1.3 3.4 1.3 1.1 0 1.6-.4 1.6-1.1 0-1.6-5.8-.3-5.8-4.2 0-1.6 1.4-3.1 4-3.1 1.7 0 3 .6 4 1.3l-1 1.8c-.6-.6-1.7-1.1-2.9-1.1-.9 0-1.5.4-1.5 1 0 1.5 5.8.2 5.8 4.2 0 1.8-1.5 3.2-4.3 3.2-1.7 0-3.4-.5-4.4-1.5z"/></g><path stroke="#12C2EB" stroke-miterlimit="10" d="M457.3 775c0 3.3-2.7 6-6 6h-404.2c-3.3 0-6-2.7-6-6v-164.9c0-3.3 2.7-6 6-6h404.2c3.3 0 6 2.7 6 6v164.9zM457.3 985c0 3.3-2.7 6-6 6h-404.2c-3.3 0-6-2.7-6-6v-164.9c0-3.3 2.7-6 6-6h404.2c3.3 0 6 2.7 6 6v164.9zM1166 985c0 3.3-2.7 6-6 6h-664.2c-3.3 0-6-2.7-6-6v-304.9c0-3.3 2.7-6 6-6h664.2c3.3 0 6 2.7 6 6v304.9z" fill="none"/><path fill="#12C2EB" d="M1200 1031v144.7c0 12.3-10 22.3-22.3 22.3h-1155.5c-12.2 0-22.2-9.9-22.2-22.2v-144.8h1200zM1196 166.2v866.8h-1192v-866.8h1192m4-4h-1200v874.8h1200v-874.8z"/><path fill="#12C2EB" d="M92.8 670.6c-1 1.1-2.8 1.1-3.8 0l-16.8-17.6c-4.3-4.3-4.3-11.3 0-15.6s11.3-4.3 15.6 0l3.2 3.9 3.2-3.9c4.3-4.3 11.3-4.3 15.6 0 4.3 4.3 4.3 11.3 0 15.6l-17 17.6z"/><path fill="#12C2EB" d="M105 847.5c-1.4 0-12.6.1-19.2 4.7-6.7-4.6-17.9-4.7-19.2-4.7-1.6 0-2.8 1.2-2.8 2.8v33c0 1.5 1.3 2.8 2.8 2.8 3.3 0 12.2.7 16.5 4 .3.2.6.5.8.7l1 1c.5.5 1.4.5 2 0l1-1c.2-.2.5-.5.8-.7 4.3-3.2 13.2-4 16.5-4 1.6 0 2.8-1.2 2.8-2.8v-33c-.3-1.5-1.5-2.8-3-2.8zm-34.4 8.4c2.3.3 7.1 1 11.1 2.1.7.2 1.3 1 1.3 1.8v3c0 .8-.6 1.2-1.3.9-4.2-1.3-8.8-2.1-11.1-2.4-.8-.1-1.4-.7-1.4-1.5v-2.8c0-.6.6-1.2 1.4-1.1zm11.1 16.2c-4.2-1.3-8.8-2.1-11.1-2.4-.8-.1-1.4-.7-1.4-1.5v-2.8c0-.8.6-1.3 1.4-1.2 2.3.3 7.1 1 11.1 2.1.7.2 1.3 1 1.3 1.8v3c0 .8-.6 1.2-1.3 1zm8.1-14c3.9-1.1 8.8-1.8 11.1-2.1.8-.1 1.4.5 1.4 1.2v2.8c0 .8-.6 1.4-1.4 1.5-2.3.3-7.1 1.1-11.1 2.3-.7.2-1.3-.2-1.3-.9v-3c0-.8.6-1.6 1.3-1.8zm11.1 11.6c-2.3.3-7.1 1.1-11.1 2.3-.7.2-1.3-.2-1.3-.9v-3c0-.8.6-1.6 1.3-1.8 3.9-1.1 8.8-1.8 11.1-2.1.8-.1 1.4.5 1.4 1.2v2.8c-.1.7-.7 1.4-1.4 1.5z"/><path opacity=".4" fill="#A4DCEA" enable-background="new" d="M679.3 220.6l-.3-1.5-1.4-.8c-23.6-13.4-49.7-20.2-77.7-20.2-45.8 0-80.2 18.1-81.6 18.9l-1.6.9-.2 1.8c-12.6 132.3 80 159.2 81 159.5l1.1.3 1.1-.4c102.8-39 79.8-157.3 79.6-158.5z"/><path fill="#A4DCEA" d="M597.7 208.8c-40.7.6-71.2 16.9-71.2 16.9-2.3 24.3-.7 44.6 3.3 61.5h67.9v-78.4z"/><path fill="#077BA0" d="M668.3 287.2c7-32.1 1.3-60.3 1.3-60.3-24.8-14.1-49.8-18.4-71.9-18.1v78.4h70.6zM529.8 287.2c14.6 62.2 61.4 79.2 67.9 81.3v-81.3h-67.9z"/><path fill="#A4DCEA" d="M597.7 287.2v81.3c.5.2.8.3.8.3 45.1-17.1 63.2-51.1 69.8-81.5l-70.6-.1z"/><path fill="#fff" d="M598.7 372.1l-1-.3c-.9-.3-85.8-25-74.3-146.4l.2-1.7 1.5-.8c1.3-.7 32.8-17.3 74.9-17.3 25.6 0 49.6 6.3 71.3 18.5l1.3.7.3 1.4c.2 1.1 21.3 109.6-73 145.5l-1.2.4zm-69.2-144.3c-9.5 107.8 59.9 134.6 68.9 137.6 82.4-32.1 70.3-123.9 68.3-136.5-20.3-11.2-42.8-17-66.8-17-35.5.1-63.7 12.6-70.4 15.9zM598.2 331.8c-12.5 0-23.1-4.8-29.3-13.2-4-5.5-6.1-12.8-6.1-21.7v-39h-10.2v-15.3h38.4v15.3h-10.3v38.9c0 4.8.9 8.8 2.6 11.5 2.7 4.3 8.1 6.8 14.8 6.8s12.1-2.5 14.8-7c1.7-2.9 2.6-6.9 2.6-11.5v-38.8h-10.3v-15.3h38.3v15.3h-10.1v39c0 8.2-2.2 16-6.2 21.7-5.9 8.4-16.5 13.3-29 13.3z"/><path fill="#004F6E" d="M640.4 245.9v8.8h-10.1v42.2c0 7.7-2.1 14.7-5.6 19.8-5.5 7.8-15.4 11.8-26.5 11.8-11.5 0-21.2-4.4-26.7-11.8-3.8-5.2-5.4-12-5.4-19.8v-42.2h-10.3v-8.8h32v8.8h-10.3v42c0 5.3 1 9.9 3.1 13.2 3.4 5.3 9.7 8.3 17.5 8.3 7.7 0 14.2-3 17.5-8.5 1.9-3.4 3.1-7.8 3.1-13.1v-41.9h-10.3v-8.8h32m6.4-6.4h-44.699999999999996v21.6h10.3v35.5c0 3.9-.8 7.4-2.2 9.9-2.1 3.5-6.5 5.4-12 5.4s-10-1.9-12.1-5.3c-1.4-2.2-2.1-5.7-2.1-9.9v-35.7h10.3v-21.6h-44.8v21.6h10.3v35.8c0 9.6 2.2 17.5 6.7 23.6 6.8 9.2 18.4 14.5 31.9 14.5 13.6 0 25.2-5.3 31.7-14.5 4.4-6.3 6.8-14.6 6.8-23.5v-35.8h10.2v-15.3l-.3-6.3z"/><path fill="#553184" d="M755.6 547.9c0 3.3-2.7 6-6 6h-304.1c-3.3 0-6-2.7-6-6v-48.8c0-3.3 2.7-6 6-6h304.1c3.3 0 6 2.7 6 6v48.8z"/><path fill="#725CA8" d="M755.6 544.9c0 3.3-2.7 6-6 6h-304.1c-3.3 0-6-2.7-6-6v-48.8c0-3.3 2.7-6 6-6h304.1c3.3 0 6 2.7 6 6v48.8z"/><g enable-background="new" fill="#fff"><path d="M532.9 530.2l2.1-3.7c.9.9 2 1.6 3.6 1.6 2.1 0 3.5-1.4 3.5-3.6v-15.2h4.8v15.2c0 5.4-3.3 7.9-8 7.9-2.2 0-4.3-.6-6-2.2zM550.4 520.7c0-6.8 5-11.7 11.8-11.7 6.9 0 11.9 4.9 11.9 11.7s-5 11.7-11.9 11.7c-6.8 0-11.8-4.9-11.8-11.7zm18.7 0c0-4.2-2.7-7.4-6.9-7.4s-6.9 3.2-6.9 7.4 2.7 7.4 6.9 7.4 6.9-3.2 6.9-7.4zM577.5 532v-22.7h4.8v22.7h-4.8zM602.4 532l-10.8-14.8v14.8h-4.8v-22.7h5l10.5 14.2v-14.2h4.8v22.7h-4.7zM620.3 523v-13.6h4.9v13.5c0 3.2 1.8 5.3 5.3 5.3s5.3-2.2 5.3-5.3v-13.5h4.9v13.6c0 5.6-3.3 9.5-10.2 9.5s-10.2-4-10.2-9.5zM643.7 528.8l2.6-3.7c1.6 1.7 4.1 3.1 7.2 3.1 2.7 0 3.9-1.2 3.9-2.5 0-4-13.1-1.3-13.1-9.8 0-3.8 3.3-6.9 8.6-6.9 3.6 0 6.6 1.1 8.8 3.2l-2.7 3.5c-1.8-1.7-4.3-2.5-6.6-2.5-2.1 0-3.2.9-3.2 2.3 0 3.6 13 1.2 13 9.7 0 4.1-3 7.3-9.1 7.3-4.2-.1-7.3-1.6-9.4-3.7z"/></g></g><linearGradient gradientUnits="userSpaceOnUse" x1="636" y1="594.2" x2="636" y2="145" gradientTransform="translate(0 1802)"><stop offset="0" stop-color="#fff"/><stop offset=".629" stop-color="#fff" stop-opacity="0"/></linearGradient></svg>