<svg xmlns="http://www.w3.org/2000/svg" xmlns:xlink="http://www.w3.org/1999/xlink" viewBox="0 0 1200 1200" enable-background="new 0 0 1200 1200"><path fill="#62995F" d="M1200 600c0 331.2-268.8 600-600 600s-600-268.8-600-600 268.8-600 600-600 600 268.8 600 600z"/><defs><circle id="a" cx="571.2" cy="551.6" r="287.6"/></defs><clipPath id="b"><use xlink:href="#a" overflow="visible"/></clipPath><path clip-path="url(#b)" fill="#fff" d="M943.6 563.6l10-42.4c-1.2-.4-75.2-18.4-163.6-52.8.8-32.8-2-67.2-7.6-102.8-4.8-29.6-11.2-56-17.2-78 13.2-2 21.2-2.4 21.6-2.4l-3.2-43.2c-1.2 0-12 .8-30 3.6l-2-1.2c-5.6-15.6-9.6-24.8-10-25.6l-40 17.2c0 .4 2.8 6.8 6.8 18-22.4 4.8-48 11.6-75.6 21.2-36.4 12.8-70 28.4-100 46-73.2-58.4-123.2-112-124-112.8l-32 29.6c2.8 3.2 49.2 52.4 118 108.4-34.4 25.6-62.8 55.2-84.8 88l-104-59.6-21.6 37.6 104 59.6c-17.2 35.6-28 74-31.6 115.2-90.8-35.2-152.4-44.4-156-45.2l-6.4 43.2c.8 0 65.6 10 160.8 48.4.8 32.8 5.6 66.4 14.4 101.2 6.4 24.4 13.6 46 21.2 65.2-7.2.4-11.2.4-11.6.4v43.6c2 0 12.8 0 30-1.6 8.4 16.8 14.4 26.8 14.8 27.6l37.2-22.8c0-.4-2.4-4.4-6-11.2 44.4-7.6 102-23.2 157.2-54.4 80.8 62.8 123.2 114.4 124 114.8l34-27.2c-2.4-3.2-42.4-51.6-118.8-112.8 30.8-22.4 59.2-50.8 82.4-86.4l106.8 61.2 21.6-37.6-108-61.6c16.8-35.6 27.6-75.2 32.4-118 84.4 32 152.4 48.8 156.8 49.6zm-197.2-113.2c-24-10.4-48.4-22-72-34.8l54.4-94.4c9.2 36.8 16.8 81.6 17.6 129.2zm-100-134c14.8-5.2 29.2-9.6 42.8-13.2l-52.4 91.2c-22.8-14-45.2-29.2-66-44.4 26.4-14.4 52.4-25.6 75.6-33.6zm-115.6 58c26 19.6 54.4 39.6 84.4 57.6l-52 90.4-115.2-66.4c23.2-33.2 52-60.4 82.8-81.6zm-104.4 119.2l115.2 66.4-51.6 89.6c-32-17.6-62.4-32.4-90.8-44.8 2-36.8 10-74.4 27.2-111.2zm42 193.6l-44 76.8c-10.8-31.6-20.8-69.6-24.4-111.2 22 10 44.8 21.2 68.4 34.4zm40 90.8c-17.2 5.2-34 9.2-49.2 12.4l47.2-81.6c24.4 14.8 46.8 29.2 67.2 44-20.4 9.6-42 18.4-65.2 25.2zm106.4-49.2c-26-18.8-54.8-38.4-86.8-57.6l51.6-89.6 116.4 66.8c-21.2 31.2-48 58.4-81.2 80.4zm102-118.4l-116-66.4 52-90.4c30.4 16.4 62 31.2 92 43.6-2.8 38.4-11.6 76.8-28 113.2z"/><path fill="#fff" d="M571.2 871.2c-55.6 0-110.4-14.8-158.8-42.4-74-42.4-126.8-111.2-149.2-193.6-22.4-82.4-11.2-168.4 31.6-242 56.8-98.8 162.8-160 276.8-160 55.6 0 110.4 14.8 158.8 42.4 152.4 87.6 205.2 283.2 117.6 435.6-56.8 98.4-162.8 160-276.8 160zm.4-594.8c-98.4 0-190 53.2-239.2 138.4-36.8 64-46.4 138-27.2 209.2 19.2 71.2 64.8 130.4 128.8 167.2 42 24 89.2 36.8 137.2 36.8 98.4 0 190-52.8 239.2-138.4 75.6-131.6 30.4-300.8-101.6-376.4-42-24.4-89.2-36.8-137.2-36.8z"/><g fill="#fff"><path d="M572.4 923.6c-63.2 0-126-16.4-181.2-47.2l-9.6-5.2 363.2-652.8 9.6 5.2c180 100 244.8 328 144.8 508-66 118.4-191.2 192-326.8 192zm-161.2-61.2c50 25.6 105.2 39.2 161.2 39.2 127.6 0 245.6-69.2 307.6-180.8 92.4-166.4 35.6-376-126.8-473.2l-342 614.8zM790.4 206.4c0 14.8-12 26.8-26.8 26.8s-26.8-12-26.8-26.8 12-26.8 26.8-26.8 26.8 12 26.8 26.8zM406.4 891.2c0 15.2-12.4 27.6-27.6 27.6s-27.6-12.4-27.6-27.6c0-15.2 12.4-28 27.6-28s27.6 12.4 27.6 28zM536.4 911.6h45.6v64.8h-45.6zM709.6 1013.2c0 4-3.2 7.2-7.2 7.2h-286.8c-4 0-7.2-3.2-7.2-7.2v-36.4c0-4 3.2-7.2 7.2-7.2h286.8c4 0 7.2 3.2 7.2 7.2v36.4z"/></g></svg>